<svg xmlns="http://www.w3.org/2000/svg" viewBox="0 0 376.31 197.2"><defs><style>.cls-1{fill:#fff}.cls-2{fill:#0c0c0c}</style></defs><g id="Layer_2" data-name="Layer 2"><g id="Layer_1-2" data-name="Layer 1"><path class="cls-1" d="M62.59 158.06a7.16 7.16 0 0 0 .72 3.56c.25 1 .28 1.44 2.46 3.51 4.34 4.11 12.47 4.89 19.7 4.93 8.48 0 25.54-5.26 30.83-10l5.73-8.65c-1 .49-1.09 1.09-1.44 1.53-.62.8-1 1.37-1.43 2-.59.84-.86 1.59-1.43 2.55-.39.65-1.21 1.42-1.21 2.31 0 2.34 0 4.79 1.66 6.84 1.46 1.86 4 3.15 6.69 4.16 15.69 6 26.15 4.6 43.7 2.46a54 54 0 0 0 17.27-5.18 15.83 15.83 0 0 0 5.88-5 9 9 0 0 0 1.15-8.19c-.52-1.54-1.77-6.18-2.51-6.9l3.28 10.53c10.2 1 19.77-.16 28.25-4.3s14.06-11.58 12.5-18.8c-1.27-5.85-6.79-10.78-12.78-14.9-12.64-8.7-30.08-15.39-47.34-13a25.3 25.3 0 0 0-8.18 2.35l11.08-2.76c10.12-5 8.41-14.6 4.58-22.92-2-4.42-12-11.31-22.49-13.71-9.24-2.11-19.85-.14-22.19 1.53l-1.24 7.59c1.45-7.22 2.09-15.9-6.22-20.36-3.62-2-8.31-2.65-12.87-3-20.36-1.51-40.67 3.69-57 12.19-3.32 1.73-5.72 2.54-8.59 4.58C40.58 80.61 36.3 86.06 36.81 98l14.52 4a56.15 56.15 0 0 0-12.07-3c-8.1-1.36-17.49 2.59-23.93 6.15-1.39.77-5.08 4.44-7.82 7-4.39 4.08-7.78 9.1-6.66 14.17s6.73 7.72 13.76 8.87a32.38 32.38 0 0 0 7.88-1c4.05-.92 8.12-3.28 9.31-3.56l-7.16 3c-5 3.05-6.63 9.38-6.3 13.14s2.35 7.61 6.91 10.4c6.17 3.77 16.36 5.07 25.29 3.89s21.69-8.55 27.09-12.68"/><path class="cls-2" d="M61.84 158.06c.55 15 23.67 13.67 33.76 11.35 6.51-1.49 15.25-3.59 20.44-8.15 2.78-2.44 4.6-6.36 6.63-9.44.51-.76-.56-1.41-1.17-.91-6.46 5.26-8.12 14.82-.09 19.23 9.74 5.35 21.94 6.29 32.79 5.49 11.14-.83 24.67-1.5 34.13-8.14 6.7-4.7 7.17-13.22 2.68-19.84-.45-.67-1.64-.28-1.37.58l3.28 10.53a.76.76 0 0 0 .72.55c11.63 1 24.81-.32 34.23-7.94 7.38-6 10-14.89 3.91-22.79-7.05-9.19-19.53-15.35-30.29-18.89-11.07-3.63-24.86-5.43-35.78-.39-.79.36-.22 1.57.58 1.37 6-1.49 13-2 16.88-7.37 4.77-6.56 1.81-17.69-3.58-23C171.1 71.88 158 68 146.31 69.09c-2.4.22-8.33.31-9.89 2.62-1.18 1.74-1 5.68-1.31 7.77-.16.94 1.26 1.35 1.44.4 1.69-8.79 1.15-18-8.14-22-6.27-2.7-13.94-2.7-20.64-2.57A105.46 105.46 0 0 0 86.53 58C73.47 60.91 59 66.13 48.24 74.3 40 80.58 35.78 87.52 36.06 98a.78.78 0 0 0 .55.73l14.52 4c.95.26 1.28-1.11.4-1.45-10.1-3.84-19.79-4.23-29.81-.07-7.86 3.26-16.23 9.54-20.24 17.24-3.35 6.46-.83 12.55 5.62 15.4 9.08 4.07 16.23.42 24.9-2.54l-.58-1.37c-5.43 2.31-10.27 3.85-12.65 9.8-3 7.52.17 14.95 7.23 18.73 17.13 9.14 37.72 1.23 52-9.43.76-.57 0-1.88-.76-1.3-12.72 9.5-28 15.7-44 11.78-8.89-2.18-16.89-9-13.26-18.82 2.17-5.86 7-7.26 12.18-9.47.78-.33.23-1.64-.57-1.37-6.66 2.27-12.64 5.75-19.92 3.94-4.07-1-9.15-3.1-10.11-7.7-1-5 2.57-9.59 5.89-12.87 5.42-5.36 10.55-9.29 17.86-11.77 8.65-2.94 17.37-1.93 25.81 1.29l.4-1.45-8.67-2.38c-1.33-.37-3.52-.54-4.69-1.29-.08 0-1-.17-1.08-.3a28.81 28.81 0 0 0 .51-3.5c1-13.89 14.28-20.75 25.43-26.12a108.57 108.57 0 0 1 44.74-10.86c7.3-.14 16.38-.35 22.7 3.85s5.91 12.14 4.64 18.78l1.44.4c.32-2 .24-4.61 1-6.4 1.11-2.5 6-2.65 8.71-2.89 11.08-1 22.92 2.45 31.32 9.92 6.49 5.78 9.54 18.72 1.59 24.52-3.66 2.66-9 3.11-13.33 4.19l.58 1.37c12-5.55 27.6-2.48 39.35 2.29C215.5 116.8 234 125.61 233.9 138c-.09 14.12-19.51 19.48-30.58 20-1.44.07-2.89.1-4.34.07-.25 0-4.5.23-4.65.14-.44-.28-.76-2.43-.9-2.91l-2.34-7.52-1.38.58a21.66 21.66 0 0 1 2.91 9.3c.16 6.22-6.35 9.7-11.3 11.63-8.12 3.16-16.95 3.92-25.56 4.66-7.65.66-15.23.56-22.72-1.32-3.78-.94-9.18-2.16-12.26-4.65-5.58-4.51-3.08-12.1 1.78-16.06l-1.18-.91c-1.77 2.67-3.33 5.92-5.48 8.28-3.57 3.92-10.47 5.73-15.36 7.2-9.56 2.88-36.62 7.25-37.2-8.48 0-1-1.54-1-1.5 0z"/><path class="cls-1" d="M334.08 69.5a4.93 4.93 0 0 1-.48 2.39c-.17.68-.19 1-1.66 2.36-2.9 2.75-8.36 3.28-13.21 3.3-5.73.03-17.14-3.55-20.73-6.68l-3.84-5.81c.66.33.73.74 1 1 .42.54.65.92 1 1.36s.58 1.07 1 1.71c.26.44.81 1 .82 1.55a6.93 6.93 0 0 1-1.12 4.59 10.43 10.43 0 0 1-4.49 2.8c-10.52 4-17.54 3.08-29.32 1.64a36 36 0 0 1-11.59-3.47 10.73 10.73 0 0 1-3.95-3.37 6 6 0 0 1-.76-5.5c.35-1 1.19-4.15 1.68-4.63l-2.2 7.07c-6.84.65-13.27-.11-19-2.89s-9.43-7.76-8.38-12.61c.85-3.93 4.55-7.23 8.57-10 8.48-5.83 20.18-10.32 31.76-8.69a17 17 0 0 1 5.49 1.57l-7.43-1.85c-6.79-3.34-5.65-9.79-3.08-15.37 1.37-3 8-7.59 15.09-9.2 6.21-1.42 13.32-.1 14.9 1l.83 5.09c-1-4.84-1.41-10.66 4.17-13.66 2.43-1.31 5.58-1.77 8.63-2A72.9 72.9 0 0 1 336 9.43a44.24 44.24 0 0 1 5.77 3.07c7.08 5 10 8.69 9.61 16.73l-9.75 2.68a37.68 37.68 0 0 1 8.1-2c5.44-.91 11.74 1.74 16.06 4.13a54.37 54.37 0 0 1 5.21 4.65c3 2.73 5.23 6.11 4.48 9.51s-4.52 5.17-9.24 5.94a20.73 20.73 0 0 1-5.28-.68c-2.72-.62-5.45-2.2-6.25-2.39l4.81 2c3.36 2.05 4.44 6.29 4.22 8.82a9 9 0 0 1-4.64 7c-4.14 2.54-11 3.4-17 2.62S327.61 65.78 324 63"/><path class="cls-2" d="M333.33 69.5c-1 10.33-18.25 7.41-24.88 5.39-3.34-1-7.69-2.24-10.09-4.91a42.93 42.93 0 0 1-3.51-5.29l-1.18.9a9.76 9.76 0 0 1 2.53 3.51c2.52 6.38-3.27 8.15-7.32 9.38a43 43 0 0 1-15.17 1.63c-5.51-.33-11.3-.79-16.6-2.39-2.64-.79-6.81-1.93-8.38-4.39-1.91-3-1.46-7.22.27-10.18l-1.38-.57-1.37 4.42a6.75 6.75 0 0 1-.66 2.14c-.5.51-3.41.2-4.49.18-7.49-.12-19.52-2.83-21.5-11.54-1.93-8.46 10.32-14.68 16.57-17.53 8.3-3.77 19.4-6.24 28.08-2.36l.58-1.37c-2.32-.58-5.1-.85-7.28-1.82-6.87-3-5.27-12.53-.72-16.82 5.2-4.9 13-7.28 20-6.87 1.93.11 5.59.18 6.68 1.83.62.93.52 3.16.7 4.29l1.45-.4c-.89-4.75-1-10.13 3.83-12.81 4.37-2.41 10.51-2.2 15.37-2a74.17 74.17 0 0 1 30 7.84c7.11 3.5 15.84 8.4 15.73 17.5 0 1.84.64.72-.66 1.63a12.08 12.08 0 0 1-3.21.88l-5.32 1.47.39 1.44c9.81-3.61 19.56-2 27.21 5.21 2.22 2.09 4.24 4 5.22 7 1.48 4.47-2 7.08-5.93 8.13-4.8 1.28-9-.95-13.39-2.59-.79-.3-1.36 1-.58 1.37 3.15 1.34 6 2 7.65 5.39 3.38 6.72-2.34 11.69-8.49 13.18-10.58 2.57-20.73-1.71-29.15-7.92-.78-.57-1.53.73-.76 1.29 9.66 7.13 26.18 13.78 37.11 5.06a9.71 9.71 0 0 0 3.21-11c-1.5-4.39-4.89-5.59-8.81-7.27l-.58 1.37c5.59 2.11 10.55 4.33 16.43 1.87 4.7-2 6.74-6.11 4.31-10.84-2.58-5-8-9.25-13.12-11.43-7-3-13.58-2.84-20.72-.2a.75.75 0 0 0 .39 1.44l9.79-2.74a.77.77 0 0 0 .55-.72c.13-6.83-2.33-11.44-7.66-15.65-7.54-5.95-17.92-9.68-27.23-11.66-8.24-1.81-19.1-3.33-27.15.03-6.56 2.72-7 8.92-5.88 15.13.18 1 1.6.54 1.45-.4-.22-1.38-.06-4.27-1-5.34-1.26-1.51-4.55-1.57-6.32-1.75-8.08-.86-17.8 1.76-23.42 8-3.26 3.6-5 10.55-2.27 14.89 2.55 4 7.52 4.4 11.74 5.45.79.2 1.38-1 .58-1.37-7.39-3.3-16.42-2.25-23.92.16s-16.56 6.76-21.16 13.43c-3.6 5.22-1.78 11 2.87 14.86 6.4 5.32 15.39 6.19 23.35 5.57a.76.76 0 0 0 .72-.55l2.2-7.07a.75.75 0 0 0-1.37-.57C238 79 264.94 81.31 275.2 81.68c6.46.24 16.19-.41 21.25-5 3.89-3.51 1.86-9.25-1.72-12.17-.61-.49-1.69.15-1.18.91 1.45 2.2 2.72 4.93 4.78 6.6 3.91 3.19 10.27 4.71 15.06 5.64 7.19 1.4 20.49 1.42 21.44-8.18.09-1-1.41-1-1.5 0z"/><path class="cls-1" d="M330.29 191.88a4.24 4.24 0 0 1-.42 1.56c-.14.44-.17.63-1 1.47-1.63 1.67-4.33 1.71-6.7 1.44-2.77-.3-8.07-3.32-9.55-5.62l-1.42-4.08a1.42 1.42 0 0 1 .39.73c.16.38.24.65.36 1s.2.74.33 1.19a2.6 2.6 0 0 1 .28 1.07 6.05 6.05 0 0 1-.9 3 5.21 5.21 0 0 1-2.41 1.6c-5.44 2.08-8.79 1.05-14.41-.58a14.5 14.5 0 0 1-5.38-3 6.17 6.17 0 0 1-1.66-2.47 5.3 5.3 0 0 1 .06-3.7 20.77 20.77 0 0 1 1.18-3l-1.62 4.58a13.18 13.18 0 0 1-9-3 8.87 8.87 0 0 1-3.1-8.86c.72-2.57 2.78-4.55 4.95-6.16 4.59-3.4 10.64-5.72 16.15-4a6.8 6.8 0 0 1 2.56 1.36l-3.48-1.66c-3.05-2.61-2-6.83-.3-10.4.9-1.89 4.51-4.58 8.07-5.25 3.13-.59 6.5.7 7.18 1.53v3.43c-.09-3.27.15-7.17 3.1-8.84a8.61 8.61 0 0 1 4.36-.84c6.74.11 13.1 3.21 18 7.63a19.36 19.36 0 0 1 2.57 2.37c3.06 3.75 4.17 6.35 3.38 11.67l-5 1.23a14.31 14.31 0 0 1 4.11-.89c2.72-.3 5.58 1.83 7.5 3.66a34.62 34.62 0 0 1 2.19 3.41c1.22 2 2.07 4.37 1.43 6.59s-2.6 3.18-5 3.42a7.79 7.79 0 0 1-2.52-.75 21.67 21.67 0 0 1-2.86-1.95l2.18 1.64c1.48 1.55 1.68 4.43 1.38 6.1a6.52 6.52 0 0 1-2.81 4.38c-2.21 1.44-5.61 1.63-8.47.77s-6.64-4.65-8.19-6.7"/><path class="cls-2" d="M329.57 191.68c-1.26 6.58-9.69 3.75-13.36 1.29-2.73-1.84-3.25-3.56-4.28-6.52l-1.37.58c4.49 8.51-7.9 8.93-12.88 7.61-2.58-.68-5.82-1.43-7.67-3.52-2.34-2.63-1.67-5.71-.31-8.24l-1.37-.58c-.33.91-.78 3.53-1.46 4.12s-4.8-.94-5.76-1.44a9.64 9.64 0 0 1-5-5.84c-2.69-10.29 15.57-16.78 22.52-12l.75-1.3a16.33 16.33 0 0 1-2.89-1.38c-4.12-3.15-1.51-9.58 1.72-12.07 2.21-1.7 9.3-4.66 11.52-1.43.39.57 0 2.47 0 3.18h1.5c-.19-15.9 18.57-6.71 25.11-.73 2.4 2.19 6.74 7.47 5 11.2.42.69.28 1-.4 1l-1.71.42-2.48.61.4 1.45c5.27-1.74 9.66.3 12.34 4.84 1.52 2.57 4.73 7.79-1.11 9.67-2.36.76-4.41-1.11-6.16-2.39-.78-.57-1.52.73-.76 1.3 4.74 3.55 4.47 11.18-3 11.89-5.13.48-9-3.15-12-6.88-.6-.76-1.66.31-1.06 1.06 4 5 11.28 10.44 17.72 5.93 5.18-3.63 3.36-10.1-.9-13.3l-.76 1.3c2.65 1.93 5.44 3.79 8.72 2 2.64-1.42 3.36-4.2 2.68-7-1.84-7.49-8.65-12.38-16.11-9.92a.75.75 0 0 0 .4 1.45l5-1.23a.76.76 0 0 0 .55-.72c1.18-9.9-6.82-17-15.43-20.46-3.79-1.54-10-3.3-13.92-1.06-3.37 1.95-3.6 6.05-3.56 9.53a.75.75 0 0 0 1.5 0c0-2.47.58-3.84-1.84-5-4-1.87-8.84-.57-12.18 2a11.61 11.61 0 0 0-4.3 10.25c.56 3.45 2.89 4.35 5.72 5.7a.75.75 0 0 0 .75-1.3c-7.32-5-19.76-.1-23.89 7.23-4.66 8.28 4.65 14.6 12 14.81a.77.77 0 0 0 .72-.55l1.62-4.58c.29-.8-1-1.32-1.37-.57-4.75 8.82 3.53 13 11.28 14.55 7.28 1.43 16.8-1.64 12.18-10.41-.4-.74-1.66-.23-1.38.58 1.67 4.77 3.55 7.22 8.5 9.31 4.5 1.91 11 1.56 12-4.08.18-1-1.26-1.35-1.44-.4z"/></g></g></svg>