<svg xmlns="http://www.w3.org/2000/svg" xmlns:xlink="http://www.w3.org/1999/xlink" viewBox="0 0 1962.76 933.86"><defs><style>.cls-1,.cls-4{fill:none;}.cls-2,.cls-24{fill:#69c212;}.cls-2{stroke:#43720c;stroke-width:11px;}.cls-10,.cls-11,.cls-12,.cls-16,.cls-2,.cls-4{stroke-miterlimit:10;}.cls-3{fill:#43720c;}.cls-4{stroke:#963;stroke-width:9px;}.cls-5{fill:#606060;}.cls-6{fill:#212121;}.cls-7{fill:#303030;}.cls-8{fill:#f9f9e1;}.cls-9{fill:#e5cf65;}.cls-10{font-size:18.77px;}.cls-10,.cls-16{fill:#ad920c;stroke:#ad920c;font-family:Sniglet-Regular, Sniglet;}.cls-10,.cls-11,.cls-16{stroke-width:2px;}.cls-11,.cls-18{fill:#fff;}.cls-11,.cls-12{stroke:#000;}.cls-13{fill:#e5db91;}.cls-14{fill:#ef0000;}.cls-15{fill:#ad0404;}.cls-16{font-size:18.77px;}.cls-17{fill:#282825;}.cls-19{clip-path:url(#clip-path);}.cls-20{clip-path:url(#clip-path-2);}.cls-21{clip-path:url(#clip-path-3);}.cls-22{clip-path:url(#clip-path-4);}.cls-23{clip-path:url(#clip-path-5);}</style><clipPath id="clip-path"><rect class="cls-1" x="1755" y="149.73" width="145.5" height="73.96"/></clipPath><clipPath id="clip-path-2"><rect class="cls-1" x="1546.5" y="52.07" width="213" height="98.61"/></clipPath><clipPath id="clip-path-3"><rect class="cls-1" x="1872.75" y="21.73" width="90" height="66.37"/></clipPath><clipPath id="clip-path-4"><rect class="cls-1" x="298.75" width="72" height="53.1"/></clipPath><clipPath id="clip-path-5"><rect class="cls-1" x="76.75" y="192.48" width="72" height="53.1"/></clipPath></defs><title>Asset 100</title><g id="Layer_2" data-name="Layer 2"><g id="Layer_1-2" data-name="Layer 1"><path class="cls-2" d="M1358.42,926.56c-155.48-190.89-383-313.22-620.82-371.76S251,497.62,7.37,522.51l.5,405.85L1945.93,927l.44-436.88c-298.82-31.8-580.46,139.06-875.48,196.56"/><path class="cls-3" d="M71.32,610.27A18,18,0,0,1,78,624a1.13,1.13,0,0,0,2.25,0,20.23,20.23,0,0,0-7.3-15.36c-1.11-.92-2.71.66-1.59,1.59Z"/><path class="cls-3" d="M80.06,624.29a30.8,30.8,0,0,1,6-11.35c.92-1.11-.66-2.71-1.59-1.59a33.4,33.4,0,0,0-6.54,12.34,1.13,1.13,0,0,0,2.17.6Z"/><path class="cls-3" d="M79.14,609.94a34.62,34.62,0,0,1-.78,8.55c-.31,1.41,1.86,2,2.17.6a37.52,37.52,0,0,0,.86-9.15c0-1.45-2.3-1.45-2.25,0Z"/><path class="cls-3" d="M1836.32,585.27A18,18,0,0,1,1843,599a1.13,1.13,0,0,0,2.25,0,20.23,20.23,0,0,0-7.3-15.36c-1.11-.92-2.71.66-1.59,1.59Z"/><path class="cls-3" d="M1845.06,599.29a30.8,30.8,0,0,1,6-11.35c.92-1.11-.66-2.71-1.59-1.59a33.4,33.4,0,0,0-6.54,12.34,1.13,1.13,0,0,0,2.17.6Z"/><path class="cls-3" d="M1844.14,584.94a34.62,34.62,0,0,1-.78,8.55c-.31,1.41,1.86,2,2.17.6a37.52,37.52,0,0,0,.86-9.15c-.05-1.45-2.3-1.45-2.25,0Z"/><path class="cls-3" d="M596.32,829.27A18,18,0,0,1,603,843a1.13,1.13,0,0,0,2.25,0,20.23,20.23,0,0,0-7.3-15.36c-1.11-.92-2.71.66-1.59,1.59Z"/><path class="cls-3" d="M605.06,843.29a30.8,30.8,0,0,1,6-11.35c.92-1.11-.66-2.71-1.59-1.59a33.4,33.4,0,0,0-6.54,12.34,1.13,1.13,0,0,0,2.17.6Z"/><path class="cls-3" d="M604.14,828.94a34.62,34.62,0,0,1-.78,8.55c-.31,1.41,1.86,2,2.17.6a37.52,37.52,0,0,0,.86-9.15c0-1.45-2.3-1.45-2.25,0Z"/><path class="cls-3" d="M436.32,570.27A18,18,0,0,1,443,584a1.13,1.13,0,0,0,2.25,0,20.23,20.23,0,0,0-7.3-15.36c-1.11-.92-2.71.66-1.59,1.59Z"/><path class="cls-3" d="M445.06,584.29a30.8,30.8,0,0,1,6-11.35c.92-1.11-.66-2.71-1.59-1.59a33.4,33.4,0,0,0-6.54,12.34,1.13,1.13,0,0,0,2.17.6Z"/><path class="cls-3" d="M444.14,569.94a34.62,34.62,0,0,1-.78,8.55c-.31,1.41,1.86,2,2.17.6a37.52,37.52,0,0,0,.86-9.15c-.05-1.45-2.3-1.45-2.25,0Z"/><path class="cls-3" d="M255.32,770.27A18,18,0,0,1,262,784a1.13,1.13,0,0,0,2.25,0,20.23,20.23,0,0,0-7.3-15.36c-1.11-.92-2.71.66-1.59,1.59Z"/><path class="cls-3" d="M264.06,784.29a30.8,30.8,0,0,1,6-11.35c.92-1.11-.66-2.71-1.59-1.59a33.4,33.4,0,0,0-6.54,12.34,1.13,1.13,0,0,0,2.17.6Z"/><path class="cls-3" d="M263.14,769.94a34.62,34.62,0,0,1-.78,8.55c-.31,1.41,1.86,2,2.17.6a37.52,37.52,0,0,0,.86-9.15c-.05-1.45-2.3-1.45-2.25,0Z"/><path class="cls-3" d="M727.32,677.27A18,18,0,0,1,734,691a1.13,1.13,0,0,0,2.25,0,20.23,20.23,0,0,0-7.3-15.36c-1.11-.92-2.71.66-1.59,1.59Z"/><path class="cls-3" d="M736.06,691.29a30.8,30.8,0,0,1,6-11.35c.92-1.11-.66-2.71-1.59-1.59a33.4,33.4,0,0,0-6.54,12.34,1.13,1.13,0,0,0,2.17.6Z"/><path class="cls-3" d="M735.14,676.94a34.62,34.62,0,0,1-.78,8.55c-.31,1.41,1.86,2,2.17.6a37.52,37.52,0,0,0,.86-9.15c0-1.45-2.3-1.45-2.25,0Z"/><path class="cls-3" d="M1313.32,770.27A18,18,0,0,1,1320,784a1.13,1.13,0,0,0,2.25,0,20.23,20.23,0,0,0-7.3-15.36c-1.11-.92-2.71.66-1.59,1.59Z"/><path class="cls-3" d="M1322.06,784.29a30.8,30.8,0,0,1,6-11.35c.92-1.11-.66-2.71-1.59-1.59a33.4,33.4,0,0,0-6.54,12.34,1.13,1.13,0,0,0,2.17.6Z"/><path class="cls-3" d="M1321.14,769.94a34.62,34.62,0,0,1-.78,8.55c-.31,1.41,1.86,2,2.17.6a37.52,37.52,0,0,0,.86-9.15c-.05-1.45-2.3-1.45-2.25,0Z"/><path class="cls-3" d="M969.32,843.27A18,18,0,0,1,976,857a1.13,1.13,0,0,0,2.25,0,20.23,20.23,0,0,0-7.3-15.36c-1.11-.92-2.71.66-1.59,1.59Z"/><path class="cls-3" d="M978.06,857.29a30.8,30.8,0,0,1,6-11.35c.92-1.11-.66-2.71-1.59-1.59a33.4,33.4,0,0,0-6.54,12.34,1.13,1.13,0,0,0,2.17.6Z"/><path class="cls-3" d="M977.14,842.94a34.62,34.62,0,0,1-.78,8.55c-.31,1.41,1.86,2,2.17.6a37.52,37.52,0,0,0,.86-9.15c0-1.45-2.3-1.45-2.25,0Z"/><path class="cls-3" d="M1702.32,836.27A18,18,0,0,1,1709,850a1.13,1.13,0,0,0,2.25,0,20.23,20.23,0,0,0-7.3-15.36c-1.11-.92-2.71.66-1.59,1.59Z"/><path class="cls-3" d="M1711.06,850.29a30.8,30.8,0,0,1,6-11.35c.92-1.11-.66-2.71-1.59-1.59a33.4,33.4,0,0,0-6.54,12.34,1.13,1.13,0,0,0,2.17.6Z"/><path class="cls-3" d="M1710.14,835.94a34.62,34.62,0,0,1-.78,8.55c-.31,1.41,1.86,2,2.17.6a37.52,37.52,0,0,0,.86-9.15c-.05-1.45-2.3-1.45-2.25,0Z"/><path class="cls-3" d="M1096.32,763.27A18,18,0,0,1,1103,777a1.13,1.13,0,0,0,2.25,0,20.23,20.23,0,0,0-7.3-15.36c-1.11-.92-2.71.66-1.59,1.59Z"/><path class="cls-3" d="M1105.06,777.29a30.8,30.8,0,0,1,6-11.35c.92-1.11-.66-2.71-1.59-1.59a33.4,33.4,0,0,0-6.54,12.34,1.13,1.13,0,0,0,2.17.6Z"/><path class="cls-3" d="M1104.14,762.94a34.62,34.62,0,0,1-.78,8.55c-.31,1.41,1.86,2,2.17.6a37.52,37.52,0,0,0,.86-9.15c-.05-1.45-2.3-1.45-2.25,0Z"/><path class="cls-3" d="M1829.32,750.27A18,18,0,0,1,1836,764a1.13,1.13,0,0,0,2.25,0,20.23,20.23,0,0,0-7.3-15.36c-1.11-.92-2.71.66-1.59,1.59Z"/><path class="cls-3" d="M1838.06,764.29a30.8,30.8,0,0,1,6-11.35c.92-1.11-.66-2.71-1.59-1.59a33.4,33.4,0,0,0-6.54,12.34,1.13,1.13,0,0,0,2.17.6Z"/><path class="cls-3" d="M1837.14,749.94a34.62,34.62,0,0,1-.78,8.55c-.31,1.41,1.86,2,2.17.6a37.52,37.52,0,0,0,.86-9.15c-.05-1.45-2.3-1.45-2.25,0Z"/><path class="cls-3" d="M1543.32,653.27A18,18,0,0,1,1550,667a1.13,1.13,0,0,0,2.25,0,20.23,20.23,0,0,0-7.3-15.36c-1.11-.92-2.71.66-1.59,1.59Z"/><path class="cls-3" d="M1552.06,667.29a30.8,30.8,0,0,1,6-11.35c.92-1.11-.66-2.71-1.59-1.59a33.4,33.4,0,0,0-6.54,12.34,1.13,1.13,0,0,0,2.17.6Z"/><path class="cls-3" d="M1551.14,652.94a34.62,34.62,0,0,1-.78,8.55c-.31,1.41,1.86,2,2.17.6a37.52,37.52,0,0,0,.86-9.15c-.05-1.45-2.3-1.45-2.25,0Z"/><path class="cls-4" d="M27.27,467l5.27,60.73"/><path class="cls-4" d="M87.36,464.2,90.88,525"/><path class="cls-4" d="M88.48,483.6l-58,3"/><path class="cls-4" d="M90,508.77,31.9,511.69"/><path class="cls-4" d="M146,462.71l4,60.75"/><path class="cls-4" d="M147.56,483.68,89.4,484.82"/><path class="cls-4" d="M148.56,508.9,90.39,510"/><path class="cls-4" d="M205.89,462.58l2.74,61.16"/><path class="cls-4" d="M206.79,482.13l-58.48.51"/><path class="cls-4" d="M207.91,507.46l-58.49.43"/><path class="cls-4" d="M263.74,460.51l3.08,61"/><path class="cls-4" d="M264,478.44l-58.55,3.1"/><path class="cls-4" d="M266.72,503.55l-58.55,3.1"/><path class="cls-4" d="M320,459l5.4,60.34"/><path class="cls-4" d="M321.82,478.57l-58.79.3"/><path class="cls-4" d="M324.28,503.5l-58.81.22"/><path class="cls-4" d="M379.56,476.93l-59.24,1.31"/><path class="cls-4" d="M382.81,501.87l-59.23,1.31"/><path class="cls-4" d="M28.48,486.63l-28,3"/><path class="cls-4" d="M30.17,511.46,2.1,514.35"/><path class="cls-4" d="M378.87,457.7l-2.29,60.9"/><path class="cls-4" d="M438.84,462.36l-4,60.78"/><path class="cls-4" d="M437.55,481.75l-57.93-4.2"/><path class="cls-4" d="M435.92,506.91l-58-4.29"/><path class="cls-4" d="M497.2,468.14l-3.54,60.78"/><path class="cls-4" d="M496.17,489.14l-57.86-6.07"/><path class="cls-4" d="M494,514.29l-57.86-6.15"/><path class="cls-4" d="M556.66,475.43l-4.85,61"/><path class="cls-4" d="M555.14,494.93,497,488.21"/><path class="cls-4" d="M553.11,520.2,495,513.4"/><path class="cls-4" d="M616.7,483.48l-7,60.68"/><path class="cls-4" d="M614,501.2l-58.26-6.57"/><path class="cls-4" d="M612.55,526.43l-58.25-6.58"/><path class="cls-4" d="M674.77,494.36l-7.34,60.13"/><path class="cls-4" d="M672.5,513.92l-57.56-12"/><path class="cls-4" d="M669.69,538.82l-57.55-12.09"/><path class="cls-4" d="M729.3,524.4l-58.2-11.12"/><path class="cls-4" d="M727.27,549.47l-58.2-11.12"/><path class="cls-4" d="M734.34,506.81,720.4,566.15"/><path class="cls-4" d="M792.3,522.91l-15.63,58.87"/><path class="cls-4" d="M787.31,541.7l-56-15.26"/><path class="cls-4" d="M780.88,566.07l-56.09-15.34"/><path class="cls-4" d="M848.46,539.79l-15.15,59"/><path class="cls-4" d="M843.42,560.21l-55.61-17.07"/><path class="cls-4" d="M836.49,584.48,780.9,567.33"/><path class="cls-4" d="M905.42,558.37l-16.49,59"/><path class="cls-4" d="M900.18,577.22l-55.73-17.76"/><path class="cls-4" d="M893.33,601.63l-55.7-17.84"/><path class="cls-4" d="M964.22,581.61l-21.49,57.16"/><path class="cls-4" d="M957.27,598.13l-54.93-20.51"/><path class="cls-4" d="M949.79,622.26l-54.93-20.51"/><path class="cls-4" d="M1019.11,606.56l-23.4,55.88"/><path class="cls-4" d="M1011.61,624.77l-52.12-27.19"/><path class="cls-4" d="M1002.15,648,950,620.69"/><path class="cls-4" d="M1063.43,650.28l-53-26.51"/><path class="cls-4" d="M1054.66,673.85l-53-26.5"/><path class="cls-4" d="M1060.75,627.64l-8,60"/><path class="cls-4" d="M1103.48,656l-46.61-9.45"/><path class="cls-4" d="M1100.36,680.84l-45.8-9.28"/><path class="cls-4" d="M1398.61,605.7l-24.35-55.87"/><path class="cls-4" d="M1342.54,627.5,1319.83,571"/><path class="cls-4" d="M1335.3,609.46l54-21.32"/><path class="cls-4" d="M1325.86,586.09,1380,564.81"/><path class="cls-4" d="M1287.45,647.6l-23.16-56.31"/><path class="cls-4" d="M1279.27,628.22,1334,608.61"/><path class="cls-4" d="M1270.29,604.64l54.8-19.54"/><path class="cls-4" d="M1230.7,666.81l-22.08-57.1"/><path class="cls-4" d="M1223.62,648.57l55.27-19.13"/><path class="cls-4" d="M1214.49,624.92l55.3-19.06"/><path class="cls-4" d="M1170.63,687.81,1154.23,629"/><path class="cls-4" d="M1167,672l55.42-19.15"/><path class="cls-4" d="M1158.23,645.08l55.35-19.33"/><path class="cls-4" d="M1103.18,697.68l1.26-60.57"/><path class="cls-4" d="M1105.45,681l59.86-10.94"/><path class="cls-4" d="M1100.69,656.54l57.86-10.5"/><path class="cls-4" d="M1431.07,528.52l19.55,57.69"/><path class="cls-4" d="M1437.31,546.93l-55.12,18.3"/><path class="cls-4" d="M1445.43,570.79,1390.23,589"/><path class="cls-4" d="M1487.19,511.5l20,57.51"/><path class="cls-4" d="M1494.29,531.31l-55.77,16.55"/><path class="cls-4" d="M1502,555.35l-55.8,16.47"/><path class="cls-4" d="M1544.92,495.47l18.89,58.23"/><path class="cls-4" d="M1551,514.07l-56.25,16"/><path class="cls-4" d="M1558.78,538.19l-56.27,16"/><path class="cls-4" d="M1600.13,478.1l19.18,58"/><path class="cls-4" d="M1605.1,495.33l-55.62,18.54"/><path class="cls-4" d="M1614.44,518.8l-55.62,18.55"/><path class="cls-4" d="M1659.05,461.26l19,57.52"/><path class="cls-4" d="M1665.33,479.92l-57.17,13.68"/><path class="cls-4" d="M1673.41,503.63l-57.21,13.61"/><path class="cls-4" d="M1721.18,465.18l-57.38,14.76"/><path class="cls-4" d="M1730,488.72l-57.38,14.76"/><path class="cls-4" d="M1721,445.71l6.93,60.46"/><path class="cls-4" d="M1781.83,441.09l5.16,60.6"/><path class="cls-4" d="M1783.47,460.43l-58.7,4.76"/><path class="cls-4" d="M1785.64,485.51l-58.77,4.68"/><path class="cls-4" d="M1841.2,437.82l5.65,60.53"/><path class="cls-4" d="M1843.35,458.71l-58.92,2.91"/><path class="cls-4" d="M1845,483.85l-58.93,2.82"/><path class="cls-4" d="M1901.91,435.87l4.37,61"/><path class="cls-4" d="M1903.33,455.35l-59.25,2.3"/><path class="cls-4" d="M1905.13,480.6l-59.27,2.22"/><path class="cls-4" d="M1947.24,452.49,1903.85,455"/><path class="cls-4" d="M1949.65,477.6l-43.39,2.47"/><path class="cls-5" d="M1578.9,652.83c-1.33,0-4.08-.81-4.85-.85-1.23-.05-2.21-.12-4.31-.11l-2,1.44c0,3.57-.1,23.81-.16,27.38,0,1.53-.3,12.57-.64,14.12s1,10.15,1.83,13.39c.76,3,.48,6.09.8,9.17s-.41,13.43-.53,16.57l2,.15c2.67,0,3.47,0,6.13.06l3-.19c-.17-6.35-1.24-20-1-26a59.79,59.79,0,0,1,.9-8.7c.43-2.33.17-3.81.53-9,.11-1.6-.09-7.7-.12-9.52-.06-3.57.81-23.8.75-27.37Z"/><path class="cls-6" d="M1578.9,651.33c-3.47-.31-7.78-2.21-10.9,0-2.29,1.6-1.74,3.53-1.76,6.16,0,7.86,0,15.73-.13,23.6-.13,7.2-1,14.23.08,21.38.9,5.8,2,11.43,2,17.35,0,4.72-.42,9.43-.62,14.15a1.53,1.53,0,0,0,1.5,1.5,80,80,0,0,0,11.06,0,1.53,1.53,0,0,0,1.5-1.5c-.25-7.86-1-15.7-1-23.57s1.57-15.36,1.49-23.15c-.11-11.32.7-22.61.61-33.92a1.53,1.53,0,0,0-1.1-1.45l-2.32-.49c-1.89-.4-2.69,2.5-.8,2.89l2.32.49-1.1-1.44c.09,11.31-.72,22.6-.61,33.92.08,7.61-1.42,15-1.49,22.61-.08,8,.75,16.07,1,24.11l1.5-1.5a80,80,0,0,1-11.06,0l1.5,1.5c.4-9.18,1.2-18.28-.6-27.36-1.55-7.82-1.16-14.68-.94-22.56.19-6.62.15-13.25.18-19.88,0-2.94-.89-7.64.06-10.43-.5,1.48-.06-.12.92-.32a11.73,11.73,0,0,1,3,.05c1.94.16,3.81.72,5.75.89S1580.81,651.5,1578.9,651.33Z"/><path class="cls-7" d="M1560.23,758.27a105.19,105.19,0,0,1,27.4-.7l.45-.56.69-13.21a19.26,19.26,0,0,0-.37-6.43,17.29,17.29,0,0,0-3.23-5.66,17.86,17.86,0,0,0-4.3-4.33c-4.28-2.77-10.29-1.79-14.24,1.45s-6.05,8.29-6.8,13.34-.29,10.19,0,15.29"/><path class="cls-6" d="M1560.63,759.72a107.22,107.22,0,0,1,19.69-1.16c2.59.09,7.64,2,9.13-1,.85-1.7.38-5.36.48-7.18.15-3,.45-6,.42-9,0-4.72-2-8.41-5.07-11.93a13.72,13.72,0,0,0-19.71-1.67c-8.68,7.18-7.87,19.62-7.2,29.69.13,1.91,3.13,1.93,3,0-.55-8.16-1.5-17.43,3.48-24.52,6.63-9.41,19.08-5.57,22.11,4.83,1,3.64.21,8,0,11.69-.08,1.34.38,5.14-.25,6.22-.39.68-3.12,0-4.58,0a111.14,111.14,0,0,0-22.32,1.18c-1.9.28-1.09,3.18.8,2.9Z"/><path class="cls-5" d="M1604.6,653.6c1.2,0,3.66-.93,4.37-1,1.11-.08,2-.18,3.9-.23l1.83,1.38c.18,3.56,1,23.79,1.17,27.35.08,1.53.44,6,.55,6.79s.09,5.74.46,7.28a64.58,64.58,0,0,1-.33,13.44,71.22,71.22,0,0,0-1.1,9.21c-.19,3.13.88,13.41,1.1,16.54l-1.79.21c-2.42.06-3.14.1-5.55.24l-2.68-.1c-.08-6.35.14-20-.1-26a50.26,50.26,0,0,0-1.07-8.65c-.47-2.32-.3-3-.82-8.2-.16-1.6-.28-8.52-.32-10.33-.07-3.57-1.63-23.77-1.7-27.34Z"/><path class="cls-6" d="M1605,655.05c2.49-.37,4.83-1.27,7.4-1.16.32,0,1.62,1.67,1,.61-.48-.87-.19.44-.17.73.29,3.48.3,7,.44,10.48.3,7.08.56,14.15,1.11,21.21.54,6.82,1.25,13.82.37,20.65-.62,4.8-1.42,9.43-1.15,14.29.24,4.17.69,8.34,1,12.51l1.5-1.5a64.53,64.53,0,0,1-10,.35l1.5,1.5c-.08-8,.16-16.08,0-24.11-.19-7.43-1.86-14.69-2.1-22.13-.37-11.46-1.53-22.87-1.87-34.32l-1.1,1.45,2.08-.56a1.5,1.5,0,0,0-.8-2.89l-2.08.55a1.53,1.53,0,0,0-1.1,1.45c.34,11.45,1.5,22.86,1.87,34.32.23,7.27,1.88,14.38,2.08,21.62.24,8.2,0,16.41.06,24.62a1.54,1.54,0,0,0,1.5,1.5,64.49,64.49,0,0,0,10-.35c.75-.09,1.57-.62,1.5-1.5-.35-4.53-.88-9.06-1.06-13.6-.23-5.4,1.12-10.62,1.46-16,.48-7.78-.59-15.51-1-23.27s-.66-15.46-1-23.18c-.09-2.25.29-4.43-1.23-6.09-2.73-3-7.68-.58-11-.09C1602.3,652.44,1603.11,655.33,1605,655.05Z"/><path class="cls-7" d="M1626.36,758.36a105.23,105.23,0,0,0-27.41.26l-.47-.55-1.16-13.17a19.58,19.58,0,0,1,.15-6.44,17.42,17.42,0,0,1,3-5.78,17.83,17.83,0,0,1,4.14-4.47c4.19-2.92,10.23-2.15,14.29.95s6.34,8.07,7.26,13.09.65,10.18.5,15.28"/><path class="cls-6" d="M1626.36,756.86c-7.88-.89-16.63-1.6-24.49-.11-2.61.49-2,.41-2.22-2.44-.12-1.88-.33-3.77-.5-5.65-.37-4.22-1.22-8.52.85-12.46,4.23-8.07,13.3-11.52,20.1-3.91,6.06,6.79,5.36,16.8,5.09,25.24-.07,1.93,2.93,1.93,3,0,.31-9.92.71-21.85-7.62-28.94-6.36-5.42-15-4.65-20.22,1.79-2.69,3.35-4.67,6.91-4.72,11.28a88.44,88.44,0,0,0,.69,8.89c.19,2.1-.14,6,.72,7.92,1.42,3.14,6.14,1.11,8.74.91a110.59,110.59,0,0,1,20.58.48c1.91.21,1.9-2.79,0-3Z"/><path class="cls-8" d="M1562.35,532A11.82,11.82,0,0,0,1548,545.63a21.12,21.12,0,0,0-9.37,24.64,43.16,43.16,0,0,0-9,19.86,15.06,15.06,0,0,0,.14,7.16,6.69,6.69,0,0,0,5,4.73c-3.64,5.51-6.41,12.08-5.32,18.6s7.21,12.46,13.72,11.37c-.32,4.89-.61,10,1.4,14.46s7.09,8,11.74,6.44a14.94,14.94,0,0,0,13.17,11.76c5.88.45,11.6-2.69,17.48-2.26,2.89.21,5.67,1.27,8.56,1.34s6.17-1.31,6.9-4.11c3.32,4.18,9.76,4.21,14.77,2.39s9.49-5.06,14.66-6.37c3-.76,6.14-.86,9.05-1.88s5.69-3.35,5.92-6.43c.07-1-.42-4.17-.15-5.12.44-1.53,4-2,5.29-2.94,6.52-5.23,5.82-12.91,6.44-21.24.19-2.45.35-5-.6-7.28s-3.38-4.12-5.77-3.54a11.92,11.92,0,0,0,5.3-10.47c-.23-4.09-3.33-10.54-7-12.36.91-3.81,3.89-3.87,4.8-7.68,1.09-4.58.15-11.67-3.85-14.16-1.3-.81-4-.26-4.17-1.77-.09-.68,1-2.45,1.29-3.09a8.41,8.41,0,0,0,.35-6.09c-.77-1.94-5.82-5.09-7.83-4.55-8.29-10.32-18.9-14.53-32.1-13.6a21.64,21.64,0,0,1-5.21.06c-2-.35-3.82-1.41-5.71-2.15a19.72,19.72,0,0,0-13-.46c-2.27-4-4.62-5.89-9.24-5.9s-7.5,1.77-9.78,5.79Z"/><path class="cls-6" d="M1562.74,530.57c-7.33-1.22-14.52,2.7-16.1,10.31-.46,2.19,0,3.3-1.63,4.94a47.83,47.83,0,0,0-4.1,4.08,23.19,23.19,0,0,0-4.41,9.94,22.06,22.06,0,0,0-.37,5.13c.09,1.75,1,3.92.43,5.58s-2.49,3.56-3.44,5.29a45,45,0,0,0-2.95,6.53c-2.48,6.83-5,18.31,4.22,21.1l-.9-2.21c-4.14,6.52-7.61,14.79-4.71,22.49,2.25,6,7.92,10.34,14.41,9.74l-1.5-1.5c-.38,6-.7,12.66,3.1,17.68a11.49,11.49,0,0,0,11.94,4.67l-1.84-1.05c2.35,9.66,11.21,14.09,20.58,12.37,3.28-.61,6.55-1.77,9.91-1.81s6.72,1.37,10.16,1.38c3.8,0,6.89-1.69,8.34-5.21l-2.51.66c6.77,7.27,16.48,2.91,23.87-.75a36.3,36.3,0,0,1,9.75-3.39c2.67-.48,5.47-.74,7.92-2,3.21-1.65,5.36-4.37,5.41-8,0-3.11-.71-3.42,2.23-4.93a12.7,12.7,0,0,0,4.61-3.32c2.7-3.18,3.71-7.17,4.17-11.23.74-6.47,3.37-21.85-7.28-21.32l.76,2.8c8.56-6.36,7.43-19.88-1.7-25.43l.68,1.69c.86-2.53,3.11-3.73,4.22-6a13.69,13.69,0,0,0,1.06-5.51c.07-3.76-.83-8.51-3.84-11.09-.87-.74-4-1.39-4.29-2.17-.2-.54,1.7-4.67,1.73-5.33.19-4.22-2.63-7-6.4-8.45-2.45-1-2.77-1-4.73-3a39.22,39.22,0,0,0-5.6-4.85A34.75,34.75,0,0,0,1620,532.5c-6.13-1.11-12.9.69-18.7-1.34s-10.58-3.39-16.84-1.71l1.69.69c-3-5-7.33-7.51-13.3-6.41a11,11,0,0,0-6.22,3.41c-.68.72-1.15,1.93-1.77,2.4a12,12,0,0,1-2.93,1c-1.81.63-1,3.53.79,2.89,3.15-1.1,3.64-1.37,5.77-3.85,4.6-5.37,11.81-3.41,15.07,2a1.55,1.55,0,0,0,1.7.69,19.54,19.54,0,0,1,10.67-.09c2.25.64,4.27,1.94,6.54,2.5,4.37,1.09,9.2-.18,13.68.23a33.06,33.06,0,0,1,14,4.45,33.62,33.62,0,0,1,5.74,4.33c1.27,1.19,2.74,3.82,4.29,4.57,1.39.68,2.93.5,4.38,1.36,3.5,2.07,3,5.45,1.79,8.76-.7,1.87-1.12,3.25.81,4.48,2.26,1.43,3.84.42,5.57,3.63a13.74,13.74,0,0,1,1.34,6.66c-.08,4.73-3.78,6.66-5.17,10.76a1.53,1.53,0,0,0,.69,1.69c7,4.26,8.48,15.21,1.7,20.25-1.08.8-.87,2.88.76,2.79,8.2-.41,4.53,21.36,2.3,25.45-2.54,4.67-9.29,4.26-9.2,10,0,1.59.4,3.36-.37,4.88-1.46,2.87-5,3.62-7.84,4.18-3.58.71-7,1.26-10.33,2.75-6.85,3-16.44,9.79-23.11,2.61a1.52,1.52,0,0,0-2.51.66c-2.3,5.59-9.81,1.93-14,1.67a32.19,32.19,0,0,0-9.14,1.19c-8.74,2-17.64.35-20.06-9.59a1.54,1.54,0,0,0-1.85-1c-11.13,2.55-11.69-12.29-11.24-19.45a1.51,1.51,0,0,0-1.5-1.5c-6.68.62-11.93-5.07-12.42-11.5-.45-5.89,2.24-11.38,5.31-16.21a1.52,1.52,0,0,0-.89-2.21c-7.72-2.33-3.43-14.52-1.25-19.58a41.59,41.59,0,0,1,3.52-6.54c.85-1.26,2.51-2.59,2.7-4.18s-.94-3.72-1-5.3a19.91,19.91,0,0,1,9.66-18.05,1.47,1.47,0,0,0,.74-1.29c-.85-7.44,4.81-13.43,12.42-12.17C1563.84,533.77,1564.65,530.88,1562.74,530.57Z"/><path class="cls-5" d="M1628,569.52c.7-.59.75-1.61,1.3-2.35.4-.55,1.78-1,2.38-1.35a16.84,16.84,0,0,1,6.91-2.13c2.33-.19,2.77.89,4.66,2.18,1.61,1.11,5.29,17.44,8.65,36.76.35,2,2.6,7,2.94,9.07s-.57,7.56-.23,9.69c3.4,21.92,5.16,38,3.45,45-.29,1.18-.29,1.38-1.52,1.17s-2.33-.48-3.5-.72c-1.85-.38-7.16-1.19-7.41-3.71-.09-.93.92-1.87,1.34-2.62a48.68,48.68,0,0,0,2.09-4.66c2.11-4.8-7.14-48.6-14.93-72-2.63-7.91-4.31-13.55-6.11-14.47"/><path class="cls-6" d="M1629.31,570.28c2.19-3.47,9.64-7.64,13-3.23,1.34,1.76,1.75,5,2.28,7.07,2.44,9.54,3.56,19.37,5.88,28.91.77,3.18,2.63,6.22,3,9.49.3,3.07-.53,6.18-.25,9.27.91,10.14,3.1,20.14,3.8,30.33a75.57,75.57,0,0,1,.19,9.75c-.05.89.17,2.84-.39,3.49-.92,1.07-3.28.11-5-.29-2.19-.51-4.51-.65-3.8-3.39.48-1.82,2-3.55,2.52-5.42a12.52,12.52,0,0,0,.35-3.61c-.16-12.65-3.86-25.82-6.74-38-2-8.61-4.23-17.18-6.8-25.64-1.44-4.72-2.94-9.45-4.65-14.08-.88-2.41-1.72-5.2-3.89-6.75-1.58-1.12-3.08,1.48-1.51,2.59,3.16,2.26,4.49,10.73,5.59,14.1,1.32,4,2.53,8.08,3.67,12.16,2.55,9.15,4.79,18.39,6.78,27.68a233.59,233.59,0,0,1,4.22,23.79,24.79,24.79,0,0,1,.27,6.32c-.44,2.75-4,5.91-3.61,8.76s4,3.75,6.28,4.31,6.52,2.42,8.4.48c1.31-1.35,1.22-5.19,1.3-6.91a89.51,89.51,0,0,0-.42-11.92c-.91-10.81-4.18-22.17-3.52-33a21.66,21.66,0,0,0-1.41-9.79c-1.91-5.36-2.59-11-3.68-16.53s-2.24-11.31-3.67-16.89c-.65-2.54-1.16-5.88-2.76-8.05-2-2.68-4.88-3.36-8-2.85-4.6.76-7.68,2.59-10,6.34-1,1.63,1.56,3.14,2.59,1.51Z"/><path class="cls-7" d="M1636.76,677.91a78.18,78.18,0,0,1,19.72,5.13l.44-.3,3.21-9.3a14.28,14.28,0,0,0,1.06-4.67,13,13,0,0,0-1.14-4.71,13.53,13.53,0,0,0-2.18-4c-2.5-2.86-7-3.39-10.48-1.89s-6,4.68-7.6,8.13a53.38,53.38,0,0,0-3.12,10.93"/><path class="cls-6" d="M1636.36,679.35a83.35,83.35,0,0,1,15.37,3.53c2,.69,4.35,2.58,6.25.92,1.13-1,1.51-3.92,2-5.31a69,69,0,0,0,2.31-7,14.42,14.42,0,0,0-1.88-10.31c-2.88-5.2-9.18-6.68-14.4-4-7.29,3.72-9.19,12.34-10.77,19.63-.41,1.89,2.48,2.69,2.89.8,1.12-5.16,2.1-11,5.81-15.06,5.69-6.18,14.35-3.76,15.5,4.79.44,3.28-1,6.31-2,9.38-.35,1-.62,2.88-1.29,3.72-1,1.25.22.74-1.83.12a111.51,111.51,0,0,0-17.12-4.14c-1.89-.26-2.7,2.63-.8,2.89Z"/><path class="cls-5" d="M1562.7,566.4c-.76-.52-.91-1.52-1.53-2.2a9,9,0,0,0-2.51-1.11,17,17,0,0,0-7.1-1.39c-2.34,0-2.66,1.17-4.4,2.65-1.49,1.27-3.46,17.89-4.8,37.46-.14,2-1.86,7.25-2,9.32s1.34,7.46,1.23,9.62c-1.12,22.15-1.2,38.36,1.23,45.12.4,1.14.43,1.34,1.63,1s2.27-.71,3.4-1.07c1.81-.57,7-1.93,7-4.46,0-.93-1.11-1.77-1.61-2.47-1-1.38-1.72-3-2.55-4.41-2.59-4.56,2.07-49.08,7.39-73.12,1.8-8.13,2.88-13.92,4.58-15"/><path class="cls-6" d="M1563.76,565.34c-2.65-3.37-5.43-4.55-10-5-3.18-.34-5.9.38-7.83,3.16-3.21,4.61-2.85,13.27-3.42,18.61-.62,5.92-1,11.85-1.54,17.78-.36,4-2.18,8-2.1,12.09.09,4.29,1.24,8.28,1,12.64-.29,6.25-.53,12.51-.56,18.77,0,7.13-.53,15.41,1.81,22.29.75,2.2,1.38,2.91,3.69,2.67,2.8-.3,8.47-2.11,10.38-4.4,1.7-2,1-3.45-.3-5.37-2-3-3.28-5-3.45-8.5-.32-7,.4-14.08,1-21q1.48-15.91,4-31.69c.8-4.86,1.67-9.72,2.7-14.54.67-3.1,1.31-6.21,2.07-9.28.48-1.95.79-4.76,2.36-6.15s-.68-3.4-2.12-2.12c-1.69,1.49-2.25,4.06-2.8,6.15-1.17,4.41-2.08,8.92-3,13.4-1.55,7.67-2.76,15.41-3.83,23.17-1.86,13.57-3.94,27.64-3.52,41.38A19.67,19.67,0,0,0,1549,654a12.14,12.14,0,0,0,.45,1.19c.57,1.4,3.38,4.17,3.43,5.47.09,2.54-3.21,3-5,3.56s-3,1.6-3.75.61c-1.49-1.92-1.24-6.68-1.4-9a239.86,239.86,0,0,1,0-26.68c.15-4,.64-7.92,0-11.85-.31-2-1-4.19-.88-6.24a35.52,35.52,0,0,1,1.38-6.07c2.31-10,1.81-20.84,3.23-31,.34-2.5.36-6.2,1.66-8.45,2.9-5.06,10.79-1.55,13.49,1.88,1.19,1.52,3.3-.62,2.12-2.12Z"/><path class="cls-7" d="M1565.22,675.11a78.43,78.43,0,0,0-19.08,7.15l-.46-.26-4.16-8.91a14.52,14.52,0,0,1-1.54-4.54,12.91,12.91,0,0,1,.65-4.8,13.22,13.22,0,0,1,1.76-4.18c2.18-3.11,6.6-4.1,10.22-3s6.48,4,8.4,7.3a53.1,53.1,0,0,1,4.23,10.55"/><path class="cls-6" d="M1564.82,673.66a85.79,85.79,0,0,0-14.07,4.71c-.91.4-3,1.81-3.86,1.81-.68,0,.27.72-.75-.72a34.9,34.9,0,0,1-4.39-9.74c-1.76-7.75,5.19-15.08,12.68-10.67,5.54,3.27,7.49,10.08,9.37,15.8.6,1.82,3.49,1,2.89-.8-2.27-6.93-4.91-15.11-12.18-18.32-5.3-2.34-11.8-.71-14.33,4.75a14.73,14.73,0,0,0-1,10.79,58.17,58.17,0,0,0,2.76,6.14c.7,1.5,1.46,4.59,2.73,5.65,1.81,1.52,3.49-.17,5.32-1a81.17,81.17,0,0,1,15.68-5.47c1.88-.45,1.08-3.35-.8-2.89Z"/><path class="cls-9" d="M1559.57,531.1c-6,4.92-2.39,14.77,1.75,19.6,4.34,5.08,9.47,9.19,14.72,13.27,2.6,2,5.23,4,7.94,5.87,3.19,2.2,6.91,4.1,8.13,8.06a1.52,1.52,0,0,0,2.51.67c6.54-7.64,17.36-9.7,24.6-16.75,7-6.84,14.82-15.29,13.59-25.84-.22-1.9-3.22-1.92-3,0,1.27,10.89-9.14,22-17.64,27.88-6.5,4.46-14.39,6.42-19.67,12.59l2.51.66c-1.06-3.43-3.34-5.59-6.2-7.62-5.13-3.63-10.2-7.24-15.11-11.17-4.15-3.33-8.85-7.11-11.78-11.62-2.31-3.57-4-10.36-.23-13.48,1.49-1.22-.64-3.34-2.12-2.12Z"/><text class="cls-10" transform="translate(1588.67 592.49) rotate(-17.89)">N</text><path class="cls-5" d="M1587.3,453.55c-10.47,12-12.61,28.05-15.76,43.07a251.86,251.86,0,0,1-10.63,36.63,20.37,20.37,0,0,0-1.55,5.75c-.32,5.12,3.51,9.67,8,12.63,7.69,5.06,17.46,6.78,27,7.08,11.88.38,25-1.8,32.79-10.2,5.76-6.22,7.55-14.82,7.14-22.91s-2.78-15.94-4.36-23.88c-2-9.88-2.74-20-5.28-29.74-1.37-5.26-3.29-10.48-6.62-14.9a23.39,23.39,0,0,0-14-9.12c-5.75-1.09-12.32.65-15.94,5"/><path class="cls-6" d="M1586.24,452.49c-14.23,16.9-14.66,40.88-20.49,61.3q-2.51,8.73-5.62,17.27c-1.7,4.68-3.29,8.84-1.09,13.65,3.68,8,13.43,12.08,21.53,13.88,16.52,3.69,40.61,3.06,50.67-13.06,5.16-8.27,5.16-18.44,3.6-27.74-1-6.16-2.72-12.19-3.86-18.33s-1.88-12.45-3-18.65c-2-11.11-5-23.46-14.71-30.39-8-5.67-19.33-6-26.29,1.47-1.32,1.41.8,3.53,2.12,2.12,7.5-8,19.65-5.1,26.34,2.37,6.53,7.3,8.41,17.74,10,27.09,1.6,9.63,3.14,19.16,5.23,28.7s3.7,19.92-.56,29.14c-7.79,16.91-31.29,17.74-47.1,14.73-7.9-1.51-21.54-6.06-22.06-15.88-.24-4.56,2.54-9.46,4-13.72q2.46-7.25,4.48-14.61c5.22-19,5.73-41.52,18.95-57.22,1.24-1.47-.88-3.6-2.12-2.12Z"/><path class="cls-5" d="M1581.84,462.23c-9.62,6.06-14.18,17.41-20.4,26.93a78.06,78.06,0,0,1-6.27,8.32,18.11,18.11,0,0,1-4.3,3.9c-1.34.8-5.31,3.81-6.71,4.49a27.57,27.57,0,0,0-5.37,2.91,29.39,29.39,0,0,1-13.54,5,8.42,8.42,0,0,1-3.87-.28c-2.35-.88-3.71-3.44-4-5.93-.41-4.07,1.59-8.09,4.42-11s6.45-5,10-7l18-10.18a64.2,64.2,0,0,0,8.36-5.31c2.34-1.84,4.42-4,6.72-5.9a40.18,40.18,0,0,1,13.63-7.43,4.14,4.14,0,0,1,2.35-.24,1.53,1.53,0,0,1,1.15,1.8"/><path class="cls-6" d="M1581.08,460.94c-10,6.68-14.55,17.73-20.93,27.46a48.54,48.54,0,0,1-13.37,14,99.22,99.22,0,0,1-12.24,7.15c-3.72,1.83-8.74,3.73-12.62,1.82-5.68-2.81-2.37-10.23,1-13.78,5.11-5.44,13.12-8.71,19.53-12.34,5.66-3.2,11.72-6.11,16.84-10.17,3.15-2.49,5.87-5.47,9.18-7.77,1.11-.77,11.75-7.11,12.16-4.66.32,1.9,3.22,1.09,2.9-.8-1.82-10.73-24.42,9.73-27.38,11.87-6.23,4.51-13.43,7.93-20.13,11.72-5.72,3.23-12.3,6.2-16.47,11.48-6.29,7.94-4,20,7.74,18.09,6.15-1,10.58-4.37,16-7a45,45,0,0,0,11.47-7.8c10.94-10.87,14.75-27.87,27.86-36.62,1.6-1.07.1-3.67-1.52-2.59Z"/><path class="cls-5" d="M1621,462.07c10.32,4.77,16.28,15.45,23.67,24.09a76.45,76.45,0,0,0,7.28,7.45,18,18,0,0,0,4.77,3.33c1.43.61,5.75,3.09,7.23,3.59,3,1,2.86.75,5.69,2.2a29.35,29.35,0,0,0,14.06,3.19,8.5,8.5,0,0,0,3.81-.77c2.22-1.17,3.24-3.89,3.18-6.39-.11-4.09-2.61-7.82-5.8-10.38s-7-4.13-10.82-5.68l-19.15-7.79a64.84,64.84,0,0,1-9-4.2c-2.56-1.53-4.9-3.4-7.42-5a40.41,40.41,0,0,0-14.47-5.63,4.11,4.11,0,0,0-2.36.07,1.53,1.53,0,0,0-.91,1.93"/><path class="cls-6" d="M1620.2,463.36c12.65,6.28,18.85,20.08,28.74,29.54a45.14,45.14,0,0,0,13.1,8.45c4.41,2,9.28,4.22,14,5.29,4.25,1,10.58,2,13.91-1.59s2.47-9,.25-12.81c-3.07-5.28-8.73-8.06-14.15-10.32-7.41-3.09-14.9-6-22.3-9.09-8-3.35-14.45-9.42-22.63-12.39-3.34-1.21-11.63-4.42-11.87,1.64-.08,1.93,2.92,1.93,3,0s12.19,3.05,12.48,3.2c3.43,1.77,6.4,4.21,9.66,6.25,5.53,3.45,11.92,5.57,17.92,8,7.37,3,16.77,5.29,22.64,10.91,3,2.89,7.46,11.25.91,13.72-3.19,1.2-8.28,0-11.37-1.05-10.49-3.4-20.25-8.42-27.66-16.71-8-9-13.94-20.09-25.11-25.64-1.73-.85-3.25,1.74-1.52,2.59Z"/><circle class="cls-11" cx="1584.38" cy="478.54" r="14.21"/><circle class="cls-12" cx="1584.13" cy="480.55" r="4.57"/><circle class="cls-11" cx="1615.14" cy="477.43" r="14.21"/><circle class="cls-12" cx="1613.94" cy="480.46" r="4.57"/><path d="M1568.61,489.79a19.16,19.16,0,0,0,4.42-1.48c.87-.41.11-1.71-.75-1.3a17.82,17.82,0,0,1-4.07,1.34c-1,.18-.55,1.63.4,1.44Z"/><path d="M1576.2,491.42c-1.32,1.34-2.78,2.47-4.19,3.7-.73.63.33,1.69,1.06,1.06,1.41-1.23,2.87-2.36,4.19-3.7.67-.69-.39-1.75-1.06-1.06Z"/><path d="M1580.62,493c0,1.67-.1,3.33-.1,5a.75.75,0,0,0,1.5,0c0-1.67.1-3.33.1-5a.75.75,0,0,0-1.5,0Z"/><path d="M1588,493.12a5.57,5.57,0,0,1,1.07,3.37.75.75,0,0,0,1.5,0,6.85,6.85,0,0,0-1.28-4.13c-.55-.78-1.86,0-1.29.76Z"/><path d="M1595.32,489.37c.42-.39,1.1,0,1.4.34a4,4,0,0,1,.5,2.29c0,1,1.53,1,1.5,0,0-1.31-.19-2.82-1.31-3.7a2.41,2.41,0,0,0-3.15,0c-.7.66.36,1.72,1.06,1.06Z"/><path d="M1604.21,488.23A2.25,2.25,0,0,1,1603,490c-.86.45-.1,1.75.75,1.3a3.65,3.65,0,0,0,1.9-2.65.77.77,0,0,0-.52-.92.76.76,0,0,0-.93.52Z"/><path d="M1608.81,491.12a1.57,1.57,0,0,1-.58,1.88c-.8.53,0,1.83.76,1.3a3.07,3.07,0,0,0,1.26-3.57c-.32-.91-1.77-.52-1.44.39Z"/><path d="M1615,492.29a8.23,8.23,0,0,1,.28,3.85c-.16.94,1.29,1.35,1.45.4a9.89,9.89,0,0,0-.29-4.65c-.28-.92-1.73-.53-1.44.4Z"/><path d="M1620.72,491.86c.77-.08,1.62.79,1.23,1.58s.87,1.62,1.3.76a2.7,2.7,0,0,0-2.53-3.84c-1,.09-1,1.59,0,1.5Z"/><path d="M1605,467.29a20,20,0,0,1-.18-4.51c.07-1-1.43-1-1.5,0a21.8,21.8,0,0,0,.23,4.91c.15.95,1.59.55,1.45-.4Z"/><path d="M1610.25,463.81a2.18,2.18,0,0,1,.92-3c.86-.44.1-1.73-.76-1.29a3.67,3.67,0,0,0-1.45,5.06.75.75,0,0,0,1.29-.75Z"/><path d="M1616,462.88a6.28,6.28,0,0,1,.64-3.33c.44-.86-.85-1.62-1.29-.76a7.75,7.75,0,0,0-.85,4.09c.06,1,1.56,1,1.5,0Z"/><path d="M1620,463a2.63,2.63,0,0,1,1.1-2.64c.79-.54,0-1.84-.76-1.29a4.16,4.16,0,0,0-1.78,4.32c.18.95,1.62.55,1.44-.39Z"/><path d="M1594.31,467.56a11.45,11.45,0,0,0,1.14-3.83c.11-1-1.39-1-1.5,0a9.2,9.2,0,0,1-.94,3.07c-.43.86.87,1.62,1.3.76Z"/><path d="M1590.21,464.6a4.83,4.83,0,0,0-.44-3.57c-.46-.85-1.76-.1-1.3.75a3.24,3.24,0,0,1,.29,2.42.75.75,0,0,0,1.45.4Z"/><path d="M1585.16,463.43a4.58,4.58,0,0,0-3.36-4.12.75.75,0,0,0-.4,1.44,3.05,3.05,0,0,1,2.26,2.68c.07.95,1.57,1,1.5,0Z"/><path d="M1576.17,461.7v3.46a.75.75,0,0,0,1.5,0V461.7a.75.75,0,0,0-1.5,0Z"/><path class="cls-13" d="M1603.2,438.69c-6.2,0-11.59,2.15-17.21,4.56a48,48,0,0,1-10.3,3.37c-2.46.46-4.44.71-6.35,2.44s-3.25,4.47-5.1,6.47c-2.1,2.27-4.55,4.15-6.46,6.6-1.78,2.28-2.32,4.58-3.45,7.14-.93,2.11-2.42,3.89-2.83,6.21-.87,4.93,3.53,9.13,3.89,14.12a23.53,23.53,0,0,1-5.73,17.19c-1.68,1.85-3.28,3.38-4.25,5.76-1.21,3-1.08,6-1.66,9.08-1.35,7.24-5.13,14.51-7.81,21.34-1.4,3.6,4.4,5.16,5.79,1.6,2.56-6.53,5.86-13.23,7.54-20.05.56-2.27.59-4.63,1-6.92.58-3.39,2.36-5,4.47-7.48,6-7,8.48-18.08,5.49-26.92-.66-2-2.94-4.62-2.86-6.62s2.26-4.35,3-6.2c2.2-5.6,6.6-8.38,10.2-13,2.13-2.75,2.68-4,6.38-4.87a54.32,54.32,0,0,0,8.66-2.61c5.82-2.37,11.2-5.21,17.63-5.21,3.86,0,3.87-6,0-6Z"/><path class="cls-13" d="M1606.15,445.71a42.15,42.15,0,0,1-9,.77,13.89,13.89,0,0,0-1.63-.19c.24-.18-.82.61.49.92.38.1-.26,1.28.33-.1a3.46,3.46,0,0,0,.16-2.22c-1.66-6.05-13.8,1.4-16.38,2.5-3.08,1.33-.85,6.76,2.32,5.49,2.31-.93-.31-4.05-1.77-3.48a10.45,10.45,0,0,0-1.2,1.57,46.17,46.17,0,0,1-3.61,3.79c-1.27,1.24-2.57,2.46-3.92,3.62a12,12,0,0,0-1.64,1.35c-1,1.26-1.82-.44,1,.4l2.09,2.09,0,1.35c1-3.79-4.44-5.14-5.78-1.6a45.35,45.35,0,0,0-3.1,16.44c0,5.58,2.68,10.6,2.9,16,.13,3.07-1.12,6.29-1.6,9.31-.38,2.42-.67,4.86-1,7.29-.81,6.88-1.58,13.69-3.56,20.36-1.11,3.7,4.68,5.29,5.78,1.59a102.55,102.55,0,0,0,3.24-17.31c.77-6.38,2.23-12.68,3-19,.54-4.56-1.48-8.78-2.33-13.16-1.29-6.7,0-13.65,2.42-19.94l-5.78-1.6c-1,3.68,2.84,4.62,5.37,3.19,3-1.67,5.6-4.61,8-7,1.89-1.9,5.07-4.55,5.62-7.34.72-3.69-2.83-4.9-5.72-3.74l2.31,5.49c2.66-1.15,5.31-2.34,8-3.34a7.08,7.08,0,0,0,1.66-.59c.57-.48.44-.22.41-.17q-2-5.43-2.59-3.21l-.06.16a3.15,3.15,0,0,0-.26.65,4.42,4.42,0,0,0-.15,2.52c1.49,6.46,13.53,3.48,17.53,2.89,3.81-.56,2.19-6.34-1.59-5.78Z"/><path class="cls-13" d="M1604.74,449.72c5.33-.3,9.77,2.82,13.68,6.12,3.25,2.74,7.5,5.94,9.3,9.85,1.88,4.09,2,8.79,2.74,13.17.86,4.79,3.26,8.9,3.09,13.87-.17,4.75-1.41,9.43-1.16,14.2.22,4.33,1.72,7.61,4,11.23,1.2,1.91,2.44,3.69,2.64,6,.16,1.92-.12,3.72.36,5.63,1,4,4.33,7.25,4.72,11.37.37,3.81,6.37,3.85,6,0-.43-4.56-3.11-7.6-4.57-11.78-.81-2.34-.24-4.67-.65-7.05a17.91,17.91,0,0,0-2.58-6c-1.25-2-2.81-4-3.49-6.32-.87-3-.46-6.31-.11-9.34.62-5.43,1.59-10.87-.34-16.16-3.19-8.75-2-19.36-8.82-26.49-6.33-6.64-15-14.8-24.82-14.25-3.84.22-3.87,6.22,0,6Z"/><path class="cls-13" d="M1603.16,444.5c9.63.06,19.53,4.86,26.4,11.59,2.51,2.46,3.51,5.63,5.35,8.51,1,1.6,2.68,2.87,3.59,4.52,1.16,2.08,1.33,4.93,2,7.18,1.35,4.2,3.27,8.18,4.74,12.34,1.4,4,1.51,8,2.55,12.06,2.23,8.67,8.84,15.64,13.12,23.31,1.89,3.38,7.07.35,5.18-3-5.09-9.13-11.72-16.25-13.25-26.88-.72-5-2.78-9.53-4.63-14.16-1.68-4.24-2.18-9.37-4.3-13.33a32.49,32.49,0,0,0-3.1-4,60,60,0,0,1-3.25-5.74,28.64,28.64,0,0,0-8-8.31c-7.84-5.92-16.52-10-26.49-10.06-3.86,0-3.86,6,0,6Z"/><path class="cls-13" d="M1593.79,449.5c2.9,0,5.49,4.36,8.07,5.61,3.85,1.85,8.53-.77,12,2s6.38,6.36,9.22,9.47c3.47,3.8,5.31,8.1,8,12.41,2.84,4.61,5.23,7.57,4.39,13.14a19.9,19.9,0,0,0,1.81,11c2.25,5.3,5.67,10.06,7.27,15.63,1.52,5.24,2,10.74,3,16.09.71,3.79,6.5,2.19,5.79-1.59-1.1-5.91-1.6-12-3.54-17.73s-5.67-10.55-7.65-16.2c-1.7-4.89.8-9.46-.9-14.34-1.6-4.62-4.91-8.46-7.09-12.79a46.76,46.76,0,0,0-8.38-11.48c-3-3.08-6.43-7.94-10.24-9.88-4.12-2.1-8.94.56-12.6-2.21-3-2.27-5-5-9.09-5.07-3.87-.06-3.87,5.94,0,6Z"/><path class="cls-13" d="M1605.33,446.27c-4.33-.78-8.31.15-12.46,1.42a56.76,56.76,0,0,1-7.07,2c-1.79.29-4-.18-5.67.7-1.1.59-1.71,1.78-2.52,2.65a27.22,27.22,0,0,0-4,4.71,152,152,0,0,0-8.18,14.57c-4.24,9.22-2.28,19.59-6.74,28.82-2.14,4.43-4.13,7.95-4.7,13-.6,5.38-.17,10.8-.47,16.19-.22,3.86,5.78,3.85,6,0,.25-4.59,0-9.21.27-13.8.35-5.07,2.33-8.56,4.4-13a45.54,45.54,0,0,0,3.54-11.75c.67-4.13.34-8.49,1.47-12.52,2.24-8,8-17.32,13.85-23.05.82-.81.18-.49-.42-.25a12.27,12.27,0,0,1,2.59-.1,29.74,29.74,0,0,0,4.93-1c4.29-1.17,9-3.55,13.55-2.73,3.78.68,5.4-5.1,1.6-5.79Z"/><path class="cls-13" d="M1599.82,441.36c-5.62.51-10.25,2.76-14.87,5.9-2.54,1.73-5,3.6-7.71,5.09-2,1.13-4.39,1.66-6.31,3a23.84,23.84,0,0,0-7.3,9.15c-1.73,3.8-1.11,9.12-1.43,13.22-.44,5.68,1.1,11.2,1.12,16.89a120.68,120.68,0,0,1-1.15,14.33,70.7,70.7,0,0,0,3.79,33.66c1.32,3.59,7.12,2,5.78-1.6a64.49,64.49,0,0,1-3.83-29.78c.95-9,1.94-17.54.59-26.54-.75-5,.27-9.6.31-14.56a12.17,12.17,0,0,1,4.8-9.2c3.18-2.62,7.94-4,11.47-6.42,4.57-3.13,9-6.59,14.74-7.1,3.81-.35,3.85-6.35,0-6Z"/><path class="cls-13" d="M1600.94,446.92c10.28-.46,23.08,8.3,26.42,18.05,1.53,4.48,2,9.24,3.42,13.76a53.12,53.12,0,0,0,5.58,11.53,37.74,37.74,0,0,0,8.14,9.7c3.54,3,6.87,4.46,8.3,9.12,2.3,7.5,1.6,15.61,7.39,21.64,2.68,2.79,6.92-1.45,4.24-4.24-6-6.22-3.54-16.56-7.84-23.76-2.39-4-6.8-5.77-10-9-3.47-3.42-6-7.82-8.16-12.15-4.3-8.55-3.29-19.24-9.85-26.74s-17.22-14.42-27.61-13.95c-3.84.17-3.86,6.17,0,6Z"/><path class="cls-13" d="M1597.79,438c-5.77.58-11.65-.83-17.38.28-4.69.91-8.35,3.63-11.67,6.93-7.67,7.59-15.13,16.58-17.71,27.3-1.38,5.77-1.33,11.72-1.82,17.6-.56,6.81-2.47,13.3-4,19.92-2.5,10.67-3.53,22.2,2.79,31.79,2.12,3.21,7.32.21,5.19-3-6-9.12-4-19.9-1.54-29.87a134.48,134.48,0,0,0,3.17-14.86c.69-5.31.59-10.69,1.31-16,1.38-10.26,7.22-18.4,14.14-25.79,3.54-3.77,7.13-7.71,12.57-8.31,5-.56,10,.54,15,0,3.81-.38,3.85-6.38,0-6Z"/><path class="cls-13" d="M1597.77,454.24c3.72,1.18,6.29,3.27,9.5,5.31s6.54,2.79,9.31,5.68c2.18,2.27,3.9,4.94,5.91,7.36,1.72,2.08,6.68,4.9,7.3,7.45.92,3.75,6.71,2.16,5.79-1.6s-4-5.1-6.6-7.59c-3.08-3-5.23-6.76-8.16-9.87s-6-4.17-9.56-6.1c-4.11-2.23-7.32-5-11.9-6.42-3.69-1.17-5.27,4.62-1.59,5.78Z"/><path class="cls-13" d="M1590,448c-2.51,1.64-5.75,3.08-7.84,5.23-1.64,1.69-2.41,3.33-4.38,4.81-2.94,2.2-5.85,4.7-7.47,8.07-1.16,2.43-1,5.53-2.91,7.52-3.26,3.42-8.25,4.46-11.38,8.2-2.47,2.95,1.76,7.21,4.24,4.25,2.85-3.41,7.22-4.66,10.55-7.48,2.65-2.24,3.38-4.69,4.24-7.88,1-3.54,3.46-5.8,6.36-8a19.19,19.19,0,0,0,4.42-4c1.86-2.43,4.56-3.84,7.19-5.55,3.23-2.11.22-7.3-3-5.19Z"/><path class="cls-13" d="M1601.52,446.57c4.65-2.08,9.61,1,10.7,5.7.86,3.65.46,7.34,3.2,10.31,2.88,3.13,7.62,3.23,9.85,7.1s1.92,9.24,1.92,13.66c0,5.64-.06,11.28,0,16.93,0,3.64.55,6.32,3.62,8.54,9.92,7.19,4.35,19.32,5.56,29.66.44,3.79,6.45,3.84,6,0-1.2-10.24,3.89-23-4.17-31.53-2.34-2.49-4.5-2.72-5-6.67-.44-3.52,0-7.41,0-11,0-5.61.42-11.43-.71-17-.85-4.17-2.87-8.16-6.53-10.51-2-1.3-5.2-1.81-6.57-4-1.46-2.31-.88-5.94-1.68-8.52-2.52-8.1-11.84-11.25-19.2-8-3.52,1.57-.47,6.75,3,5.18Z"/><path class="cls-14" d="M1589.58,547.14c.31-.3,4.23,2.47,4.62,2.4s3.4-2.27,3.74-2.11c4,1.91,5.64,3.4,10,3.71a10.28,10.28,0,0,1-5.65,4.59,20,20,0,0,1-6.92.84c-4.19-.07-7.71.1-11.52-2.1-.17-.09-2-3.52-1.76-3.75.65-.81,1.11.13,1.93-.42A15.1,15.1,0,0,0,1589.58,547.14Z"/><path class="cls-15" d="M1589.58,547.9c2.51.21,3.15,2.77,5.73,1.91,1.21-.41,1.45-1.21,2.82-1.14s2.53,1.06,3.76,1.62a19.49,19.49,0,0,0,6,1.62l-.66-1.15c-3.42,5-8.75,5.15-14.2,5-3.48-.09-7.79-.18-9.58-3.51-1.31-2.42-.38-.42,1-1.29,1.86-1.21,3.9-1.82,5.7-3.29.76-.62-.32-1.7-1.08-1.08-2.5,2-5,2.09-7.39,3.46a.79.79,0,0,0-.35.86c.73,4.87,5.28,6,9.54,6.3,6.7.54,13.64.31,17.72-5.69.36-.53-.14-1.09-.67-1.15-3.89-.45-7.79-4.32-11.38-3.15-2.49.82-1.75,1.78-4.26.37a6.84,6.84,0,0,0-2.67-1.23C1588.6,546.29,1588.6,547.82,1589.58,547.9Z"/><path class="cls-15" d="M1582.46,551.55c3.92.06,7.35,1.47,11.3,1.31,4.47-.17,9.21,1,13.48-.62.44-.17.25-.9-.2-.72-4.35,1.68-10.09.69-14.67.73-3.41,0-6.52-1.4-9.91-1.45a.38.38,0,0,0,0,.75Z"/><path class="cls-5" d="M1761.94,528.83c-1.33,0-4.08-.82-4.86-.85-1.23-.05-2.2-.12-4.31-.11l-2,1.44c0,3.57-.11,23.81-.16,27.38,0,1.53-.3,12.57-.64,14.12s1,10.15,1.83,13.39c.76,3,.47,6.09.8,9.16s-.42,13.43-.53,16.57l2,.15c2.67,0,3.46,0,6.13.06l3-.19c-.17-6.34-1.25-20-1-26a60.07,60.07,0,0,1,.9-8.71c.43-2.33.17-3.81.53-9,.11-1.6-.09-7.71-.12-9.52-.07-3.57.81-23.81.75-27.38Z"/><path class="cls-6" d="M1761.94,527.33c-3.47-.31-7.78-2.22-10.91,0-2.28,1.6-1.74,3.53-1.75,6.16,0,7.86,0,15.73-.14,23.59-.13,7.21-1,14.24.08,21.38.9,5.81,2,11.44,2,17.35,0,4.72-.41,9.44-.61,14.15a1.52,1.52,0,0,0,1.5,1.5,78.51,78.51,0,0,0,11.06,0,1.52,1.52,0,0,0,1.5-1.5c-.25-7.85-1-15.7-1-23.56s1.57-15.36,1.49-23.15c-.11-11.32.7-22.61.61-33.93a1.52,1.52,0,0,0-1.11-1.44l-2.32-.49c-1.88-.4-2.68,2.49-.79,2.89l2.32.49-1.1-1.45c.09,11.32-.72,22.61-.61,33.93.08,7.6-1.42,15-1.5,22.61-.08,8,.76,16.07,1,24.1l1.5-1.5a78.51,78.51,0,0,1-11.06,0l1.5,1.5c.39-9.17,1.2-18.28-.6-27.36-1.56-7.82-1.17-14.67-.94-22.55.19-6.62.14-13.26.17-19.88,0-2.94-.88-7.64.07-10.43-.5,1.47-.06-.12.91-.32a11.81,11.81,0,0,1,3,.05c1.94.16,3.8.71,5.75.89S1763.85,527.49,1761.94,527.33Z"/><path class="cls-7" d="M1743.27,634.27a105.19,105.19,0,0,1,27.4-.7l.44-.56.7-13.21a19.51,19.51,0,0,0-.37-6.43,17.44,17.44,0,0,0-3.23-5.67,18,18,0,0,0-4.3-4.33c-4.29-2.77-10.3-1.78-14.25,1.46s-6.05,8.29-6.79,13.34-.3,10.19,0,15.28"/><path class="cls-6" d="M1743.67,635.71a108.06,108.06,0,0,1,19.69-1.16c2.59.09,7.64,2,9.12-1,.85-1.7.39-5.37.48-7.19.16-3,.46-6,.43-9-.05-4.72-2-8.41-5.07-11.93a13.73,13.73,0,0,0-19.72-1.67c-8.67,7.18-7.87,19.62-7.19,29.68.13,1.92,3.13,1.93,3,0-.55-8.16-1.51-17.42,3.48-24.51,6.62-9.41,19.08-5.57,22.1,4.83,1.06,3.63.22,8,0,11.69-.07,1.34.39,5.13-.24,6.21-.4.69-3.13,0-4.58,0a111.89,111.89,0,0,0-22.32,1.19c-1.91.28-1.1,3.17.8,2.89Z"/><path class="cls-5" d="M1787.64,529.6c1.2,0,3.66-.93,4.36-1,1.12-.09,2-.18,3.9-.24l1.84,1.39c.18,3.56,1,23.79,1.17,27.35.08,1.53.44,6,.55,6.79s.09,5.74.46,7.28a64.7,64.7,0,0,1-.34,13.44,73.08,73.08,0,0,0-1.1,9.2c-.18,3.14.88,13.41,1.11,16.55l-1.79.21c-2.42.06-3.14.1-5.56.24l-2.67-.11c-.09-6.34.14-20-.1-26a51.13,51.13,0,0,0-1.07-8.65c-.48-2.32-.3-3-.82-8.2-.16-1.6-.28-8.52-.32-10.34-.08-3.56-1.63-23.77-1.71-27.33Z"/><path class="cls-6" d="M1788,531.05c2.49-.37,4.83-1.27,7.39-1.16.33,0,1.63,1.67,1,.6-.47-.86-.19.45-.16.74.29,3.47.3,7,.44,10.48.3,7.08.55,14.14,1.11,21.2.54,6.83,1.25,13.83.37,20.66-.62,4.8-1.42,9.42-1.15,14.28.23,4.18.69,8.34,1,12.52l1.5-1.5a64.53,64.53,0,0,1-10,.34l1.5,1.5c-.09-8,.16-16.07,0-24.1-.18-7.44-1.86-14.69-2.1-22.14-.36-11.45-1.52-22.86-1.87-34.31l-1.1,1.44,2.09-.55a1.51,1.51,0,0,0-.8-2.9l-2.09.56a1.53,1.53,0,0,0-1.1,1.45c.35,11.45,1.51,22.86,1.87,34.31.24,7.28,1.88,14.39,2.09,21.63.24,8.2,0,16.41.06,24.61a1.52,1.52,0,0,0,1.5,1.5,64.53,64.53,0,0,0,10-.34,1.54,1.54,0,0,0,1.5-1.5c-.35-4.54-.88-9.06-1.07-13.6-.22-5.41,1.13-10.63,1.46-16,.48-7.78-.58-15.51-1-23.26s-.66-15.46-1-23.18c-.1-2.26.29-4.43-1.23-6.1-2.73-3-7.68-.57-11-.09C1785.34,528.43,1786.15,531.32,1788,531.05Z"/><path class="cls-7" d="M1809.39,634.35a105.68,105.68,0,0,0-27.41.26l-.46-.54-1.16-13.17a19.31,19.31,0,0,1,.15-6.44,17.48,17.48,0,0,1,3-5.78,18.08,18.08,0,0,1,4.15-4.48c4.19-2.92,10.23-2.14,14.29,1s6.33,8.07,7.26,13.09.65,10.17.49,15.28"/><path class="cls-6" d="M1809.39,632.85c-7.88-.88-16.63-1.59-24.48-.1-2.61.49-2,.41-2.22-2.44-.12-1.89-.33-3.77-.5-5.65-.37-4.22-1.22-8.52.85-12.46,4.23-8.07,13.29-11.53,20.09-3.91,6.06,6.79,5.36,16.8,5.09,25.24-.06,1.93,2.94,1.93,3,0,.32-9.92.71-21.85-7.61-28.94-6.36-5.42-15-4.66-20.22,1.79-2.69,3.34-4.67,6.91-4.72,11.28a88.24,88.24,0,0,0,.69,8.88c.18,2.1-.15,6,.71,7.93,1.43,3.14,6.14,1.11,8.74.91a110.54,110.54,0,0,1,20.58.47c1.92.22,1.9-2.78,0-3Z"/><path class="cls-8" d="M1745.38,408a11.81,11.81,0,0,0-14.31,13.62,21.11,21.11,0,0,0-9.37,24.64,43,43,0,0,0-9,19.86,15.07,15.07,0,0,0,.14,7.16,6.71,6.71,0,0,0,5,4.73c-3.63,5.51-6.4,12.08-5.32,18.59s7.21,12.46,13.73,11.38c-.33,4.88-.61,10,1.39,14.46s7.1,7.95,11.75,6.44a15,15,0,0,0,13.17,11.76c5.88.44,11.59-2.7,17.48-2.27,2.88.21,5.66,1.28,8.55,1.34s6.18-1.3,6.9-4.1c3.32,4.18,9.76,4.21,14.78,2.39s9.48-5.06,14.65-6.38c3-.76,6.15-.85,9.06-1.87s5.69-3.35,5.91-6.43c.08-1-.42-4.17-.14-5.13.44-1.52,4-1.94,5.29-2.93,6.52-5.23,5.81-12.91,6.44-21.24.18-2.46.35-5-.6-7.28s-3.38-4.12-5.77-3.54a12,12,0,0,0,5.3-10.47c-.24-4.09-3.34-10.54-7-12.37.9-3.81,3.89-3.86,4.8-7.67,1.09-4.58.15-11.67-3.85-14.16-1.3-.81-4-.26-4.17-1.78-.09-.68,1-2.45,1.28-3.08a8.38,8.38,0,0,0,.36-6.1c-.77-1.93-5.82-5.09-7.83-4.55-8.29-10.31-18.9-14.53-32.1-13.59a21.72,21.72,0,0,1-5.22.05c-2-.35-3.81-1.4-5.71-2.15a19.75,19.75,0,0,0-13-.45c-2.27-4-4.62-5.89-9.24-5.9s-7.51,1.77-9.78,5.79Z"/><path class="cls-6" d="M1745.78,406.56c-7.33-1.21-14.52,2.71-16.11,10.31-.46,2.2,0,3.31-1.63,4.95a46.42,46.42,0,0,0-4.1,4.08,23.24,23.24,0,0,0-4.4,9.94,22,22,0,0,0-.37,5.12c.09,1.76,1,3.92.43,5.59s-2.49,3.56-3.45,5.29a47.16,47.16,0,0,0-3,6.52c-2.47,6.84-5,18.32,4.22,21.1l-.89-2.2c-4.14,6.51-7.62,14.78-4.72,22.49,2.26,6,7.93,10.33,14.42,9.74l-1.5-1.5c-.38,5.94-.7,12.66,3.09,17.68a11.5,11.5,0,0,0,12,4.66l-1.85-1.05c2.36,9.67,11.22,14.09,20.59,12.37,3.28-.6,6.55-1.77,9.91-1.8s6.72,1.36,10.15,1.37c3.8,0,6.9-1.68,8.35-5.2l-2.51.66c6.76,7.27,16.48,2.91,23.87-.75a36,36,0,0,1,9.75-3.39c2.66-.49,5.46-.74,7.92-2,3.21-1.65,5.35-4.38,5.41-8,.05-3.11-.72-3.42,2.23-4.93a12.82,12.82,0,0,0,4.61-3.32c2.7-3.18,3.7-7.18,4.17-11.23.73-6.47,3.36-21.86-7.28-21.32l.75,2.8c8.57-6.36,7.43-19.89-1.7-25.43l.69,1.69c.86-2.53,3.11-3.73,4.22-6a13.45,13.45,0,0,0,1-5.51c.08-3.75-.82-8.5-3.83-11.08-.87-.75-4-1.39-4.29-2.17-.2-.54,1.7-4.67,1.73-5.33.19-4.22-2.63-6.95-6.4-8.46-2.45-1-2.77-.95-4.73-3a38.15,38.15,0,0,0-5.61-4.85,34.51,34.51,0,0,0-13.91-5.82c-6.13-1.11-12.91.69-18.7-1.34s-10.58-3.39-16.84-1.72l1.69.69c-3-5-7.34-7.5-13.3-6.4a11.1,11.1,0,0,0-6.23,3.4c-.67.73-1.14,1.94-1.77,2.41a12.08,12.08,0,0,1-2.93,1c-1.81.64-1,3.54.8,2.9,3.15-1.11,3.64-1.37,5.77-3.85,4.6-5.37,11.81-3.42,15.07,2a1.54,1.54,0,0,0,1.69.69,19.54,19.54,0,0,1,10.67-.09c2.26.64,4.28,1.93,6.55,2.5,4.37,1.09,9.19-.18,13.68.23a33.09,33.09,0,0,1,14,4.44,33.73,33.73,0,0,1,5.73,4.34c1.28,1.19,2.75,3.81,4.3,4.57,1.39.68,2.93.5,4.38,1.36,3.49,2.07,3,5.45,1.79,8.76-.71,1.87-1.13,3.25.81,4.48,2.25,1.43,3.83.42,5.57,3.63a13.6,13.6,0,0,1,1.33,6.65c-.07,4.73-3.77,6.67-5.16,10.76a1.51,1.51,0,0,0,.69,1.7c7,4.25,8.48,15.21,1.7,20.25-1.09.8-.88,2.87.76,2.79,8.2-.41,4.53,21.36,2.3,25.45-2.54,4.67-9.3,4.26-9.21,10,0,1.6.4,3.37-.36,4.88-1.46,2.88-5,3.63-7.85,4.18a47.39,47.39,0,0,0-10.32,2.76c-6.85,3-16.44,9.78-23.12,2.61a1.51,1.51,0,0,0-2.5.66c-2.3,5.59-9.82,1.93-14,1.66a32.51,32.51,0,0,0-9.14,1.2c-8.74,2-17.64.34-20.06-9.59a1.53,1.53,0,0,0-1.85-1c-11.13,2.55-11.7-12.3-11.24-19.45a1.51,1.51,0,0,0-1.5-1.5c-6.69.61-11.93-5.07-12.42-11.51-.45-5.89,2.24-11.38,5.31-16.21a1.51,1.51,0,0,0-.9-2.2c-7.72-2.34-3.42-14.52-1.24-19.58a40,40,0,0,1,3.52-6.54c.84-1.27,2.51-2.59,2.7-4.18s-1-3.73-1-5.31a20.13,20.13,0,0,1,.7-6.32,19.8,19.8,0,0,1,9-11.72,1.47,1.47,0,0,0,.74-1.29c-.86-7.44,4.81-13.44,12.41-12.17C1746.87,409.77,1747.68,406.88,1745.78,406.56Z"/><path class="cls-5" d="M1811.05,445.52c.7-.59.75-1.61,1.29-2.35.41-.55,1.79-1,2.38-1.36a17.07,17.07,0,0,1,6.92-2.12c2.33-.2,2.77.89,4.65,2.18,1.62,1.11,5.3,17.43,8.66,36.76.35,2,2.6,7,2.93,9.07s-.56,7.56-.23,9.69c3.41,21.92,5.17,38,3.46,45-.29,1.17-.3,1.38-1.52,1.16s-2.34-.47-3.5-.71c-1.85-.38-7.17-1.19-7.41-3.71-.09-.93.92-1.87,1.34-2.63.83-1.47,1.41-3.11,2.09-4.65,2.1-4.8-7.15-48.6-14.93-72-2.63-7.9-4.31-13.55-6.11-14.47"/><path class="cls-6" d="M1812.34,446.28c2.2-3.48,9.64-7.64,13-3.23,1.34,1.76,1.75,5,2.27,7.07,2.45,9.54,3.56,19.36,5.88,28.91.78,3.18,2.64,6.21,3,9.48.3,3.08-.53,6.19-.25,9.28.91,10.14,3.09,20.14,3.79,30.33a75.54,75.54,0,0,1,.2,9.75c0,.89.17,2.83-.4,3.49-.91,1.07-3.28.11-5-.29-2.2-.51-4.52-.65-3.8-3.39.47-1.83,2-3.55,2.52-5.42a12.2,12.2,0,0,0,.34-3.62c-.15-12.65-3.86-25.81-6.73-38-2-8.6-4.23-17.18-6.81-25.64-1.43-4.71-2.94-9.44-4.64-14.07-.89-2.41-1.72-5.2-3.89-6.75-1.58-1.12-3.08,1.48-1.52,2.59,3.17,2.25,4.5,10.73,5.6,14.09,1.31,4,2.52,8.09,3.66,12.17q3.83,13.72,6.79,27.67a234.57,234.57,0,0,1,4.22,23.79,24.88,24.88,0,0,1,.26,6.33c-.43,2.74-4,5.91-3.61,8.76s4,3.75,6.29,4.3,6.52,2.43,8.4.49c1.31-1.35,1.22-5.19,1.3-6.92a92.92,92.92,0,0,0-.42-11.91c-.92-10.82-4.19-22.17-3.53-33a21.53,21.53,0,0,0-1.4-9.79c-1.91-5.35-2.6-10.94-3.68-16.52s-2.24-11.31-3.67-16.9c-.65-2.53-1.17-5.88-2.76-8.05-2-2.68-4.88-3.36-8-2.84-4.59.76-7.67,2.59-10,6.33-1,1.64,1.57,3.15,2.59,1.52Z"/><path class="cls-7" d="M1819.8,553.9a78.62,78.62,0,0,1,19.72,5.14l.43-.31,3.22-9.29a14.81,14.81,0,0,0,1.06-4.67,13.12,13.12,0,0,0-1.14-4.71,13.44,13.44,0,0,0-2.19-4c-2.49-2.86-7-3.39-10.47-1.89s-6,4.68-7.61,8.13a53.81,53.81,0,0,0-3.11,10.93"/><path class="cls-6" d="M1819.4,555.35a83.53,83.53,0,0,1,15.37,3.53c2,.69,4.35,2.57,6.24.91,1.13-1,1.52-3.91,2-5.3a68.35,68.35,0,0,0,2.31-7,14.47,14.47,0,0,0-1.88-10.31c-2.89-5.2-9.18-6.68-14.4-4-7.29,3.73-9.2,12.35-10.77,19.64-.41,1.88,2.48,2.69,2.89.8,1.11-5.16,2.1-11,5.81-15.07,5.69-6.17,14.34-3.75,15.49,4.8.44,3.28-1,6.3-2,9.38-.36,1-.62,2.88-1.29,3.72-1,1.25.22.74-1.83.12a110.63,110.63,0,0,0-17.12-4.14c-1.89-.26-2.71,2.63-.8,2.89Z"/><path class="cls-5" d="M1745.74,442.4c-.76-.52-.92-1.53-1.53-2.21a9,9,0,0,0-2.51-1.1,17,17,0,0,0-7.1-1.4c-2.34.05-2.66,1.17-4.4,2.66-1.49,1.26-3.47,17.88-4.81,37.45-.13,2-1.85,7.25-2,9.32s1.35,7.47,1.24,9.63c-1.12,22.15-1.2,38.36,1.22,45.12.41,1.14.44,1.34,1.64,1s2.27-.72,3.4-1.07c1.8-.57,7-1.93,7-4.46,0-.94-1.11-1.77-1.61-2.47-1-1.38-1.72-3-2.56-4.42-2.59-4.55,2.08-49.07,7.4-73.11,1.8-8.14,2.88-13.93,4.58-15"/><path class="cls-6" d="M1746.8,441.34c-2.66-3.37-5.44-4.55-10-5-3.19-.34-5.91.38-7.83,3.15-3.21,4.62-2.86,13.27-3.42,18.62-.63,5.92-1,11.85-1.54,17.78-.37,4-2.19,8-2.1,12.09.09,4.29,1.23,8.27,1,12.64-.29,6.25-.52,12.51-.56,18.76,0,7.14-.53,15.42,1.82,22.3.75,2.2,1.37,2.91,3.69,2.66,2.8-.29,8.46-2.11,10.38-4.39,1.7-2,1-3.46-.3-5.37-2-3-3.29-5-3.45-8.51-.33-7,.4-14.07,1-21q1.48-15.9,4.05-31.68c.79-4.87,1.67-9.72,2.7-14.54.66-3.1,1.31-6.21,2.07-9.29.48-1.95.78-4.76,2.36-6.15s-.68-3.39-2.12-2.12c-1.7,1.5-2.25,4.07-2.8,6.15-1.17,4.42-2.08,8.93-3,13.41-1.55,7.67-2.77,15.41-3.83,23.16-1.86,13.58-4,27.65-3.52,41.39A19.71,19.71,0,0,0,1732,530a10.09,10.09,0,0,0,.46,1.19c.57,1.39,3.38,4.16,3.43,5.46.09,2.55-3.21,3-5,3.57-1.95.63-3,1.59-3.76.61-1.48-1.93-1.23-6.68-1.39-9a242.3,242.3,0,0,1,0-26.68c.16-4,.65-7.93,0-11.85-.32-2-1-4.19-.89-6.25a37.17,37.17,0,0,1,1.38-6.06c2.32-10,1.82-20.85,3.23-31,.35-2.5.37-6.21,1.66-8.46,2.91-5.05,10.8-1.54,13.5,1.89,1.19,1.51,3.3-.62,2.12-2.12Z"/><path class="cls-7" d="M1748.26,551.1a78.3,78.3,0,0,0-19.08,7.16l-.47-.26-4.16-8.91a14.59,14.59,0,0,1-1.53-4.54,13.16,13.16,0,0,1,.64-4.81,13.66,13.66,0,0,1,1.76-4.18c2.19-3.1,6.6-4.1,10.23-3s6.48,4,8.4,7.3a53.87,53.87,0,0,1,4.23,10.54"/><path class="cls-6" d="M1747.86,549.66a84.35,84.35,0,0,0-14.08,4.71c-.9.39-3,1.81-3.85,1.81-.68,0,.27.71-.75-.72a35,35,0,0,1-4.39-9.75c-1.76-7.75,5.18-15.07,12.67-10.66,5.55,3.26,7.5,10.08,9.37,15.79.6,1.83,3.5,1,2.9-.79-2.28-6.93-4.92-15.12-12.18-18.32-5.3-2.34-11.8-.71-14.33,4.74a14.69,14.69,0,0,0-1,10.79,57.35,57.35,0,0,0,2.75,6.15c.7,1.5,1.46,4.58,2.73,5.65,1.82,1.52,3.49-.17,5.32-1a81.5,81.5,0,0,1,15.69-5.47c1.87-.46,1.08-3.35-.8-2.89Z"/><path class="cls-9" d="M1745,406.31c-6,4.92-2.39,14.77,1.75,19.6,4.34,5.07,9.47,9.18,14.72,13.26,2.6,2,5.23,4,7.94,5.87,3.19,2.21,6.91,4.1,8.13,8.07a1.52,1.52,0,0,0,2.51.66c6.53-7.63,17.36-9.7,24.6-16.74,7-6.85,14.82-15.3,13.59-25.85-.22-1.89-3.23-1.92-3,0,1.27,10.89-9.14,22.05-17.64,27.88-6.5,4.46-14.4,6.42-19.67,12.59l2.5.66c-1.05-3.43-3.33-5.58-6.19-7.61-5.13-3.64-10.21-7.24-15.12-11.18-4.15-3.33-8.84-7.1-11.77-11.62-2.31-3.56-4-10.36-.23-13.47,1.49-1.23-.64-3.34-2.12-2.12Z"/><text class="cls-16" transform="matrix(0.82, 0.57, -0.57, 0.82, 1770.74, 461.64)">T</text><path class="cls-5" d="M1770.34,329.54c-10.48,12-12.62,28.06-15.76,43.08A253.11,253.11,0,0,1,1744,409.25a20.28,20.28,0,0,0-1.55,5.75c-.33,5.11,3.5,9.67,8,12.62,7.68,5.07,17.46,6.79,27,7.09,11.88.38,25-1.8,32.79-10.21,5.75-6.21,7.54-14.81,7.13-22.9s-2.77-15.94-4.35-23.89c-2-9.88-2.75-20-5.29-29.74-1.36-5.26-3.28-10.47-6.61-14.9a23.45,23.45,0,0,0-14-9.11c-5.75-1.1-12.32.65-15.94,5"/><path class="cls-6" d="M1769.28,328.48c-14.23,16.91-14.66,40.89-20.5,61.3q-2.49,8.75-5.61,17.27c-1.7,4.68-3.3,8.84-1.09,13.65,3.68,8.05,13.43,12.08,21.52,13.89,16.53,3.68,40.62,3.05,50.67-13.06,5.16-8.27,5.16-18.44,3.61-27.74-1-6.16-2.73-12.19-3.86-18.33s-1.89-12.45-3-18.65c-2-11.11-5-23.47-14.71-30.39-8-5.68-19.33-6-26.28,1.47-1.32,1.4.8,3.53,2.12,2.12,7.49-8,19.65-5.11,26.34,2.37,6.52,7.3,8.41,17.74,10,27.09,1.59,9.63,3.13,19.16,5.23,28.7s3.69,19.92-.56,29.14c-7.8,16.91-31.29,17.74-47.1,14.72-7.91-1.5-21.54-6.06-22.06-15.87-.24-4.56,2.54-9.46,4-13.73q2.46-7.23,4.48-14.6c5.21-19,5.73-41.52,19-57.22,1.23-1.47-.88-3.61-2.12-2.13Z"/><path class="cls-5" d="M1764.88,338.23c-9.63,6.06-14.18,17.4-20.4,26.92a78.06,78.06,0,0,1-6.27,8.32,18.35,18.35,0,0,1-4.3,3.91c-1.34.79-5.32,3.8-6.72,4.49a27.25,27.25,0,0,0-5.36,2.91,29.5,29.5,0,0,1-13.54,5,8.7,8.7,0,0,1-3.87-.28c-2.35-.88-3.71-3.44-4-5.94-.42-4.07,1.58-8.08,4.42-11s6.45-5,10-7l18-10.18a65.58,65.58,0,0,0,8.36-5.31c2.34-1.84,4.42-4,6.71-5.91a40.66,40.66,0,0,1,13.64-7.43,4.14,4.14,0,0,1,2.35-.23,1.54,1.54,0,0,1,1.15,1.8"/><path class="cls-6" d="M1764.12,336.94c-10,6.68-14.55,17.72-20.94,27.46a48.51,48.51,0,0,1-13.36,14,100,100,0,0,1-12.24,7.15c-3.73,1.83-8.74,3.72-12.62,1.81-5.69-2.8-2.37-10.22,1-13.78,5.11-5.43,13.11-8.7,19.52-12.33,5.67-3.21,11.72-6.12,16.85-10.17,3.15-2.49,5.87-5.47,9.17-7.77,1.11-.77,11.75-7.11,12.17-4.66.32,1.9,3.21,1.09,2.89-.8-1.82-10.73-24.41,9.72-27.37,11.87-6.24,4.51-13.44,7.93-20.13,11.72-5.72,3.23-12.3,6.2-16.48,11.48-6.28,7.94-4,20,7.74,18.09,6.16-1,10.58-4.37,16-7a44.87,44.87,0,0,0,11.47-7.79c10.93-10.88,14.75-27.87,27.85-36.62,1.6-1.07.1-3.67-1.51-2.59Z"/><path class="cls-5" d="M1804,338.07c10.32,4.77,16.29,15.44,23.68,24.09a77.56,77.56,0,0,0,7.28,7.45,18.16,18.16,0,0,0,4.76,3.33c1.43.61,5.76,3.09,7.24,3.59a27.47,27.47,0,0,1,5.69,2.2,29.35,29.35,0,0,0,14.06,3.19,8.53,8.53,0,0,0,3.81-.77c2.21-1.18,3.24-3.89,3.17-6.4-.1-4.08-2.6-7.81-5.79-10.37s-7-4.14-10.82-5.68l-19.16-7.8a65.33,65.33,0,0,1-9-4.19c-2.56-1.53-4.89-3.4-7.41-5a40.48,40.48,0,0,0-14.47-5.63,4.2,4.2,0,0,0-2.36.06,1.53,1.53,0,0,0-.91,1.94"/><path class="cls-6" d="M1803.24,339.36c12.64,6.28,18.85,20.08,28.74,29.54a45.14,45.14,0,0,0,13.1,8.45c4.4,2,9.28,4.21,14,5.29,4.25,1,10.58,2,13.9-1.6s2.48-9,.26-12.8c-3.07-5.28-8.73-8.06-14.15-10.32-7.41-3.09-14.9-6-22.31-9.09-8-3.36-14.44-9.42-22.63-12.39-3.34-1.21-11.62-4.42-11.86,1.64-.08,1.93,2.92,1.93,3,0s12.19,3.05,12.47,3.19c3.43,1.78,6.41,4.22,9.67,6.26,5.53,3.45,11.91,5.56,17.92,8,7.37,3,16.77,5.29,22.64,10.91,3,2.89,7.45,11.25.91,13.71-3.19,1.21-8.28,0-11.37-1-10.49-3.4-20.25-8.42-27.66-16.71-8-9-13.94-20.1-25.12-25.64-1.72-.85-3.24,1.73-1.51,2.59Z"/><circle class="cls-11" cx="1767.41" cy="354.53" r="14.21"/><circle class="cls-12" cx="1767.17" cy="356.55" r="4.57"/><circle class="cls-11" cx="1798.17" cy="353.43" r="14.21"/><circle class="cls-12" cx="1796.97" cy="356.46" r="4.57"/><path d="M1751.64,365.79a19.23,19.23,0,0,0,4.43-1.48c.87-.42.11-1.71-.76-1.3a17,17,0,0,1-4.07,1.33c-.94.19-.54,1.64.4,1.45Z"/><path d="M1759.23,367.42c-1.31,1.33-2.78,2.47-4.19,3.69-.73.64.34,1.7,1.06,1.06,1.41-1.22,2.88-2.36,4.19-3.69.68-.69-.38-1.75-1.06-1.06Z"/><path d="M1763.66,369c0,1.67-.1,3.34-.1,5a.75.75,0,0,0,1.5,0c0-1.67.09-3.34.1-5a.75.75,0,0,0-1.5,0Z"/><path d="M1771,369.11a5.56,5.56,0,0,1,1.08,3.38.75.75,0,0,0,1.5,0,7,7,0,0,0-1.28-4.13c-.56-.78-1.86,0-1.3.75Z"/><path d="M1778.36,365.37c.42-.39,1.1-.05,1.39.34a4,4,0,0,1,.51,2.29c0,1,1.53,1,1.5,0,0-1.32-.19-2.83-1.31-3.7a2.4,2.4,0,0,0-3.15,0c-.71.66.35,1.72,1.06,1.06Z"/><path d="M1787.25,364.23A2.26,2.26,0,0,1,1786,366c-.85.45-.09,1.75.76,1.29a3.64,3.64,0,0,0,1.9-2.64.78.78,0,0,0-.53-.92.75.75,0,0,0-.92.52Z"/><path d="M1791.84,367.12a1.57,1.57,0,0,1-.57,1.88c-.8.53,0,1.83.76,1.3a3.1,3.1,0,0,0,1.26-3.58c-.32-.9-1.77-.51-1.45.4Z"/><path d="M1798,368.28a8.28,8.28,0,0,1,.29,3.86c-.16.94,1.28,1.35,1.44.4a9.93,9.93,0,0,0-.28-4.66c-.28-.92-1.73-.52-1.45.4Z"/><path d="M1803.75,367.85c.77-.07,1.62.8,1.24,1.59s.87,1.62,1.3.75a2.71,2.71,0,0,0-2.54-3.84c-1,.1-1,1.6,0,1.5Z"/><path d="M1788.07,343.29a20,20,0,0,1-.17-4.51c.07-1-1.43-1-1.5,0a21.26,21.26,0,0,0,.23,4.91c.15.95,1.59.54,1.44-.4Z"/><path d="M1793.29,339.8a2.17,2.17,0,0,1,.91-3c.86-.44.11-1.73-.75-1.3a3.68,3.68,0,0,0-1.46,5.07.75.75,0,0,0,1.3-.76Z"/><path d="M1799.07,338.88a6.29,6.29,0,0,1,.65-3.33c.44-.86-.86-1.62-1.29-.76a7.76,7.76,0,0,0-.86,4.09c.07,1,1.57,1,1.5,0Z"/><path d="M1803,339a2.61,2.61,0,0,1,1.09-2.63c.8-.54.05-1.84-.75-1.3a4.19,4.19,0,0,0-1.79,4.33c.19.95,1.63.55,1.45-.4Z"/><path d="M1777.35,343.55a11.62,11.62,0,0,0,1.13-3.82c.12-1-1.38-1-1.5,0a9.49,9.49,0,0,1-.93,3.07c-.43.86.86,1.62,1.3.75Z"/><path d="M1773.24,340.6a4.86,4.86,0,0,0-.43-3.58c-.46-.85-1.76-.09-1.3.76a3.29,3.29,0,0,1,.29,2.42.75.75,0,0,0,1.44.4Z"/><path d="M1768.2,339.42a4.6,4.6,0,0,0-3.36-4.12.75.75,0,0,0-.4,1.45,3.05,3.05,0,0,1,2.26,2.67c.07,1,1.57,1,1.5,0Z"/><path d="M1759.2,337.69v3.47a.75.75,0,0,0,1.5,0v-3.47a.75.75,0,0,0-1.5,0Z"/><path class="cls-17" d="M1786.24,314.68c-6.21,0-11.6,2.16-17.21,4.56a48.54,48.54,0,0,1-10.3,3.38c-2.46.46-4.44.71-6.35,2.44s-3.25,4.47-5.1,6.46c-2.1,2.27-4.55,4.16-6.47,6.61-1.78,2.28-2.31,4.58-3.44,7.14-.93,2.1-2.42,3.88-2.83,6.2-.88,4.94,3.53,9.14,3.89,14.13a23.58,23.58,0,0,1-5.74,17.19c-1.68,1.85-3.27,3.37-4.25,5.76-1.21,3-1.07,6-1.65,9.08-1.36,7.24-5.13,14.5-7.81,21.34-1.41,3.6,4.39,5.16,5.79,1.6,2.55-6.54,5.86-13.23,7.54-20.05.56-2.28.58-4.63,1-6.93.58-3.38,2.37-5,4.48-7.48,6-7,8.48-18.07,5.49-26.91-.66-2-2.94-4.62-2.86-6.62s2.25-4.35,3-6.2c2.2-5.6,6.59-8.38,10.19-13,2.14-2.74,2.68-4,6.39-4.87a53.58,53.58,0,0,0,8.66-2.6c5.82-2.37,11.2-5.22,17.63-5.22,3.86,0,3.87-6,0-6Z"/><path class="cls-17" d="M1789.19,321.71a41.56,41.56,0,0,1-9,.76,16.33,16.33,0,0,0-1.64-.18c.25-.18-.81.6.49.92.39.1-.25,1.27.34-.1a3.55,3.55,0,0,0,.16-2.23c-1.67-6.05-13.81,1.4-16.38,2.51-3.09,1.33-.85,6.75,2.31,5.48,2.32-.92-.3-4-1.76-3.47-.27.1-1,1.32-1.2,1.57a46.22,46.22,0,0,1-3.62,3.79c-1.27,1.24-2.57,2.46-3.91,3.61a12.83,12.83,0,0,0-1.65,1.36c-1,1.25-1.81-.44,1,.39l2.1,2.1,0,1.34c1-3.79-4.44-5.14-5.79-1.59a45.31,45.31,0,0,0-3.1,16.44c0,5.58,2.68,10.6,2.91,16,.12,3.07-1.12,6.28-1.6,9.31-.38,2.42-.68,4.85-1,7.29-.82,6.88-1.58,13.69-3.57,20.35-1.1,3.71,4.69,5.3,5.79,1.6a102.74,102.74,0,0,0,3.24-17.31c.76-6.38,2.23-12.68,3-19,.54-4.55-1.49-8.77-2.33-13.15-1.3-6.71,0-13.65,2.42-19.95l-5.79-1.59c-1,3.67,2.85,4.62,5.38,3.19,3-1.67,5.6-4.62,8-7,1.89-1.9,5.06-4.55,5.61-7.34.73-3.69-2.82-4.9-5.71-3.74l2.31,5.48c2.65-1.14,5.3-2.34,8-3.34a6.52,6.52,0,0,0,1.66-.59c.58-.47.45-.22.41-.16q-2-5.43-2.58-3.22l-.06.16a2.93,2.93,0,0,0-.26.66,4.41,4.41,0,0,0-.15,2.52c1.49,6.46,13.52,3.48,17.53,2.89,3.81-.56,2.19-6.34-1.59-5.78Z"/><path class="cls-17" d="M1787.77,325.72c5.34-.3,9.78,2.82,13.69,6.12,3.24,2.74,7.49,5.94,9.29,9.85,1.89,4.09,2,8.79,2.75,13.16.86,4.8,3.26,8.91,3.08,13.87-.16,4.75-1.4,9.44-1.16,14.21.23,4.33,1.73,7.6,4,11.23,1.2,1.91,2.43,3.69,2.63,6,.17,1.92-.11,3.72.37,5.62,1,4,4.32,7.26,4.72,11.38.36,3.81,6.37,3.85,6,0-.44-4.56-3.12-7.6-4.57-11.78-.82-2.34-.24-4.68-.66-7.05a17.35,17.35,0,0,0-2.58-6c-1.24-2-2.81-4-3.49-6.33-.86-3-.45-6.31-.1-9.33.62-5.44,1.59-10.87-.34-16.17-3.2-8.74-2-19.36-8.82-26.48-6.33-6.64-15-14.81-24.83-14.25-3.84.21-3.86,6.21,0,6Z"/><path class="cls-17" d="M1786.2,320.5c9.63.06,19.53,4.86,26.39,11.59,2.52,2.46,3.52,5.63,5.36,8.5,1,1.61,2.68,2.88,3.59,4.53,1.15,2.08,1.33,4.93,2,7.17,1.35,4.21,3.27,8.19,4.74,12.35,1.4,4,1.5,8,2.54,12.06,2.23,8.67,8.85,15.64,13.13,23.31,1.88,3.37,7.07.35,5.18-3-5.09-9.12-11.72-16.24-13.25-26.87-.72-5-2.79-9.53-4.63-14.16-1.68-4.24-2.18-9.37-4.3-13.33a32.45,32.45,0,0,0-3.11-4,62.08,62.08,0,0,1-3.25-5.73,28.62,28.62,0,0,0-8-8.31c-7.84-5.93-16.52-10-26.49-10.06-3.86,0-3.87,6,0,6Z"/><path class="cls-17" d="M1776.82,325.5c2.91,0,5.49,4.36,8.08,5.61,3.85,1.85,8.53-.78,11.95,2s6.38,6.36,9.22,9.48c3.46,3.8,5.31,8.1,8,12.41,2.83,4.61,5.23,7.57,4.39,13.14a19.9,19.9,0,0,0,1.81,11c2.25,5.3,5.66,10.06,7.27,15.62,1.52,5.25,2,10.74,3,16.1.71,3.79,6.49,2.18,5.79-1.6-1.11-5.9-1.61-12-3.54-17.72s-5.67-10.55-7.65-16.21c-1.71-4.89.79-9.45-.9-14.33-1.6-4.62-4.91-8.46-7.1-12.8a46.49,46.49,0,0,0-8.37-11.47c-3-3.09-6.43-7.94-10.25-9.89-4.11-2.09-8.93.56-12.59-2.21-3-2.26-5-5-9.1-5.06-3.86-.06-3.86,5.94,0,6Z"/><path class="cls-17" d="M1788.36,322.27c-4.33-.78-8.3.15-12.46,1.42a56.09,56.09,0,0,1-7.06,2c-1.79.3-4-.18-5.68.71-1.09.59-1.71,1.78-2.51,2.65a26.49,26.49,0,0,0-4,4.71,155.36,155.36,0,0,0-8.19,14.56c-4.23,9.23-2.27,19.6-6.73,28.83-2.14,4.43-4.13,7.95-4.7,13-.61,5.37-.18,10.8-.48,16.19-.21,3.86,5.79,3.85,6,0,.26-4.6,0-9.21.28-13.8.34-5.07,2.33-8.56,4.4-13a45.64,45.64,0,0,0,3.53-11.75c.68-4.14.35-8.5,1.47-12.52,2.25-8,8-17.32,13.85-23.05.83-.82.19-.49-.42-.26a12.31,12.31,0,0,1,2.59-.09,30.58,30.58,0,0,0,4.93-1c4.3-1.17,9-3.56,13.56-2.74,3.77.68,5.39-5.1,1.59-5.78Z"/><path class="cls-17" d="M1782.86,317.35c-5.63.51-10.25,2.77-14.87,5.91-2.54,1.73-5,3.6-7.71,5.09-2,1.13-4.39,1.66-6.31,3a23.67,23.67,0,0,0-7.3,9.15c-1.74,3.79-1.12,9.11-1.43,13.22-.44,5.68,1.1,11.2,1.12,16.89a118.3,118.3,0,0,1-1.16,14.32,70.68,70.68,0,0,0,3.8,33.66c1.31,3.6,7.11,2.05,5.78-1.59a64.52,64.52,0,0,1-3.84-29.78c1-9,2-17.54.6-26.55-.75-4.95.27-9.59.3-14.55a12.17,12.17,0,0,1,4.81-9.2c3.18-2.62,7.94-4,11.46-6.42,4.58-3.14,9-6.59,14.75-7.11,3.81-.34,3.85-6.34,0-6Z"/><path class="cls-17" d="M1784,322.91c10.28-.45,23.08,8.31,26.42,18.06,1.53,4.47,2,9.24,3.42,13.75a52.44,52.44,0,0,0,5.58,11.53,37.75,37.75,0,0,0,8.13,9.71c3.55,3,6.88,4.46,8.31,9.12,2.29,7.49,1.59,15.6,7.39,21.64,2.67,2.79,6.91-1.45,4.24-4.24-6-6.22-3.54-16.56-7.85-23.77-2.39-4-6.79-5.76-10-8.95-3.47-3.43-6-7.82-8.16-12.16-4.29-8.54-3.28-19.23-9.85-26.73s-17.21-14.42-27.6-14c-3.84.18-3.87,6.18,0,6Z"/><path class="cls-17" d="M1780.83,314c-5.78.58-11.66-.83-17.39.28-4.68.9-8.34,3.63-11.67,6.92-7.67,7.6-15.13,16.58-17.7,27.3-1.39,5.77-1.33,11.73-1.82,17.61-.57,6.81-2.47,13.29-4,19.91-2.5,10.68-3.53,22.21,2.79,31.8,2.12,3.21,7.32.2,5.18-3-6-9.13-4-19.91-1.53-29.87a137,137,0,0,0,3.17-14.87c.69-5.3.59-10.68,1.3-16,1.39-10.27,7.23-18.4,14.15-25.79,3.53-3.77,7.13-7.71,12.56-8.32,5-.55,10,.54,15,0,3.8-.38,3.84-6.39,0-6Z"/><path class="cls-17" d="M1780.8,330.24c3.72,1.18,6.3,3.27,9.5,5.31s6.55,2.79,9.32,5.67c2.18,2.27,3.89,4.95,5.9,7.37,1.73,2.08,6.69,4.9,7.31,7.45.92,3.75,6.7,2.16,5.79-1.6s-4-5.1-6.6-7.6c-3.09-3-5.23-6.75-8.16-9.86s-6-4.17-9.57-6.1c-4.1-2.23-7.32-5-11.89-6.42-3.69-1.18-5.27,4.62-1.6,5.78Z"/><path class="cls-17" d="M1773,324c-2.51,1.64-5.74,3.08-7.83,5.23-1.64,1.68-2.41,3.33-4.39,4.81-2.93,2.2-5.85,4.69-7.46,8.06-1.17,2.44-1,5.54-2.91,7.53-3.26,3.41-8.26,4.46-11.39,8.2-2.46,2.94,1.76,7.21,4.25,4.24,2.84-3.4,7.22-4.65,10.54-7.47,2.65-2.25,3.39-4.69,4.25-7.89,1-3.54,3.46-5.79,6.36-7.95a19.16,19.16,0,0,0,4.41-4c1.86-2.43,4.57-3.84,7.2-5.56,3.22-2.1.22-7.3-3-5.18Z"/><path class="cls-17" d="M1784.55,322.57c4.66-2.09,9.61,1,10.71,5.7.86,3.64.46,7.34,3.19,10.31,2.88,3.12,7.63,3.23,9.86,7.1s1.92,9.24,1.92,13.66c0,5.64-.06,11.28,0,16.92,0,3.65.55,6.32,3.62,8.55,9.91,7.18,4.34,19.31,5.56,29.66.44,3.79,6.45,3.83,6,0-1.2-10.24,3.88-23-4.17-31.53-2.34-2.49-4.5-2.73-5-6.68-.45-3.51,0-7.4,0-10.95,0-5.62.41-11.43-.71-17-.85-4.16-2.87-8.16-6.54-10.5-2-1.3-5.19-1.81-6.56-4s-.88-5.93-1.68-8.51c-2.52-8.11-11.85-11.26-19.21-8-3.51,1.57-.47,6.74,3,5.18Z"/><path class="cls-18" d="M1410.77,482.8c-59.79,0-108.27-28.21-108.27-63s48.48-63,108.27-63S1519,385,1519,419.8,1470.57,482.8,1410.77,482.8Z"/><path class="cls-18" d="M1517.36,416.09l-15.15,27.8h30.29Z"/><path d="M1380.88,428.25c0-.9-.07-1.84-.1-2.82s0-2.15,0-3.45l-1.7,0h-3.9q-.92,0-1.65,0c0,1.05,0,2.07,0,3.05s0,2-.1,3.18a3.88,3.88,0,0,1-.12.92,1.16,1.16,0,0,1-.23.5.53.53,0,0,1-.35.2,1.67,1.67,0,0,1-.42,0,1,1,0,0,1-.75-.3,2.26,2.26,0,0,1-.35-1.35c0-.6-.06-1.22-.08-1.87s0-1.35,0-2.1,0-1.56,0-2.43v-3c0-1.18,0-2.19,0-3s.06-1.55.12-2.08a3.07,3.07,0,0,1,.38-1.17.79.79,0,0,1,.7-.38,1.11,1.11,0,0,1,.75.28,1.84,1.84,0,0,1,.37,1.27c0,.57.06,1.08.08,1.55s0,.9,0,1.35,0,.88,0,1.35v1.55c1.25-.05,2.48-.07,3.68-.07.58,0,1.16,0,1.75,0s1.21,0,1.82.08v-.73c0-1.18,0-2.19,0-3s.06-1.55.12-2.08a3.07,3.07,0,0,1,.38-1.17.79.79,0,0,1,.7-.38,1.11,1.11,0,0,1,.75.28,1.84,1.84,0,0,1,.37,1.27c0,.6.06,1.13.08,1.6s0,.93,0,1.4,0,.93,0,1.43V422c0,.68,0,1.35,0,2s0,1.34,0,2,0,1.4-.08,2.15a3.88,3.88,0,0,1-.12.92,1.16,1.16,0,0,1-.23.5.53.53,0,0,1-.35.2,1.67,1.67,0,0,1-.42,0,1,1,0,0,1-.75-.3A2.26,2.26,0,0,1,1380.88,428.25Zm5.58,0c0-.62-.06-1.32-.1-2.1s0-1.67,0-2.62c0-1.19,0-2.2,0-3a20.24,20.24,0,0,1,.13-2.07,3.14,3.14,0,0,1,.37-1.2.78.78,0,0,1,.7-.4,1.05,1.05,0,0,1,.75.3,2,2,0,0,1,.38,1.3q.15,2.63.15,5.07c0,.83,0,1.62,0,2.35s-.07,1.51-.1,2.38a3.79,3.79,0,0,1-.13.92,1.16,1.16,0,0,1-.22.5.55.55,0,0,1-.35.2,1.75,1.75,0,0,1-.43,0,1,1,0,0,1-.75-.3A2.34,2.34,0,0,1,1386.46,428.25Zm1.13-15.95a1.51,1.51,0,0,1,1.05.45,1.41,1.41,0,0,1,.5,1.08,1.38,1.38,0,0,1-.5,1.05,1.72,1.72,0,0,1-1.13.42,1.49,1.49,0,0,1-1.45-1.52,1.36,1.36,0,0,1,.45-1A1.54,1.54,0,0,1,1387.59,412.3Zm12.49,22.08a3.81,3.81,0,0,1-.63.85.89.89,0,0,1-.65.27,1.28,1.28,0,0,1-.7-.22.72.72,0,0,1-.35-.63,3.35,3.35,0,0,1,.25-1.07c.18-.47.4-1,.65-1.53s.54-1.12.83-1.7l.77-1.6.18-.37c-.5-1-1-2-1.55-3.15s-1-2.18-1.43-3.18-.79-1.87-1.07-2.6a5.77,5.77,0,0,1-.4-1.47.7.7,0,0,1,.25-.55.93.93,0,0,1,.67-.25,1.64,1.64,0,0,1,.68.15,1.32,1.32,0,0,1,.6.6c.26.5.54,1.07.82,1.72s.59,1.3.88,2l.9,2.13c.31.71.63,1.4,1,2.07.36-.68.75-1.4,1.17-2.15s.82-1.47,1.2-2.17l1.1-1.93c.33-.6.62-1.1.85-1.5a2.7,2.7,0,0,1,.7-.82,1.22,1.22,0,0,1,.73-.25.76.76,0,0,1,.5.22.69.69,0,0,1,.25.55,5.24,5.24,0,0,1-.48,1.7c-.3.77-.69,1.66-1.17,2.68s-1,2.1-1.65,3.27-1.2,2.28-1.8,3.4S1402,431,1401.4,432Zm15.66-17.25a6.82,6.82,0,0,1,2.55.45,5.06,5.06,0,0,1,1.9,1.22,5.16,5.16,0,0,1,1.23,1.95,7.51,7.51,0,0,1,.42,2.58,7.38,7.38,0,0,1-.5,2.82,5.88,5.88,0,0,1-1.35,2.13,5.82,5.82,0,0,1-2,1.35,6.91,6.91,0,0,1-2.57.47,6.54,6.54,0,0,1-2.7-.52,5.74,5.74,0,0,1-2-1.43,6.23,6.23,0,0,1-1.18-2.07,7.86,7.86,0,0,1-.4-2.48,7.2,7.2,0,0,1,.45-2.6,5.87,5.87,0,0,1,3.43-3.4A7.4,7.4,0,0,1,1415.74,417.13Zm-.27,10.67a4,4,0,0,0,1.75-.35,3.38,3.38,0,0,0,1.17-1,3.59,3.59,0,0,0,.68-1.35,5.72,5.72,0,0,0,.22-1.6,5.29,5.29,0,0,0-.22-1.58,3.39,3.39,0,0,0-.65-1.3,2.71,2.71,0,0,0-1.13-.85,3.66,3.66,0,0,0-1.62-.32,4.06,4.06,0,0,0-1.7.32,3.7,3.7,0,0,0-1.23.9A4,4,0,0,0,1412,422a5.27,5.27,0,0,0-.25,1.67,4.65,4.65,0,0,0,.92,3A3.44,3.44,0,0,0,1415.47,427.8Zm10.81-9.32c0,.43,0,.95,0,1.57s0,1.27,0,1.95.09,1.34.18,2a7.92,7.92,0,0,0,.42,1.8,3.6,3.6,0,0,0,.88,1.3,2.16,2.16,0,0,0,1.47.5,2.09,2.09,0,0,0,1.45-.5,3.26,3.26,0,0,0,.88-1.3,7.9,7.9,0,0,0,.45-1.8c.08-.69.13-1.36.15-2s0-1.33,0-1.95,0-1.14,0-1.57c.07-1,.49-1.55,1.28-1.55a.94.94,0,0,1,.7.25,1.44,1.44,0,0,1,.35.7,5.1,5.1,0,0,1,.15,1.07c0,.42,0,.88,0,1.4,0,1.07-.06,2.18-.17,3.33a11,11,0,0,1-.73,3.12,5.76,5.76,0,0,1-1.65,2.35,5.14,5.14,0,0,1-5.9,0,5.9,5.9,0,0,1-1.67-2.35,12.08,12.08,0,0,1-.73-3.12q-.15-1.73-.15-3.33c0-.52,0-1,0-1.4a5.27,5.27,0,0,1,.12-1.07,1.47,1.47,0,0,1,.38-.7.92.92,0,0,1,.7-.25C1425.79,416.93,1426.21,417.44,1426.28,418.48Zm11.52-5.88a2.18,2.18,0,0,1,.35-1.32,1,1,0,0,1,.75-.33,1.75,1.75,0,0,1,.43.05.55.55,0,0,1,.35.2,1.16,1.16,0,0,1,.22.5,3.89,3.89,0,0,1,.13.93c0,.86.07,1.71.1,2.55s0,1.66,0,2.5c0,.41,0,.79,0,1.12s0,.67,0,1,0,.68-.05,1,0,.74,0,1.17a3.53,3.53,0,0,1-.13.83,1.3,1.3,0,0,1-.25.47.78.78,0,0,1-.35.25,1.56,1.56,0,0,1-.4.05.94.94,0,0,1-.7-.25,2,2,0,0,1-.37-1,15.19,15.19,0,0,1-.13-1.82c0-.77,0-1.75,0-2.93,0-.95,0-1.87,0-2.77S1437.77,413.22,1437.8,412.6Zm1.1,14.45a1.47,1.47,0,0,1,1,.45,1.38,1.38,0,0,1,.5,1.08,1.35,1.35,0,0,1-.5,1.05,1.68,1.68,0,0,1-1.12.42,1.49,1.49,0,0,1-1.45-1.52,1.36,1.36,0,0,1,.45-1A1.52,1.52,0,0,1,1438.9,427.05Z"/><path class="cls-18" d="M1603.77,359.8c-59.79,0-108.27-28.21-108.27-63s48.48-63,108.27-63S1712,262,1712,296.8,1663.57,359.8,1603.77,359.8Z"/><path class="cls-18" d="M1710.36,293.09l-15.15,27.8h30.29Z"/><path d="M1545.85,273.05a1.4,1.4,0,0,1,.45-.57,1.21,1.21,0,0,1,.68-.23,1,1,0,0,1,.62.23,1.36,1.36,0,0,1,.48.55c.63,1.3,1.26,2.7,1.87,4.22s1.18,2.93,1.68,4.28q.42-3.11.92-6.25c.34-2.1.71-4.11,1.13-6a1.32,1.32,0,0,1,.22-.52,1,1,0,0,1,.33-.33,1.13,1.13,0,0,1,.35-.17,1.09,1.09,0,0,1,.32-.05,1,1,0,0,1,.7.25.73.73,0,0,1,.28.62,14.7,14.7,0,0,1-.15,1.6c-.1.75-.23,1.63-.4,2.65s-.36,2.07-.58,3.2-.4,2.23-.6,3.28-.39,2-.57,2.87-.33,1.53-.45,2a1.88,1.88,0,0,1-.45.87,1.35,1.35,0,0,1-1.9-.25,9,9,0,0,1-.9-1.7c-.32-.77-.7-1.74-1.15-2.92s-1-2.64-1.75-4.3c-.73,1.66-1.33,3.1-1.8,4.3s-.84,2.18-1.18,2.95a7.37,7.37,0,0,1-.9,1.7,1.24,1.24,0,0,1-1,.52,1.33,1.33,0,0,1-1.32-1.15q-.19-.67-.48-1.95c-.18-.87-.37-1.82-.57-2.87s-.38-2.14-.58-3.25-.37-2.2-.52-3.2-.28-1.88-.38-2.63-.12-1.3-.12-1.6a1,1,0,0,1,.27-.7,1.09,1.09,0,0,1,.78-.27,1.14,1.14,0,0,1,.67.22,1.28,1.28,0,0,1,.48.85q.6,2.88,1.05,6t1,6.25c.52-1.22,1-2.51,1.55-3.88S1545.09,274.75,1545.85,273.05Zm17.7,8.15a15.21,15.21,0,0,1-1.85-.12,9.75,9.75,0,0,1-2.07-.6,3.39,3.39,0,0,0,1.25,2.3,5,5,0,0,0,3,.77,9.39,9.39,0,0,0,1.25-.07l1-.2c.28-.09.53-.15.75-.2a2,2,0,0,1,.6-.1,1.14,1.14,0,0,1,.67.22.75.75,0,0,1,.33.7,1.25,1.25,0,0,1-.53,1,4.2,4.2,0,0,1-1.25.65,7.47,7.47,0,0,1-1.55.3,13.77,13.77,0,0,1-1.45.1,9.07,9.07,0,0,1-2.72-.4,6,6,0,0,1-2.13-1.2,5.76,5.76,0,0,1-1.4-2,7.29,7.29,0,0,1-.5-2.8,7.37,7.37,0,0,1,.48-2.75,5.87,5.87,0,0,1,1.35-2,5.6,5.6,0,0,1,2-1.25,7.55,7.55,0,0,1,4.55-.15,5.14,5.14,0,0,1,1.75.82,3.92,3.92,0,0,1,1.22,1.4,3.81,3.81,0,0,1,.48,1.95,3.56,3.56,0,0,1-.38,1.7,2.9,2.9,0,0,1-1.07,1.13,4.94,4.94,0,0,1-1.65.62A10.57,10.57,0,0,1,1563.55,281.2Zm-.17-5.8a4.69,4.69,0,0,0-1.3.18,3.24,3.24,0,0,0-1.15.52,2.91,2.91,0,0,0-.85.95,4,4,0,0,0-.48,1.45,9,9,0,0,0,1.85.6,11.61,11.61,0,0,0,1.9.15,5.17,5.17,0,0,0,2.18-.35,1.36,1.36,0,0,0,.72-1.32,2,2,0,0,0-.67-1.53A3.06,3.06,0,0,0,1563.38,275.4Zm7.93,9c0-.6,0-1.3,0-2.1s0-1.67,0-2.6,0-1.92,0-2.95v-3.17c0-1.19,0-2.2,0-3s.06-1.55.12-2.1a3.12,3.12,0,0,1,.38-1.2.77.77,0,0,1,.7-.4,1.15,1.15,0,0,1,.75.27,1.87,1.87,0,0,1,.37,1.28c.07,1.2.11,2.45.13,3.75s0,2.55,0,3.8v2.17c0,.68,0,1.37,0,2.05s0,1.35-.05,2,0,1.43-.08,2.18a3.88,3.88,0,0,1-.12.92,1.16,1.16,0,0,1-.23.5.53.53,0,0,1-.35.2,1.67,1.67,0,0,1-.42.05,1,1,0,0,1-.75-.3A2.26,2.26,0,0,1,1571.31,284.35Zm11.14-11.3a8,8,0,0,1,1.45.13,7,7,0,0,1,1.35.35,3.09,3.09,0,0,1,1,.55,1,1,0,0,1,.38.75c0,.73-.42,1.1-1.25,1.1a2.25,2.25,0,0,1-.58-.08,3.14,3.14,0,0,0-.6-.17,6,6,0,0,0-.87-.18,6.87,6.87,0,0,0-1.3-.1,3.08,3.08,0,0,0-2.55,1.13,4.52,4.52,0,0,0-.9,2.92,5.17,5.17,0,0,0,.9,3.18,3.08,3.08,0,0,0,2.6,1.2,6.59,6.59,0,0,0,1.7-.18,4.93,4.93,0,0,0,1-.4,5.61,5.61,0,0,0,.67-.4,1.09,1.09,0,0,1,.6-.17,1,1,0,0,1,.7.2c.19.11.28.36.28.75a1.4,1.4,0,0,1-.48,1.05,3.58,3.58,0,0,1-1.15.75,6.92,6.92,0,0,1-1.52.45,8.15,8.15,0,0,1-1.48.15,6.53,6.53,0,0,1-4.75-1.68,6.32,6.32,0,0,1-1.72-4.75,7.62,7.62,0,0,1,.4-2.5,6,6,0,0,1,1.25-2.1,5.9,5.9,0,0,1,2-1.42A7.14,7.14,0,0,1,1582.45,273.05Zm12.5.08a6.82,6.82,0,0,1,2.55.45,5.14,5.14,0,0,1,1.9,1.22,5.26,5.26,0,0,1,1.22,1.95,7.27,7.27,0,0,1,.43,2.58,7.58,7.58,0,0,1-.5,2.82,6.15,6.15,0,0,1-1.35,2.13,5.91,5.91,0,0,1-2,1.35,6.93,6.93,0,0,1-2.58.47,6.6,6.6,0,0,1-2.7-.52,5.94,5.94,0,0,1-1.95-1.43,6.39,6.39,0,0,1-1.17-2.07,7.58,7.58,0,0,1-.4-2.48,7.2,7.2,0,0,1,.45-2.6,6.13,6.13,0,0,1,1.32-2.05,6.21,6.21,0,0,1,2.1-1.35A7.45,7.45,0,0,1,1595,273.13Zm-.28,10.67a4,4,0,0,0,1.75-.35,3.33,3.33,0,0,0,1.18-1,3.57,3.57,0,0,0,.67-1.35,5.73,5.73,0,0,0,.23-1.6,5.29,5.29,0,0,0-.23-1.58,3.39,3.39,0,0,0-.65-1.3,2.68,2.68,0,0,0-1.12-.85,3.68,3.68,0,0,0-1.63-.32,4.09,4.09,0,0,0-1.7.32,3.56,3.56,0,0,0-1.22.9,3.8,3.8,0,0,0-.73,1.33,5.57,5.57,0,0,0-.25,1.67,4.6,4.6,0,0,0,.93,3A3.42,3.42,0,0,0,1594.67,283.8Zm25.47,1.25a3.8,3.8,0,0,1-.2-.95c0-.35,0-.78,0-1.3V282c0-.22,0-.4,0-.55v-.47c0-.17,0-.4,0-.68,0-.58,0-1.17,0-1.75a5.9,5.9,0,0,0-.25-1.6,2.64,2.64,0,0,0-.7-1.17,1.92,1.92,0,0,0-1.37-.45,2.63,2.63,0,0,0-2.38,1.45,10.52,10.52,0,0,0-1,4.62c0,.67,0,1.28,0,1.83a9.55,9.55,0,0,1-.1,1.42,2,2,0,0,1-.38.9,1,1,0,0,1-.85.33,1,1,0,0,1-.8-.28,2,2,0,0,1-.37-.87,10.15,10.15,0,0,1-.13-1.4c0-.55,0-1.2-.07-1.93s-.14-1.57-.25-2.3a6.89,6.89,0,0,0-.53-1.92,3.27,3.27,0,0,0-1-1.35,2.31,2.31,0,0,0-1.55-.5,2,2,0,0,0-1.4.45,2.42,2.42,0,0,0-.7,1.15,6.19,6.19,0,0,0-.28,1.6c0,.58,0,1.17,0,1.77v.68c0,.13,0,.25,0,.37v.45c0,.18,0,.47,0,.85,0,.55,0,1,0,1.43a3.59,3.59,0,0,1-.18,1,1,1,0,0,1-.47.63,2,2,0,0,1-.55.1,1,1,0,0,1-1-.55,4.56,4.56,0,0,1-.25-1.6c0-.39,0-.81,0-1.28V279c0-.23,0-.47,0-.7s0-.53,0-.85a5.76,5.76,0,0,1,.55-2.42,3.76,3.76,0,0,1,1.12-1.4,3.16,3.16,0,0,1,1.4-.6,7.08,7.08,0,0,1,1.38-.15,5.66,5.66,0,0,1,2.27.4,4,4,0,0,1,1.5,1.05,4.09,4.09,0,0,1,.88,1.47,7.61,7.61,0,0,1,.4,1.68,6.7,6.7,0,0,1,.4-1.63,4.32,4.32,0,0,1,.92-1.45,4.74,4.74,0,0,1,1.6-1,6.27,6.27,0,0,1,2.4-.4,6.62,6.62,0,0,1,1.38.15,2.83,2.83,0,0,1,1.32.6,3.63,3.63,0,0,1,1,1.38,6.25,6.25,0,0,1,.5,2.37c0,.32,0,.6,0,.85s0,.47,0,.7,0,.48,0,.73v.87c0,.68,0,1.27,0,1.75v1.28a7.85,7.85,0,0,1-.05.87,2.14,2.14,0,0,1-.15.68,1.15,1.15,0,0,1-.37.45,1.25,1.25,0,0,1-.68.15,1.18,1.18,0,0,1-.65-.15A1.29,1.29,0,0,1,1620.14,285.05Zm11-3.85a15.21,15.21,0,0,1-1.85-.12,9.75,9.75,0,0,1-2.07-.6,3.35,3.35,0,0,0,1.25,2.3,5,5,0,0,0,3,.77,9.49,9.49,0,0,0,1.25-.07l1-.2c.28-.09.53-.15.75-.2a1.89,1.89,0,0,1,.6-.1,1.16,1.16,0,0,1,.67.22.75.75,0,0,1,.33.7,1.25,1.25,0,0,1-.53,1,4.2,4.2,0,0,1-1.25.65,7.47,7.47,0,0,1-1.55.3,13.77,13.77,0,0,1-1.45.1,9.07,9.07,0,0,1-2.72-.4,6,6,0,0,1-2.13-1.2,5.63,5.63,0,0,1-1.4-2,7.29,7.29,0,0,1-.5-2.8,7.37,7.37,0,0,1,.48-2.75,5.87,5.87,0,0,1,1.35-2,5.51,5.51,0,0,1,2-1.25,7.55,7.55,0,0,1,4.55-.15,5.23,5.23,0,0,1,1.75.82,4,4,0,0,1,1.22,1.4,3.81,3.81,0,0,1,.48,1.95,3.56,3.56,0,0,1-.38,1.7,3,3,0,0,1-1.07,1.13,4.94,4.94,0,0,1-1.65.62A10.71,10.71,0,0,1,1631.13,281.2Zm-.17-5.8a4.64,4.64,0,0,0-1.3.18,3.24,3.24,0,0,0-1.15.52,2.81,2.81,0,0,0-.85.95,3.64,3.64,0,0,0-.48,1.45,8.84,8.84,0,0,0,1.85.6,11.52,11.52,0,0,0,1.9.15,5.2,5.2,0,0,0,2.18-.35,1.36,1.36,0,0,0,.72-1.32,2,2,0,0,0-.67-1.53A3.08,3.08,0,0,0,1631,275.4Zm15.15,8.78c0-1.05-.08-2.3-.1-3.73v-4.92l-.6,0h-.52l-.83,0a2,2,0,0,1-.62-.15,1,1,0,0,1-.43-.35,1.34,1.34,0,0,1-.15-.68q0-1.2,1.8-1.2h.68a4.17,4.17,0,0,1,.67.05c0-.88,0-1.59,0-2.12a5.21,5.21,0,0,1,.18-1.23,1,1,0,0,1,.37-.57,1.22,1.22,0,0,1,.63-.15.86.86,0,0,1,.65.27,1.8,1.8,0,0,1,.37.7,3.41,3.41,0,0,1,.18.95c0,.35,0,.69,0,1s0,.45,0,.65v.5a2.52,2.52,0,0,1,.73-.1l.72,0a2.82,2.82,0,0,1,1.43.3,1,1,0,0,1,.5.93,1.11,1.11,0,0,1-.18.65,1.21,1.21,0,0,1-.47.35,2.41,2.41,0,0,1-.68.17c-.25,0-.52,0-.82,0h-.58a3.64,3.64,0,0,1-.6,0v2.42c0,.73,0,1.44,0,2.13s0,1.33,0,2,0,1.37-.08,2.12a4.6,4.6,0,0,1-.12.93,1.22,1.22,0,0,1-.23.5.7.7,0,0,1-.35.22,2.58,2.58,0,0,1-.42,0,1.12,1.12,0,0,1-.78-.3A2.26,2.26,0,0,1,1646.11,284.18Zm13.32-11.05a6.82,6.82,0,0,1,2.55.45,5.14,5.14,0,0,1,1.9,1.22,5.26,5.26,0,0,1,1.22,1.95,7.27,7.27,0,0,1,.43,2.58,7.58,7.58,0,0,1-.5,2.82,6.15,6.15,0,0,1-1.35,2.13,5.91,5.91,0,0,1-2,1.35,7,7,0,0,1-2.58.47,6.6,6.6,0,0,1-2.7-.52,5.94,5.94,0,0,1-1.95-1.43,6.21,6.21,0,0,1-1.17-2.07,7.58,7.58,0,0,1-.4-2.48,7.2,7.2,0,0,1,.45-2.6,6,6,0,0,1,1.32-2.05,6.21,6.21,0,0,1,2.1-1.35A7.45,7.45,0,0,1,1659.43,273.13Zm-.28,10.67a4,4,0,0,0,1.75-.35,3.33,3.33,0,0,0,1.18-1,3.72,3.72,0,0,0,.67-1.35,5.73,5.73,0,0,0,.23-1.6,5.29,5.29,0,0,0-.23-1.58,3.39,3.39,0,0,0-.65-1.3,2.74,2.74,0,0,0-1.12-.85,3.68,3.68,0,0,0-1.63-.32,4.09,4.09,0,0,0-1.7.32,3.56,3.56,0,0,0-1.22.9,3.8,3.8,0,0,0-.73,1.33,5.57,5.57,0,0,0-.25,1.67,4.6,4.6,0,0,0,.93,3A3.42,3.42,0,0,0,1659.15,283.8ZM1542,321.38a3.53,3.53,0,0,1-.62.85.89.89,0,0,1-.65.27,1.28,1.28,0,0,1-.7-.22.72.72,0,0,1-.35-.63,3.35,3.35,0,0,1,.25-1.07c.18-.47.4-1,.65-1.53l.82-1.7c.29-.58.55-1.12.78-1.6l.17-.37c-.5-1-1-2-1.55-3.15s-1-2.18-1.42-3.18-.79-1.87-1.08-2.6a6.26,6.26,0,0,1-.4-1.47.73.73,0,0,1,.25-.55,1,1,0,0,1,.68-.25,1.56,1.56,0,0,1,.67.15,1.23,1.23,0,0,1,.6.6c.27.5.55,1.07.83,1.72s.59,1.3.87,2l.9,2.13c.32.71.64,1.4.95,2.07.37-.68.76-1.4,1.18-2.15s.82-1.47,1.2-2.17l1.1-1.93c.33-.6.62-1.1.85-1.5a2.7,2.7,0,0,1,.7-.82,1.19,1.19,0,0,1,.72-.25.73.73,0,0,1,.5.22.66.66,0,0,1,.25.55,5.15,5.15,0,0,1-.47,1.7c-.3.77-.69,1.66-1.18,2.68s-1,2.1-1.65,3.27-1.2,2.28-1.8,3.4-1.17,2.13-1.72,3.1S1542.3,320.73,1542,321.38Zm15.67-17.25a6.82,6.82,0,0,1,2.55.45,5.14,5.14,0,0,1,1.9,1.22,5.41,5.41,0,0,1,1.23,1.95,8.17,8.17,0,0,1-.08,5.4,6.15,6.15,0,0,1-1.35,2.13,5.91,5.91,0,0,1-2,1.35,6.91,6.91,0,0,1-2.57.47,6.54,6.54,0,0,1-2.7-.52,5.74,5.74,0,0,1-2-1.43,6.23,6.23,0,0,1-1.18-2.07,7.58,7.58,0,0,1-.4-2.48,7.2,7.2,0,0,1,.45-2.6,5.87,5.87,0,0,1,3.43-3.4A7.36,7.36,0,0,1,1557.62,304.13Zm-.27,10.67a4.08,4.08,0,0,0,1.75-.35,3.38,3.38,0,0,0,1.17-1,3.74,3.74,0,0,0,.68-1.35,5.72,5.72,0,0,0,.22-1.6A5.29,5.29,0,0,0,1561,309a3.53,3.53,0,0,0-.65-1.3,2.78,2.78,0,0,0-1.13-.85,3.66,3.66,0,0,0-1.62-.32,4.06,4.06,0,0,0-1.7.32,3.5,3.5,0,0,0-1.23.9,3.63,3.63,0,0,0-.72,1.33,5.27,5.27,0,0,0-.25,1.67,4.59,4.59,0,0,0,.92,3A3.43,3.43,0,0,0,1557.35,314.8Zm10.81-9.32a15.56,15.56,0,0,1,0,1.57q0,.93,0,1.95c0,.67.09,1.34.17,2a8.48,8.48,0,0,0,.43,1.8,3.58,3.58,0,0,0,.87,1.3,2.21,2.21,0,0,0,1.48.5,2.09,2.09,0,0,0,1.45-.5,3.24,3.24,0,0,0,.87-1.3,7,7,0,0,0,.45-1.8,17.65,17.65,0,0,0,.15-2c0-.68,0-1.33,0-1.95s0-1.14.05-1.57c.06-1,.49-1.55,1.27-1.55a.92.92,0,0,1,.7.25,1.29,1.29,0,0,1,.35.7,4.05,4.05,0,0,1,.15,1.07c0,.42,0,.88,0,1.4a32.1,32.1,0,0,1-.18,3.33,11,11,0,0,1-.72,3.12,5.76,5.76,0,0,1-1.65,2.35,5.14,5.14,0,0,1-5.9,0,5.92,5.92,0,0,1-1.68-2.35,12.07,12.07,0,0,1-.72-3.12q-.15-1.73-.15-3.33c0-.52,0-1,0-1.4a6,6,0,0,1,.13-1.07,1.55,1.55,0,0,1,.37-.7.94.94,0,0,1,.7-.25C1567.67,303.93,1568.09,304.44,1568.16,305.48Zm11.5,9.8c-.07-.59-.11-1.3-.13-2.13s0-1.84,0-3V307.3a13,13,0,0,1,.15-1.9,2.78,2.78,0,0,1,.37-1.32.91.91,0,0,1,.7-.3,2.12,2.12,0,0,1,.53.05.78.78,0,0,1,.42.22.94.94,0,0,1,.3.45,2.64,2.64,0,0,1,.1.83.75.75,0,0,0,0,.2v.22a1.69,1.69,0,0,1,0,.25,7.23,7.23,0,0,1,1.53-1.45,3.4,3.4,0,0,1,2-.6c1,0,1.48.41,1.48,1.23a1.35,1.35,0,0,1-.2.75,1.51,1.51,0,0,1-.53.5,3.46,3.46,0,0,1-.77.27l-.95.2a4.22,4.22,0,0,0-1.5.58,2,2,0,0,0-1,1v.7c0,.15,0,.28,0,.38a1.58,1.58,0,0,1,0,.32v.55c0,.85,0,1.65,0,2.4s-.07,1.53-.1,2.4a3.32,3.32,0,0,1-.15.93,1.26,1.26,0,0,1-.28.5.6.6,0,0,1-.35.2,1.83,1.83,0,0,1-.4.05,1.2,1.2,0,0,1-1-.3A3.18,3.18,0,0,1,1579.66,315.28Zm17.24,5.12c0,.32,0,.62,0,.9a2.41,2.41,0,0,1-.18.8,1.07,1.07,0,0,1-.4.55,1,1,0,0,1-.72.23,1.25,1.25,0,0,1-.93-.4,2.22,2.22,0,0,1-.4-1.35c0-.42,0-.93-.07-1.53s-.07-1.23-.1-1.9,0-1.33-.08-2,0-1.28,0-1.85a23.72,23.72,0,0,1,.4-4.82,8,8,0,0,1,1.25-3,4.38,4.38,0,0,1,2-1.57,8.2,8.2,0,0,1,2.83-.45,7,7,0,0,1,2.4.4,4.92,4.92,0,0,1,1.95,1.2,5.45,5.45,0,0,1,1.35,2.1,8.47,8.47,0,0,1,.5,3.07,6.33,6.33,0,0,1-.53,2.65,5.41,5.41,0,0,1-1.4,2,6.29,6.29,0,0,1-2.12,1.2,8,8,0,0,1-2.58.4,4.75,4.75,0,0,1-2.12-.47,3.89,3.89,0,0,1-1.33-1.08c.09.93.15,1.8.2,2.6S1596.9,319.6,1596.9,320.4Zm3.45-13.92a3.58,3.58,0,0,0-1.52.3,2.78,2.78,0,0,0-1,.82,3.92,3.92,0,0,0-.6,1.25,7.09,7.09,0,0,0-.17,1.58,8,8,0,0,0,.15,1.57,4,4,0,0,0,.55,1.28,2.74,2.74,0,0,0,1,.87,3.22,3.22,0,0,0,1.52.33,5,5,0,0,0,1.35-.18,2.92,2.92,0,0,0,1.15-.65,3,3,0,0,0,.83-1.2,4.65,4.65,0,0,0,.32-1.87,5,5,0,0,0-.32-1.93,3.16,3.16,0,0,0-.83-1.27,2.6,2.6,0,0,0-1.15-.7A3.85,3.85,0,0,0,1600.35,306.48Zm8.68,8.8c-.07-.59-.11-1.3-.13-2.13s0-1.84,0-3V307.3a13,13,0,0,1,.15-1.9,2.78,2.78,0,0,1,.37-1.32.91.91,0,0,1,.7-.3,2.12,2.12,0,0,1,.53.05.78.78,0,0,1,.42.22.94.94,0,0,1,.3.45,2.64,2.64,0,0,1,.1.83.75.75,0,0,0,0,.2v.22a1.69,1.69,0,0,1,0,.25,7.23,7.23,0,0,1,1.53-1.45,3.4,3.4,0,0,1,2-.6c1,0,1.48.41,1.48,1.23a1.35,1.35,0,0,1-.2.75,1.51,1.51,0,0,1-.53.5,3.46,3.46,0,0,1-.77.27l-1,.2a4.22,4.22,0,0,0-1.5.58,2,2,0,0,0-1,1v.7c0,.15,0,.28,0,.38a1.58,1.58,0,0,1,0,.32v.55c0,.85,0,1.65-.05,2.4s-.07,1.53-.1,2.4a3.32,3.32,0,0,1-.15.93,1.26,1.26,0,0,1-.28.5.6.6,0,0,1-.35.2,1.83,1.83,0,0,1-.4.05,1.2,1.2,0,0,1-1-.3A3.18,3.18,0,0,1,1609,315.28Zm14.7-11.15a6.82,6.82,0,0,1,2.55.45,5.06,5.06,0,0,1,1.9,1.22,5.16,5.16,0,0,1,1.23,1.95,7.51,7.51,0,0,1,.42,2.58,7.38,7.38,0,0,1-.5,2.82,5.88,5.88,0,0,1-1.35,2.13,5.82,5.82,0,0,1-2,1.35,6.91,6.91,0,0,1-2.57.47,6.54,6.54,0,0,1-2.7-.52,5.74,5.74,0,0,1-2-1.43,6.23,6.23,0,0,1-1.18-2.07,7.86,7.86,0,0,1-.4-2.48,7.2,7.2,0,0,1,.45-2.6,5.87,5.87,0,0,1,3.43-3.4A7.4,7.4,0,0,1,1623.73,304.13Zm-.27,10.67a4,4,0,0,0,1.75-.35,3.38,3.38,0,0,0,1.17-1,3.59,3.59,0,0,0,.68-1.35,5.72,5.72,0,0,0,.22-1.6,5.29,5.29,0,0,0-.22-1.58,3.39,3.39,0,0,0-.65-1.3,2.71,2.71,0,0,0-1.13-.85,3.66,3.66,0,0,0-1.62-.32,4.06,4.06,0,0,0-1.7.32,3.7,3.7,0,0,0-1.23.9A4,4,0,0,0,1620,309a5.27,5.27,0,0,0-.25,1.67,4.65,4.65,0,0,0,.92,3A3.44,3.44,0,0,0,1623.46,314.8Zm9.21-8.15-.55.05h-.5a2.29,2.29,0,0,1-1.22-.25,1.1,1.1,0,0,1-.43-1,1.19,1.19,0,0,1,.33-.9,1.56,1.56,0,0,1,1.22-.35,9.57,9.57,0,0,1,1.18.07V302.8a7.79,7.79,0,0,1,.22-1.9,4.59,4.59,0,0,1,.7-1.57,3.33,3.33,0,0,1,1.23-1.1,3.75,3.75,0,0,1,1.87-.43,2.42,2.42,0,0,1,1.4.3,1,1,0,0,1,.4.93.73.73,0,0,1-.52.8,4.38,4.38,0,0,1-1.2.15,1.36,1.36,0,0,0-1.25.72,3.6,3.6,0,0,0-.4,1.78v1.75a2.7,2.7,0,0,1,.62-.08c.22,0,.44,0,.68,0a2.14,2.14,0,0,1,1.3.3,1.12,1.12,0,0,1,.4.95,1.06,1.06,0,0,1-.53,1.07,3.61,3.61,0,0,1-1.4.23h-.52a3.31,3.31,0,0,1-.55-.05v8.6a3.55,3.55,0,0,1-.1.92,1.19,1.19,0,0,1-.28.5.67.67,0,0,1-.4.2,2.42,2.42,0,0,1-.47,0,1.41,1.41,0,0,1-.45-.07.81.81,0,0,1-.4-.23,2.09,2.09,0,0,1-.28-.52,2.81,2.81,0,0,1-.1-.83Zm7.45,8.6c0-.62-.07-1.32-.1-2.1s0-1.67,0-2.62c0-1.19,0-2.2,0-3a20.24,20.24,0,0,1,.13-2.07,3,3,0,0,1,.37-1.2.78.78,0,0,1,.7-.4,1.08,1.08,0,0,1,.75.3,2,2,0,0,1,.38,1.3q.15,2.63.15,5.07c0,.83,0,1.62,0,2.35s-.07,1.51-.1,2.38a3.79,3.79,0,0,1-.13.92,1.16,1.16,0,0,1-.22.5.55.55,0,0,1-.35.2,1.75,1.75,0,0,1-.43,0,1,1,0,0,1-.75-.3A2.26,2.26,0,0,1,1640.12,315.25Zm1.13-15.95a1.51,1.51,0,0,1,1,.45,1.41,1.41,0,0,1,.5,1.08,1.38,1.38,0,0,1-.5,1.05,1.72,1.72,0,0,1-1.13.42,1.49,1.49,0,0,1-1.45-1.52,1.36,1.36,0,0,1,.45-1A1.54,1.54,0,0,1,1641.25,299.3Zm4.5,16.05c0-.6,0-1.3,0-2.1s0-1.67,0-2.6,0-1.92,0-2.95v-3.17c0-1.19,0-2.2,0-3a19,19,0,0,1,.12-2.1,3,3,0,0,1,.38-1.2.77.77,0,0,1,.7-.4,1.15,1.15,0,0,1,.75.27,1.87,1.87,0,0,1,.37,1.28c.07,1.2.11,2.45.13,3.75s0,2.55,0,3.8v2.17c0,.68,0,1.37,0,2.05s0,1.35,0,2,0,1.43-.08,2.18a4.48,4.48,0,0,1-.12.92,1.16,1.16,0,0,1-.23.5.55.55,0,0,1-.35.2,1.73,1.73,0,0,1-.42.05,1,1,0,0,1-.75-.3A2.26,2.26,0,0,1,1645.75,315.35ZM1657,312.2a15.21,15.21,0,0,1-1.85-.12,9.75,9.75,0,0,1-2.07-.6,3.35,3.35,0,0,0,1.25,2.3,5,5,0,0,0,3,.77,9.49,9.49,0,0,0,1.25-.07l1-.2c.28-.09.53-.15.75-.2a1.89,1.89,0,0,1,.6-.1,1.14,1.14,0,0,1,.67.22.75.75,0,0,1,.33.7,1.25,1.25,0,0,1-.53,1,4.2,4.2,0,0,1-1.25.65,7.47,7.47,0,0,1-1.55.3,13.77,13.77,0,0,1-1.45.1,9.07,9.07,0,0,1-2.72-.4,6,6,0,0,1-2.13-1.2,5.76,5.76,0,0,1-1.4-2,7.29,7.29,0,0,1-.5-2.8,7.37,7.37,0,0,1,.48-2.75,5.87,5.87,0,0,1,1.35-2,5.51,5.51,0,0,1,2-1.25,7.55,7.55,0,0,1,4.55-.15,5.23,5.23,0,0,1,1.75.82,4,4,0,0,1,1.22,1.4,3.81,3.81,0,0,1,.48,1.95,3.56,3.56,0,0,1-.38,1.7,3,3,0,0,1-1.07,1.13,4.94,4.94,0,0,1-1.65.62A10.64,10.64,0,0,1,1657,312.2Zm-.17-5.8a4.64,4.64,0,0,0-1.3.18,3.24,3.24,0,0,0-1.15.52,2.81,2.81,0,0,0-.85.95,3.81,3.81,0,0,0-.48,1.45,9,9,0,0,0,1.85.6,11.61,11.61,0,0,0,1.9.15,5.17,5.17,0,0,0,2.18-.35,1.36,1.36,0,0,0,.72-1.32,2,2,0,0,0-.67-1.53A3.08,3.08,0,0,0,1656.79,306.4Zm7.93-6.8a2.11,2.11,0,0,1,.35-1.32,1,1,0,0,1,.75-.33,1.73,1.73,0,0,1,.42.05.55.55,0,0,1,.35.2,1.16,1.16,0,0,1,.23.5,4.6,4.6,0,0,1,.12.93c0,.86.07,1.71.1,2.55s0,1.66,0,2.5c0,.41,0,.79,0,1.12s0,.67,0,1,0,.68,0,1,0,.74,0,1.17a4.21,4.21,0,0,1-.12.83,1.48,1.48,0,0,1-.25.47.84.84,0,0,1-.35.25,1.62,1.62,0,0,1-.4.05.92.92,0,0,1-.7-.25,1.89,1.89,0,0,1-.38-1,13.61,13.61,0,0,1-.12-1.82c0-.77,0-1.75,0-2.93,0-.95,0-1.87,0-2.77S1664.68,300.22,1664.72,299.6Zm1.1,14.45a1.51,1.51,0,0,1,1,.45,1.41,1.41,0,0,1,.5,1.08,1.38,1.38,0,0,1-.5,1.05,1.72,1.72,0,0,1-1.13.42,1.49,1.49,0,0,1-1.45-1.52,1.36,1.36,0,0,1,.45-1A1.54,1.54,0,0,1,1665.82,314.05Z"/><g class="cls-19"><path class="cls-18" d="M1793.8,212.74a4.11,4.11,0,0,0,.44,2.18c.18.63.18.88,1.51,2.16,2.69,2.52,7.68,3,12.13,3,5.21,0,15.76-3.21,19-6.11l3.53-5.3c-.62.31-.66.65-.88.93a13.61,13.61,0,0,0-.88,1.25c-.36.5-.53,1-.89,1.56-.22.41-.75.87-.75,1.43a6.42,6.42,0,0,0,1,4.18,9.24,9.24,0,0,0,4.1,2.56c9.67,3.68,16.12,2.81,26.93,1.5a33,33,0,0,0,10.64-3.18,10.09,10.09,0,0,0,3.62-3.09,5.56,5.56,0,0,0,.71-5c-.31-.94-1.11-3.8-1.55-4.24l2,6.45c6.27.6,12.19-.09,17.44-2.65s8.65-7.11,7.68-11.53c-.79-3.59-4.19-6.61-7.86-9.14-7.77-5.33-18.54-9.45-29.18-7.95a15.4,15.4,0,0,0-5,1.43l6.84-1.68c6.23-3.05,5.21-8.95,2.83-14.06-1.24-2.71-7.37-6.92-13.86-8.39-5.7-1.31-12.23-.09-13.69.94l-.75,4.64c.89-4.42,1.28-9.76-3.84-12.47a21,21,0,0,0-7.94-1.84,67.16,67.16,0,0,0-35.14,7.49,41.42,41.42,0,0,0-5.3,2.8c-6.49,4.58-9.14,7.95-8.83,15.28l8.92,2.52a34.44,34.44,0,0,0-7.42-1.84c-5-.84-10.77,1.56-14.74,3.75a49.57,49.57,0,0,0-4.81,4.27c-2.7,2.49-4.82,5.58-4.11,8.7s4.15,4.74,8.48,5.42a19.9,19.9,0,0,0,4.85-.62c2.52-.56,5-2,5.74-2.18l-4.41,1.87a8.92,8.92,0,0,0-3.89,8,8.22,8.22,0,0,0,4.28,6.36c3.8,2.31,10.07,3.12,15.59,2.4s13.37-5.24,16.68-7.76"/><path class="cls-5" d="M1793.14,212.74c-.13,3.43,3,6.14,7.55,7.17a31.75,31.75,0,0,0,14.83-.53,47.26,47.26,0,0,0,7.15-2.4c1.64-.71,3.76-1.59,4.82-2.77a42.8,42.8,0,0,0,3.53-5.3c.31-.47-.49-1-1.06-.56-1.55,1.09-2.43,3.05-3.22,4.49a5.2,5.2,0,0,0,.57,5.17c1.24,1.78,3.84,2.78,6.27,3.59a38.87,38.87,0,0,0,8.12,1.84c5.47.59,11-.13,16.42-.78s12-2.25,15.14-5.74a6.22,6.22,0,0,0,1.55-6c-.4-1.46-.66-3.27-1.68-4.58-.4-.47-1.37-.16-1.19.37.66,2.16,1.32,4.31,2,6.46a.7.7,0,0,0,.62.34c6.44.56,13-.19,18.27-3,4.29-2.25,7.33-5.8,7.64-9.6.31-4.34-3.31-8.05-7.46-11a49.32,49.32,0,0,0-15.89-7.55c-6.05-1.62-14.22-2.27-19.87.44-.57.28-.22,1,.53.84,2.83-.68,6.32-1.12,8.52-2.62,4.11-2.83,3.89-7.2,2.7-10.85a11.66,11.66,0,0,0-3-5.17,26.29,26.29,0,0,0-6.4-4.24,27.13,27.13,0,0,0-18.15-2c-1.59.41-2.34.72-2.56,1.87-.22,1.34-.44,2.65-.66,4-.09.53,1.19.65,1.28.12.75-3.84,1.41-8.51-2.29-11.75-4.2-3.62-12.72-3.53-18.77-3.12a69.87,69.87,0,0,0-20.88,4.8c-5.73,2.31-11.34,5.05-15.4,8.76a15,15,0,0,0-5,12.47c0,.22.22.38.48.44,3,.81,6,1.62,9,2.46.7.19,1.14-.59.53-.84a28.89,28.89,0,0,0-9.76-2.09,23.41,23.41,0,0,0-9,2,20.14,20.14,0,0,0-6.27,3.77c-2.07,1.9-4.32,3.8-5.74,6-2.29,3.65-1.94,8,3.31,10.22a13,13,0,0,0,7,1,22.51,22.51,0,0,0,4.81-1.15c1.28-.47,2.43-1.15,3.71-1.56l-.66-.81c-1.42.59-2.92,1.12-4.29,1.81a7.82,7.82,0,0,0-3.62,4.21c-1.63,4-.57,8.7,4.33,11.35s12.49,3.18,18.1,1.65a45.76,45.76,0,0,0,14.52-7.36c.58-.44-.35-1.09-.92-.65a47,47,0,0,1-12.23,6.57,25.82,25.82,0,0,1-17.26-.28c-5.52-2.27-6.93-6.92-5.26-11a6.67,6.67,0,0,1,3.71-3.93c1.19-.5,2.39-1,3.58-1.53.75-.31.09-1.06-.66-.81-2.21.72-4,1.81-6.36,2.31a12.52,12.52,0,0,1-7.55-.53c-6-2.34-4.72-7.42-1.63-10.95a27.13,27.13,0,0,1,9.8-7.45,22.38,22.38,0,0,1,8.34-2,27,27,0,0,1,9.45,2c.17-.28.35-.56.53-.84-3-.81-6-1.62-9-2.47a4.79,4.79,0,0,0,.48.44c-.13-3.71.49-7.33,3.36-10.51,3.18-3.52,7.77-5.92,12.58-8.23a68.91,68.91,0,0,1,18-5.64c6.14-1,14-1.59,20,.12,7.28,2.09,6.8,8.3,5.87,12.88.44,0,.88.09,1.28.13.18-1.22.4-2.41.57-3.62,0-.22,0-.63.14-.81s.17-.06.17-.06c.75-.63,2.92-.82,4-1a26.15,26.15,0,0,1,20.26,6.14,12.72,12.72,0,0,1,3.22,6.21c.58,2.3.71,4.86-.79,7a7.85,7.85,0,0,1-5,3.06c-1.59.4-3.23.78-4.81,1.18.17.28.35.56.53.84,6.26-3,15.36-1.65,21.67.5s12.49,5.65,16.47,9.79c4.28,4.46,4,9.89-1.11,14s-13,5.3-20.39,4.68a6,6,0,0,1,.62.34c-.67-2.15-1.33-4.3-2-6.45l-1.2.37c.93,1.15,1.11,2.84,1.46,4.12.79,2.77-.44,5.45-3.53,7.29-5.17,3.06-12.27,3.74-18.72,4.27a41.24,41.24,0,0,1-16.64-1.59c-3.84-1.24-6.71-2.74-6.89-6a8.49,8.49,0,0,1,3.18-5.93l-1.06-.56c-1.06,1.59-2.07,3.21-3.18,4.8-1.59,2.18-5.82,3.53-8.87,4.49a34.42,34.42,0,0,1-13.16,1.78c-5.38-.41-10.33-2.59-10.19-6.77C1794.47,212.15,1793.14,212.15,1793.14,212.74Z"/></g><g class="cls-20"><path class="cls-18" d="M1603.3,136.09A5.13,5.13,0,0,0,1604,139c.26.83.26,1.16,2.2,2.87,3.94,3.36,11.24,4,17.77,4,7.62,0,23.07-4.28,27.85-8.15l5.17-7.07c-.9.42-1,.88-1.29,1.25a17.39,17.39,0,0,0-1.29,1.66c-.52.67-.78,1.29-1.3,2.08-.32.54-1.09,1.16-1.09,1.91,0,1.92.06,3.91,1.48,5.57s3.62,2.58,6,3.41c14.15,4.91,23.59,3.74,39.42,2a51.35,51.35,0,0,0,15.58-4.24,14.35,14.35,0,0,0,5.3-4.12,6.84,6.84,0,0,0,1-6.69c-.45-1.25-1.62-5.07-2.26-5.65l3,8.6c9.18.79,17.84-.12,25.53-3.53s12.66-9.48,11.24-15.38c-1.16-4.78-6.14-8.82-11.5-12.18-11.37-7.11-27.14-12.6-42.72-10.61a24,24,0,0,0-7.36,1.92l10-2.25c9.11-4.07,7.63-11.93,4.14-18.75-1.81-3.61-10.79-9.23-20.29-11.18-8.34-1.75-17.9-.12-20,1.25l-1.1,6.19c1.3-5.9,1.88-13-5.62-16.63-3.29-1.58-7.49-2.16-11.63-2.45a106.4,106.4,0,0,0-51.44,10c-3,1.41-5.17,2.08-7.76,3.74-9.5,6.11-13.37,10.6-12.92,20.37l13,3.37a53.12,53.12,0,0,0-10.85-2.46c-7.31-1.12-15.77,2.08-21.59,5-1.23.63-4.59,3.62-7,5.7-3.94,3.32-7,7.44-6,11.6s6.07,6.31,12.41,7.23a33.16,33.16,0,0,0,7.1-.83c3.69-.75,7.31-2.66,8.41-2.91l-6.47,2.49a11.53,11.53,0,0,0-5.68,10.73c.32,3.07,2.13,6.23,6.27,8.48,5.55,3.07,14.73,4.16,22.81,3.2s19.58-7,24.43-10.35"/><path class="cls-5" d="M1602.34,136.09c-.2,4.57,4.33,8.19,11.05,9.56a51,51,0,0,0,21.71-.71,75,75,0,0,0,10.47-3.2c2.39-1,5.49-2.12,7-3.7,2.14-2.12,3.49-4.78,5.17-7.07.46-.62-.71-1.28-1.55-.74-2.26,1.45-3.55,4.07-4.72,6s-.64,5,.84,6.9c1.81,2.37,5.63,3.7,9.18,4.78a60.7,60.7,0,0,0,11.89,2.46c8,.79,16.16-.17,24-1,8.08-.88,17.51-3,22.17-7.65a7.79,7.79,0,0,0,2.26-8c-.58-1.95-1-4.36-2.46-6.11-.58-.62-2-.2-1.74.5,1,2.87,1.94,5.74,3,8.61.13.29.52.41.91.45,9.43.75,19-.24,26.75-3.94,6.27-3,10.73-7.74,11.18-12.81.45-5.78-4.85-10.72-10.92-14.67a75.47,75.47,0,0,0-23.27-10.06c-8.85-2.17-20.8-3-29.08.58-.84.37-.32,1.37.78,1.12,4.14-.91,9.24-1.5,12.47-3.49,6-3.78,5.69-9.6,3.94-14.47a15.12,15.12,0,0,0-4.33-6.9,38.63,38.63,0,0,0-9.37-5.65,43.25,43.25,0,0,0-26.56-2.62c-2.32.54-3.42,1-3.74,2.49-.33,1.79-.65,3.54-1,5.32-.13.71,1.74.88,1.87.17,1.1-5.11,2.07-11.35-3.36-15.67-6.14-4.82-18.61-4.7-27.47-4.16a110.82,110.82,0,0,0-30.56,6.4c-8.4,3.08-16.61,6.74-22.56,11.68a19.15,19.15,0,0,0-7.3,16.63c0,.29.32.5.71.58,4.4,1.09,8.73,2.17,13.12,3.29,1,.25,1.68-.79.78-1.12A45.65,45.65,0,0,0,1579.39,87a37.38,37.38,0,0,0-13.24,2.7,30.18,30.18,0,0,0-9.18,5c-3,2.54-6.33,5.08-8.4,8-3.36,4.86-2.84,10.72,4.85,13.63a20.81,20.81,0,0,0,10.21,1.37,36.12,36.12,0,0,0,7-1.53c1.87-.63,3.55-1.54,5.43-2.08-.32-.38-.65-.71-1-1.08-2.07.79-4.27,1.49-6.27,2.41a10.75,10.75,0,0,0-5.3,5.61c-2.39,5.36-.84,11.6,6.33,15.13s18.29,4.24,26.5,2.21a69.71,69.71,0,0,0,21.26-9.82c.84-.58-.52-1.45-1.36-.87a70.71,70.71,0,0,1-17.9,8.77,41.27,41.27,0,0,1-25.26-.37c-8.08-3-10.15-9.23-7.69-14.72a9.27,9.27,0,0,1,5.42-5.24c1.75-.66,3.49-1.33,5.24-2,1.1-.42.13-1.42-1-1.08-3.23,1-5.82,2.41-9.31,3.07a19.89,19.89,0,0,1-11-.7c-8.72-3.12-6.91-9.9-2.39-14.6a39.58,39.58,0,0,1,14.35-9.93,35.22,35.22,0,0,1,12.21-2.7,42.74,42.74,0,0,1,13.83,2.62l.78-1.13c-4.4-1.08-8.73-2.16-13.12-3.28a7.24,7.24,0,0,0,.71.58c-.19-4.95.71-9.77,4.91-14,4.65-4.7,11.37-7.9,18.42-11a108.65,108.65,0,0,1,26.3-7.53c9-1.37,20.42-2.12,29.21.17,10.66,2.78,10,11.06,8.6,17.17.64,0,1.29.12,1.87.16.26-1.62.58-3.2.84-4.82.06-.29,0-.83.19-1.08s.26-.08.26-.08c1.1-.83,4.27-1.08,5.88-1.29,11.44-1.33,22.69,2.45,29.66,8.19a16.56,16.56,0,0,1,4.72,8.27c.84,3.08,1,6.49-1.16,9.35-1.68,2.21-4,3.33-7.37,4.08-2.32.54-4.72,1-7,1.58l.77,1.12c9.18-4,22.49-2.2,31.73.67s18.29,7.52,24.11,13c6.27,5.94,5.81,13.18-1.62,18.62s-19,7.07-29.85,6.24c.32.17.64.29.9.46-1-2.87-1.94-5.74-3-8.61l-1.75.5c1.36,1.54,1.62,3.78,2.14,5.49,1.16,3.7-.65,7.27-5.17,9.73-7.56,4.07-18,5-27.4,5.69A66.07,66.07,0,0,1,1663,147c-5.62-1.66-9.82-3.66-10.08-8-.13-2.25,2.07-6.24,4.65-7.9l-1.55-.75c-1.55,2.12-3,4.28-4.65,6.4-2.33,2.91-8.53,4.7-13,6a54.7,54.7,0,0,1-19.26,2.37c-7.88-.54-15.12-3.45-14.92-9C1604.27,135.3,1602.34,135.3,1602.34,136.09Z"/></g><g class="cls-21"><path class="cls-18" d="M1896.75,78.28a5.15,5.15,0,0,0,.27,2,3.73,3.73,0,0,0,.93,1.93c1.67,2.27,4.75,2.68,7.51,2.71,3.22,0,9.75-2.88,11.77-5.48l2.19-4.76c-.39.28-.41.59-.55.84-.25.45-.38.76-.55,1.12s-.32.87-.54,1.4a3.46,3.46,0,0,0-.47,1.29,7.91,7.91,0,0,0,.63,3.75,6.06,6.06,0,0,0,2.54,2.29c6,3.3,10,2.52,16.66,1.34a16,16,0,0,0,6.58-2.85,7.65,7.65,0,0,0,2.24-2.77,6.92,6.92,0,0,0,.43-4.51,27.61,27.61,0,0,0-1-3.8l1.25,5.79a14.58,14.58,0,0,0,10.79-2.38,11.11,11.11,0,0,0,4.75-10.35c-.49-3.22-2.59-5.93-4.86-8.2-4.81-4.78-11.47-8.48-18-7.13a7.24,7.24,0,0,0-3.11,1.28l4.23-1.51c3.85-2.74,3.22-8,1.75-12.62-.77-2.43-4.56-6.21-8.58-7.52-3.52-1.18-7.56-.09-8.46.84l-.46,4.17c.54-4,.79-8.76-2.38-11.2a9.82,9.82,0,0,0-4.91-1.65c-7.76-.84-15.51,2-21.74,6.72a24.59,24.59,0,0,0-3.28,2.52c-4,4.11-5.65,7.13-5.46,13.71l5.52,2.26a16.07,16.07,0,0,0-4.59-1.65c-3.09-.75-6.66,1.4-9.12,3.36a39.88,39.88,0,0,0-3,3.83c-1.66,2.24-3,5-2.54,7.81s2.57,4.25,5.25,4.87a9,9,0,0,0,3-.56,22.45,22.45,0,0,0,3.55-2l-2.73,1.68c-1.91,1.68-2.54,5.15-2.4,7.22a8.08,8.08,0,0,0,2.65,5.71c2.34,2.07,6.22,2.79,9.63,2.15s8.28-4.7,10.33-7"/><path class="cls-5" d="M1896.34,78.28a6.5,6.5,0,0,0,4.67,6.44,13.85,13.85,0,0,0,9.18-.48,23.79,23.79,0,0,0,4.42-2.16,9.17,9.17,0,0,0,3-2.49,40.92,40.92,0,0,0,2.18-4.75c.19-.42-.3-.87-.65-.51a12.27,12.27,0,0,0-2,4,6.51,6.51,0,0,0,.36,4.65,7.66,7.66,0,0,0,3.87,3.22,17.89,17.89,0,0,0,5,1.65c3.38.53,6.83-.12,10.16-.7s7.4-2,9.36-5.15a7.48,7.48,0,0,0,1-5.4,14.86,14.86,0,0,0-1-4.11.41.41,0,0,0-.74.33c.41,1.93.82,3.86,1.26,5.79a.44.44,0,0,0,.38.31A15.22,15.22,0,0,0,1958,76.29a11.89,11.89,0,0,0,4.72-8.62c.19-3.88-2-7.21-4.61-9.87a27.86,27.86,0,0,0-9.83-6.77c-3.75-1.46-8.8-2.05-12.29.39-.36.25-.14.92.33.75,1.74-.61,3.9-1,5.27-2.35,2.54-2.54,2.4-6.46,1.66-9.73a12.21,12.21,0,0,0-1.83-4.65,17.22,17.22,0,0,0-4-3.8,12.15,12.15,0,0,0-11.22-1.77c-1,.37-1.45.65-1.58,1.68-.14,1.2-.28,2.38-.41,3.58-.06.48.73.59.79.12.46-3.45.87-7.64-1.42-10.55-2.6-3.25-7.87-3.17-11.61-2.8a32.37,32.37,0,0,0-12.91,4.31,31.44,31.44,0,0,0-9.53,7.86c-2.49,3.33-3.2,7.08-3.09,11.19a.41.41,0,0,0,.3.39c1.86.73,3.69,1.46,5.55,2.21.43.17.71-.53.32-.75a13.24,13.24,0,0,0-6-1.88,11.07,11.07,0,0,0-5.6,1.82,12.74,12.74,0,0,0-3.88,3.39,28.61,28.61,0,0,0-3.55,5.4c-1.42,3.27-1.2,7.22,2.05,9.18a5.91,5.91,0,0,0,4.32.92,10.41,10.41,0,0,0,3-1c.79-.42,1.5-1,2.3-1.39-.14-.26-.28-.48-.41-.73-.88.53-1.81,1-2.65,1.62a6.89,6.89,0,0,0-2.24,3.78c-1,3.61-.36,7.81,2.68,10.18a12,12,0,0,0,11.19,1.49,26.58,26.58,0,0,0,9-6.61c.36-.39-.21-1-.57-.58a28,28,0,0,1-7.56,5.9,11.38,11.38,0,0,1-10.68-.25c-3.41-2-4.29-6.21-3.25-9.91a5.63,5.63,0,0,1,2.29-3.52c.74-.45,1.48-.9,2.22-1.37a.42.42,0,0,0-.41-.73c-1.37.64-2.46,1.62-3.94,2.07a5.46,5.46,0,0,1-4.66-.48c-3.69-2.1-2.93-6.66-1-9.82a19.39,19.39,0,0,1,6.06-6.69,10.35,10.35,0,0,1,5.16-1.81,12.36,12.36,0,0,1,5.84,1.76l.33-.76c-1.86-.72-3.69-1.45-5.54-2.21a4.41,4.41,0,0,0,.3.39,16.56,16.56,0,0,1,2.07-9.43c2-3.16,4.81-5.31,7.78-7.38a34.19,34.19,0,0,1,11.12-5.07c3.79-.92,8.63-1.42,12.34.12,4.5,1.87,4.2,7.44,3.63,11.55.27,0,.55.09.79.11.11-1.09.25-2.15.36-3.24a3.4,3.4,0,0,1,.08-.73c.08-.17.11-.06.11-.06.46-.56,1.8-.72,2.48-.86,4.84-.9,9.59,1.65,12.54,5.51a13.91,13.91,0,0,1,2,5.57,10.47,10.47,0,0,1-.49,6.29,5,5,0,0,1-3.11,2.74c-1,.37-2,.7-3,1.07l.33.75c3.87-2.71,9.5-1.48,13.4.45A26.91,26.91,0,0,1,1960,61.41a10.14,10.14,0,0,1-.68,12.53c-3.17,3.7-8,4.76-12.62,4.2a4.23,4.23,0,0,1,.38.31c-.41-1.93-.82-3.86-1.25-5.79l-.74.33a13.29,13.29,0,0,1,.9,3.69,6.72,6.72,0,0,1-2.18,6.55c-3.2,2.74-7.59,3.36-11.58,3.84A18.11,18.11,0,0,1,1922,85.64c-2.38-1.12-4.16-2.46-4.26-5.37a9.05,9.05,0,0,1,2-5.32l-.65-.5c-.66,1.42-1.29,2.88-2,4.31-1,1.95-3.6,3.16-5.49,4a15.13,15.13,0,0,1-8.14,1.6c-3.33-.36-6.38-2.32-6.3-6.07A.39.39,0,1,0,1896.34,78.28Z"/></g><g class="cls-22"><path class="cls-18" d="M318,45.24a4.26,4.26,0,0,0,.22,1.57,3,3,0,0,0,.75,1.54c1.33,1.82,3.8,2.15,6,2.18,2.58,0,7.8-2.31,9.42-4.39l1.75-3.81a1.4,1.4,0,0,0-.44.68,9.06,9.06,0,0,0-.44.89c-.17.36-.26.69-.43,1.12a2.86,2.86,0,0,0-.38,1,6.33,6.33,0,0,0,.51,3,4.68,4.68,0,0,0,2,1.83c4.78,2.65,8,2,13.32,1.08a12.86,12.86,0,0,0,5.27-2.28,6.24,6.24,0,0,0,1.79-2.22,5.57,5.57,0,0,0,.35-3.6,20.71,20.71,0,0,0-.77-3l1,4.63a11.63,11.63,0,0,0,8.63-1.9,8.88,8.88,0,0,0,3.8-8.28c-.39-2.57-2.08-4.75-3.89-6.56-3.84-3.83-9.17-6.78-14.44-5.71a5.89,5.89,0,0,0-2.49,1l3.39-1.21c3.08-2.19,2.57-6.42,1.39-10.09-.61-2-3.64-5-6.85-6-2.82-.94-6.06-.07-6.78.67l-.37,3.33c.44-3.17.64-7-1.9-8.95A7.81,7.81,0,0,0,334.47.43c-6.2-.67-12.41,1.63-17.39,5.37a19.21,19.21,0,0,0-2.62,2c-3.21,3.29-4.52,5.7-4.37,11l4.41,1.82a12.6,12.6,0,0,0-3.67-1.32c-2.46-.61-5.33,1.12-7.29,2.68A31.8,31.8,0,0,0,301.16,25a8.62,8.62,0,0,0-2,6.25c.35,2.23,2.06,3.4,4.2,3.89a7,7,0,0,0,2.4-.45,17.94,17.94,0,0,0,2.84-1.56l-2.18,1.34c-1.53,1.34-2,4.12-1.93,5.77a6.52,6.52,0,0,0,2.12,4.57,9.43,9.43,0,0,0,7.72,1.72c2.73-.51,6.61-3.76,8.25-5.57"/><path class="cls-5" d="M317.63,45.24a5.18,5.18,0,0,0,3.73,5.15A11,11,0,0,0,328.7,50a19.29,19.29,0,0,0,3.54-1.72,7.39,7.39,0,0,0,2.38-2,34.56,34.56,0,0,0,1.75-3.81c.15-.34-.24-.69-.52-.4a9.63,9.63,0,0,0-1.6,3.22,5.2,5.2,0,0,0,.29,3.72,6.12,6.12,0,0,0,3.1,2.57,13.86,13.86,0,0,0,4,1.32,24.67,24.67,0,0,0,8.12-.56c2.73-.47,5.92-1.61,7.5-4.12a6,6,0,0,0,.76-4.32,12.13,12.13,0,0,0-.83-3.29.33.33,0,0,0-.59.27c.33,1.55.66,3.09,1,4.63a.34.34,0,0,0,.3.25,12.12,12.12,0,0,0,9-2.13,9.51,9.51,0,0,0,3.78-6.89c.16-3.11-1.63-5.78-3.69-7.9a22.23,22.23,0,0,0-7.86-5.42c-3-1.16-7-1.63-9.83.31-.29.21-.11.74.26.61,1.4-.49,3.12-.81,4.22-1.88,2-2,1.92-5.17,1.33-7.79A10,10,0,0,0,353.72,11a14.07,14.07,0,0,0-3.17-3,9.72,9.72,0,0,0-9-1.41c-.79.29-1.16.51-1.27,1.34s-.22,1.9-.33,2.87c0,.38.59.47.64.09.37-2.76.7-6.11-1.14-8.44-2.07-2.6-6.29-2.53-9.28-2.24a25.91,25.91,0,0,0-10.33,3.45,25,25,0,0,0-7.63,6.29,13.69,13.69,0,0,0-2.47,8.95.32.32,0,0,0,.24.31l4.44,1.77c.35.14.57-.42.26-.6a10.56,10.56,0,0,0-4.83-1.5,8.84,8.84,0,0,0-4.48,1.45,10.32,10.32,0,0,0-3.1,2.71,23,23,0,0,0-2.84,4.32c-1.13,2.62-1,5.78,1.64,7.34a4.7,4.7,0,0,0,3.45.74,7.94,7.94,0,0,0,2.38-.83c.64-.33,1.21-.82,1.84-1.12l-.33-.58c-.7.43-1.44.81-2.12,1.3a5.54,5.54,0,0,0-1.79,3c-.81,2.89-.28,6.25,2.14,8.15a9.65,9.65,0,0,0,9,1.19,21.27,21.27,0,0,0,7.18-5.29c.29-.31-.17-.78-.45-.47a22.51,22.51,0,0,1-6.05,4.73,9.12,9.12,0,0,1-8.55-.2c-2.73-1.64-3.43-5-2.6-7.93A4.53,4.53,0,0,1,307,34.52c.59-.36,1.18-.71,1.77-1.1a.33.33,0,0,0-.33-.58,23,23,0,0,1-3.14,1.66,4.43,4.43,0,0,1-3.74-.38c-2.95-1.68-2.34-5.33-.81-7.86a15.49,15.49,0,0,1,4.85-5.35,8.36,8.36,0,0,1,4.13-1.45,9.83,9.83,0,0,1,4.67,1.41l.27-.61c-1.49-.58-3-1.16-4.44-1.77.09.12.16.23.24.32a13.33,13.33,0,0,1,1.66-7.55,21,21,0,0,1,6.23-5.91,27.56,27.56,0,0,1,8.89-4c3-.74,6.9-1.14,9.87.09,3.61,1.5,3.37,6,2.91,9.25.22,0,.44.06.63.09.09-.88.2-1.73.29-2.6a2.65,2.65,0,0,1,.06-.58c.07-.14.09,0,.09,0,.37-.44,1.44-.58,2-.69,3.86-.72,7.66,1.32,10,4.41a11.19,11.19,0,0,1,1.6,4.45,8.42,8.42,0,0,1-.4,5,3.94,3.94,0,0,1-2.49,2.19c-.78.29-1.59.56-2.38.85l.27.61c3.1-2.17,7.6-1.19,10.72.36a21.41,21.41,0,0,1,8.15,7,8.09,8.09,0,0,1-.55,10c-2.53,3-6.42,3.81-10.09,3.36.11.09.22.16.31.25-.33-1.55-.66-3.09-1-4.64l-.59.27a10.26,10.26,0,0,1,.72,3,5.38,5.38,0,0,1-1.74,5.24c-2.56,2.19-6.08,2.68-9.27,3.06a14.47,14.47,0,0,1-8.23-1.14c-1.9-.89-3.32-2-3.41-4.3a7.3,7.3,0,0,1,1.57-4.25l-.52-.4c-.53,1.14-1,2.3-1.57,3.44-.79,1.57-2.89,2.53-4.39,3.23a12.17,12.17,0,0,1-6.51,1.27c-2.67-.29-5.12-1.85-5.05-4.85A.31.31,0,1,0,317.63,45.24Z"/></g><g class="cls-23"><path class="cls-18" d="M96,237.72a4.24,4.24,0,0,0,.22,1.56,3,3,0,0,0,.75,1.55c1.33,1.81,3.8,2.15,6,2.17,2.58,0,7.8-2.31,9.42-4.39l1.75-3.8c-.31.22-.33.47-.44.67-.2.36-.31.6-.44.89s-.26.7-.43,1.12a2.86,2.86,0,0,0-.38,1,6.31,6.31,0,0,0,.51,3,4.76,4.76,0,0,0,2,1.84c4.78,2.64,8,2,13.32,1.07a12.73,12.73,0,0,0,5.27-2.28,6.07,6.07,0,0,0,1.79-2.22,5.57,5.57,0,0,0,.35-3.6,20.88,20.88,0,0,0-.77-3l1,4.63a11.73,11.73,0,0,0,8.63-1.9,8.93,8.93,0,0,0,3.8-8.29c-.4-2.57-2.08-4.74-3.89-6.55-3.84-3.83-9.17-6.79-14.44-5.71a5.84,5.84,0,0,0-2.49,1l3.39-1.21c3.08-2.2,2.57-6.43,1.39-10.1-.61-1.94-3.64-5-6.86-6-2.81-.94-6-.07-6.77.67l-.37,3.34c.44-3.18.64-7-1.9-9a7.81,7.81,0,0,0-3.93-1.32c-6.2-.67-12.41,1.64-17.39,5.38a20,20,0,0,0-2.62,2c-3.21,3.29-4.52,5.71-4.37,11l4.41,1.81a12.6,12.6,0,0,0-3.67-1.32c-2.47-.6-5.33,1.12-7.29,2.69a30.18,30.18,0,0,0-2.38,3.06,8.62,8.62,0,0,0-2,6.25c.35,2.24,2.06,3.4,4.2,3.89a7.15,7.15,0,0,0,2.4-.44,18.61,18.61,0,0,0,2.84-1.57L84.38,227c-1.53,1.35-2,4.12-1.93,5.78a6.49,6.49,0,0,0,2.12,4.56A9.46,9.46,0,0,0,92.28,239c2.74-.52,6.62-3.76,8.26-5.58"/><path class="cls-5" d="M95.63,237.72a5.19,5.19,0,0,0,3.73,5.15,11.08,11.08,0,0,0,7.34-.38,18.71,18.71,0,0,0,3.54-1.73,7.26,7.26,0,0,0,2.38-2,32.94,32.94,0,0,0,1.75-3.81c.15-.33-.24-.69-.52-.4a9.72,9.72,0,0,0-1.6,3.22,5.2,5.2,0,0,0,.29,3.72,6.08,6.08,0,0,0,3.1,2.57,14.18,14.18,0,0,0,4,1.33,24.94,24.94,0,0,0,8.12-.56c2.73-.47,5.92-1.62,7.5-4.12a6,6,0,0,0,.76-4.32,12,12,0,0,0-.83-3.29.33.33,0,0,0-.59.27c.33,1.54.66,3.08,1,4.63a.35.35,0,0,0,.31.24,12.11,12.11,0,0,0,9-2.12,9.53,9.53,0,0,0,3.78-6.9c.16-3.11-1.63-5.77-3.69-7.9a22.33,22.33,0,0,0-7.86-5.41c-3-1.17-7-1.64-9.83.31-.29.2-.11.74.26.6,1.4-.49,3.12-.8,4.22-1.88,2-2,1.92-5.17,1.33-7.79a9.83,9.83,0,0,0-1.47-3.71,13.66,13.66,0,0,0-3.16-3,9.75,9.75,0,0,0-9-1.41c-.79.29-1.16.52-1.27,1.35L118,203.2c0,.38.59.47.64.09.37-2.75.7-6.11-1.14-8.44-2.07-2.6-6.29-2.53-9.28-2.24a25.86,25.86,0,0,0-10.33,3.45,25.32,25.32,0,0,0-7.63,6.29,13.69,13.69,0,0,0-2.47,9,.35.35,0,0,0,.24.32c1.49.58,3,1.16,4.44,1.77.35.13.57-.43.26-.61a10.68,10.68,0,0,0-4.83-1.5,8.76,8.76,0,0,0-4.48,1.46,10.18,10.18,0,0,0-3.1,2.71,22.7,22.7,0,0,0-2.84,4.32c-1.13,2.61-1,5.77,1.64,7.34a4.75,4.75,0,0,0,3.45.74,8.53,8.53,0,0,0,2.38-.83c.64-.34,1.21-.83,1.84-1.12l-.33-.58c-.7.42-1.44.8-2.12,1.29a5.6,5.6,0,0,0-1.79,3c-.81,2.88-.28,6.24,2.14,8.14a9.59,9.59,0,0,0,9,1.19,21.11,21.11,0,0,0,7.18-5.28c.29-.31-.17-.78-.45-.47a22.33,22.33,0,0,1-6.06,4.72,9.1,9.1,0,0,1-8.54-.2c-2.73-1.63-3.43-5-2.6-7.92A4.5,4.5,0,0,1,85,227c.59-.36,1.18-.72,1.77-1.1a.33.33,0,0,0-.33-.58A24.7,24.7,0,0,1,83.29,227a4.36,4.36,0,0,1-3.74-.38c-3-1.68-2.34-5.32-.81-7.85a15.32,15.32,0,0,1,4.85-5.35,8.27,8.27,0,0,1,4.13-1.46,9.94,9.94,0,0,1,4.67,1.41l.27-.6L88.22,211c.09.11.16.22.24.31a13.3,13.3,0,0,1,1.66-7.54,20.9,20.9,0,0,1,6.23-5.91,27.14,27.14,0,0,1,8.89-4.05c3-.74,6.9-1.14,9.87.09,3.61,1.5,3.37,5.95,2.91,9.24.22,0,.44.07.63.09.09-.87.2-1.72.29-2.6A2.78,2.78,0,0,1,119,200c.07-.13.09,0,.09,0,.37-.45,1.44-.58,2-.7,3.86-.71,7.66,1.32,10,4.41a11.17,11.17,0,0,1,1.6,4.46,8.39,8.39,0,0,1-.4,5,4,4,0,0,1-2.49,2.2c-.78.29-1.59.56-2.38.85l.27.6c3.1-2.17,7.6-1.18,10.72.36a21.57,21.57,0,0,1,8.15,7,8.11,8.11,0,0,1-.55,10c-2.53,2.95-6.42,3.8-10.09,3.36.11.09.22.15.31.24-.33-1.54-.66-3.09-1-4.63l-.59.27a10.2,10.2,0,0,1,.72,2.95,5.38,5.38,0,0,1-1.74,5.24c-2.56,2.19-6.08,2.69-9.27,3.07a14.47,14.47,0,0,1-8.23-1.15c-1.9-.89-3.32-2-3.41-4.29a7.33,7.33,0,0,1,1.57-4.26l-.52-.4c-.53,1.14-1,2.31-1.57,3.45-.79,1.57-2.89,2.53-4.4,3.22a12.22,12.22,0,0,1-6.5,1.28c-2.67-.29-5.12-1.86-5.05-4.86A.31.31,0,1,0,95.63,237.72Z"/></g><rect class="cls-24" x="2.37" y="919.86" width="1949" height="14"/><path class="cls-3" d="M1343.19,916.73c2.13,2.22,3.91,4.74,6,7,1.85,2,2.85,4.53,4.15,6.89,3.4,6.17,12.85.66,9.45-5.53-1.61-2.94-3-5.86-5.2-8.42s-4.32-5.25-6.65-7.69c-4.88-5.1-12.62,2.65-7.75,7.75Z"/></g></g></svg>