<svg xmlns="http://www.w3.org/2000/svg" xmlns:xlink="http://www.w3.org/1999/xlink" viewBox="0 0 1951.87 830.38"><defs><style>.cls-1,.cls-4{fill:none;}.cls-2{fill:#69c212;stroke:#43720c;stroke-width:11px;}.cls-10,.cls-11,.cls-12,.cls-16,.cls-2,.cls-4{stroke-miterlimit:10;}.cls-3{fill:#43720c;}.cls-4{stroke:#963;stroke-width:9px;}.cls-5{fill:#606060;}.cls-6{fill:#212121;}.cls-7{fill:#303030;}.cls-8{fill:#f9f9e1;}.cls-9{fill:#e5cf65;}.cls-10{font-size:18.77px;}.cls-10,.cls-16{fill:#ad920c;stroke:#ad920c;font-family:Sniglet-Regular, Sniglet;}.cls-10,.cls-11,.cls-16{stroke-width:2px;}.cls-11,.cls-18{fill:#fff;}.cls-11,.cls-12{stroke:#000;}.cls-13{fill:#e5db91;}.cls-14{fill:#ef0000;}.cls-15{fill:#ad0404;}.cls-16{font-size:18.77px;}.cls-17{fill:#282825;}.cls-19{clip-path:url(#clip-path);}.cls-20{clip-path:url(#clip-path-2);}.cls-21{clip-path:url(#clip-path-3);}.cls-22{clip-path:url(#clip-path-4);}</style><clipPath id="clip-path"><rect class="cls-1" x="1563.46" y="0.01" width="129.5" height="67.41"/></clipPath><clipPath id="clip-path-2"><rect class="cls-1" x="1847.26" y="128.33" width="80.1" height="60.5"/></clipPath><clipPath id="clip-path-3"><rect class="cls-1" x="255.34" y="33.52" width="64.08" height="48.4"/></clipPath><clipPath id="clip-path-4"><rect class="cls-1" x="57.75" y="133.97" width="64.08" height="48.4"/></clipPath></defs><title>Asset 104</title><g id="Layer_2" data-name="Layer 2"><g id="Layer_1-2" data-name="Layer 1"><path class="cls-2" d="M1358.42,823.07c-155.48-190.89-383-313.21-620.82-371.75S251,394.13,7.37,419l.5,405.84,1938.06-1.4.44-436.89c-298.82-31.79-580.46,139.07-875.48,196.56"/><path class="cls-3" d="M71.32,506.79A18,18,0,0,1,78,520.56a1.13,1.13,0,0,0,2.25,0,20.23,20.23,0,0,0-7.3-15.36c-1.11-.93-2.71.66-1.59,1.59Z"/><path class="cls-3" d="M80.06,520.81a30.72,30.72,0,0,1,6-11.35c.92-1.11-.66-2.71-1.59-1.6a33.44,33.44,0,0,0-6.54,12.35,1.13,1.13,0,0,0,2.17.6Z"/><path class="cls-3" d="M79.14,506.45a34.65,34.65,0,0,1-.78,8.56c-.31,1.41,1.86,2,2.17.59a37.47,37.47,0,0,0,.86-9.15c0-1.44-2.3-1.45-2.25,0Z"/><path class="cls-3" d="M1836.32,481.79a18,18,0,0,1,6.64,13.77,1.13,1.13,0,0,0,2.25,0,20.23,20.23,0,0,0-7.3-15.36c-1.11-.93-2.71.66-1.59,1.59Z"/><path class="cls-3" d="M1845.06,495.81a30.72,30.72,0,0,1,6-11.35c.92-1.11-.66-2.71-1.59-1.6a33.44,33.44,0,0,0-6.54,12.35,1.13,1.13,0,0,0,2.17.6Z"/><path class="cls-3" d="M1844.14,481.45a34.65,34.65,0,0,1-.78,8.56c-.31,1.41,1.86,2,2.17.59a37.47,37.47,0,0,0,.86-9.15c-.05-1.44-2.3-1.45-2.25,0Z"/><path class="cls-3" d="M596.32,725.79A18,18,0,0,1,603,739.56a1.13,1.13,0,0,0,2.25,0,20.23,20.23,0,0,0-7.3-15.36c-1.11-.93-2.71.66-1.59,1.59Z"/><path class="cls-3" d="M605.06,739.81a30.72,30.72,0,0,1,6-11.35c.92-1.11-.66-2.71-1.59-1.6a33.44,33.44,0,0,0-6.54,12.35,1.13,1.13,0,0,0,2.17.6Z"/><path class="cls-3" d="M604.14,725.45a34.65,34.65,0,0,1-.78,8.56c-.31,1.41,1.86,2,2.17.59a37.47,37.47,0,0,0,.86-9.15c0-1.44-2.3-1.45-2.25,0Z"/><path class="cls-3" d="M436.32,466.79A18,18,0,0,1,443,480.56a1.13,1.13,0,0,0,2.25,0,20.23,20.23,0,0,0-7.3-15.36c-1.11-.93-2.71.66-1.59,1.59Z"/><path class="cls-3" d="M445.06,480.81a30.72,30.72,0,0,1,6-11.35c.92-1.11-.66-2.71-1.59-1.6a33.44,33.44,0,0,0-6.54,12.35,1.13,1.13,0,0,0,2.17.6Z"/><path class="cls-3" d="M444.14,466.45a34.65,34.65,0,0,1-.78,8.56c-.31,1.41,1.86,2,2.17.59a37.47,37.47,0,0,0,.86-9.15c-.05-1.44-2.3-1.45-2.25,0Z"/><path class="cls-3" d="M255.32,666.79A18,18,0,0,1,262,680.56a1.13,1.13,0,0,0,2.25,0,20.23,20.23,0,0,0-7.3-15.36c-1.11-.93-2.71.66-1.59,1.59Z"/><path class="cls-3" d="M264.06,680.81a30.72,30.72,0,0,1,6-11.35c.92-1.11-.66-2.71-1.59-1.6a33.44,33.44,0,0,0-6.54,12.35,1.13,1.13,0,0,0,2.17.6Z"/><path class="cls-3" d="M263.14,666.45a34.65,34.65,0,0,1-.78,8.56c-.31,1.41,1.86,2,2.17.59a37.47,37.47,0,0,0,.86-9.15c-.05-1.44-2.3-1.45-2.25,0Z"/><path class="cls-3" d="M727.32,573.79A18,18,0,0,1,734,587.56a1.13,1.13,0,0,0,2.25,0,20.23,20.23,0,0,0-7.3-15.36c-1.11-.93-2.71.66-1.59,1.59Z"/><path class="cls-3" d="M736.06,587.81a30.72,30.72,0,0,1,6-11.35c.92-1.11-.66-2.71-1.59-1.6a33.44,33.44,0,0,0-6.54,12.35,1.13,1.13,0,0,0,2.17.6Z"/><path class="cls-3" d="M735.14,573.45a34.65,34.65,0,0,1-.78,8.56c-.31,1.41,1.86,2,2.17.59a37.47,37.47,0,0,0,.86-9.15c0-1.44-2.3-1.45-2.25,0Z"/><path class="cls-3" d="M1313.32,666.79a18,18,0,0,1,6.64,13.77,1.13,1.13,0,0,0,2.25,0,20.23,20.23,0,0,0-7.3-15.36c-1.11-.93-2.71.66-1.59,1.59Z"/><path class="cls-3" d="M1322.06,680.81a30.72,30.72,0,0,1,6-11.35c.92-1.11-.66-2.71-1.59-1.6a33.44,33.44,0,0,0-6.54,12.35,1.13,1.13,0,0,0,2.17.6Z"/><path class="cls-3" d="M1321.14,666.45a34.65,34.65,0,0,1-.78,8.56c-.31,1.41,1.86,2,2.17.59a37.47,37.47,0,0,0,.86-9.15c-.05-1.44-2.3-1.45-2.25,0Z"/><path class="cls-3" d="M969.32,739.79A18,18,0,0,1,976,753.56a1.13,1.13,0,0,0,2.25,0,20.23,20.23,0,0,0-7.3-15.36c-1.11-.93-2.71.66-1.59,1.59Z"/><path class="cls-3" d="M978.06,753.81a30.72,30.72,0,0,1,6-11.35c.92-1.11-.66-2.71-1.59-1.6a33.44,33.44,0,0,0-6.54,12.35,1.13,1.13,0,0,0,2.17.6Z"/><path class="cls-3" d="M977.14,739.45a34.65,34.65,0,0,1-.78,8.56c-.31,1.41,1.86,2,2.17.59a37.47,37.47,0,0,0,.86-9.15c0-1.44-2.3-1.45-2.25,0Z"/><path class="cls-3" d="M1702.32,732.79a18,18,0,0,1,6.64,13.77,1.13,1.13,0,0,0,2.25,0,20.23,20.23,0,0,0-7.3-15.36c-1.11-.93-2.71.66-1.59,1.59Z"/><path class="cls-3" d="M1711.06,746.81a30.72,30.72,0,0,1,6-11.35c.92-1.11-.66-2.71-1.59-1.6a33.44,33.44,0,0,0-6.54,12.35,1.13,1.13,0,0,0,2.17.6Z"/><path class="cls-3" d="M1710.14,732.45a34.65,34.65,0,0,1-.78,8.56c-.31,1.41,1.86,2,2.17.59a37.47,37.47,0,0,0,.86-9.15c-.05-1.44-2.3-1.45-2.25,0Z"/><path class="cls-3" d="M1096.32,659.79a18,18,0,0,1,6.64,13.77,1.13,1.13,0,0,0,2.25,0,20.23,20.23,0,0,0-7.3-15.36c-1.11-.93-2.71.66-1.59,1.59Z"/><path class="cls-3" d="M1105.06,673.81a30.72,30.72,0,0,1,6-11.35c.92-1.11-.66-2.71-1.59-1.6a33.44,33.44,0,0,0-6.54,12.35,1.13,1.13,0,0,0,2.17.6Z"/><path class="cls-3" d="M1104.14,659.45a34.65,34.65,0,0,1-.78,8.56c-.31,1.41,1.86,2,2.17.59a37.47,37.47,0,0,0,.86-9.15c-.05-1.44-2.3-1.45-2.25,0Z"/><path class="cls-3" d="M1829.32,646.79a18,18,0,0,1,6.64,13.77,1.13,1.13,0,0,0,2.25,0,20.23,20.23,0,0,0-7.3-15.36c-1.11-.93-2.71.66-1.59,1.59Z"/><path class="cls-3" d="M1838.06,660.81a30.72,30.72,0,0,1,6-11.35c.92-1.11-.66-2.71-1.59-1.6a33.44,33.44,0,0,0-6.54,12.35,1.13,1.13,0,0,0,2.17.6Z"/><path class="cls-3" d="M1837.14,646.45a34.65,34.65,0,0,1-.78,8.56c-.31,1.41,1.86,2,2.17.59a37.47,37.47,0,0,0,.86-9.15c-.05-1.44-2.3-1.45-2.25,0Z"/><path class="cls-3" d="M1543.32,549.79a18,18,0,0,1,6.64,13.77,1.13,1.13,0,0,0,2.25,0,20.23,20.23,0,0,0-7.3-15.36c-1.11-.93-2.71.66-1.59,1.59Z"/><path class="cls-3" d="M1552.06,563.81a30.72,30.72,0,0,1,6-11.35c.92-1.11-.66-2.71-1.59-1.6a33.44,33.44,0,0,0-6.54,12.35,1.13,1.13,0,0,0,2.17.6Z"/><path class="cls-3" d="M1551.14,549.45a34.65,34.65,0,0,1-.78,8.56c-.31,1.41,1.86,2,2.17.59a37.47,37.47,0,0,0,.86-9.15c-.05-1.44-2.3-1.45-2.25,0Z"/><path class="cls-4" d="M27.27,363.51l5.27,60.72"/><path class="cls-4" d="M87.36,360.72l3.52,60.81"/><path class="cls-4" d="M88.48,380.12l-58,3"/><path class="cls-4" d="M90,405.29,31.9,408.21"/><path class="cls-4" d="M146,359.22,150,420"/><path class="cls-4" d="M147.56,380.2,89.4,381.34"/><path class="cls-4" d="M148.56,405.41l-58.17,1.06"/><path class="cls-4" d="M205.89,359.1l2.74,61.16"/><path class="cls-4" d="M206.79,378.64l-58.48.52"/><path class="cls-4" d="M207.91,404l-58.49.44"/><path class="cls-4" d="M263.74,357l3.08,61"/><path class="cls-4" d="M264,375l-58.55,3.1"/><path class="cls-4" d="M266.72,400.07l-58.55,3.1"/><path class="cls-4" d="M320,355.49l5.4,60.33"/><path class="cls-4" d="M321.82,375.09l-58.79.3"/><path class="cls-4" d="M324.28,400l-58.81.22"/><path class="cls-4" d="M379.56,373.45l-59.24,1.31"/><path class="cls-4" d="M382.81,398.39l-59.23,1.3"/><path class="cls-4" d="M28.48,383.14l-28,3"/><path class="cls-4" d="M30.17,408,2.1,410.87"/><path class="cls-4" d="M378.87,354.21l-2.29,60.91"/><path class="cls-4" d="M438.84,358.88l-4,60.78"/><path class="cls-4" d="M437.55,378.27l-57.93-4.2"/><path class="cls-4" d="M435.92,403.43l-58-4.29"/><path class="cls-4" d="M497.2,364.65l-3.54,60.79"/><path class="cls-4" d="M496.17,385.66l-57.86-6.07"/><path class="cls-4" d="M494,410.81l-57.86-6.16"/><path class="cls-4" d="M556.66,371.94l-4.85,61"/><path class="cls-4" d="M555.14,391.45,497,384.72"/><path class="cls-4" d="M553.11,416.72l-58.1-6.8"/><path class="cls-4" d="M616.7,380l-7,60.68"/><path class="cls-4" d="M614,397.72l-58.26-6.57"/><path class="cls-4" d="M612.55,422.94l-58.25-6.57"/><path class="cls-4" d="M674.77,390.88,667.43,451"/><path class="cls-4" d="M672.5,410.44l-57.56-12"/><path class="cls-4" d="M669.69,435.33l-57.55-12.08"/><path class="cls-4" d="M729.3,420.92,671.1,409.8"/><path class="cls-4" d="M727.27,446l-58.2-11.12"/><path class="cls-4" d="M734.34,403.33,720.4,462.66"/><path class="cls-4" d="M792.3,419.43,776.67,478.3"/><path class="cls-4" d="M787.31,438.22l-56-15.26"/><path class="cls-4" d="M780.88,462.59l-56.09-15.35"/><path class="cls-4" d="M848.46,436.31l-15.15,59"/><path class="cls-4" d="M843.42,456.73l-55.61-17.07"/><path class="cls-4" d="M836.49,481,780.9,463.84"/><path class="cls-4" d="M905.42,454.89l-16.49,59"/><path class="cls-4" d="M900.18,473.74,844.45,456"/><path class="cls-4" d="M893.33,498.15l-55.7-17.84"/><path class="cls-4" d="M964.22,478.12l-21.49,57.17"/><path class="cls-4" d="M957.27,494.65l-54.93-20.51"/><path class="cls-4" d="M949.79,518.78l-54.93-20.51"/><path class="cls-4" d="M1019.11,503.08,995.71,559"/><path class="cls-4" d="M1011.61,521.28l-52.12-27.19"/><path class="cls-4" d="M1002.15,544.48,950,517.21"/><path class="cls-4" d="M1063.43,546.8l-53-26.51"/><path class="cls-4" d="M1054.66,570.37l-53-26.51"/><path class="cls-4" d="M1060.75,524.15l-8,60.05"/><path class="cls-4" d="M1103.48,552.48,1056.87,543"/><path class="cls-4" d="M1100.36,577.36l-45.8-9.28"/><path class="cls-4" d="M1398.61,502.22l-24.35-55.88"/><path class="cls-4" d="M1342.54,524l-22.71-56.52"/><path class="cls-4" d="M1335.3,506l54-21.33"/><path class="cls-4" d="M1325.86,482.6,1380,461.33"/><path class="cls-4" d="M1287.45,544.11l-23.16-56.31"/><path class="cls-4" d="M1279.27,524.74,1334,505.12"/><path class="cls-4" d="M1270.29,501.15l54.8-19.53"/><path class="cls-4" d="M1230.7,563.32l-22.08-57.1"/><path class="cls-4" d="M1223.62,545.09,1278.89,526"/><path class="cls-4" d="M1214.49,521.43l55.3-19"/><path class="cls-4" d="M1170.63,584.33l-16.4-58.84"/><path class="cls-4" d="M1167,568.52l55.42-19.15"/><path class="cls-4" d="M1158.23,541.6l55.35-19.34"/><path class="cls-4" d="M1103.18,594.19l1.26-60.56"/><path class="cls-4" d="M1105.45,577.54l59.86-10.95"/><path class="cls-4" d="M1100.69,553.06l57.86-10.51"/><path class="cls-4" d="M1431.07,425l19.55,57.69"/><path class="cls-4" d="M1437.31,443.45l-55.12,18.3"/><path class="cls-4" d="M1445.43,467.31l-55.2,18.25"/><path class="cls-4" d="M1487.19,408l20,57.51"/><path class="cls-4" d="M1494.29,427.82l-55.77,16.55"/><path class="cls-4" d="M1502,451.87l-55.8,16.47"/><path class="cls-4" d="M1544.92,392l18.89,58.24"/><path class="cls-4" d="M1551,410.58l-56.25,16"/><path class="cls-4" d="M1558.78,434.71l-56.27,16"/><path class="cls-4" d="M1600.13,374.62l19.18,58"/><path class="cls-4" d="M1605.1,391.84l-55.62,18.55"/><path class="cls-4" d="M1614.44,415.32l-55.62,18.55"/><path class="cls-4" d="M1659.05,357.78l19,57.52"/><path class="cls-4" d="M1665.33,376.44l-57.17,13.68"/><path class="cls-4" d="M1673.41,400.15l-57.21,13.61"/><path class="cls-4" d="M1721.18,361.69l-57.38,14.76"/><path class="cls-4" d="M1730,385.23,1672.65,400"/><path class="cls-4" d="M1721,342.23l6.93,60.46"/><path class="cls-4" d="M1781.83,337.61l5.16,60.6"/><path class="cls-4" d="M1783.47,357l-58.7,4.76"/><path class="cls-4" d="M1785.64,382l-58.77,4.69"/><path class="cls-4" d="M1841.2,334.34l5.65,60.52"/><path class="cls-4" d="M1843.35,355.23l-58.92,2.9"/><path class="cls-4" d="M1845,380.37l-58.93,2.82"/><path class="cls-4" d="M1901.91,332.39l4.37,61"/><path class="cls-4" d="M1903.33,351.87l-59.25,2.3"/><path class="cls-4" d="M1905.13,377.12l-59.27,2.22"/><path class="cls-4" d="M1947.24,349l-43.39,2.47"/><path class="cls-4" d="M1949.65,374.12l-43.39,2.47"/><path class="cls-5" d="M1578.9,549.35c-1.33,0-4.08-.82-4.85-.85-1.23,0-2.21-.12-4.31-.11l-2,1.44c0,3.57-.1,23.81-.16,27.38,0,1.53-.3,12.57-.64,14.12s1,10.15,1.83,13.39c.76,3,.48,6.09.8,9.16s-.41,13.43-.53,16.57l2,.16c2.67,0,3.47,0,6.13,0l3-.19c-.17-6.34-1.24-20-1-26a60.07,60.07,0,0,1,.9-8.71c.43-2.33.17-3.81.53-9,.11-1.6-.09-7.71-.12-9.52-.06-3.57.81-23.81.75-27.38Z"/><path class="cls-6" d="M1578.9,547.85c-3.47-.31-7.78-2.22-10.9,0-2.29,1.6-1.74,3.53-1.76,6.16,0,7.86,0,15.73-.13,23.59-.13,7.21-1,14.24.08,21.38.9,5.81,2,11.44,2,17.35,0,4.72-.42,9.44-.62,14.15a1.52,1.52,0,0,0,1.5,1.5,78.51,78.51,0,0,0,11.06,0,1.52,1.52,0,0,0,1.5-1.5c-.25-7.85-1-15.7-1-23.56s1.57-15.36,1.49-23.15c-.11-11.32.7-22.61.61-33.93a1.52,1.52,0,0,0-1.1-1.44l-2.32-.49c-1.89-.4-2.69,2.49-.8,2.89l2.32.49-1.1-1.45c.09,11.32-.72,22.61-.61,33.93.08,7.61-1.42,15-1.49,22.61-.08,8,.75,16.07,1,24.1l1.5-1.5a78.51,78.51,0,0,1-11.06,0l1.5,1.5c.4-9.17,1.2-18.27-.6-27.36-1.55-7.82-1.16-14.67-.94-22.55.19-6.62.15-13.26.18-19.88,0-2.94-.89-7.64.06-10.43-.5,1.47-.06-.12.92-.32a11.73,11.73,0,0,1,3,.05c1.94.16,3.81.72,5.75.89S1580.81,548,1578.9,547.85Z"/><path class="cls-7" d="M1560.23,654.79a105.19,105.19,0,0,1,27.4-.7l.45-.56.69-13.21a19.25,19.25,0,0,0-.37-6.43,17.44,17.44,0,0,0-3.23-5.67,17.86,17.86,0,0,0-4.3-4.33c-4.28-2.77-10.29-1.78-14.24,1.46s-6.05,8.29-6.8,13.34-.29,10.19,0,15.28"/><path class="cls-6" d="M1560.63,656.23a108.11,108.11,0,0,1,19.69-1.16c2.59.09,7.64,2,9.13-1,.85-1.7.38-5.37.48-7.19.15-3,.45-6,.42-9,0-4.72-2-8.41-5.07-11.93a13.72,13.72,0,0,0-19.71-1.67c-8.68,7.18-7.87,19.62-7.2,29.68.13,1.92,3.13,1.93,3,0-.55-8.16-1.5-17.42,3.48-24.51,6.63-9.41,19.08-5.57,22.11,4.83,1,3.63.21,8,0,11.69-.08,1.34.38,5.13-.25,6.21-.39.69-3.12,0-4.58,0a111.89,111.89,0,0,0-22.32,1.19c-1.9.28-1.09,3.17.8,2.89Z"/><path class="cls-5" d="M1604.6,550.12c1.2,0,3.66-.93,4.37-1,1.11-.09,2-.18,3.9-.23l1.83,1.38c.18,3.56,1,23.79,1.17,27.35.08,1.53.44,6,.55,6.79s.09,5.74.46,7.28a64.6,64.6,0,0,1-.33,13.44,71.28,71.28,0,0,0-1.1,9.2c-.19,3.14.88,13.41,1.1,16.55l-1.79.21c-2.42.06-3.14.1-5.55.24l-2.68-.11c-.08-6.34.14-20-.1-26a50.14,50.14,0,0,0-1.07-8.65c-.47-2.32-.3-3-.82-8.2-.16-1.6-.28-8.52-.32-10.34-.07-3.56-1.63-23.76-1.7-27.33Z"/><path class="cls-6" d="M1605,551.57c2.49-.37,4.83-1.27,7.4-1.16.32,0,1.62,1.67,1,.6-.48-.86-.19.45-.17.74.29,3.47.3,7,.44,10.48.3,7.08.56,14.14,1.11,21.2.54,6.83,1.25,13.83.37,20.66-.62,4.8-1.42,9.42-1.15,14.28.24,4.18.69,8.34,1,12.52l1.5-1.5a64.53,64.53,0,0,1-10,.34l1.5,1.5c-.08-8,.16-16.07,0-24.1-.19-7.43-1.86-14.69-2.1-22.14-.37-11.45-1.53-22.86-1.87-34.31l-1.1,1.44,2.08-.55a1.51,1.51,0,0,0-.8-2.9l-2.08.56a1.53,1.53,0,0,0-1.1,1.45c.34,11.45,1.5,22.86,1.87,34.31.23,7.28,1.88,14.39,2.08,21.63.24,8.2,0,16.41.06,24.61a1.52,1.52,0,0,0,1.5,1.5,64.48,64.48,0,0,0,10-.34c.75-.09,1.57-.62,1.5-1.5-.35-4.54-.88-9.06-1.06-13.6-.23-5.41,1.12-10.63,1.46-16,.48-7.78-.59-15.51-1-23.26s-.66-15.46-1-23.18c-.09-2.26.29-4.43-1.23-6.09-2.73-3-7.68-.58-11-.1C1602.3,549,1603.11,551.84,1605,551.57Z"/><path class="cls-7" d="M1626.36,654.87a105.67,105.67,0,0,0-27.41.26l-.47-.54-1.16-13.17a19.58,19.58,0,0,1,.15-6.44,17.33,17.33,0,0,1,3-5.78,18,18,0,0,1,4.14-4.48c4.19-2.92,10.23-2.14,14.29,1s6.34,8.07,7.26,13.09.65,10.17.5,15.28"/><path class="cls-6" d="M1626.36,653.37c-7.88-.88-16.63-1.59-24.49-.1-2.61.49-2,.41-2.22-2.44-.12-1.89-.33-3.77-.5-5.65-.37-4.22-1.22-8.52.85-12.46,4.23-8.07,13.3-11.53,20.1-3.91,6.06,6.79,5.36,16.8,5.09,25.24-.07,1.93,2.93,1.93,3,0,.31-9.92.71-21.85-7.62-28.94-6.36-5.42-15-4.66-20.22,1.79-2.69,3.34-4.67,6.91-4.72,11.28a88.24,88.24,0,0,0,.69,8.88c.19,2.1-.14,6,.72,7.93,1.42,3.14,6.14,1.11,8.74.91a111.45,111.45,0,0,1,20.58.47c1.91.22,1.9-2.78,0-3Z"/><path class="cls-8" d="M1562.35,428.53A11.81,11.81,0,0,0,1548,442.15a21.12,21.12,0,0,0-9.37,24.64,43.11,43.11,0,0,0-9,19.86,15.06,15.06,0,0,0,.14,7.16,6.69,6.69,0,0,0,5,4.73c-3.64,5.51-6.41,12.08-5.32,18.59s7.21,12.47,13.72,11.38c-.32,4.88-.61,10,1.4,14.46s7.09,7.95,11.74,6.44a14.94,14.94,0,0,0,13.17,11.76c5.88.44,11.6-2.7,17.48-2.27,2.89.21,5.67,1.28,8.56,1.34s6.17-1.3,6.9-4.1c3.32,4.18,9.76,4.21,14.77,2.39s9.49-5.06,14.66-6.38c3-.76,6.14-.85,9.05-1.87s5.69-3.35,5.92-6.43c.07-1-.42-4.17-.15-5.13.44-1.52,4-1.94,5.29-2.93,6.52-5.23,5.82-12.91,6.44-21.24.19-2.45.35-5-.6-7.28s-3.38-4.12-5.77-3.54a11.93,11.93,0,0,0,5.3-10.47c-.23-4.09-3.33-10.54-7-12.37.91-3.81,3.89-3.86,4.8-7.67,1.09-4.58.15-11.67-3.85-14.16-1.3-.81-4-.26-4.17-1.78-.09-.68,1-2.45,1.29-3.08a8.41,8.41,0,0,0,.35-6.09c-.77-1.94-5.82-5.1-7.83-4.56-8.29-10.31-18.9-14.53-32.1-13.59a21.63,21.63,0,0,1-5.21.05c-2-.35-3.82-1.4-5.71-2.15a19.78,19.78,0,0,0-13-.45c-2.27-4-4.62-5.89-9.24-5.9s-7.5,1.77-9.78,5.79Z"/><path class="cls-6" d="M1562.74,427.08c-7.33-1.21-14.52,2.71-16.1,10.31-.46,2.2,0,3.31-1.63,4.95a45.1,45.1,0,0,0-4.1,4.08,23.13,23.13,0,0,0-4.41,9.94,22,22,0,0,0-.37,5.12c.09,1.76,1,3.92.43,5.59s-2.49,3.56-3.44,5.29a44.54,44.54,0,0,0-2.95,6.53c-2.48,6.83-5,18.31,4.22,21.09l-.9-2.2c-4.14,6.51-7.61,14.78-4.71,22.49,2.25,6,7.92,10.34,14.41,9.74l-1.5-1.5c-.38,5.94-.7,12.66,3.1,17.68a11.49,11.49,0,0,0,11.94,4.66l-1.84-1.05c2.35,9.67,11.21,14.09,20.58,12.37,3.28-.6,6.55-1.77,9.91-1.8s6.72,1.36,10.16,1.37c3.8,0,6.89-1.68,8.34-5.2l-2.51.66c6.77,7.27,16.48,2.91,23.87-.75a36,36,0,0,1,9.75-3.39c2.67-.48,5.47-.74,7.92-2,3.21-1.65,5.36-4.38,5.41-8,0-3.11-.71-3.42,2.23-4.93a12.82,12.82,0,0,0,4.61-3.32c2.7-3.18,3.71-7.18,4.17-11.23.74-6.47,3.37-21.86-7.28-21.32l.76,2.8c8.56-6.36,7.43-19.89-1.7-25.43l.68,1.69c.86-2.53,3.11-3.73,4.22-6.05a13.63,13.63,0,0,0,1.06-5.51c.07-3.75-.83-8.5-3.84-11.08-.87-.74-4-1.39-4.29-2.17-.2-.54,1.7-4.67,1.73-5.33.19-4.22-2.63-6.95-6.4-8.46-2.45-1-2.77-.95-4.73-3a38.6,38.6,0,0,0-5.6-4.85A34.61,34.61,0,0,0,1620,429c-6.13-1.11-12.9.69-18.7-1.34s-10.58-3.39-16.84-1.72l1.69.69c-3-5-7.33-7.5-13.3-6.4a11,11,0,0,0-6.22,3.4c-.68.73-1.15,1.94-1.77,2.41a12.39,12.39,0,0,1-2.93,1c-1.81.64-1,3.54.79,2.9,3.15-1.11,3.64-1.37,5.77-3.85,4.6-5.37,11.81-3.42,15.07,2a1.55,1.55,0,0,0,1.7.69,19.54,19.54,0,0,1,10.67-.09c2.25.64,4.27,1.93,6.54,2.5,4.37,1.09,9.2-.18,13.68.23a33,33,0,0,1,14,4.44,34.21,34.21,0,0,1,5.74,4.34c1.27,1.19,2.74,3.81,4.29,4.57,1.39.68,2.93.5,4.38,1.36,3.5,2.07,3,5.45,1.79,8.76-.7,1.87-1.12,3.25.81,4.48,2.26,1.43,3.84.42,5.57,3.63a13.72,13.72,0,0,1,1.34,6.65c-.08,4.73-3.78,6.67-5.17,10.76a1.53,1.53,0,0,0,.69,1.7c7,4.25,8.48,15.21,1.7,20.25-1.08.8-.87,2.87.76,2.79,8.2-.41,4.53,21.36,2.3,25.45-2.54,4.67-9.29,4.26-9.2,10,0,1.6.4,3.37-.37,4.88-1.46,2.88-5,3.63-7.84,4.19a46.75,46.75,0,0,0-10.33,2.75c-6.85,3-16.44,9.78-23.11,2.61a1.52,1.52,0,0,0-2.51.66c-2.3,5.59-9.81,1.93-14,1.66a32.56,32.56,0,0,0-9.14,1.2c-8.74,2-17.64.34-20.06-9.59a1.53,1.53,0,0,0-1.85-1c-11.13,2.55-11.69-12.3-11.24-19.45a1.5,1.5,0,0,0-1.5-1.5c-6.68.61-11.93-5.07-12.42-11.51-.45-5.88,2.24-11.38,5.31-16.21a1.51,1.51,0,0,0-.89-2.2c-7.72-2.33-3.43-14.52-1.25-19.58a41.59,41.59,0,0,1,3.52-6.54c.85-1.27,2.51-2.59,2.7-4.18s-.94-3.73-1-5.31a19.89,19.89,0,0,1,9.66-18,1.47,1.47,0,0,0,.74-1.29c-.85-7.44,4.81-13.44,12.42-12.17C1563.84,430.29,1564.65,427.4,1562.74,427.08Z"/><path class="cls-5" d="M1628,466c.7-.59.75-1.61,1.3-2.35.4-.55,1.78-1,2.38-1.36a17,17,0,0,1,6.91-2.12c2.33-.2,2.77.89,4.66,2.18,1.61,1.11,5.29,17.43,8.65,36.76.35,2,2.6,7,2.94,9.07s-.57,7.56-.23,9.69c3.4,21.92,5.16,38,3.45,45-.29,1.17-.29,1.38-1.52,1.16s-2.33-.47-3.5-.71c-1.85-.38-7.16-1.19-7.41-3.71-.09-.93.92-1.87,1.34-2.62a51,51,0,0,0,2.09-4.66c2.11-4.8-7.14-48.6-14.93-72-2.63-7.9-4.31-13.55-6.11-14.47"/><path class="cls-6" d="M1629.31,466.8c2.19-3.48,9.64-7.64,13-3.23,1.34,1.76,1.75,5,2.28,7.07,2.44,9.54,3.56,19.36,5.88,28.91.77,3.18,2.63,6.21,3,9.48.3,3.08-.53,6.19-.25,9.28.91,10.14,3.1,20.14,3.8,30.33a75.53,75.53,0,0,1,.19,9.75c-.05.89.17,2.83-.39,3.49-.92,1.07-3.28.11-5-.29-2.19-.51-4.51-.65-3.8-3.39.48-1.83,2-3.55,2.52-5.42a12.55,12.55,0,0,0,.35-3.62c-.16-12.65-3.86-25.81-6.74-38-2-8.6-4.23-17.18-6.8-25.63-1.44-4.72-2.94-9.45-4.65-14.08-.88-2.41-1.72-5.2-3.89-6.75-1.58-1.12-3.08,1.48-1.51,2.59,3.16,2.25,4.49,10.73,5.59,14.09,1.32,4,2.53,8.09,3.67,12.17,2.55,9.15,4.79,18.39,6.78,27.67a234.27,234.27,0,0,1,4.22,23.8,24.79,24.79,0,0,1,.27,6.32c-.44,2.74-4,5.91-3.61,8.76s4,3.75,6.28,4.3,6.52,2.43,8.4.49c1.31-1.35,1.22-5.19,1.3-6.92a89.42,89.42,0,0,0-.42-11.91c-.91-10.82-4.18-22.17-3.52-33a21.68,21.68,0,0,0-1.41-9.79c-1.91-5.35-2.59-10.94-3.68-16.52s-2.24-11.31-3.67-16.9c-.65-2.53-1.16-5.88-2.76-8-2-2.68-4.88-3.37-8-2.85-4.6.76-7.68,2.59-10,6.33-1,1.64,1.56,3.15,2.59,1.52Z"/><path class="cls-7" d="M1636.76,574.42a78.62,78.62,0,0,1,19.72,5.14l.44-.31,3.21-9.29a14.28,14.28,0,0,0,1.06-4.67,13,13,0,0,0-1.14-4.71,13.41,13.41,0,0,0-2.18-4c-2.5-2.86-7-3.39-10.48-1.89s-6,4.68-7.6,8.13a53.2,53.2,0,0,0-3.12,10.93"/><path class="cls-6" d="M1636.36,575.87a83.35,83.35,0,0,1,15.37,3.53c2,.69,4.35,2.58,6.25.92,1.13-1,1.51-3.92,2-5.31a69,69,0,0,0,2.31-7,14.44,14.44,0,0,0-1.88-10.32c-2.88-5.2-9.18-6.68-14.4-4-7.29,3.73-9.19,12.35-10.77,19.64-.41,1.88,2.48,2.69,2.89.8,1.12-5.16,2.1-11,5.81-15.07,5.69-6.17,14.35-3.75,15.5,4.8.44,3.28-1,6.3-2,9.38-.35,1-.62,2.88-1.29,3.72-1,1.25.22.74-1.83.12a110.36,110.36,0,0,0-17.12-4.14c-1.89-.26-2.7,2.63-.8,2.89Z"/><path class="cls-5" d="M1562.7,462.92c-.76-.52-.91-1.53-1.53-2.21a9,9,0,0,0-2.51-1.1,17,17,0,0,0-7.1-1.4c-2.34.05-2.66,1.17-4.4,2.66-1.49,1.26-3.46,17.88-4.8,37.45-.14,2-1.86,7.25-2,9.32s1.34,7.47,1.23,9.63c-1.12,22.15-1.2,38.36,1.23,45.12.4,1.14.43,1.34,1.63,1s2.27-.72,3.4-1.07c1.81-.57,7-1.93,7-4.46,0-.94-1.11-1.77-1.61-2.47-1-1.38-1.72-2.95-2.55-4.42-2.59-4.55,2.07-49.07,7.39-73.11,1.8-8.14,2.88-13.93,4.58-15"/><path class="cls-6" d="M1563.76,461.86c-2.65-3.37-5.43-4.55-10-5-3.18-.34-5.9.38-7.83,3.15-3.21,4.62-2.85,13.27-3.42,18.62-.62,5.92-1,11.85-1.54,17.78-.36,4-2.18,8-2.1,12.09.09,4.29,1.24,8.27,1,12.64-.29,6.25-.53,12.51-.56,18.76,0,7.14-.53,15.42,1.81,22.3.75,2.2,1.38,2.91,3.69,2.66,2.8-.29,8.47-2.11,10.38-4.39,1.7-2,1-3.46-.3-5.37-2-3-3.28-5-3.45-8.51-.32-7,.4-14.07,1-21q1.48-15.9,4-31.68c.8-4.87,1.67-9.72,2.7-14.54.67-3.1,1.31-6.21,2.07-9.29.48-2,.79-4.76,2.36-6.15s-.68-3.39-2.12-2.12c-1.69,1.5-2.25,4.07-2.8,6.16-1.17,4.41-2.08,8.92-3,13.4-1.55,7.67-2.76,15.41-3.83,23.16-1.86,13.58-3.94,27.65-3.52,41.39a19.72,19.72,0,0,0,.47,4.66,12.14,12.14,0,0,0,.45,1.19c.57,1.4,3.38,4.16,3.43,5.46.09,2.55-3.21,3-5,3.57s-3,1.59-3.75.61c-1.49-1.92-1.24-6.68-1.4-9a239.86,239.86,0,0,1,0-26.68c.15-4,.64-7.93,0-11.85-.31-2-1-4.19-.88-6.25a35.2,35.2,0,0,1,1.38-6.06c2.31-10,1.81-20.85,3.23-31,.34-2.5.36-6.21,1.66-8.46,2.9-5,10.79-1.54,13.49,1.89,1.19,1.51,3.3-.62,2.12-2.12Z"/><path class="cls-7" d="M1565.22,571.62a78.46,78.46,0,0,0-19.08,7.16l-.46-.26-4.16-8.91a14.61,14.61,0,0,1-1.54-4.54,13,13,0,0,1,.65-4.81,13.42,13.42,0,0,1,1.76-4.18c2.18-3.1,6.6-4.1,10.22-3s6.48,4,8.4,7.3a53.25,53.25,0,0,1,4.23,10.54"/><path class="cls-6" d="M1564.82,570.18a83.94,83.94,0,0,0-14.07,4.71c-.91.39-3,1.81-3.86,1.81-.68,0,.27.72-.75-.72a35,35,0,0,1-4.39-9.75c-1.76-7.74,5.19-15.07,12.68-10.66,5.54,3.26,7.49,10.08,9.37,15.79.6,1.83,3.49,1,2.89-.79-2.27-6.93-4.91-15.12-12.18-18.32-5.3-2.34-11.8-.71-14.33,4.75a14.73,14.73,0,0,0-1,10.79,58.17,58.17,0,0,0,2.76,6.14c.7,1.5,1.46,4.58,2.73,5.65,1.81,1.52,3.49-.17,5.32-1a81.17,81.17,0,0,1,15.68-5.47c1.88-.46,1.08-3.35-.8-2.89Z"/><path class="cls-9" d="M1559.57,427.62c-6,4.92-2.39,14.77,1.75,19.6,4.34,5.07,9.47,9.18,14.72,13.27,2.6,2,5.23,4,7.94,5.87,3.19,2.2,6.91,4.1,8.13,8.06a1.51,1.51,0,0,0,2.51.66c6.54-7.63,17.36-9.7,24.6-16.74,7-6.85,14.82-15.29,13.59-25.84-.22-1.9-3.22-1.92-3,0,1.27,10.89-9.14,22-17.64,27.87-6.5,4.47-14.39,6.43-19.67,12.59l2.51.66c-1.06-3.42-3.34-5.58-6.2-7.61-5.13-3.64-10.2-7.24-15.11-11.18-4.15-3.33-8.85-7.1-11.78-11.61-2.31-3.57-4-10.36-.23-13.48,1.49-1.23-.64-3.34-2.12-2.12Z"/><text class="cls-10" transform="translate(1588.67 489) rotate(-17.89)">N</text><path class="cls-5" d="M1587.3,350.07c-10.47,12-12.61,28.05-15.76,43.07a251.86,251.86,0,0,1-10.63,36.63,20.28,20.28,0,0,0-1.55,5.75c-.32,5.11,3.51,9.67,8,12.62,7.69,5.07,17.46,6.79,27,7.09,11.88.38,25-1.8,32.79-10.21,5.76-6.21,7.55-14.81,7.14-22.9s-2.78-15.94-4.36-23.89c-2-9.88-2.74-20-5.28-29.74-1.37-5.26-3.29-10.47-6.62-14.9a23.42,23.42,0,0,0-14-9.11c-5.75-1.1-12.32.65-15.94,5"/><path class="cls-6" d="M1586.24,349c-14.23,16.91-14.66,40.89-20.49,61.3q-2.51,8.74-5.62,17.27c-1.7,4.68-3.29,8.84-1.09,13.65,3.68,8,13.43,12.08,21.53,13.89,16.52,3.68,40.61,3.06,50.67-13.06,5.16-8.27,5.16-18.44,3.6-27.74-1-6.16-2.72-12.19-3.86-18.33s-1.88-12.45-3-18.65c-2-11.11-5-23.47-14.71-30.39-8-5.68-19.33-6-26.29,1.47-1.32,1.4.8,3.53,2.12,2.12,7.5-8,19.65-5.11,26.34,2.37,6.53,7.3,8.41,17.74,10,27.09,1.6,9.63,3.14,19.16,5.23,28.7s3.7,19.92-.56,29.14c-7.79,16.91-31.29,17.74-47.1,14.73-7.9-1.51-21.54-6.06-22.06-15.88-.24-4.56,2.54-9.46,4-13.73q2.46-7.23,4.48-14.6c5.22-19,5.73-41.52,18.95-57.22,1.24-1.47-.88-3.61-2.12-2.13Z"/><path class="cls-5" d="M1581.84,358.75c-9.62,6.06-14.18,17.4-20.4,26.92a77.06,77.06,0,0,1-6.27,8.32,18.15,18.15,0,0,1-4.3,3.91c-1.34.79-5.31,3.8-6.71,4.49a27,27,0,0,0-5.37,2.91,29.5,29.5,0,0,1-13.54,5,8.7,8.7,0,0,1-3.87-.28c-2.35-.88-3.71-3.44-4-5.94-.41-4.06,1.59-8.08,4.42-11s6.45-5,10-7l18-10.18a64.2,64.2,0,0,0,8.36-5.31c2.34-1.84,4.42-4,6.72-5.91a40.52,40.52,0,0,1,13.63-7.43,4.14,4.14,0,0,1,2.35-.23,1.53,1.53,0,0,1,1.15,1.8"/><path class="cls-6" d="M1581.08,357.46c-10,6.68-14.55,17.72-20.93,27.46a48.54,48.54,0,0,1-13.37,14,99.22,99.22,0,0,1-12.24,7.15c-3.72,1.83-8.74,3.72-12.62,1.81-5.68-2.8-2.37-10.22,1-13.78,5.11-5.43,13.12-8.7,19.53-12.33,5.66-3.2,11.72-6.12,16.84-10.17,3.15-2.49,5.87-5.47,9.18-7.77,1.11-.77,11.75-7.11,12.16-4.66.32,1.9,3.22,1.09,2.9-.8-1.82-10.73-24.42,9.72-27.38,11.87-6.23,4.51-13.43,7.93-20.13,11.72-5.72,3.23-12.3,6.2-16.47,11.48-6.29,7.94-4,20,7.74,18.09,6.15-1,10.58-4.37,16-7a44.7,44.7,0,0,0,11.47-7.79c10.94-10.88,14.75-27.87,27.86-36.62,1.6-1.07.1-3.67-1.52-2.59Z"/><path class="cls-5" d="M1621,358.59c10.32,4.77,16.28,15.45,23.67,24.09a77.59,77.59,0,0,0,7.28,7.45,18,18,0,0,0,4.77,3.33c1.43.61,5.75,3.09,7.23,3.59,3,1,2.86.75,5.69,2.2a29.35,29.35,0,0,0,14.06,3.19,8.5,8.5,0,0,0,3.81-.77c2.22-1.18,3.24-3.89,3.18-6.4-.11-4.08-2.61-7.81-5.8-10.37s-7-4.14-10.82-5.68l-19.15-7.8a64.79,64.79,0,0,1-9-4.19c-2.56-1.53-4.9-3.4-7.42-5A40.41,40.41,0,0,0,1624,356.6a4.11,4.11,0,0,0-2.36.07,1.53,1.53,0,0,0-.91,1.93"/><path class="cls-6" d="M1620.2,359.88c12.65,6.28,18.85,20.08,28.74,29.54a45.14,45.14,0,0,0,13.1,8.45c4.41,2,9.28,4.22,14,5.29,4.25,1,10.58,2,13.91-1.6s2.47-9,.25-12.8c-3.07-5.28-8.73-8.06-14.15-10.32-7.41-3.09-14.9-6-22.3-9.09-8-3.36-14.45-9.42-22.63-12.39-3.34-1.21-11.63-4.42-11.87,1.64-.08,1.93,2.92,1.93,3,0s12.19,3,12.48,3.2c3.43,1.77,6.4,4.21,9.66,6.25,5.53,3.45,11.92,5.56,17.92,8,7.37,3,16.77,5.29,22.64,10.91,3,2.89,7.46,11.25.91,13.71-3.19,1.21-8.28,0-11.37-1-10.49-3.4-20.25-8.42-27.66-16.71-8-9-13.94-20.1-25.11-25.64-1.73-.85-3.25,1.73-1.52,2.59Z"/><circle class="cls-11" cx="1584.38" cy="375.06" r="14.21"/><circle class="cls-12" cx="1584.13" cy="377.07" r="4.57"/><circle class="cls-11" cx="1615.14" cy="373.95" r="14.21"/><circle class="cls-12" cx="1613.94" cy="376.98" r="4.57"/><path d="M1568.61,386.31a19.16,19.16,0,0,0,4.42-1.48c.87-.42.11-1.71-.75-1.3a17.32,17.32,0,0,1-4.07,1.33c-1,.19-.55,1.64.4,1.45Z"/><path d="M1576.2,387.94c-1.32,1.33-2.78,2.47-4.19,3.69-.73.64.33,1.7,1.06,1.06,1.41-1.22,2.87-2.36,4.19-3.69.67-.69-.39-1.75-1.06-1.06Z"/><path d="M1580.62,389.54c0,1.67-.1,3.34-.1,5a.75.75,0,0,0,1.5,0c0-1.67.1-3.34.1-5a.75.75,0,0,0-1.5,0Z"/><path d="M1588,389.63A5.62,5.62,0,0,1,1589,393a.75.75,0,0,0,1.5,0,6.85,6.85,0,0,0-1.28-4.13c-.55-.78-1.86,0-1.29.75Z"/><path d="M1595.32,385.89c.42-.39,1.1-.05,1.4.34a4,4,0,0,1,.5,2.29c0,1,1.53,1,1.5,0,0-1.32-.19-2.83-1.31-3.7a2.4,2.4,0,0,0-3.15,0c-.7.66.36,1.72,1.06,1.06Z"/><path d="M1604.21,384.75a2.25,2.25,0,0,1-1.2,1.75c-.86.45-.1,1.75.75,1.29a3.64,3.64,0,0,0,1.9-2.64.77.77,0,0,0-.52-.92.76.76,0,0,0-.93.52Z"/><path d="M1608.81,387.64a1.57,1.57,0,0,1-.58,1.88c-.8.53,0,1.83.76,1.3a3.08,3.08,0,0,0,1.26-3.58c-.32-.9-1.77-.51-1.44.4Z"/><path d="M1615,388.8a8.28,8.28,0,0,1,.28,3.86c-.16.94,1.29,1.35,1.45.4a9.94,9.94,0,0,0-.29-4.66c-.28-.91-1.73-.52-1.44.4Z"/><path d="M1620.72,388.37c.77-.07,1.62.8,1.23,1.59s.87,1.62,1.3.75a2.71,2.71,0,0,0-2.53-3.84c-1,.1-1,1.6,0,1.5Z"/><path d="M1605,363.81a20,20,0,0,1-.18-4.51c.07-1-1.43-1-1.5,0a21.83,21.83,0,0,0,.23,4.91c.15,1,1.59.54,1.45-.4Z"/><path d="M1610.25,360.32a2.17,2.17,0,0,1,.92-3c.86-.44.1-1.73-.76-1.3a3.68,3.68,0,0,0-1.45,5.07.75.75,0,0,0,1.29-.76Z"/><path d="M1616,359.4a6.28,6.28,0,0,1,.64-3.33c.44-.86-.85-1.62-1.29-.76a7.75,7.75,0,0,0-.85,4.09c.06,1,1.56,1,1.5,0Z"/><path d="M1620,359.49a2.62,2.62,0,0,1,1.1-2.63c.79-.54,0-1.84-.76-1.3a4.18,4.18,0,0,0-1.78,4.33c.18.95,1.62.55,1.44-.4Z"/><path d="M1594.31,364.07a11.33,11.33,0,0,0,1.14-3.82c.11-1-1.39-.95-1.5,0a9.27,9.27,0,0,1-.94,3.07c-.43.86.87,1.62,1.3.75Z"/><path d="M1590.21,361.12a4.86,4.86,0,0,0-.44-3.58c-.46-.85-1.76-.09-1.3.76a3.24,3.24,0,0,1,.29,2.42.75.75,0,0,0,1.45.4Z"/><path d="M1585.16,359.94a4.6,4.6,0,0,0-3.36-4.12.75.75,0,0,0-.4,1.45,3.05,3.05,0,0,1,2.26,2.67c.07,1,1.57,1,1.5,0Z"/><path d="M1576.17,358.21v3.47a.75.75,0,0,0,1.5,0v-3.47a.75.75,0,0,0-1.5,0Z"/><path class="cls-13" d="M1603.2,335.2c-6.2,0-11.59,2.16-17.21,4.57a48,48,0,0,1-10.3,3.37c-2.46.46-4.44.71-6.35,2.44s-3.25,4.47-5.1,6.46c-2.1,2.27-4.55,4.16-6.46,6.61-1.78,2.28-2.32,4.58-3.45,7.14-.93,2.11-2.42,3.88-2.83,6.2-.87,4.94,3.53,9.14,3.89,14.13a23.53,23.53,0,0,1-5.73,17.19c-1.68,1.85-3.28,3.37-4.25,5.76-1.21,3-1.08,6-1.66,9.08-1.35,7.24-5.13,14.5-7.81,21.34-1.4,3.6,4.4,5.16,5.79,1.6,2.56-6.54,5.86-13.23,7.54-20,.56-2.28.59-4.63,1-6.93.58-3.38,2.36-5,4.47-7.48,6-7,8.48-18.07,5.49-26.91-.66-2-2.94-4.62-2.86-6.62s2.26-4.35,3-6.2c2.2-5.6,6.6-8.38,10.2-13,2.13-2.74,2.68-4,6.38-4.87a53.28,53.28,0,0,0,8.66-2.6c5.82-2.37,11.2-5.22,17.63-5.22,3.86,0,3.87-6,0-6Z"/><path class="cls-13" d="M1606.15,342.23a41.51,41.51,0,0,1-9,.76,16.15,16.15,0,0,0-1.63-.18c.24-.18-.82.6.49.92.38.1-.26,1.27.33-.1a3.49,3.49,0,0,0,.16-2.23c-1.66-6-13.8,1.41-16.38,2.51-3.08,1.33-.85,6.75,2.32,5.49,2.31-.93-.31-4-1.77-3.48-.26.1-1,1.32-1.2,1.57a47.84,47.84,0,0,1-3.61,3.79c-1.27,1.24-2.57,2.46-3.92,3.61a12.09,12.09,0,0,0-1.64,1.36c-1,1.25-1.82-.44,1,.39l2.09,2.1,0,1.35c1-3.8-4.44-5.14-5.78-1.6a45.31,45.31,0,0,0-3.1,16.44c0,5.58,2.68,10.6,2.9,16,.13,3.07-1.12,6.29-1.6,9.31-.38,2.42-.67,4.85-1,7.29-.81,6.88-1.58,13.69-3.56,20.35-1.11,3.71,4.68,5.3,5.78,1.6a102.74,102.74,0,0,0,3.24-17.31c.77-6.38,2.23-12.68,3-19,.54-4.56-1.48-8.78-2.33-13.16-1.29-6.71,0-13.65,2.42-19.94l-5.78-1.6c-1,3.67,2.84,4.62,5.37,3.19,3-1.67,5.6-4.62,8-7,1.89-1.9,5.07-4.55,5.62-7.34.72-3.69-2.83-4.9-5.72-3.74l2.31,5.48c2.66-1.14,5.31-2.34,8-3.34a6.66,6.66,0,0,0,1.66-.59c.57-.47.44-.22.41-.16q-2-5.43-2.59-3.22l-.06.16a3.49,3.49,0,0,0-.26.66,4.41,4.41,0,0,0-.15,2.52c1.49,6.46,13.53,3.48,17.53,2.89,3.81-.56,2.19-6.34-1.59-5.78Z"/><path class="cls-13" d="M1604.74,346.24c5.33-.3,9.77,2.82,13.68,6.12,3.25,2.74,7.5,5.94,9.3,9.85,1.88,4.09,2,8.79,2.74,13.16.86,4.8,3.26,8.91,3.09,13.87-.17,4.75-1.41,9.44-1.16,14.21.22,4.33,1.72,7.6,4,11.23,1.2,1.91,2.44,3.69,2.64,6,.16,1.92-.12,3.72.36,5.62,1,4,4.33,7.26,4.72,11.38.37,3.81,6.37,3.85,6,0-.43-4.56-3.11-7.6-4.57-11.78-.81-2.34-.24-4.68-.65-7.05a17.74,17.74,0,0,0-2.58-6c-1.25-2.05-2.81-4-3.49-6.33-.87-3-.46-6.31-.11-9.33.62-5.44,1.59-10.87-.34-16.17-3.19-8.74-2-19.36-8.82-26.48-6.33-6.64-15-14.81-24.82-14.25-3.84.21-3.87,6.22,0,6Z"/><path class="cls-13" d="M1603.16,341c9.63.06,19.53,4.86,26.4,11.59,2.51,2.46,3.51,5.63,5.35,8.5,1,1.61,2.68,2.88,3.59,4.53,1.16,2.08,1.33,4.93,2,7.17,1.35,4.21,3.27,8.19,4.74,12.35,1.4,4,1.51,8,2.55,12.06,2.23,8.67,8.84,15.64,13.12,23.31,1.89,3.37,7.07.35,5.18-3-5.09-9.12-11.72-16.24-13.25-26.87-.72-5-2.78-9.53-4.63-14.16-1.68-4.24-2.18-9.37-4.3-13.33a33.36,33.36,0,0,0-3.1-4,59.85,59.85,0,0,1-3.25-5.73,28.52,28.52,0,0,0-8-8.31c-7.84-5.93-16.52-10-26.49-10.06-3.86,0-3.86,6,0,6Z"/><path class="cls-13" d="M1593.79,346c2.9,0,5.49,4.36,8.07,5.61,3.85,1.85,8.53-.78,12,2s6.38,6.36,9.22,9.48c3.47,3.8,5.31,8.1,8,12.41,2.84,4.61,5.23,7.57,4.39,13.14a19.9,19.9,0,0,0,1.81,11c2.25,5.3,5.67,10.06,7.27,15.62,1.52,5.25,2,10.74,3,16.1.71,3.79,6.5,2.19,5.79-1.6-1.1-5.9-1.6-12-3.54-17.72s-5.67-10.55-7.65-16.21c-1.7-4.89.8-9.45-.9-14.33-1.6-4.62-4.91-8.46-7.09-12.8a46.52,46.52,0,0,0-8.38-11.47c-3-3.09-6.43-7.94-10.24-9.89-4.12-2.09-8.94.57-12.6-2.21-3-2.26-5-5-9.09-5.06-3.87-.06-3.87,5.94,0,6Z"/><path class="cls-13" d="M1605.33,342.79c-4.33-.78-8.31.15-12.46,1.42a56.72,56.72,0,0,1-7.07,2c-1.79.3-4-.18-5.67.71-1.1.59-1.71,1.78-2.52,2.65a26.49,26.49,0,0,0-4,4.71,153,153,0,0,0-8.18,14.56c-4.24,9.23-2.28,19.6-6.74,28.83-2.14,4.43-4.13,7.95-4.7,13-.6,5.37-.17,10.8-.47,16.19-.22,3.86,5.78,3.85,6,0,.25-4.6,0-9.21.27-13.8.35-5.07,2.33-8.56,4.4-13a45.66,45.66,0,0,0,3.54-11.75c.67-4.14.34-8.49,1.47-12.52,2.24-8,8-17.32,13.85-23.05.82-.81.18-.49-.42-.26a12.28,12.28,0,0,1,2.59-.09,30.8,30.8,0,0,0,4.93-1c4.29-1.17,9-3.56,13.55-2.74,3.78.69,5.4-5.1,1.6-5.78Z"/><path class="cls-13" d="M1599.82,337.88c-5.62.5-10.25,2.76-14.87,5.9-2.54,1.73-5,3.6-7.71,5.09-2,1.13-4.39,1.66-6.31,3a23.76,23.76,0,0,0-7.3,9.15c-1.73,3.79-1.11,9.11-1.43,13.22-.44,5.68,1.1,11.2,1.12,16.89a120.34,120.34,0,0,1-1.15,14.32,70.67,70.67,0,0,0,3.79,33.66c1.32,3.6,7.12,2.05,5.78-1.59a64.49,64.49,0,0,1-3.83-29.78c.95-9,1.94-17.54.59-26.55-.75-4.95.27-9.59.31-14.55a12.16,12.16,0,0,1,4.8-9.2c3.18-2.62,7.94-4,11.47-6.42,4.57-3.14,9-6.59,14.74-7.1,3.81-.35,3.85-6.35,0-6Z"/><path class="cls-13" d="M1600.94,343.44c10.28-.46,23.08,8.3,26.42,18.05,1.53,4.47,2,9.24,3.42,13.75a52.9,52.9,0,0,0,5.58,11.53,37.79,37.79,0,0,0,8.14,9.71c3.54,2.95,6.87,4.46,8.3,9.12,2.3,7.49,1.6,15.6,7.39,21.64,2.68,2.79,6.92-1.45,4.24-4.24-6-6.22-3.54-16.56-7.84-23.76-2.39-4-6.8-5.77-10-9-3.47-3.43-6-7.82-8.16-12.16-4.3-8.54-3.29-19.23-9.85-26.73s-17.22-14.42-27.61-13.95c-3.84.17-3.86,6.17,0,6Z"/><path class="cls-13" d="M1597.79,334.51c-5.77.58-11.65-.83-17.38.28-4.69.9-8.35,3.63-11.67,6.93-7.67,7.59-15.13,16.57-17.71,27.29-1.38,5.77-1.33,11.73-1.82,17.61-.56,6.81-2.47,13.29-4,19.91-2.5,10.68-3.53,22.21,2.79,31.8,2.12,3.21,7.32.2,5.19-3-6-9.13-4-19.91-1.54-29.87a135,135,0,0,0,3.17-14.86c.69-5.31.59-10.69,1.31-16,1.38-10.27,7.22-18.4,14.14-25.79,3.54-3.77,7.13-7.71,12.57-8.32,5-.55,10,.54,15,0,3.81-.38,3.85-6.39,0-6Z"/><path class="cls-13" d="M1597.77,350.76c3.72,1.18,6.29,3.27,9.5,5.31s6.54,2.79,9.31,5.67c2.18,2.27,3.9,4.95,5.91,7.37,1.72,2.08,6.68,4.9,7.3,7.45.92,3.75,6.71,2.16,5.79-1.6s-4-5.1-6.6-7.6c-3.08-3-5.23-6.75-8.16-9.86s-6-4.17-9.56-6.1c-4.11-2.23-7.32-5-11.9-6.42-3.69-1.18-5.27,4.62-1.59,5.78Z"/><path class="cls-13" d="M1590,344.49c-2.51,1.64-5.75,3.08-7.84,5.23-1.64,1.68-2.41,3.33-4.38,4.81-2.94,2.2-5.85,4.69-7.47,8.06-1.16,2.44-1,5.54-2.91,7.53-3.26,3.42-8.25,4.46-11.38,8.2-2.47,2.94,1.76,7.21,4.24,4.24,2.85-3.4,7.22-4.65,10.55-7.47,2.65-2.25,3.38-4.69,4.24-7.89,1-3.53,3.46-5.79,6.36-7.95a19.42,19.42,0,0,0,4.42-4c1.86-2.43,4.56-3.84,7.19-5.56,3.23-2.1.22-7.3-3-5.18Z"/><path class="cls-13" d="M1601.52,343.09c4.65-2.09,9.61,1,10.7,5.7.86,3.64.46,7.34,3.2,10.31s7.62,3.23,9.85,7.1,1.92,9.24,1.92,13.66c0,5.64-.06,11.28,0,16.92,0,3.65.55,6.32,3.62,8.55,9.92,7.18,4.35,19.31,5.56,29.66.44,3.79,6.45,3.83,6,0-1.2-10.24,3.89-22.95-4.17-31.53-2.34-2.49-4.5-2.73-5-6.68-.44-3.51,0-7.4,0-10.95,0-5.62.42-11.43-.71-17-.85-4.16-2.87-8.16-6.53-10.5-2-1.3-5.2-1.81-6.57-4s-.88-5.93-1.68-8.51c-2.52-8.1-11.84-11.26-19.2-8-3.52,1.57-.47,6.74,3,5.18Z"/><path class="cls-14" d="M1589.58,443.66c.31-.3,4.23,2.47,4.62,2.4s3.4-2.27,3.74-2.11c4,1.91,5.64,3.4,10,3.71a10.22,10.22,0,0,1-5.65,4.58,20,20,0,0,1-6.92.85c-4.19-.07-7.71.1-11.52-2.1-.17-.1-2-3.52-1.76-3.75.65-.81,1.11.13,1.93-.42A15.1,15.1,0,0,0,1589.58,443.66Z"/><path class="cls-15" d="M1589.58,444.42c2.51.2,3.15,2.76,5.73,1.9,1.21-.4,1.45-1.2,2.82-1.13s2.53,1.06,3.76,1.61a19.51,19.51,0,0,0,6,1.63l-.66-1.15c-3.42,5-8.75,5.15-14.2,5-3.48-.09-7.79-.18-9.58-3.51-1.31-2.42-.38-.42,1-1.3,1.86-1.2,3.9-1.81,5.7-3.28.76-.63-.32-1.7-1.08-1.09-2.5,2-5,2.1-7.39,3.46a.81.81,0,0,0-.35.87c.73,4.87,5.28,6,9.54,6.3,6.7.54,13.64.31,17.72-5.69.36-.53-.14-1.09-.67-1.15-3.89-.45-7.79-4.32-11.38-3.15-2.49.82-1.75,1.78-4.26.36a6.82,6.82,0,0,0-2.67-1.22C1588.6,442.81,1588.6,444.34,1589.58,444.42Z"/><path class="cls-15" d="M1582.46,448.07c3.92.06,7.35,1.46,11.3,1.31,4.47-.18,9.21,1,13.48-.62.44-.17.25-.9-.2-.72-4.35,1.68-10.09.69-14.67.73-3.41,0-6.52-1.4-9.91-1.45a.38.38,0,0,0,0,.75Z"/><path class="cls-5" d="M1761.94,425.34c-1.33,0-4.08-.81-4.86-.84-1.23-.05-2.2-.12-4.31-.11l-2,1.44c0,3.57-.11,23.81-.16,27.38,0,1.52-.3,12.56-.64,14.11s1,10.15,1.83,13.4c.76,3,.47,6.09.8,9.16s-.42,13.43-.53,16.57l2,.15c2.67,0,3.46,0,6.13.06l3-.19c-.17-6.34-1.25-20-1-26a60.07,60.07,0,0,1,.9-8.71c.43-2.33.17-3.81.53-9,.11-1.6-.09-7.71-.12-9.52-.07-3.57.81-23.81.75-27.38Z"/><path class="cls-6" d="M1761.94,423.84c-3.47-.3-7.78-2.21-10.91,0-2.28,1.6-1.74,3.53-1.75,6.16,0,7.87,0,15.74-.14,23.6-.13,7.21-1,14.23.08,21.38.9,5.81,2,11.43,2,17.35,0,4.72-.41,9.44-.61,14.15a1.52,1.52,0,0,0,1.5,1.5,78.51,78.51,0,0,0,11.06,0,1.53,1.53,0,0,0,1.5-1.5c-.25-7.85-1-15.7-1-23.56s1.57-15.37,1.49-23.15c-.11-11.32.7-22.62.61-33.93a1.52,1.52,0,0,0-1.11-1.44l-2.32-.49c-1.88-.4-2.68,2.49-.79,2.89l2.32.49-1.1-1.45c.09,11.31-.72,22.61-.61,33.93.08,7.6-1.42,15-1.5,22.6-.08,8,.76,16.08,1,24.11l1.5-1.5a78.51,78.51,0,0,1-11.06,0l1.5,1.5c.39-9.17,1.2-18.28-.6-27.36-1.56-7.82-1.17-14.67-.94-22.55.19-6.63.14-13.26.17-19.88,0-2.94-.88-7.64.07-10.43-.5,1.47-.06-.13.91-.32a11.36,11.36,0,0,1,3,0c1.94.16,3.8.71,5.75.88S1763.85,424,1761.94,423.84Z"/><path class="cls-7" d="M1743.27,530.78a105.63,105.63,0,0,1,27.4-.7l.44-.55.7-13.21a19.5,19.5,0,0,0-.37-6.43,17.34,17.34,0,0,0-3.23-5.67,18,18,0,0,0-4.3-4.33c-4.29-2.77-10.3-1.78-14.25,1.46s-6.05,8.28-6.79,13.33-.3,10.2,0,15.29"/><path class="cls-6" d="M1743.67,532.23a108.06,108.06,0,0,1,19.69-1.16c2.59.09,7.64,2,9.12-1,.85-1.7.39-5.36.48-7.18.16-3,.46-6,.43-9-.05-4.71-2-8.4-5.07-11.92a13.72,13.72,0,0,0-19.72-1.67c-8.67,7.17-7.87,19.62-7.19,29.68.13,1.92,3.13,1.93,3,0-.55-8.16-1.51-17.42,3.48-24.51,6.62-9.41,19.08-5.57,22.1,4.83,1.06,3.63.22,8,0,11.69-.07,1.34.39,5.13-.24,6.21-.4.69-3.13,0-4.58,0a111.89,111.89,0,0,0-22.32,1.19c-1.91.28-1.1,3.17.8,2.89Z"/><path class="cls-5" d="M1787.64,426.12c1.2,0,3.66-.94,4.36-1,1.12-.09,2-.19,3.9-.24l1.84,1.38c.18,3.57,1,23.79,1.17,27.36.08,1.52.44,6,.55,6.79s.09,5.74.46,7.28a64.7,64.7,0,0,1-.34,13.44,73.08,73.08,0,0,0-1.1,9.2c-.18,3.13.88,13.41,1.11,16.54l-1.79.21c-2.42.06-3.14.11-5.56.24l-2.67-.1c-.09-6.34.14-20-.1-26a51,51,0,0,0-1.07-8.65c-.48-2.32-.3-3-.82-8.21-.16-1.59-.28-8.51-.32-10.33-.08-3.57-1.63-23.77-1.71-27.34Z"/><path class="cls-6" d="M1788,427.56c2.49-.36,4.83-1.26,7.39-1.16.33,0,1.63,1.68,1,.61-.47-.86-.19.45-.16.74.29,3.47.3,7,.44,10.48.3,7.07.55,14.14,1.11,21.2.54,6.83,1.25,13.83.37,20.66-.62,4.79-1.42,9.42-1.15,14.28.23,4.18.69,8.34,1,12.51l1.5-1.5a64.53,64.53,0,0,1-10,.35l1.5,1.5c-.09-8,.16-16.07,0-24.11-.18-7.43-1.86-14.68-2.1-22.13-.36-11.45-1.52-22.87-1.87-34.32l-1.1,1.45,2.09-.56a1.5,1.5,0,0,0-.8-2.89l-2.09.56a1.52,1.52,0,0,0-1.1,1.44c.35,11.45,1.51,22.87,1.87,34.32.24,7.28,1.88,14.38,2.09,21.63.24,8.2,0,16.41.06,24.61a1.52,1.52,0,0,0,1.5,1.5,64.53,64.53,0,0,0,10-.35,1.52,1.52,0,0,0,1.5-1.5c-.35-4.53-.88-9.05-1.07-13.6-.22-5.4,1.13-10.62,1.46-16,.48-7.78-.58-15.51-1-23.26s-.66-15.46-1-23.19c-.1-2.25.29-4.42-1.23-6.09-2.73-3-7.68-.57-11-.09C1785.34,425,1786.15,427.84,1788,427.56Z"/><path class="cls-7" d="M1809.39,530.87a105.24,105.24,0,0,0-27.41.26l-.46-.54-1.16-13.18a19.32,19.32,0,0,1,.15-6.44,17.54,17.54,0,0,1,3-5.77,17.91,17.91,0,0,1,4.15-4.48c4.19-2.92,10.23-2.14,14.29.95s6.33,8.08,7.26,13.1.65,10.17.49,15.27"/><path class="cls-6" d="M1809.39,529.37c-7.88-.88-16.63-1.59-24.48-.11-2.61.5-2,.42-2.22-2.44-.12-1.88-.33-3.76-.5-5.64-.37-4.22-1.22-8.53.85-12.47,4.23-8.06,13.29-11.52,20.09-3.91,6.06,6.79,5.36,16.81,5.09,25.24-.06,1.94,2.94,1.93,3,0,.32-9.92.71-21.84-7.61-28.93-6.36-5.43-15-4.66-20.22,1.79-2.69,3.34-4.67,6.91-4.72,11.27a88.21,88.21,0,0,0,.69,8.89c.18,2.1-.15,6,.71,7.93,1.43,3.14,6.14,1.1,8.74.91a109.69,109.69,0,0,1,20.58.47c1.92.21,1.9-2.79,0-3Z"/><path class="cls-8" d="M1745.38,304.53a11.81,11.81,0,0,0-14.31,13.61c-8.35,4.64-12.54,15.64-9.37,24.65a43,43,0,0,0-9,19.85,15.1,15.1,0,0,0,.14,7.17,6.68,6.68,0,0,0,5,4.72c-3.63,5.51-6.4,12.09-5.32,18.6s7.21,12.46,13.73,11.38c-.33,4.88-.61,10,1.39,14.46s7.1,7.95,11.75,6.43a15,15,0,0,0,13.17,11.77c5.88.44,11.59-2.7,17.48-2.27,2.88.21,5.66,1.28,8.55,1.34s6.18-1.3,6.9-4.1c3.32,4.17,9.76,4.21,14.78,2.39s9.48-5.06,14.65-6.38c3-.76,6.15-.85,9.06-1.87s5.69-3.36,5.91-6.43c.08-1-.42-4.17-.14-5.13.44-1.52,4-1.94,5.29-2.94,6.52-5.22,5.81-12.9,6.44-21.24.18-2.45.35-5-.6-7.27s-3.38-4.12-5.77-3.54a12,12,0,0,0,5.3-10.47c-.24-4.09-3.34-10.54-7-12.37.9-3.81,3.89-3.86,4.8-7.67,1.09-4.59.15-11.67-3.85-14.16-1.3-.81-4-.26-4.17-1.78-.09-.68,1-2.45,1.28-3.09a8.35,8.35,0,0,0,.36-6.09c-.77-1.93-5.82-5.09-7.83-4.55-8.29-10.32-18.9-14.53-32.1-13.6a21.22,21.22,0,0,1-5.22.06c-2-.35-3.81-1.4-5.71-2.15a19.69,19.69,0,0,0-13-.45c-2.27-4-4.62-5.9-9.24-5.9s-7.51,1.77-9.78,5.79Z"/><path class="cls-6" d="M1745.78,303.08c-7.33-1.22-14.52,2.7-16.11,10.31-.46,2.2,0,3.31-1.63,4.95a46.42,46.42,0,0,0-4.1,4.08,23.2,23.2,0,0,0-4.4,9.93,22.06,22.06,0,0,0-.37,5.13c.09,1.76,1,3.92.43,5.58s-2.49,3.56-3.45,5.29a47.28,47.28,0,0,0-3,6.53c-2.47,6.84-5,18.32,4.22,21.1l-.89-2.2c-4.14,6.51-7.62,14.78-4.72,22.49,2.26,6,7.93,10.33,14.42,9.74l-1.5-1.5c-.38,5.94-.7,12.65,3.09,17.68a11.52,11.52,0,0,0,12,4.66l-1.85-1.05c2.36,9.66,11.22,14.09,20.59,12.37,3.28-.6,6.55-1.77,9.91-1.8s6.72,1.36,10.15,1.37c3.8,0,6.9-1.68,8.35-5.2l-2.51.66c6.76,7.26,16.48,2.9,23.87-.75a36,36,0,0,1,9.75-3.39c2.66-.49,5.46-.75,7.92-2,3.21-1.65,5.35-4.37,5.41-8,.05-3.1-.72-3.41,2.23-4.93a12.7,12.7,0,0,0,4.61-3.32c2.7-3.17,3.7-7.17,4.17-11.22.73-6.48,3.36-21.86-7.28-21.32l.75,2.79c8.57-6.36,7.43-19.88-1.7-25.42l.69,1.69c.86-2.54,3.11-3.73,4.22-6.05a13.45,13.45,0,0,0,1-5.51c.08-3.76-.82-8.5-3.83-11.08-.87-.75-4-1.39-4.29-2.17-.2-.54,1.7-4.67,1.73-5.33.19-4.22-2.63-7-6.4-8.46-2.45-1-2.77-.95-4.73-3a38.83,38.83,0,0,0-5.61-4.86,34.79,34.79,0,0,0-13.91-5.82c-6.13-1.1-12.91.7-18.7-1.33s-10.58-3.4-16.84-1.72l1.69.69c-3-5-7.34-7.5-13.3-6.4a11.1,11.1,0,0,0-6.23,3.4c-.67.72-1.14,1.94-1.77,2.41a12.08,12.08,0,0,1-2.93,1c-1.81.63-1,3.53.8,2.89,3.15-1.1,3.64-1.36,5.77-3.85,4.6-5.37,11.81-3.41,15.07,2a1.51,1.51,0,0,0,1.69.69,19.63,19.63,0,0,1,10.67-.08c2.26.64,4.28,1.93,6.55,2.5,4.37,1.09,9.19-.18,13.68.22a32.35,32.35,0,0,1,19.71,8.79c1.28,1.19,2.75,3.81,4.3,4.56,1.39.68,2.93.51,4.38,1.36,3.49,2.08,3,5.46,1.79,8.76-.71,1.88-1.13,3.26.81,4.48,2.25,1.44,3.83.42,5.57,3.63a13.64,13.64,0,0,1,1.33,6.66c-.07,4.73-3.77,6.67-5.16,10.76a1.52,1.52,0,0,0,.69,1.7c7,4.25,8.48,15.21,1.7,20.24-1.09.81-.88,2.88.76,2.8,8.2-.42,4.53,21.35,2.3,25.45-2.54,4.67-9.3,4.25-9.21,10,0,1.59.4,3.37-.36,4.88-1.46,2.88-5,3.62-7.85,4.18a47.39,47.39,0,0,0-10.32,2.76c-6.85,3-16.44,9.78-23.12,2.61a1.51,1.51,0,0,0-2.5.66c-2.3,5.59-9.82,1.92-14,1.66a32.87,32.87,0,0,0-9.14,1.19c-8.74,2-17.64.35-20.06-9.59a1.53,1.53,0,0,0-1.85-1c-11.13,2.55-11.7-12.3-11.24-19.45a1.51,1.51,0,0,0-1.5-1.5c-6.69.61-11.93-5.07-12.42-11.51-.45-5.89,2.24-11.38,5.31-16.21a1.51,1.51,0,0,0-.9-2.2c-7.72-2.34-3.42-14.52-1.24-19.59a39.51,39.51,0,0,1,3.52-6.53c.84-1.27,2.51-2.6,2.7-4.18s-1-3.73-1-5.31a20.1,20.1,0,0,1,.7-6.32,19.77,19.77,0,0,1,9-11.72,1.48,1.48,0,0,0,.74-1.3c-.86-7.43,4.81-13.43,12.41-12.17C1746.87,306.29,1747.68,303.4,1745.78,303.08Z"/><path class="cls-5" d="M1811.05,342c.7-.59.75-1.61,1.29-2.35.41-.55,1.79-1,2.38-1.36a16.92,16.92,0,0,1,6.92-2.12c2.33-.2,2.77.89,4.65,2.18,1.62,1.1,5.3,17.43,8.66,36.76.35,2,2.6,7,2.93,9.06s-.56,7.56-.23,9.7c3.41,21.92,5.17,38,3.46,45-.29,1.17-.3,1.37-1.52,1.16s-2.34-.48-3.5-.71c-1.85-.38-7.17-1.2-7.41-3.71-.09-.93.92-1.88,1.34-2.63.83-1.47,1.41-3.11,2.09-4.65,2.1-4.8-7.15-48.6-14.93-72-2.63-7.9-4.31-13.55-6.11-14.47"/><path class="cls-6" d="M1812.34,342.79c2.2-3.47,9.64-7.63,13-3.22,1.34,1.75,1.75,5,2.27,7.07,2.45,9.54,3.56,19.36,5.88,28.9.78,3.18,2.64,6.22,3,9.49.3,3.07-.53,6.18-.25,9.28.91,10.14,3.09,20.14,3.79,30.32a75.73,75.73,0,0,1,.2,9.76c0,.88.17,2.83-.4,3.49-.91,1.07-3.28.1-5-.29-2.2-.51-4.52-.65-3.8-3.4.47-1.82,2-3.54,2.52-5.42a12.14,12.14,0,0,0,.34-3.61c-.15-12.65-3.86-25.82-6.73-38-2-8.61-4.23-17.18-6.81-25.64-1.43-4.72-2.94-9.45-4.64-14.08-.89-2.4-1.72-5.19-3.89-6.74-1.58-1.13-3.08,1.47-1.52,2.59,3.17,2.25,4.5,10.73,5.6,14.09,1.31,4,2.52,8.09,3.66,12.17q3.83,13.73,6.79,27.67a234.57,234.57,0,0,1,4.22,23.79,24.88,24.88,0,0,1,.26,6.33c-.43,2.74-4,5.91-3.61,8.76s4,3.75,6.29,4.3,6.52,2.42,8.4.49c1.31-1.35,1.22-5.19,1.3-6.92a92.85,92.85,0,0,0-.42-11.91c-.92-10.82-4.19-22.17-3.53-33a21.52,21.52,0,0,0-1.4-9.79c-1.91-5.36-2.6-10.95-3.68-16.52s-2.24-11.32-3.67-16.9c-.65-2.54-1.17-5.88-2.76-8-2-2.68-4.88-3.36-8-2.85-4.59.76-7.67,2.6-10,6.34-1,1.64,1.57,3.14,2.59,1.51Z"/><path class="cls-7" d="M1819.8,450.42a78.62,78.62,0,0,1,19.72,5.14l.43-.31,3.22-9.29a14.94,14.94,0,0,0,1.06-4.67,13.12,13.12,0,0,0-1.14-4.71,13.31,13.31,0,0,0-2.19-4c-2.49-2.86-7-3.4-10.47-1.89s-6,4.67-7.61,8.13a53.81,53.81,0,0,0-3.11,10.93"/><path class="cls-6" d="M1819.4,451.87a82.7,82.7,0,0,1,15.37,3.52c2,.69,4.35,2.58,6.24.92,1.13-1,1.52-3.92,2-5.31a68.17,68.17,0,0,0,2.31-6.95,14.47,14.47,0,0,0-1.88-10.31c-2.89-5.2-9.18-6.68-14.4-4-7.29,3.73-9.2,12.35-10.77,19.64-.41,1.88,2.48,2.69,2.89.8,1.11-5.16,2.1-11,5.81-15.07,5.69-6.18,14.34-3.75,15.49,4.8.44,3.28-1,6.3-2,9.38-.36,1-.62,2.88-1.29,3.71-1,1.25.22.74-1.83.13A110.63,110.63,0,0,0,1820.2,449c-1.89-.26-2.71,2.63-.8,2.89Z"/><path class="cls-5" d="M1745.74,338.91c-.76-.51-.92-1.52-1.53-2.2a8.74,8.74,0,0,0-2.51-1.1,17,17,0,0,0-7.1-1.4c-2.34.05-2.66,1.17-4.4,2.65-1.49,1.27-3.47,17.89-4.81,37.46-.13,2-1.85,7.25-2,9.32s1.35,7.47,1.24,9.62c-1.12,22.15-1.2,38.37,1.22,45.13.41,1.13.44,1.33,1.64,1s2.27-.72,3.4-1.08c1.8-.57,7-1.92,7-4.45,0-.94-1.11-1.77-1.61-2.48-1-1.37-1.72-2.94-2.56-4.41-2.59-4.55,2.08-49.08,7.4-73.12,1.8-8.13,2.88-13.92,4.58-15"/><path class="cls-6" d="M1746.8,337.85c-2.66-3.37-5.44-4.55-10-5-3.19-.34-5.91.37-7.83,3.15-3.21,4.62-2.86,13.27-3.42,18.61-.63,5.92-1,11.86-1.54,17.78-.37,4-2.19,8-2.1,12.09.09,4.29,1.23,8.28,1,12.65-.29,6.25-.52,12.5-.56,18.76,0,7.13-.53,15.41,1.82,22.29.75,2.21,1.37,2.92,3.69,2.67,2.8-.3,8.46-2.11,10.38-4.4,1.7-2,1-3.45-.3-5.36-2-3-3.29-5-3.45-8.51-.33-7,.4-14.07,1-21q1.48-15.9,4.05-31.69c.79-4.86,1.67-9.71,2.7-14.53.66-3.1,1.31-6.21,2.07-9.29.48-2,.78-4.76,2.36-6.15s-.68-3.39-2.12-2.12c-1.7,1.49-2.25,4.06-2.8,6.15-1.17,4.42-2.08,8.93-3,13.41-1.55,7.67-2.77,15.41-3.83,23.16-1.86,13.58-4,27.64-3.52,41.39a19.71,19.71,0,0,0,.46,4.66,10.81,10.81,0,0,0,.46,1.19c.57,1.39,3.38,4.16,3.43,5.46.09,2.55-3.21,3-5,3.57-1.95.63-3,1.59-3.76.61-1.48-1.93-1.23-6.69-1.39-9a242.3,242.3,0,0,1,0-26.68c.16-4,.65-7.92,0-11.84-.32-2-1-4.19-.89-6.25a37.52,37.52,0,0,1,1.38-6.07c2.32-10,1.82-20.84,3.23-31,.35-2.5.37-6.21,1.66-8.46,2.91-5,10.8-1.54,13.5,1.88,1.19,1.52,3.3-.62,2.12-2.12Z"/><path class="cls-7" d="M1748.26,447.62a78.28,78.28,0,0,0-19.08,7.15l-.47-.26-4.16-8.91a14.53,14.53,0,0,1-1.53-4.53,13.16,13.16,0,0,1,.64-4.81,13.56,13.56,0,0,1,1.76-4.18c2.19-3.1,6.6-4.1,10.23-3s6.48,4,8.4,7.3a54.21,54.21,0,0,1,4.23,10.55"/><path class="cls-6" d="M1747.86,446.18a84.35,84.35,0,0,0-14.08,4.71c-.9.39-3,1.81-3.85,1.81-.68,0,.27.71-.75-.73a34.9,34.9,0,0,1-4.39-9.74c-1.76-7.75,5.18-15.07,12.67-10.66,5.55,3.26,7.5,10.08,9.37,15.79.6,1.83,3.5,1,2.9-.8-2.28-6.92-4.92-15.11-12.18-18.31-5.3-2.34-11.8-.71-14.33,4.74a14.69,14.69,0,0,0-1,10.79,57.2,57.2,0,0,0,2.75,6.14c.7,1.51,1.46,4.59,2.73,5.65,1.82,1.52,3.49-.17,5.32-1a81.5,81.5,0,0,1,15.69-5.47c1.87-.46,1.08-3.35-.8-2.89Z"/><path class="cls-9" d="M1745,302.82c-6,4.92-2.39,14.77,1.75,19.6,4.34,5.08,9.47,9.19,14.72,13.27,2.6,2,5.23,4,7.94,5.87,3.19,2.21,6.91,4.1,8.13,8.07a1.52,1.52,0,0,0,2.51.66c6.53-7.64,17.36-9.7,24.6-16.75,7-6.84,14.82-15.29,13.59-25.84-.22-1.9-3.23-1.92-3,0,1.27,10.89-9.14,22-17.64,27.88-6.5,4.46-14.4,6.42-19.67,12.59l2.5.66c-1.05-3.43-3.33-5.59-6.19-7.62-5.13-3.63-10.21-7.24-15.12-11.17-4.15-3.33-8.84-7.11-11.77-11.62-2.31-3.56-4-10.36-.23-13.48,1.49-1.22-.64-3.34-2.12-2.12Z"/><text class="cls-16" transform="matrix(0.82, 0.57, -0.57, 0.82, 1770.74, 358.15)">T</text><path class="cls-5" d="M1770.34,226.06c-10.48,12-12.62,28.06-15.76,43.08A253.11,253.11,0,0,1,1744,305.77a20.22,20.22,0,0,0-1.55,5.74c-.33,5.12,3.5,9.68,8,12.63,7.68,5.07,17.46,6.78,27,7.09,11.88.38,25-1.81,32.79-10.21,5.75-6.21,7.54-14.82,7.13-22.9s-2.77-15.94-4.35-23.89c-2-9.88-2.75-20-5.29-29.74-1.36-5.26-3.28-10.48-6.61-14.9a23.4,23.4,0,0,0-14-9.11c-5.75-1.1-12.32.64-15.94,5"/><path class="cls-6" d="M1769.28,225c-14.23,16.9-14.66,40.89-20.5,61.3q-2.49,8.73-5.61,17.27c-1.7,4.68-3.3,8.84-1.09,13.65,3.68,8,13.43,12.08,21.52,13.88,16.53,3.69,40.62,3.06,50.67-13.05,5.16-8.27,5.16-18.44,3.61-27.74-1-6.16-2.73-12.19-3.86-18.33s-1.89-12.45-3-18.66c-2-11.11-5-23.46-14.71-30.39-8-5.67-19.33-6-26.28,1.47-1.32,1.41.8,3.54,2.12,2.12,7.49-8,19.65-5.1,26.34,2.38,6.52,7.3,8.41,17.74,10,27.08,1.59,9.64,3.13,19.17,5.23,28.71s3.69,19.91-.56,29.14c-7.8,16.91-31.29,17.73-47.1,14.72-7.91-1.5-21.54-6.06-22.06-15.87-.24-4.56,2.54-9.46,4-13.73q2.46-7.23,4.48-14.61c5.21-19,5.73-41.51,19-57.22,1.23-1.47-.88-3.6-2.12-2.12Z"/><path class="cls-5" d="M1764.88,234.75c-9.63,6.05-14.18,17.4-20.4,26.92a78.06,78.06,0,0,1-6.27,8.32,18.35,18.35,0,0,1-4.3,3.91c-1.34.79-5.32,3.8-6.72,4.49a27.74,27.74,0,0,0-5.36,2.9,29.41,29.41,0,0,1-13.54,5,8.56,8.56,0,0,1-3.87-.29c-2.35-.88-3.71-3.44-4-5.93-.42-4.07,1.58-8.08,4.42-11s6.45-5,10-7l18-10.18a66.7,66.7,0,0,0,8.36-5.31c2.34-1.85,4.42-4,6.71-5.91a40.32,40.32,0,0,1,13.64-7.43,4.14,4.14,0,0,1,2.35-.24,1.55,1.55,0,0,1,1.15,1.81"/><path class="cls-6" d="M1764.12,233.45c-10,6.69-14.55,17.73-20.94,27.46a48.42,48.42,0,0,1-13.36,14,98.63,98.63,0,0,1-12.24,7.14c-3.73,1.84-8.74,3.73-12.62,1.82-5.69-2.8-2.37-10.22,1-13.78,5.11-5.44,13.11-8.71,19.52-12.33,5.67-3.21,11.72-6.12,16.85-10.17,3.15-2.49,5.87-5.47,9.17-7.77,1.11-.77,11.75-7.11,12.17-4.67.32,1.9,3.21,1.1,2.89-.79-1.82-10.73-24.41,9.72-27.37,11.86-6.24,4.52-13.44,7.94-20.13,11.72-5.72,3.24-12.3,6.21-16.48,11.49-6.28,7.94-4,20,7.74,18.08,6.16-1,10.58-4.36,16-7a44.65,44.65,0,0,0,11.47-7.8c10.93-10.87,14.75-27.87,27.85-36.62,1.6-1.06.1-3.66-1.51-2.59Z"/><path class="cls-5" d="M1804,234.58c10.32,4.78,16.29,15.45,23.68,24.1a77.56,77.56,0,0,0,7.28,7.45,18.12,18.12,0,0,0,4.76,3.32c1.43.62,5.76,3.1,7.24,3.6a27.47,27.47,0,0,1,5.69,2.2,29.59,29.59,0,0,0,14.06,3.19,8.54,8.54,0,0,0,3.81-.78c2.21-1.17,3.24-3.88,3.17-6.39-.1-4.09-2.6-7.82-5.79-10.37s-7-4.14-10.82-5.68l-19.16-7.8a66.53,66.53,0,0,1-9-4.19c-2.56-1.53-4.89-3.41-7.41-5a40.3,40.3,0,0,0-14.47-5.63,4.2,4.2,0,0,0-2.36.06,1.53,1.53,0,0,0-.91,1.94"/><path class="cls-6" d="M1803.24,235.88c12.64,6.27,18.85,20.08,28.74,29.54a44.91,44.91,0,0,0,13.1,8.44c4.4,2,9.28,4.22,14,5.29,4.25,1,10.58,2,13.9-1.59s2.48-9,.26-12.81c-3.07-5.28-8.73-8.05-14.15-10.31-7.41-3.09-14.9-6-22.31-9.09-8-3.36-14.44-9.42-22.63-12.39-3.34-1.21-11.62-4.43-11.86,1.64-.08,1.93,2.92,1.92,3,0s12.19,3.05,12.47,3.19c3.43,1.78,6.41,4.22,9.67,6.25,5.53,3.46,11.91,5.57,17.92,8,7.37,3,16.77,5.28,22.64,10.91,3,2.89,7.45,11.24.91,13.71-3.19,1.2-8.28,0-11.37-1-10.49-3.41-20.25-8.43-27.66-16.71-8-9-13.94-20.1-25.12-25.64-1.72-.86-3.24,1.73-1.51,2.59Z"/><circle class="cls-11" cx="1767.41" cy="251.05" r="14.21"/><circle class="cls-12" cx="1767.17" cy="253.07" r="4.57"/><circle class="cls-11" cx="1798.17" cy="249.94" r="14.21"/><circle class="cls-12" cx="1796.97" cy="252.98" r="4.57"/><path d="M1751.64,262.31a18.79,18.79,0,0,0,4.43-1.49c.87-.41.11-1.7-.76-1.29a17,17,0,0,1-4.07,1.33c-.94.19-.54,1.63.4,1.45Z"/><path d="M1759.23,263.93c-1.31,1.34-2.78,2.47-4.19,3.7-.73.64.34,1.69,1.06,1.06,1.41-1.22,2.88-2.36,4.19-3.7.68-.69-.38-1.75-1.06-1.06Z"/><path d="M1763.66,265.54c0,1.67-.1,3.34-.1,5a.75.75,0,0,0,1.5,0c0-1.66.09-3.33.1-5a.75.75,0,0,0-1.5,0Z"/><path d="M1771,265.63a5.56,5.56,0,0,1,1.08,3.38.75.75,0,0,0,1.5,0,7,7,0,0,0-1.28-4.14c-.56-.77-1.86,0-1.3.76Z"/><path d="M1778.36,261.89c.42-.4,1.1-.05,1.39.34a3.93,3.93,0,0,1,.51,2.29c0,1,1.53,1,1.5,0,0-1.32-.19-2.83-1.31-3.7a2.4,2.4,0,0,0-3.15,0c-.71.66.35,1.72,1.06,1.06Z"/><path d="M1787.25,260.75a2.27,2.27,0,0,1-1.21,1.75c-.85.45-.09,1.74.76,1.29a3.65,3.65,0,0,0,1.9-2.64.78.78,0,0,0-.53-.92.74.74,0,0,0-.92.52Z"/><path d="M1791.84,263.64a1.57,1.57,0,0,1-.57,1.88c-.8.53,0,1.83.76,1.29a3.09,3.09,0,0,0,1.26-3.57c-.32-.9-1.77-.51-1.45.4Z"/><path d="M1798,264.8a8.24,8.24,0,0,1,.29,3.85c-.16,1,1.28,1.35,1.44.4a9.9,9.9,0,0,0-.28-4.65c-.28-.92-1.73-.53-1.45.4Z"/><path d="M1803.75,264.37c.77-.08,1.62.8,1.24,1.58s.87,1.63,1.3.76a2.71,2.71,0,0,0-2.54-3.84c-1,.1-1,1.6,0,1.5Z"/><path d="M1788.07,239.8a19.92,19.92,0,0,1-.17-4.5c.07-1-1.43-1-1.5,0a21.15,21.15,0,0,0,.23,4.9c.15,1,1.59.55,1.44-.4Z"/><path d="M1793.29,236.32a2.16,2.16,0,0,1,.91-3c.86-.44.11-1.74-.75-1.3a3.68,3.68,0,0,0-1.46,5.07.75.75,0,0,0,1.3-.76Z"/><path d="M1799.07,235.4a6.29,6.29,0,0,1,.65-3.33c.44-.86-.86-1.62-1.29-.76a7.76,7.76,0,0,0-.86,4.09c.07,1,1.57,1,1.5,0Z"/><path d="M1803,235.49a2.6,2.6,0,0,1,1.09-2.63c.8-.54.05-1.84-.75-1.3a4.18,4.18,0,0,0-1.79,4.33c.19,1,1.63.54,1.45-.4Z"/><path d="M1777.35,240.07a11.67,11.67,0,0,0,1.13-3.83c.12-1-1.38-.94-1.5,0a9.42,9.42,0,0,1-.93,3.07c-.43.86.86,1.62,1.3.76Z"/><path d="M1773.24,237.12a4.85,4.85,0,0,0-.43-3.58c-.46-.85-1.76-.09-1.3.76a3.29,3.29,0,0,1,.29,2.42.75.75,0,0,0,1.44.4Z"/><path d="M1768.2,235.94a4.59,4.59,0,0,0-3.36-4.12.75.75,0,0,0-.4,1.45,3.05,3.05,0,0,1,2.26,2.67c.07,1,1.57,1,1.5,0Z"/><path d="M1759.2,234.21v3.47a.75.75,0,0,0,1.5,0v-3.47a.75.75,0,0,0-1.5,0Z"/><path class="cls-17" d="M1786.24,211.2c-6.21,0-11.6,2.15-17.21,4.56a48.54,48.54,0,0,1-10.3,3.38c-2.46.46-4.44.7-6.35,2.44s-3.25,4.46-5.1,6.46c-2.1,2.27-4.55,4.16-6.47,6.61-1.78,2.27-2.31,4.57-3.44,7.14-.93,2.1-2.42,3.88-2.83,6.2-.88,4.94,3.53,9.14,3.89,14.13a23.58,23.58,0,0,1-5.74,17.19c-1.68,1.85-3.27,3.37-4.25,5.76-1.21,3-1.07,6-1.65,9.08-1.36,7.24-5.13,14.5-7.81,21.34-1.41,3.59,4.39,5.15,5.79,1.59,2.55-6.53,5.86-13.23,7.54-20.05.56-2.27.58-4.62,1-6.92.58-3.38,2.37-5,4.48-7.48,6-7,8.48-18.07,5.49-26.92-.66-2-2.94-4.62-2.86-6.62s2.25-4.35,3-6.19c2.2-5.61,6.59-8.39,10.19-13,2.14-2.75,2.68-4,6.39-4.87a52.63,52.63,0,0,0,8.66-2.61c5.82-2.36,11.2-5.21,17.63-5.21,3.86,0,3.87-6,0-6Z"/><path class="cls-17" d="M1789.19,218.22a41.57,41.57,0,0,1-9,.77,13.84,13.84,0,0,0-1.64-.18c.25-.19-.81.6.49.92.39.09-.25,1.27.34-.11a3.52,3.52,0,0,0,.16-2.22c-1.67-6.05-13.81,1.4-16.38,2.51-3.09,1.33-.85,6.75,2.31,5.48,2.32-.93-.3-4-1.76-3.47-.27.1-1,1.32-1.2,1.57a47.88,47.88,0,0,1-3.62,3.79c-1.27,1.24-2.57,2.45-3.91,3.61a12.05,12.05,0,0,0-1.65,1.36c-1,1.25-1.81-.45,1,.39l2.1,2.1,0,1.34c1-3.79-4.44-5.14-5.79-1.59a45.3,45.3,0,0,0-3.1,16.43c0,5.58,2.68,10.61,2.91,16.05.12,3.06-1.12,6.28-1.6,9.31-.38,2.42-.68,4.85-1,7.28-.82,6.89-1.58,13.7-3.57,20.36-1.1,3.71,4.69,5.29,5.79,1.59a102.44,102.44,0,0,0,3.24-17.3c.76-6.38,2.23-12.68,3-19,.54-4.55-1.49-8.77-2.33-13.16-1.3-6.7,0-13.65,2.42-19.94l-5.79-1.59c-1,3.67,2.85,4.62,5.38,3.19,3-1.67,5.6-4.62,8-7,1.89-1.9,5.06-4.54,5.61-7.34.73-3.68-2.82-4.89-5.71-3.73l2.31,5.48c2.65-1.14,5.3-2.34,8-3.34a6.52,6.52,0,0,0,1.66-.59c.58-.47.45-.22.41-.16q-2-5.44-2.58-3.22l-.06.16a3,3,0,0,0-.26.65,4.45,4.45,0,0,0-.15,2.53c1.49,6.46,13.52,3.48,17.53,2.89,3.81-.56,2.19-6.34-1.59-5.79Z"/><path class="cls-17" d="M1787.77,222.23c5.34-.3,9.78,2.83,13.69,6.13,3.24,2.73,7.49,5.94,9.29,9.85,1.89,4.09,2,8.79,2.75,13.16.86,4.79,3.26,8.9,3.08,13.87-.16,4.75-1.4,9.43-1.16,14.2.23,4.34,1.73,7.61,4,11.24,1.2,1.9,2.43,3.69,2.63,6,.17,1.92-.11,3.72.37,5.62,1,4,4.32,7.26,4.72,11.38.36,3.81,6.37,3.85,6,0-.44-4.57-3.12-7.61-4.57-11.79-.82-2.33-.24-4.67-.66-7.05a17.39,17.39,0,0,0-2.58-6c-1.24-2.05-2.81-4-3.49-6.33-.86-3-.45-6.31-.1-9.33.62-5.44,1.59-10.88-.34-16.17-3.2-8.75-2-19.36-8.82-26.48-6.33-6.64-15-14.81-24.83-14.26-3.84.22-3.86,6.22,0,6Z"/><path class="cls-17" d="M1786.2,217c9.63,0,19.53,4.86,26.39,11.59,2.52,2.46,3.52,5.62,5.36,8.5,1,1.61,2.68,2.88,3.59,4.53,1.15,2.07,1.33,4.92,2,7.17,1.35,4.2,3.27,8.19,4.74,12.35,1.4,4,1.5,8,2.54,12.06,2.23,8.66,8.85,15.64,13.13,23.31,1.88,3.37,7.07.35,5.18-3-5.09-9.13-11.72-16.25-13.25-26.87-.72-5-2.79-9.53-4.63-14.17-1.68-4.24-2.18-9.36-4.3-13.32a31.72,31.72,0,0,0-3.11-4,63.42,63.42,0,0,1-3.25-5.73,28.62,28.62,0,0,0-8-8.31c-7.84-5.93-16.52-10-26.49-10.06-3.86,0-3.87,6,0,6Z"/><path class="cls-17" d="M1776.82,222c2.91,0,5.49,4.36,8.08,5.6,3.85,1.86,8.53-.77,11.95,2s6.38,6.36,9.22,9.47c3.46,3.81,5.31,8.1,8,12.41,2.83,4.62,5.23,7.57,4.39,13.15a19.92,19.92,0,0,0,1.81,11c2.25,5.3,5.66,10.06,7.27,15.62,1.52,5.25,2,10.74,3,16.1.71,3.79,6.49,2.18,5.79-1.6-1.11-5.9-1.61-12-3.54-17.73s-5.67-10.54-7.65-16.2c-1.71-4.89.79-9.46-.9-14.33-1.6-4.62-4.91-8.46-7.1-12.8a46.73,46.73,0,0,0-8.37-11.48c-3-3.08-6.43-7.94-10.25-9.88-4.11-2.09-8.93.56-12.59-2.21-3-2.26-5-5-9.1-5.06-3.86-.06-3.86,5.94,0,6Z"/><path class="cls-17" d="M1788.36,218.79c-4.33-.78-8.3.15-12.46,1.42a57.83,57.83,0,0,1-7.06,2c-1.79.3-4-.18-5.68.7-1.09.6-1.71,1.79-2.51,2.66a26.49,26.49,0,0,0-4,4.71,154.1,154.1,0,0,0-8.19,14.56c-4.23,9.23-2.27,19.59-6.73,28.82-2.14,4.44-4.13,8-4.7,13-.61,5.37-.18,10.8-.48,16.19-.21,3.86,5.79,3.84,6,0,.26-4.6,0-9.21.28-13.8.34-5.07,2.33-8.56,4.4-13a45.41,45.41,0,0,0,3.53-11.75c.68-4.13.35-8.49,1.47-12.52,2.25-8,8-17.32,13.85-23.05.83-.81.19-.49-.42-.25a13,13,0,0,1,2.59-.1,29.51,29.51,0,0,0,4.93-1c4.3-1.18,9-3.56,13.56-2.74,3.77.68,5.39-5.1,1.59-5.78Z"/><path class="cls-17" d="M1782.86,213.87c-5.63.51-10.25,2.77-14.87,5.91-2.54,1.73-5,3.6-7.71,5.09-2,1.13-4.39,1.66-6.31,2.95a23.82,23.82,0,0,0-7.3,9.15c-1.74,3.8-1.12,9.12-1.43,13.23-.44,5.68,1.1,11.2,1.12,16.89a118.46,118.46,0,0,1-1.16,14.32,70.68,70.68,0,0,0,3.8,33.66c1.31,3.6,7.11,2,5.78-1.59a64.53,64.53,0,0,1-3.84-29.78c1-9,2-17.54.6-26.55-.75-4.95.27-9.59.3-14.55a12.2,12.2,0,0,1,4.81-9.21c3.18-2.62,7.94-4,11.46-6.42,4.58-3.13,9-6.58,14.75-7.1,3.81-.34,3.85-6.35,0-6Z"/><path class="cls-17" d="M1784,219.43c10.28-.46,23.08,8.31,26.42,18.06,1.53,4.47,2,9.24,3.42,13.75a52.44,52.44,0,0,0,5.58,11.53,37.75,37.75,0,0,0,8.13,9.71c3.55,2.94,6.88,4.46,8.31,9.12,2.29,7.49,1.59,15.6,7.39,21.64,2.67,2.79,6.91-1.46,4.24-4.25-6-6.22-3.54-16.55-7.85-23.76-2.39-4-6.79-5.76-10-9-3.47-3.43-6-7.82-8.16-12.16-4.29-8.54-3.28-19.24-9.85-26.73s-17.21-14.42-27.6-14c-3.84.17-3.87,6.18,0,6Z"/><path class="cls-17" d="M1780.83,210.51c-5.78.58-11.66-.83-17.39.28-4.68.9-8.34,3.63-11.67,6.92-7.67,7.6-15.13,16.58-17.7,27.3-1.39,5.77-1.33,11.72-1.82,17.61-.57,6.8-2.47,13.29-4,19.91-2.5,10.68-3.53,22.21,2.79,31.79,2.12,3.21,7.32.21,5.18-3-6-9.13-4-19.91-1.53-29.87a137.5,137.5,0,0,0,3.17-14.87c.69-5.31.59-10.68,1.3-16,1.39-10.26,7.23-18.39,14.15-25.78,3.53-3.77,7.13-7.71,12.56-8.32,5-.55,10,.54,15,0,3.8-.39,3.84-6.39,0-6Z"/><path class="cls-17" d="M1780.8,226.76c3.72,1.18,6.3,3.26,9.5,5.31s6.55,2.79,9.32,5.67c2.18,2.27,3.89,4.95,5.9,7.37,1.73,2.08,6.69,4.9,7.31,7.44.92,3.75,6.7,2.16,5.79-1.59s-4-5.1-6.6-7.6c-3.09-3-5.23-6.76-8.16-9.86s-6-4.18-9.57-6.11c-4.1-2.22-7.32-5-11.89-6.42-3.69-1.17-5.27,4.62-1.6,5.79Z"/><path class="cls-17" d="M1773,220.49c-2.51,1.64-5.74,3.07-7.83,5.22-1.64,1.69-2.41,3.33-4.39,4.81-2.93,2.2-5.85,4.7-7.46,8.07-1.17,2.43-1,5.53-2.91,7.53-3.26,3.41-8.26,4.46-11.39,8.2-2.46,2.94,1.76,7.21,4.25,4.24,2.84-3.4,7.22-4.65,10.54-7.47,2.65-2.25,3.39-4.7,4.25-7.89,1-3.54,3.46-5.8,6.36-7.95a19,19,0,0,0,4.41-4c1.86-2.42,4.57-3.83,7.2-5.55,3.22-2.1.22-7.3-3-5.18Z"/><path class="cls-17" d="M1784.55,219.08c4.66-2.08,9.61,1,10.71,5.7.86,3.65.46,7.34,3.19,10.32s7.63,3.23,9.86,7.09,1.92,9.24,1.92,13.66c0,5.65-.06,11.29,0,16.93,0,3.64.55,6.32,3.62,8.55,9.91,7.18,4.34,19.31,5.56,29.66.44,3.79,6.45,3.83,6,0-1.2-10.24,3.88-23-4.17-31.53-2.34-2.49-4.5-2.73-5-6.68-.45-3.51,0-7.4,0-10.95,0-5.62.41-11.43-.71-17-.85-4.16-2.87-8.16-6.54-10.5-2-1.3-5.19-1.81-6.56-4s-.88-5.94-1.68-8.51c-2.52-8.11-11.85-11.26-19.21-8-3.51,1.58-.47,6.75,3,5.18Z"/><path class="cls-18" d="M1410.77,379.32c-59.79,0-108.27-28.21-108.27-63s48.48-63,108.27-63,108.27,28.2,108.27,63S1470.57,379.32,1410.77,379.32Z"/><path class="cls-18" d="M1517.36,312.61l-15.15,27.8h30.29Z"/><path d="M1380.88,324.77c0-.9-.07-1.84-.1-2.83s0-2.15,0-3.45l-1.7.05h-3.9l-1.65,0c0,1.05,0,2.06,0,3.05s0,2-.1,3.17a4,4,0,0,1-.12.93,1.22,1.22,0,0,1-.23.5.57.57,0,0,1-.35.2,1.67,1.67,0,0,1-.42.05,1,1,0,0,1-.75-.3,2.26,2.26,0,0,1-.35-1.35c0-.6-.06-1.23-.08-1.88s0-1.35,0-2.1,0-1.56,0-2.42v-2.95c0-1.19,0-2.19,0-3a20.68,20.68,0,0,1,.12-2.07,3.06,3.06,0,0,1,.38-1.18.78.78,0,0,1,.7-.37,1.15,1.15,0,0,1,.75.27,1.89,1.89,0,0,1,.37,1.28c0,.56.06,1.08.08,1.55s0,.9,0,1.35,0,.88,0,1.35v1.55c1.25-.05,2.48-.08,3.68-.08l1.75,0c.6,0,1.21,0,1.82.07v-.72c0-1.19,0-2.19,0-3a20.68,20.68,0,0,1,.12-2.07,3.06,3.06,0,0,1,.38-1.18.78.78,0,0,1,.7-.37,1.15,1.15,0,0,1,.75.27,1.89,1.89,0,0,1,.37,1.28c0,.6.06,1.13.08,1.6s0,.93,0,1.4,0,.92,0,1.42v3.8c0,.69,0,1.36,0,2s0,1.34,0,2,0,1.4-.08,2.15a4,4,0,0,1-.12.93,1.22,1.22,0,0,1-.23.5.57.57,0,0,1-.35.2,1.67,1.67,0,0,1-.42.05,1,1,0,0,1-.75-.3A2.26,2.26,0,0,1,1380.88,324.77Zm5.58,0c0-.62-.06-1.32-.1-2.1s0-1.68,0-2.63c0-1.18,0-2.19,0-3a20.67,20.67,0,0,1,.13-2.08,3.14,3.14,0,0,1,.37-1.2.8.8,0,0,1,.7-.4,1.05,1.05,0,0,1,.75.3,2,2,0,0,1,.38,1.3c.1,1.75.15,3.44.15,5.08,0,.83,0,1.61,0,2.35s-.07,1.51-.1,2.37a3.89,3.89,0,0,1-.13.93,1.22,1.22,0,0,1-.22.5.6.6,0,0,1-.35.2,1.75,1.75,0,0,1-.43.05,1,1,0,0,1-.75-.3A2.34,2.34,0,0,1,1386.46,324.77Zm1.13-15.95a1.51,1.51,0,0,1,1.05.45,1.41,1.41,0,0,1,.5,1.07,1.38,1.38,0,0,1-.5,1.05,1.68,1.68,0,0,1-1.13.43,1.47,1.47,0,0,1-1-.43,1.49,1.49,0,0,1-.45-1.1,1.34,1.34,0,0,1,.45-1A1.54,1.54,0,0,1,1387.59,308.82Zm12.49,22.07a3.39,3.39,0,0,1-.63.85.86.86,0,0,1-.65.28,1.29,1.29,0,0,1-.7-.23.71.71,0,0,1-.35-.62,3.45,3.45,0,0,1,.25-1.08c.18-.46.4-1,.65-1.52s.54-1.12.83-1.7l.77-1.6.18-.38c-.5-1-1-2-1.55-3.15s-1-2.17-1.43-3.17-.79-1.87-1.07-2.6a5.7,5.7,0,0,1-.4-1.48.71.71,0,0,1,.25-.55,1,1,0,0,1,.67-.25,1.64,1.64,0,0,1,.68.15,1.42,1.42,0,0,1,.6.6c.26.5.54,1.08.82,1.73s.59,1.3.88,2l.9,2.12c.31.72.63,1.41,1,2.08.36-.69.75-1.4,1.17-2.15s.82-1.48,1.2-2.18l1.1-1.92c.33-.6.62-1.1.85-1.5a2.76,2.76,0,0,1,.7-.83,1.29,1.29,0,0,1,.73-.25.78.78,0,0,1,.5.23.67.67,0,0,1,.25.55,5.3,5.3,0,0,1-.48,1.7c-.3.76-.69,1.66-1.17,2.67s-1,2.11-1.65,3.28-1.2,2.28-1.8,3.4-1.18,2.13-1.73,3.1S1400.43,330.24,1400.08,330.89Zm15.66-17.25a6.82,6.82,0,0,1,2.55.45,5.08,5.08,0,0,1,1.9,1.23,5.16,5.16,0,0,1,1.23,1.95,8.17,8.17,0,0,1-.08,5.4,5.75,5.75,0,0,1-1.35,2.12,5.56,5.56,0,0,1-2,1.35,6.72,6.72,0,0,1-2.57.48,6.54,6.54,0,0,1-2.7-.53,5.71,5.71,0,0,1-2-1.42,6.18,6.18,0,0,1-1.18-2.08,7.79,7.79,0,0,1-.4-2.47,7.2,7.2,0,0,1,.45-2.6,5.91,5.91,0,0,1,1.33-2,5.75,5.75,0,0,1,2.1-1.35A7.4,7.4,0,0,1,1415.74,313.64Zm-.27,10.68a4,4,0,0,0,1.75-.35,3.41,3.41,0,0,0,1.17-1,3.59,3.59,0,0,0,.68-1.35,5.67,5.67,0,0,0,.22-1.6,5.27,5.27,0,0,0-.22-1.57,3.32,3.32,0,0,0-.65-1.3,2.71,2.71,0,0,0-1.13-.85,3.66,3.66,0,0,0-1.62-.33,4.06,4.06,0,0,0-1.7.33,3.44,3.44,0,0,0-1.23.9,3.9,3.9,0,0,0-.72,1.32,5.38,5.38,0,0,0-.25,1.68,4.62,4.62,0,0,0,.92,3A3.45,3.45,0,0,0,1415.47,324.32Zm10.81-9.33c0,.44,0,1,0,1.58s0,1.26,0,1.95.09,1.34.18,2a7.67,7.67,0,0,0,.42,1.8,3.43,3.43,0,0,0,.88,1.3,2.12,2.12,0,0,0,1.47.5,2,2,0,0,0,1.45-.5,3.13,3.13,0,0,0,.88-1.3,7.65,7.65,0,0,0,.45-1.8c.08-.68.13-1.36.15-2s0-1.34,0-1.95,0-1.14,0-1.58c.07-1,.49-1.55,1.28-1.55a1,1,0,0,1,.7.25,1.49,1.49,0,0,1,.35.7,5.2,5.2,0,0,1,.15,1.08c0,.41,0,.88,0,1.4,0,1.06-.06,2.17-.17,3.32a11,11,0,0,1-.73,3.13,5.76,5.76,0,0,1-1.65,2.35,5.19,5.19,0,0,1-5.9,0,5.9,5.9,0,0,1-1.67-2.35,12.06,12.06,0,0,1-.73-3.13c-.1-1.15-.15-2.26-.15-3.32,0-.52,0-1,0-1.4a5.38,5.38,0,0,1,.12-1.08,1.52,1.52,0,0,1,.38-.7,1,1,0,0,1,.7-.25C1425.79,313.44,1426.21,314,1426.28,315Zm11.52-5.87a2.19,2.19,0,0,1,.35-1.33,1,1,0,0,1,.75-.32,1.37,1.37,0,0,1,.43,0,.51.51,0,0,1,.35.2,1.11,1.11,0,0,1,.22.5,3.72,3.72,0,0,1,.13.92c0,.87.07,1.72.1,2.55s0,1.67,0,2.5c0,.42,0,.79,0,1.13s0,.66,0,1,0,.67-.05,1,0,.74,0,1.18a3.35,3.35,0,0,1-.13.82,1.35,1.35,0,0,1-.25.48.87.87,0,0,1-.35.25,1.56,1.56,0,0,1-.4.05,1,1,0,0,1-.7-.25,2,2,0,0,1-.37-.95,15.22,15.22,0,0,1-.13-1.83c0-.76,0-1.74,0-2.92,0-.95,0-1.88,0-2.78S1437.77,309.73,1437.8,309.12Zm1.1,14.45a1.47,1.47,0,0,1,1,.45,1.38,1.38,0,0,1,.5,1.07,1.35,1.35,0,0,1-.5,1.05,1.64,1.64,0,0,1-1.12.43,1.47,1.47,0,0,1-1-.43,1.49,1.49,0,0,1-.45-1.1,1.34,1.34,0,0,1,.45-1A1.52,1.52,0,0,1,1438.9,323.57Z"/><path class="cls-18" d="M1603.77,256.32c-59.79,0-108.27-28.21-108.27-63s48.48-63,108.27-63,108.27,28.2,108.27,63S1663.57,256.32,1603.77,256.32Z"/><path class="cls-18" d="M1710.36,189.61l-15.15,27.8h30.29Z"/><path d="M1545.85,169.57a1.36,1.36,0,0,1,.45-.58,1.19,1.19,0,0,1,.68-.22,1,1,0,0,1,.62.22,1.51,1.51,0,0,1,.48.55c.63,1.3,1.26,2.71,1.87,4.23s1.18,2.92,1.68,4.27c.28-2.06.59-4.15.92-6.25s.71-4.11,1.13-6a1.44,1.44,0,0,1,.22-.53.91.91,0,0,1,.33-.32,1.17,1.17,0,0,1,.35-.18,1.57,1.57,0,0,1,.32-.05,1,1,0,0,1,.7.25.75.75,0,0,1,.28.63,14.7,14.7,0,0,1-.15,1.6c-.1.75-.23,1.63-.4,2.65s-.36,2.06-.58,3.2-.4,2.22-.6,3.27-.39,2-.57,2.88-.33,1.52-.45,2a1.87,1.87,0,0,1-.45.88,1.38,1.38,0,0,1-1.9-.25,9.35,9.35,0,0,1-.9-1.7c-.32-.77-.7-1.74-1.15-2.93s-1-2.63-1.75-4.3q-1.1,2.5-1.8,4.3c-.45,1.2-.84,2.19-1.18,3a7,7,0,0,1-.9,1.7,1.25,1.25,0,0,1-1,.53,1.34,1.34,0,0,1-1.32-1.15q-.19-.67-.48-1.95t-.57-2.88c-.18-1.05-.38-2.13-.58-3.25s-.37-2.2-.52-3.2-.28-1.87-.38-2.62-.12-1.3-.12-1.6a.94.94,0,0,1,.27-.7,1.05,1.05,0,0,1,.78-.28,1.15,1.15,0,0,1,.67.23,1.25,1.25,0,0,1,.48.85q.6,2.86,1.05,6c.32,2.1.65,4.19,1,6.25.52-1.21,1-2.51,1.55-3.87S1545.09,171.27,1545.85,169.57Zm17.7,8.15a13.51,13.51,0,0,1-1.85-.13,9.75,9.75,0,0,1-2.07-.6,3.34,3.34,0,0,0,1.25,2.3,5,5,0,0,0,3,.78,9.27,9.27,0,0,0,1.25-.08c.38-.06.72-.13,1-.2l.75-.2a2.35,2.35,0,0,1,.6-.1,1.15,1.15,0,0,1,.67.23.74.74,0,0,1,.33.7,1.23,1.23,0,0,1-.53,1,3.78,3.78,0,0,1-1.25.65,7.47,7.47,0,0,1-1.55.3,11.52,11.52,0,0,1-1.45.1,8.77,8.77,0,0,1-2.72-.4,5.47,5.47,0,0,1-3.53-3.22,8.1,8.1,0,0,1,0-5.55,5.92,5.92,0,0,1,1.35-2,5.74,5.74,0,0,1,2-1.25,7.4,7.4,0,0,1,2.52-.42,7.59,7.59,0,0,1,2,.27,5.35,5.35,0,0,1,1.75.83,4.1,4.1,0,0,1,1.7,3.35,3.59,3.59,0,0,1-.38,1.7,2.87,2.87,0,0,1-1.07,1.12,4.94,4.94,0,0,1-1.65.63A10.57,10.57,0,0,1,1563.55,177.72Zm-.17-5.8a5.09,5.09,0,0,0-1.3.17,3.26,3.26,0,0,0-1.15.53,2.91,2.91,0,0,0-.85.95,3.92,3.92,0,0,0-.48,1.45,9,9,0,0,0,1.85.6,11.61,11.61,0,0,0,1.9.15,5.17,5.17,0,0,0,2.18-.35,1.37,1.37,0,0,0,.72-1.33,2,2,0,0,0-.67-1.52A3,3,0,0,0,1563.38,171.92Zm7.93,9c0-.6,0-1.3,0-2.1s0-1.67,0-2.6,0-1.92,0-2.95V170c0-1.18,0-2.2,0-3s.06-1.55.12-2.1a3.12,3.12,0,0,1,.38-1.2.79.79,0,0,1,.7-.4,1.11,1.11,0,0,1,.75.28,1.86,1.86,0,0,1,.37,1.27c.07,1.2.11,2.45.13,3.75s0,2.55,0,3.8v2.18c0,.68,0,1.36,0,2.05s0,1.35-.05,2,0,1.42-.08,2.17a4,4,0,0,1-.12.93,1.22,1.22,0,0,1-.23.5.57.57,0,0,1-.35.2,1.67,1.67,0,0,1-.42.05,1,1,0,0,1-.75-.3A2.26,2.26,0,0,1,1571.31,180.87Zm11.14-11.3a9,9,0,0,1,1.45.12,7.8,7.8,0,0,1,1.35.35,3.29,3.29,0,0,1,1,.55,1,1,0,0,1,.38.75c0,.74-.42,1.1-1.25,1.1a2.25,2.25,0,0,1-.58-.07,3.09,3.09,0,0,0-.6-.18,7.91,7.91,0,0,0-.87-.17,6.87,6.87,0,0,0-1.3-.1,3.07,3.07,0,0,0-2.55,1.12,4.55,4.55,0,0,0-.9,2.93,5.16,5.16,0,0,0,.9,3.17,3.08,3.08,0,0,0,2.6,1.2,7.13,7.13,0,0,0,1.7-.17,4.93,4.93,0,0,0,1-.4,7.37,7.37,0,0,0,.67-.4,1.21,1.21,0,0,1,1.3,0c.19.12.28.37.28.75a1.4,1.4,0,0,1-.48,1.05,3.58,3.58,0,0,1-1.15.75,6.92,6.92,0,0,1-1.52.45,8.15,8.15,0,0,1-1.48.15,6.57,6.57,0,0,1-4.75-1.67,6.32,6.32,0,0,1-1.72-4.75,7.57,7.57,0,0,1,.4-2.5,6,6,0,0,1,1.25-2.1,5.92,5.92,0,0,1,2-1.43A7.14,7.14,0,0,1,1582.45,169.57Zm12.5.07a6.82,6.82,0,0,1,2.55.45,5.16,5.16,0,0,1,1.9,1.23,5.26,5.26,0,0,1,1.22,2,7.18,7.18,0,0,1,.43,2.57,7.67,7.67,0,0,1-.5,2.83,6,6,0,0,1-1.35,2.12,5.64,5.64,0,0,1-2,1.35,6.74,6.74,0,0,1-2.58.48,6.6,6.6,0,0,1-2.7-.53,5.91,5.91,0,0,1-1.95-1.42,6.33,6.33,0,0,1-1.17-2.08,7.52,7.52,0,0,1-.4-2.47,7.2,7.2,0,0,1,.45-2.6,6,6,0,0,1,1.32-2.05,5.93,5.93,0,0,1,2.1-1.35A7.45,7.45,0,0,1,1595,169.64Zm-.28,10.68a4,4,0,0,0,1.75-.35,3.35,3.35,0,0,0,1.18-1,3.57,3.57,0,0,0,.67-1.35,5.68,5.68,0,0,0,.23-1.6,5.27,5.27,0,0,0-.23-1.57,3.32,3.32,0,0,0-.65-1.3,2.68,2.68,0,0,0-1.12-.85,3.67,3.67,0,0,0-1.63-.33,4.09,4.09,0,0,0-1.7.33,3.32,3.32,0,0,0-1.22.9,3.76,3.76,0,0,0-.73,1.32,5.68,5.68,0,0,0-.25,1.68,4.57,4.57,0,0,0,.93,3A3.43,3.43,0,0,0,1594.67,180.32Zm25.47,1.25a3.9,3.9,0,0,1-.2-.95c0-.35,0-.79,0-1.3v-.85c0-.22,0-.4,0-.55v-.48c0-.16,0-.39,0-.67,0-.59,0-1.17,0-1.75a5.84,5.84,0,0,0-.25-1.6,2.62,2.62,0,0,0-.7-1.18,1.92,1.92,0,0,0-1.37-.45,2.65,2.65,0,0,0-2.38,1.45,10.61,10.61,0,0,0-1,4.63c0,.66,0,1.27,0,1.82a9.7,9.7,0,0,1-.1,1.43,2,2,0,0,1-.38.9,1,1,0,0,1-.85.32,1,1,0,0,1-.8-.27,2,2,0,0,1-.37-.88,10,10,0,0,1-.13-1.4c0-.55,0-1.19-.07-1.92s-.14-1.57-.25-2.3a6.87,6.87,0,0,0-.53-1.93,3.4,3.4,0,0,0-1-1.35,2.36,2.36,0,0,0-1.55-.5,2,2,0,0,0-1.4.45,2.52,2.52,0,0,0-.7,1.15,6.27,6.27,0,0,0-.28,1.6c0,.59,0,1.18,0,1.78v.67c0,.14,0,.26,0,.38v.45c0,.18,0,.46,0,.85,0,.55,0,1,0,1.42a3.73,3.73,0,0,1-.18,1,1,1,0,0,1-.47.62,1.69,1.69,0,0,1-.55.1,1,1,0,0,1-1-.55,4.52,4.52,0,0,1-.25-1.6c0-.38,0-.81,0-1.27v-3.35c0-.24,0-.47,0-.7s0-.54,0-.85a5.81,5.81,0,0,1,.55-2.43,3.93,3.93,0,0,1,1.12-1.4,3.41,3.41,0,0,1,1.4-.6,7.08,7.08,0,0,1,1.38-.15,5.84,5.84,0,0,1,2.27.4,4.22,4.22,0,0,1,2.38,2.53,7.66,7.66,0,0,1,.4,1.67,6.62,6.62,0,0,1,.4-1.62,4.22,4.22,0,0,1,.92-1.45,4.46,4.46,0,0,1,1.6-1,6.27,6.27,0,0,1,2.4-.4,6.62,6.62,0,0,1,1.38.15,2.83,2.83,0,0,1,1.32.6,3.51,3.51,0,0,1,1,1.37,6.36,6.36,0,0,1,.5,2.38c0,.31,0,.6,0,.85s0,.46,0,.7,0,.47,0,.72v.88c0,.68,0,1.26,0,1.75v1.27a7.89,7.89,0,0,1-.05.88,2.07,2.07,0,0,1-.15.67,1,1,0,0,1-.37.45,1.25,1.25,0,0,1-.68.15,1.18,1.18,0,0,1-.65-.15A1.25,1.25,0,0,1,1620.14,181.57Zm11-3.85a13.51,13.51,0,0,1-1.85-.13,9.75,9.75,0,0,1-2.07-.6,3.31,3.31,0,0,0,1.25,2.3,5,5,0,0,0,3,.78,9.38,9.38,0,0,0,1.25-.08c.38-.06.71-.13,1-.2l.75-.2a2.21,2.21,0,0,1,.6-.1,1.18,1.18,0,0,1,.67.23.74.74,0,0,1,.33.7,1.23,1.23,0,0,1-.53,1,3.78,3.78,0,0,1-1.25.65,7.47,7.47,0,0,1-1.55.3,11.52,11.52,0,0,1-1.45.1,8.77,8.77,0,0,1-2.72-.4,5.73,5.73,0,0,1-2.13-1.2,5.59,5.59,0,0,1-1.4-2,8.1,8.1,0,0,1,0-5.55,5.92,5.92,0,0,1,1.35-2,5.65,5.65,0,0,1,2-1.25,7.4,7.4,0,0,1,2.52-.42,7.59,7.59,0,0,1,2,.27,5.45,5.45,0,0,1,1.75.83,3.93,3.93,0,0,1,1.22,1.4,3.81,3.81,0,0,1,.48,1.95,3.59,3.59,0,0,1-.38,1.7,3,3,0,0,1-1.07,1.12,4.94,4.94,0,0,1-1.65.63A10.71,10.71,0,0,1,1631.13,177.72Zm-.17-5.8a5,5,0,0,0-1.3.17,3.26,3.26,0,0,0-1.15.53,2.81,2.81,0,0,0-.85.95,3.59,3.59,0,0,0-.48,1.45,8.84,8.84,0,0,0,1.85.6,11.52,11.52,0,0,0,1.9.15,5.2,5.2,0,0,0,2.18-.35,1.37,1.37,0,0,0,.72-1.33,2,2,0,0,0-.67-1.52A3,3,0,0,0,1631,171.92Zm15.15,8.77c0-1.05-.08-2.29-.1-3.72V172a5.21,5.21,0,0,1-.6,0h-.52c-.3,0-.58,0-.83,0a1.53,1.53,0,0,1-.62-.15.94.94,0,0,1-.43-.35,1.28,1.28,0,0,1-.15-.67q0-1.2,1.8-1.2h.68a3.27,3.27,0,0,1,.67.05c0-.89,0-1.59,0-2.13a5.2,5.2,0,0,1,.18-1.22,1,1,0,0,1,.37-.58,1.22,1.22,0,0,1,.63-.15.83.83,0,0,1,.65.28,1.73,1.73,0,0,1,.37.7,3.41,3.41,0,0,1,.18.95c0,.35,0,.69,0,1a6.46,6.46,0,0,1,0,.65v.5a2.92,2.92,0,0,1,.73-.1l.72,0a2.82,2.82,0,0,1,1.43.3,1,1,0,0,1,.5.92,1.07,1.07,0,0,1-.18.65,1.12,1.12,0,0,1-.47.35,2.4,2.4,0,0,1-.68.18l-.82,0h-.58a2.8,2.8,0,0,1-.6,0v2.43c0,.73,0,1.44,0,2.12s0,1.34,0,2,0,1.38-.08,2.13a4.38,4.38,0,0,1-.12.92,1.11,1.11,0,0,1-.23.5.72.72,0,0,1-.35.23l-.42,0a1.12,1.12,0,0,1-.78-.3A2.22,2.22,0,0,1,1646.11,180.69Zm13.32-11.05a6.82,6.82,0,0,1,2.55.45,5.16,5.16,0,0,1,1.9,1.23,5.26,5.26,0,0,1,1.22,2,7.18,7.18,0,0,1,.43,2.57,7.67,7.67,0,0,1-.5,2.83,6,6,0,0,1-1.35,2.12,5.64,5.64,0,0,1-2,1.35,6.77,6.77,0,0,1-2.58.48,6.6,6.6,0,0,1-2.7-.53,5.91,5.91,0,0,1-1.95-1.42,6.16,6.16,0,0,1-1.17-2.08,7.52,7.52,0,0,1-.4-2.47,7.2,7.2,0,0,1,.45-2.6,5.82,5.82,0,0,1,3.42-3.4A7.45,7.45,0,0,1,1659.43,169.64Zm-.28,10.68a4,4,0,0,0,1.75-.35,3.35,3.35,0,0,0,1.18-1,3.72,3.72,0,0,0,.67-1.35,5.68,5.68,0,0,0,.23-1.6,5.27,5.27,0,0,0-.23-1.57,3.32,3.32,0,0,0-.65-1.3,2.74,2.74,0,0,0-1.12-.85,3.67,3.67,0,0,0-1.63-.33,4.09,4.09,0,0,0-1.7.33,3.32,3.32,0,0,0-1.22.9,3.76,3.76,0,0,0-.73,1.32,5.68,5.68,0,0,0-.25,1.68,4.57,4.57,0,0,0,.93,3A3.43,3.43,0,0,0,1659.15,180.32ZM1542,217.89a3.16,3.16,0,0,1-.62.85.86.86,0,0,1-.65.28,1.29,1.29,0,0,1-.7-.23.71.71,0,0,1-.35-.62,3.45,3.45,0,0,1,.25-1.08c.18-.46.4-1,.65-1.52l.82-1.7.78-1.6.17-.38c-.5-1-1-2-1.55-3.15s-1-2.17-1.42-3.17-.79-1.87-1.08-2.6a6.17,6.17,0,0,1-.4-1.48.75.75,0,0,1,.25-.55,1,1,0,0,1,.68-.25,1.56,1.56,0,0,1,.67.15,1.32,1.32,0,0,1,.6.6c.27.5.55,1.08.83,1.73s.59,1.3.87,2l.9,2.12c.32.72.64,1.41.95,2.08.37-.69.76-1.4,1.18-2.15s.82-1.48,1.2-2.18l1.1-1.92c.33-.6.62-1.1.85-1.5a2.76,2.76,0,0,1,.7-.83,1.26,1.26,0,0,1,.72-.25.74.74,0,0,1,.5.23.64.64,0,0,1,.25.55,5.21,5.21,0,0,1-.47,1.7c-.3.76-.69,1.66-1.18,2.67s-1,2.11-1.65,3.28-1.2,2.28-1.8,3.4-1.17,2.13-1.72,3.1S1542.3,217.24,1542,217.89Zm15.67-17.25a6.82,6.82,0,0,1,2.55.45,5.16,5.16,0,0,1,1.9,1.23,5.41,5.41,0,0,1,1.23,2,7.41,7.41,0,0,1,.42,2.57,7.67,7.67,0,0,1-.5,2.83,6,6,0,0,1-1.35,2.12,5.64,5.64,0,0,1-2,1.35,6.72,6.72,0,0,1-2.57.48,6.54,6.54,0,0,1-2.7-.53,5.71,5.71,0,0,1-2-1.42,6.18,6.18,0,0,1-1.18-2.08,7.52,7.52,0,0,1-.4-2.47,7.2,7.2,0,0,1,.45-2.6,5.91,5.91,0,0,1,1.33-2.05,5.75,5.75,0,0,1,2.1-1.35A7.36,7.36,0,0,1,1557.62,200.64Zm-.27,10.68a4.08,4.08,0,0,0,1.75-.35,3.41,3.41,0,0,0,1.17-1,3.74,3.74,0,0,0,.68-1.35,5.67,5.67,0,0,0,.22-1.6,5.27,5.27,0,0,0-.22-1.57,3.46,3.46,0,0,0-.65-1.3,2.78,2.78,0,0,0-1.13-.85,3.66,3.66,0,0,0-1.62-.33,4.06,4.06,0,0,0-1.7.33,3.27,3.27,0,0,0-1.23.9,3.59,3.59,0,0,0-.72,1.32,5.38,5.38,0,0,0-.25,1.68,4.56,4.56,0,0,0,.92,3A3.43,3.43,0,0,0,1557.35,211.32Zm10.81-9.33c0,.44,0,1,0,1.58s0,1.26,0,2,.09,1.34.17,2a8.19,8.19,0,0,0,.43,1.8,3.42,3.42,0,0,0,.87,1.3,2.16,2.16,0,0,0,1.48.5,2,2,0,0,0,1.45-.5,3.11,3.11,0,0,0,.87-1.3,6.78,6.78,0,0,0,.45-1.8,17.48,17.48,0,0,0,.15-2c0-.69,0-1.34,0-2s0-1.14.05-1.58c.06-1,.49-1.55,1.27-1.55a1,1,0,0,1,.7.25,1.33,1.33,0,0,1,.35.7,4.13,4.13,0,0,1,.15,1.08c0,.41,0,.88,0,1.4a32.06,32.06,0,0,1-.18,3.32,11,11,0,0,1-.72,3.13,5.76,5.76,0,0,1-1.65,2.35,5.19,5.19,0,0,1-5.9,0,5.92,5.92,0,0,1-1.68-2.35,12.06,12.06,0,0,1-.72-3.13c-.1-1.15-.15-2.26-.15-3.32,0-.52,0-1,0-1.4a6.14,6.14,0,0,1,.13-1.08,1.61,1.61,0,0,1,.37-.7,1,1,0,0,1,.7-.25C1567.67,200.44,1568.09,201,1568.16,202Zm11.5,9.8c-.07-.58-.11-1.29-.13-2.12s0-1.84,0-3v-2.82a13,13,0,0,1,.15-1.9,2.79,2.79,0,0,1,.37-1.33.91.91,0,0,1,.7-.3,2.73,2.73,0,0,1,.53.05.87.87,0,0,1,.42.23.94.94,0,0,1,.3.45,2.57,2.57,0,0,1,.1.82.64.64,0,0,0,0,.2v.23a1.57,1.57,0,0,1,0,.25,7.23,7.23,0,0,1,1.53-1.45,3.4,3.4,0,0,1,2-.6c1,0,1.48.41,1.48,1.22a1.35,1.35,0,0,1-.2.75,1.42,1.42,0,0,1-.53.5,3,3,0,0,1-.77.28l-.95.2a4.4,4.4,0,0,0-1.5.57,2,2,0,0,0-1,1v.7c0,.15,0,.27,0,.37a1.69,1.69,0,0,1,0,.33V207c0,.85,0,1.65,0,2.4s-.07,1.53-.1,2.4a3.18,3.18,0,0,1-.15.92,1.13,1.13,0,0,1-.28.5.51.51,0,0,1-.35.2,1.37,1.37,0,0,1-.4.05,1.2,1.2,0,0,1-1-.3A3.09,3.09,0,0,1,1579.66,211.79Zm17.24,5.13c0,.31,0,.61,0,.9a2.47,2.47,0,0,1-.18.8,1.11,1.11,0,0,1-.4.55,1,1,0,0,1-.72.22,1.21,1.21,0,0,1-.93-.4,2.22,2.22,0,0,1-.4-1.35c0-.41,0-.92-.07-1.52s-.07-1.24-.1-1.9,0-1.34-.08-2,0-1.29,0-1.85a23.89,23.89,0,0,1,.4-4.83,8,8,0,0,1,1.25-3,4.4,4.4,0,0,1,2-1.58,8.2,8.2,0,0,1,2.83-.45,7.28,7.28,0,0,1,2.4.4,4.92,4.92,0,0,1,1.95,1.2,5.6,5.6,0,0,1,1.35,2.1,8.53,8.53,0,0,1,.5,3.08,6.33,6.33,0,0,1-.53,2.65,5.59,5.59,0,0,1-1.4,2,6.65,6.65,0,0,1-2.12,1.2,8.3,8.3,0,0,1-2.58.4,4.62,4.62,0,0,1-2.12-.48,3.77,3.77,0,0,1-1.33-1.07c.09.93.15,1.8.2,2.6S1596.9,216.12,1596.9,216.92Zm3.45-13.93a3.58,3.58,0,0,0-1.52.3,2.8,2.8,0,0,0-1,.83,3.82,3.82,0,0,0-.6,1.25,7.06,7.06,0,0,0-.17,1.57,8.07,8.07,0,0,0,.15,1.58,3.85,3.85,0,0,0,.55,1.27,2.67,2.67,0,0,0,1,.88,3.35,3.35,0,0,0,1.52.32,5.43,5.43,0,0,0,1.35-.17,3.11,3.11,0,0,0,2-1.85,4.7,4.7,0,0,0,.32-1.88,4.91,4.91,0,0,0-.32-1.92,3.2,3.2,0,0,0-.83-1.28,2.79,2.79,0,0,0-1.15-.7A4.13,4.13,0,0,0,1600.35,203Zm8.68,8.8c-.07-.58-.11-1.29-.13-2.12s0-1.84,0-3v-2.82a13,13,0,0,1,.15-1.9,2.79,2.79,0,0,1,.37-1.33.91.91,0,0,1,.7-.3,2.73,2.73,0,0,1,.53.05.87.87,0,0,1,.42.23.94.94,0,0,1,.3.45,2.57,2.57,0,0,1,.1.82.64.64,0,0,0,0,.2v.23a1.57,1.57,0,0,1,0,.25,7.23,7.23,0,0,1,1.53-1.45,3.4,3.4,0,0,1,2-.6c1,0,1.48.41,1.48,1.22a1.35,1.35,0,0,1-.2.75,1.42,1.42,0,0,1-.53.5,3,3,0,0,1-.77.28l-1,.2a4.4,4.4,0,0,0-1.5.57,2,2,0,0,0-1,1v.7c0,.15,0,.27,0,.37a1.69,1.69,0,0,1,0,.33V207c0,.85,0,1.65-.05,2.4s-.07,1.53-.1,2.4a3.18,3.18,0,0,1-.15.92,1.13,1.13,0,0,1-.28.5.51.51,0,0,1-.35.2,1.37,1.37,0,0,1-.4.05,1.2,1.2,0,0,1-1-.3A3.09,3.09,0,0,1,1609,211.79Zm14.7-11.15a6.82,6.82,0,0,1,2.55.45,5.08,5.08,0,0,1,1.9,1.23,5.16,5.16,0,0,1,1.23,2,8.17,8.17,0,0,1-.08,5.4,5.75,5.75,0,0,1-1.35,2.12,5.56,5.56,0,0,1-2,1.35,6.72,6.72,0,0,1-2.57.48,6.54,6.54,0,0,1-2.7-.53,5.71,5.71,0,0,1-2-1.42,6.18,6.18,0,0,1-1.18-2.08,7.79,7.79,0,0,1-.4-2.47,7.2,7.2,0,0,1,.45-2.6,5.91,5.91,0,0,1,1.33-2.05,5.75,5.75,0,0,1,2.1-1.35A7.4,7.4,0,0,1,1623.73,200.64Zm-.27,10.68a4,4,0,0,0,1.75-.35,3.41,3.41,0,0,0,1.17-1,3.59,3.59,0,0,0,.68-1.35,5.67,5.67,0,0,0,.22-1.6,5.27,5.27,0,0,0-.22-1.57,3.32,3.32,0,0,0-.65-1.3,2.71,2.71,0,0,0-1.13-.85,3.66,3.66,0,0,0-1.62-.33,4.06,4.06,0,0,0-1.7.33,3.44,3.44,0,0,0-1.23.9,3.9,3.9,0,0,0-.72,1.32,5.38,5.38,0,0,0-.25,1.68,4.62,4.62,0,0,0,.92,3A3.45,3.45,0,0,0,1623.46,211.32Zm9.21-8.15-.55.05h-.5a2.39,2.39,0,0,1-1.22-.25,1.13,1.13,0,0,1-.43-1,1.22,1.22,0,0,1,.33-.9,1.6,1.6,0,0,1,1.22-.35,9.61,9.61,0,0,1,1.18.08v-1.45a7.79,7.79,0,0,1,.22-1.9,4.64,4.64,0,0,1,.7-1.58,3.52,3.52,0,0,1,1.23-1.1,3.86,3.86,0,0,1,1.87-.42,2.42,2.42,0,0,1,1.4.3,1,1,0,0,1,.4.92.72.72,0,0,1-.52.8,4.38,4.38,0,0,1-1.2.15,1.35,1.35,0,0,0-1.25.73,3.56,3.56,0,0,0-.4,1.77v1.75a2.68,2.68,0,0,1,.62-.07c.22,0,.44,0,.68,0a2.14,2.14,0,0,1,1.3.3,1.13,1.13,0,0,1,.4.95,1.08,1.08,0,0,1-.53,1.08,3.63,3.63,0,0,1-1.4.22h-.52a2.5,2.5,0,0,1-.55-.05v8.6a3.64,3.64,0,0,1-.1.93,1.26,1.26,0,0,1-.28.5.73.73,0,0,1-.4.2,2.42,2.42,0,0,1-.47,0,1.42,1.42,0,0,1-.45-.08.79.79,0,0,1-.4-.22,2.17,2.17,0,0,1-.28-.53,2.7,2.7,0,0,1-.1-.82Zm7.45,8.6c0-.62-.07-1.32-.1-2.1s0-1.68,0-2.63c0-1.18,0-2.19,0-3a20.67,20.67,0,0,1,.13-2.08,3,3,0,0,1,.37-1.2.8.8,0,0,1,.7-.4,1.08,1.08,0,0,1,.75.3,2,2,0,0,1,.38,1.3c.1,1.75.15,3.44.15,5.08,0,.83,0,1.61,0,2.35s-.07,1.51-.1,2.37a3.89,3.89,0,0,1-.13.93,1.22,1.22,0,0,1-.22.5.6.6,0,0,1-.35.2,1.75,1.75,0,0,1-.43,0,1,1,0,0,1-.75-.3A2.26,2.26,0,0,1,1640.12,211.77Zm1.13-16a1.51,1.51,0,0,1,1,.45,1.41,1.41,0,0,1,.5,1.07,1.38,1.38,0,0,1-.5,1,1.68,1.68,0,0,1-1.13.43,1.47,1.47,0,0,1-1-.43,1.49,1.49,0,0,1-.45-1.1,1.34,1.34,0,0,1,.45-1A1.54,1.54,0,0,1,1641.25,195.82Zm4.5,16.05c0-.6,0-1.3,0-2.1s0-1.67,0-2.6,0-1.92,0-2.95V201c0-1.18,0-2.2,0-3a19,19,0,0,1,.12-2.1,3,3,0,0,1,.38-1.2.79.79,0,0,1,.7-.4,1.11,1.11,0,0,1,.75.28,1.86,1.86,0,0,1,.37,1.27c.07,1.2.11,2.45.13,3.75s0,2.55,0,3.8v2.18c0,.68,0,1.36,0,2.05s0,1.35,0,2,0,1.42-.08,2.17a4.6,4.6,0,0,1-.12.93,1.22,1.22,0,0,1-.23.5.6.6,0,0,1-.35.2,1.73,1.73,0,0,1-.42.05,1,1,0,0,1-.75-.3A2.26,2.26,0,0,1,1645.75,211.87Zm11.21-3.15a13.51,13.51,0,0,1-1.85-.13,9.75,9.75,0,0,1-2.07-.6,3.31,3.31,0,0,0,1.25,2.3,5,5,0,0,0,3,.78,9.38,9.38,0,0,0,1.25-.08c.38-.06.71-.13,1-.2l.75-.2a2.21,2.21,0,0,1,.6-.1,1.15,1.15,0,0,1,.67.23.74.74,0,0,1,.33.7,1.23,1.23,0,0,1-.53,1,3.78,3.78,0,0,1-1.25.65,7.47,7.47,0,0,1-1.55.3,11.52,11.52,0,0,1-1.45.1,8.77,8.77,0,0,1-2.72-.4,5.47,5.47,0,0,1-3.53-3.22,8.1,8.1,0,0,1,0-5.55,5.92,5.92,0,0,1,1.35-2,5.65,5.65,0,0,1,2-1.25,7.4,7.4,0,0,1,2.52-.42,7.59,7.59,0,0,1,2,.27,5.45,5.45,0,0,1,1.75.83,3.93,3.93,0,0,1,1.22,1.4,3.81,3.81,0,0,1,.48,1.95,3.59,3.59,0,0,1-.38,1.7,3,3,0,0,1-1.07,1.12,4.94,4.94,0,0,1-1.65.63A10.64,10.64,0,0,1,1657,208.72Zm-.17-5.8a5,5,0,0,0-1.3.17,3.26,3.26,0,0,0-1.15.53,2.81,2.81,0,0,0-.85.95A3.75,3.75,0,0,0,1653,206a9,9,0,0,0,1.85.6,11.61,11.61,0,0,0,1.9.15,5.17,5.17,0,0,0,2.18-.35,1.37,1.37,0,0,0,.72-1.33,2,2,0,0,0-.67-1.52A3,3,0,0,0,1656.79,202.92Zm7.93-6.8a2.12,2.12,0,0,1,.35-1.33,1,1,0,0,1,.75-.32,1.34,1.34,0,0,1,.42.05.51.51,0,0,1,.35.2,1.11,1.11,0,0,1,.23.5,4.38,4.38,0,0,1,.12.92c0,.87.07,1.72.1,2.55s0,1.67,0,2.5c0,.42,0,.79,0,1.13s0,.66,0,1,0,.67,0,1,0,.74,0,1.18a4,4,0,0,1-.12.82,1.54,1.54,0,0,1-.25.48.94.94,0,0,1-.35.25,1.62,1.62,0,0,1-.4.05,1,1,0,0,1-.7-.25,1.93,1.93,0,0,1-.38-1,13.66,13.66,0,0,1-.12-1.83c0-.76,0-1.74,0-2.92,0-.95,0-1.88,0-2.78S1664.68,196.73,1664.72,196.12Zm1.1,14.45a1.51,1.51,0,0,1,1,.45,1.41,1.41,0,0,1,.5,1.07,1.38,1.38,0,0,1-.5,1,1.68,1.68,0,0,1-1.13.43,1.47,1.47,0,0,1-1-.43,1.49,1.49,0,0,1-.45-1.1,1.34,1.34,0,0,1,.45-1A1.54,1.54,0,0,1,1665.82,210.57Z"/><path class="cls-3" d="M1362.79,821.61a67.46,67.46,0,0,0-3.32-6c-.91-1.31-2.19-3.19-3.64-4a7.48,7.48,0,0,0-3.63-.75c-3.82,0-7.26,4.78-4.73,8.24l5.87,8c1.69,2.3,4.83,3.68,7.49,2,2.28-1.47,3.77-5,2-7.49l-5.86-8-4.73,8.24h.87l-3.88-1.61c.26.27.51.53.75.8,1,1.1-.15-.39.21.28s.76,1.19,1.09,1.81c.72,1.32,1.36,2.69,2.1,4a5.53,5.53,0,0,0,7.49,2A5.59,5.59,0,0,0,1362.79,821.61Z"/><g class="cls-19"><path class="cls-18" d="M1598,57.44a3.8,3.8,0,0,0,.4,2c.16.57.16.8,1.34,2,2.39,2.31,6.83,2.73,10.8,2.76,4.63,0,14-2.93,16.93-5.57l3.14-4.83c-.55.28-.58.6-.78.85a13.12,13.12,0,0,0-.78,1.14c-.32.45-.47.88-.79,1.42-.2.37-.67.8-.67,1.31a6,6,0,0,0,.91,3.81,8.23,8.23,0,0,0,3.65,2.33c8.6,3.35,14.34,2.55,24,1.36a28.54,28.54,0,0,0,9.47-2.9,8.94,8.94,0,0,0,3.23-2.81,5.18,5.18,0,0,0,.63-4.58,21.9,21.9,0,0,0-1.38-3.86l1.81,5.88a28.11,28.11,0,0,0,15.52-2.42c4.63-2.3,7.7-6.48,6.83-10.51-.7-3.27-3.73-6-7-8.33-6.92-4.86-16.5-8.61-26-7.25a13.35,13.35,0,0,0-4.48,1.31l6.09-1.53c5.54-2.79,4.63-8.16,2.52-12.82-1.11-2.47-6.56-6.31-12.34-7.65-5.07-1.19-10.89-.08-12.18.86l-.67,4.23c.79-4,1.14-8.9-3.42-11.37A18.06,18.06,0,0,0,1627.7.55a58.45,58.45,0,0,0-31.27,6.82,37.09,37.09,0,0,0-4.72,2.55c-5.78,4.18-8.14,7.25-7.86,13.93l7.94,2.3a29.84,29.84,0,0,0-6.6-1.67c-4.45-.77-9.59,1.42-13.12,3.41a43.72,43.72,0,0,0-4.28,3.89c-2.41,2.27-4.29,5.09-3.66,7.93s3.69,4.32,7.55,4.94a17.67,17.67,0,0,0,4.31-.56,39.26,39.26,0,0,0,5.11-2l-3.92,1.7a8.24,8.24,0,0,0-3.47,7.33,7.51,7.51,0,0,0,3.81,5.8c3.38,2.11,9,2.84,13.88,2.19s11.9-4.77,14.84-7.08"/><path class="cls-5" d="M1597.41,57.44c-.12,3.13,2.63,5.6,6.72,6.54a27.66,27.66,0,0,0,13.2-.48,42.55,42.55,0,0,0,6.36-2.19c1.46-.65,3.35-1.45,4.29-2.53a38.69,38.69,0,0,0,3.14-4.83c.28-.43-.44-.88-.94-.51-1.38,1-2.17,2.78-2.87,4.09a4.84,4.84,0,0,0,.51,4.72c1.1,1.62,3.42,2.53,5.58,3.27a33.41,33.41,0,0,0,7.23,1.67c4.86.54,9.82-.11,14.61-.71s10.65-2,13.48-5.23a5.77,5.77,0,0,0,1.38-5.48,11.67,11.67,0,0,0-1.5-4.18c-.36-.43-1.22-.14-1.06.34.59,2,1.18,3.92,1.81,5.88a.63.63,0,0,0,.55.32c5.73.51,11.55-.17,16.26-2.7,3.82-2,6.52-5.29,6.8-8.76.28-4-3-7.33-6.64-10a43.32,43.32,0,0,0-14.14-6.88c-5.39-1.48-12.66-2.07-17.69.4-.5.26-.19.94.47.77,2.52-.63,5.63-1,7.59-2.39,3.66-2.59,3.46-6.56,2.4-9.89a10.66,10.66,0,0,0-2.63-4.72,24.21,24.21,0,0,0-21.85-5.65c-1.42.37-2.09.65-2.28,1.7-.2,1.22-.39,2.42-.59,3.64-.08.48,1.06.6,1.14.11.67-3.49,1.25-7.76-2-10.71C1633-.28,1625.38-.19,1620,.18a60.89,60.89,0,0,0-18.59,4.37c-5.1,2.11-10.09,4.61-13.71,8a13.88,13.88,0,0,0-4.44,11.37c0,.2.2.34.43.4,2.68.73,5.31,1.47,8,2.24.63.17,1-.54.48-.77a25.3,25.3,0,0,0-8.69-1.9,20.39,20.39,0,0,0-8.06,1.85,17.9,17.9,0,0,0-5.58,3.44,30.13,30.13,0,0,0-5.1,5.48c-2,3.33-1.73,7.33,2.94,9.32a11.42,11.42,0,0,0,6.21.94,19.56,19.56,0,0,0,4.28-1c1.14-.43,2.17-1,3.31-1.42l-.59-.74c-1.26.54-2.6,1-3.82,1.65a7.1,7.1,0,0,0-3.22,3.83,8,8,0,0,0,3.85,10.35c4.28,2.39,11.12,2.9,16.11,1.51a40.37,40.37,0,0,0,12.93-6.71c.51-.4-.32-1-.82-.6a41.42,41.42,0,0,1-10.89,6,22.46,22.46,0,0,1-15.36-.26c-4.91-2.07-6.17-6.31-4.68-10.06a6,6,0,0,1,3.3-3.58c1.06-.45,2.13-.91,3.19-1.39.66-.29.08-1-.59-.74-2,.65-3.54,1.65-5.66,2.1a10.84,10.84,0,0,1-6.72-.48c-5.31-2.13-4.2-6.76-1.45-10a24.21,24.21,0,0,1,8.72-6.79,19.32,19.32,0,0,1,7.42-1.85,23.8,23.8,0,0,1,8.41,1.79l.48-.76c-2.67-.74-5.31-1.48-8-2.25a5.23,5.23,0,0,0,.43.4c-.12-3.38.43-6.68,3-9.58,2.83-3.21,6.91-5.4,11.2-7.5a60.45,60.45,0,0,1,16-5.15c5.47-.93,12.42-1.45,17.77.12,6.48,1.9,6,7.56,5.22,11.74.39,0,.78.08,1.14.11.16-1.11.36-2.19.51-3.3,0-.2,0-.57.12-.74s.15-.05.15-.05c.67-.57,2.6-.74,3.58-.88a22.87,22.87,0,0,1,18,5.6,11.65,11.65,0,0,1,2.87,5.65,7.78,7.78,0,0,1-.7,6.39,7,7,0,0,1-4.48,2.79c-1.42.37-2.88.71-4.28,1.08.15.26.31.51.47.77,5.57-2.76,13.67-1.51,19.29.45s11.11,5.15,14.66,8.93c3.8,4.06,3.53,9-1,12.73s-11.56,4.83-18.15,4.26c.2.12.39.2.55.32-.59-2-1.18-3.93-1.81-5.89l-1.06.34c.82,1,1,2.59,1.3,3.75.7,2.53-.4,5-3.15,6.66-4.6,2.78-10.92,3.41-16.66,3.89a36.09,36.09,0,0,1-14.81-1.45c-3.42-1.14-6-2.5-6.13-5.46a7.83,7.83,0,0,1,2.83-5.4l-.94-.51c-1,1.45-1.85,2.93-2.83,4.38-1.42,2-5.18,3.21-7.9,4.09a30,30,0,0,1-11.71,1.62c-4.79-.37-9.19-2.36-9.07-6.17C1598.59,56.9,1597.41,56.9,1597.41,57.44Z"/></g><g class="cls-20"><path class="cls-18" d="M1868.62,179.87a4.89,4.89,0,0,0,.24,1.79,3.48,3.48,0,0,0,.83,1.76c1.49,2.07,4.23,2.45,6.69,2.47,2.86,0,8.67-2.62,10.47-5l2-4.33c-.35.25-.36.53-.49.76-.22.41-.34.69-.49,1s-.28.79-.48,1.28a3.31,3.31,0,0,0-.42,1.17,7.39,7.39,0,0,0,.56,3.42,5.43,5.43,0,0,0,2.26,2.09c5.33,3,8.88,2.3,14.83,1.23a14.08,14.08,0,0,0,5.86-2.61,6.93,6.93,0,0,0,2-2.52,6.44,6.44,0,0,0,.38-4.11,24.61,24.61,0,0,0-.84-3.47l1.11,5.28a12.72,12.72,0,0,0,9.6-2.16,10.22,10.22,0,0,0,4.23-9.44c-.43-2.94-2.3-5.41-4.32-7.48-4.28-4.36-10.21-7.72-16.07-6.5a6.5,6.5,0,0,0-2.77,1.17l3.77-1.37c3.43-2.5,2.86-7.32,1.56-11.51-.69-2.22-4.06-5.66-7.64-6.86-3.13-1.07-6.73-.07-7.53.77l-.41,3.8c.48-3.62.7-8-2.12-10.2a8.53,8.53,0,0,0-4.37-1.51c-6.9-.76-13.8,1.86-19.35,6.12a22.56,22.56,0,0,0-2.92,2.3c-3.57,3.75-5,6.5-4.86,12.5l4.92,2.06a14.08,14.08,0,0,0-4.09-1.5c-2.75-.69-5.93,1.27-8.12,3.06a38,38,0,0,0-2.65,3.49c-1.48,2-2.64,4.57-2.26,7.12s2.29,3.88,4.67,4.44a8,8,0,0,0,2.67-.51,19.77,19.77,0,0,0,3.16-1.79l-2.43,1.53c-1.7,1.53-2.26,4.69-2.13,6.58a7.37,7.37,0,0,0,2.36,5.2c2.08,1.89,5.53,2.56,8.57,2s7.37-4.29,9.19-6.35"/><path class="cls-5" d="M1868.26,179.87a5.91,5.91,0,0,0,4.15,5.87,12.05,12.05,0,0,0,8.18-.43,21.24,21.24,0,0,0,3.93-2,8.25,8.25,0,0,0,2.65-2.27,38.32,38.32,0,0,0,1.94-4.33c.17-.39-.27-.79-.58-.46a11.38,11.38,0,0,0-1.78,3.67,6.05,6.05,0,0,0,.32,4.23,6.85,6.85,0,0,0,3.45,2.94,15.51,15.51,0,0,0,4.47,1.5c3,.49,6.08-.1,9-.64s6.58-1.83,8.33-4.69a7,7,0,0,0,.85-4.92,13.83,13.83,0,0,0-.92-3.75.37.37,0,0,0-.66.31q.54,2.64,1.12,5.28a.41.41,0,0,0,.34.28,13.26,13.26,0,0,0,10.06-2.43,10.91,10.91,0,0,0,4.21-7.85c.16-3.55-1.83-6.58-4.11-9a24.83,24.83,0,0,0-8.75-6.17c-3.33-1.33-7.83-1.86-10.94.36-.32.23-.12.84.3.69,1.55-.56,3.47-.92,4.69-2.15,2.26-2.32,2.14-5.89,1.48-8.87a11.35,11.35,0,0,0-1.63-4.24,15.25,15.25,0,0,0-3.53-3.46,10.57,10.57,0,0,0-10-1.61c-.88.33-1.29.59-1.41,1.53-.12,1.1-.25,2.17-.36,3.26-.06.44.65.54.7.11.41-3.14.77-7-1.26-9.62-2.32-3-7-2.88-10.34-2.55a28.45,28.45,0,0,0-11.49,3.93,28,28,0,0,0-8.48,7.16c-2.22,3-2.85,6.46-2.75,10.21a.37.37,0,0,0,.27.35c1.65.67,3.28,1.33,4.94,2,.38.15.63-.49.28-.69a11.6,11.6,0,0,0-5.37-1.71,9.58,9.58,0,0,0-5,1.66,11.32,11.32,0,0,0-3.45,3.09,25.79,25.79,0,0,0-3.16,4.92c-1.27,3-1.07,6.58,1.82,8.36a5.18,5.18,0,0,0,3.85.85,9.3,9.3,0,0,0,2.64-.95c.7-.38,1.33-.94,2.05-1.27-.13-.23-.25-.44-.37-.67-.78.49-1.61.92-2.36,1.48a6.31,6.31,0,0,0-2,3.45c-.9,3.29-.32,7.11,2.38,9.28a10.5,10.5,0,0,0,10,1.35,23.54,23.54,0,0,0,8-6c.32-.35-.19-.89-.51-.53a25.06,25.06,0,0,1-6.73,5.38,9.92,9.92,0,0,1-9.51-.23c-3-1.86-3.81-5.66-2.89-9a5.2,5.2,0,0,1,2-3.21c.66-.41,1.32-.82,2-1.25a.38.38,0,0,0-.37-.67,25.77,25.77,0,0,1-3.51,1.89,4.76,4.76,0,0,1-4.14-.43c-3.29-1.92-2.61-6.07-.9-9a17.5,17.5,0,0,1,5.39-6.09,9.17,9.17,0,0,1,4.59-1.66,10.86,10.86,0,0,1,5.2,1.61l.3-.69c-1.66-.66-3.29-1.33-4.93-2a2.56,2.56,0,0,0,.26.36,15.42,15.42,0,0,1,1.84-8.59c1.76-2.89,4.29-4.85,6.93-6.74a30.15,30.15,0,0,1,9.9-4.61c3.37-.85,7.68-1.31,11,.1,4,1.71,3.74,6.78,3.23,10.53l.7.1c.1-1,.23-2,.32-3a2.84,2.84,0,0,1,.08-.66c.07-.15.09,0,.09,0,.41-.51,1.6-.66,2.21-.79,4.31-.82,8.54,1.5,11.16,5a12.85,12.85,0,0,1,1.77,5.08,9.85,9.85,0,0,1-.43,5.74,4.51,4.51,0,0,1-2.77,2.5c-.88.33-1.78.64-2.65,1,.09.23.19.46.29.69,3.44-2.48,8.46-1.35,11.93.4a24.16,24.16,0,0,1,9.07,8,9.43,9.43,0,0,1-.61,11.43c-2.82,3.37-7.15,4.34-11.23,3.83a3.17,3.17,0,0,1,.34.28c-.37-1.76-.73-3.52-1.12-5.28l-.65.3a12.75,12.75,0,0,1,.8,3.37,6.23,6.23,0,0,1-1.94,6c-2.85,2.5-6.76,3.06-10.31,3.49a15.71,15.71,0,0,1-9.16-1.3c-2.12-1-3.7-2.24-3.79-4.9a8.38,8.38,0,0,1,1.74-4.84l-.57-.46c-.59,1.3-1.15,2.63-1.76,3.93-.87,1.78-3.2,2.88-4.88,3.67a13.28,13.28,0,0,1-7.25,1.45c-3-.33-5.68-2.11-5.61-5.53A.34.34,0,1,0,1868.26,179.87Z"/></g><g class="cls-21"><path class="cls-18" d="M272.43,74.76a3.72,3.72,0,0,0,.2,1.43,2.62,2.62,0,0,0,.66,1.41c1.18,1.65,3.38,2,5.34,2,2.3,0,6.94-2.11,8.38-4l1.56-3.47c-.27.2-.29.43-.39.61-.17.33-.27.55-.39.82s-.23.63-.39,1a2.76,2.76,0,0,0-.33.93,5.87,5.87,0,0,0,.45,2.74,4.36,4.36,0,0,0,1.81,1.67c4.25,2.41,7.09,1.84,11.86,1a11.16,11.16,0,0,0,4.68-2.08,5.47,5.47,0,0,0,1.6-2,5.22,5.22,0,0,0,.31-3.29,21.61,21.61,0,0,0-.68-2.77l.89,4.22a10.19,10.19,0,0,0,7.68-1.73,8.19,8.19,0,0,0,3.39-7.55,11.26,11.26,0,0,0-3.47-6c-3.42-3.49-8.16-6.18-12.85-5.2a5.12,5.12,0,0,0-2.21.94l3-1.11c2.74-2,2.29-5.85,1.24-9.2-.54-1.77-3.24-4.53-6.1-5.49-2.51-.85-5.39-.06-6,.61l-.33,3.05c.39-2.9.57-6.39-1.69-8.17a6.87,6.87,0,0,0-3.5-1.2c-5.52-.61-11,1.49-15.48,4.9a18.06,18.06,0,0,0-2.33,1.83c-2.86,3-4,5.21-3.89,10l3.93,1.65a11.29,11.29,0,0,0-3.27-1.2c-2.19-.55-4.74,1-6.49,2.45a28.21,28.21,0,0,0-2.12,2.79,8,8,0,0,0-1.81,5.7c.31,2,1.83,3.1,3.74,3.55a6.14,6.14,0,0,0,2.13-.41,16.25,16.25,0,0,0,2.53-1.43L262.13,65c-1.36,1.22-1.81,3.75-1.71,5.26a5.94,5.94,0,0,0,1.88,4.16A8.27,8.27,0,0,0,269.17,76c2.43-.47,5.89-3.42,7.34-5.08"/><path class="cls-5" d="M272.14,74.76a4.71,4.71,0,0,0,3.33,4.69,9.59,9.59,0,0,0,6.53-.34,17.14,17.14,0,0,0,3.15-1.57,6.74,6.74,0,0,0,2.12-1.82,30,30,0,0,0,1.55-3.47c.14-.31-.21-.63-.46-.37a9.12,9.12,0,0,0-1.42,2.94,4.84,4.84,0,0,0,.25,3.39A5.52,5.52,0,0,0,290,80.56a12.59,12.59,0,0,0,3.58,1.2,21.49,21.49,0,0,0,7.23-.51c2.43-.43,5.27-1.47,6.67-3.76a5.54,5.54,0,0,0,.68-3.93,11.08,11.08,0,0,0-.74-3,.29.29,0,0,0-.52.24c.29,1.41.58,2.82.89,4.23a.32.32,0,0,0,.27.22,10.59,10.59,0,0,0,8.05-1.94A8.7,8.7,0,0,0,319.42,67c.14-2.84-1.45-5.27-3.28-7.21a19.83,19.83,0,0,0-7-4.93c-2.66-1.07-6.26-1.49-8.75.28-.25.19-.1.67.23.55,1.25-.45,2.78-.73,3.76-1.71,1.8-1.86,1.71-4.72,1.18-7.1a9,9,0,0,0-1.3-3.39,12.35,12.35,0,0,0-2.82-2.77,8.47,8.47,0,0,0-8-1.29c-.7.26-1,.47-1.13,1.22s-.19,1.74-.29,2.62c0,.34.53.42.56.08.33-2.51.63-5.57-1-7.7-1.84-2.36-5.6-2.3-8.26-2a25.16,25.16,0,0,0-16,8.88,12.67,12.67,0,0,0-2.2,8.16.31.31,0,0,0,.21.29c1.33.53,2.63,1.06,3.95,1.61.31.12.51-.39.24-.55a9.27,9.27,0,0,0-4.3-1.37,7.64,7.64,0,0,0-4,1.33,9,9,0,0,0-2.76,2.47A21,21,0,0,0,256,58.4c-1,2.38-.85,5.26,1.46,6.69a4.12,4.12,0,0,0,3.07.67,7.45,7.45,0,0,0,2.12-.75c.57-.31,1.07-.76,1.64-1-.1-.19-.2-.35-.29-.53a22,22,0,0,0-1.89,1.18,5.09,5.09,0,0,0-1.6,2.75c-.71,2.64-.25,5.7,1.91,7.43a8.38,8.38,0,0,0,8,1.08,19,19,0,0,0,6.4-4.81c.25-.29-.16-.72-.41-.43A19.93,19.93,0,0,1,271,75a7.9,7.9,0,0,1-7.6-.18c-2.43-1.49-3.05-4.53-2.31-7.22A4.13,4.13,0,0,1,262.67,65l1.58-1a.3.3,0,0,0-.29-.53,21.59,21.59,0,0,1-2.8,1.51,3.87,3.87,0,0,1-3.33-.35c-2.62-1.53-2.08-4.86-.72-7.16a13.94,13.94,0,0,1,4.32-4.88,7.37,7.37,0,0,1,3.67-1.33,8.71,8.71,0,0,1,4.16,1.29l.24-.55c-1.33-.53-2.63-1.06-3.95-1.61.08.1.14.2.21.28a12.41,12.41,0,0,1,1.48-6.87,18.72,18.72,0,0,1,5.54-5.39,24,24,0,0,1,7.92-3.69c2.7-.68,6.14-1.05,8.78.08,3.21,1.36,3,5.42,2.59,8.42.19,0,.39.07.56.09.08-.8.18-1.58.26-2.37a2.27,2.27,0,0,1,.05-.53c.06-.12.08,0,.08,0,.33-.41,1.29-.53,1.77-.64,3.44-.65,6.83,1.21,8.93,4a10.4,10.4,0,0,1,1.41,4.07,7.73,7.73,0,0,1-.35,4.59,3.57,3.57,0,0,1-2.21,2l-2.12.77c.08.19.15.37.23.55,2.76-2,6.77-1.08,9.55.33a19.24,19.24,0,0,1,7.25,6.41A7.53,7.53,0,0,1,317,71.6c-2.25,2.69-5.71,3.47-9,3.06a2.13,2.13,0,0,1,.27.22c-.29-1.41-.58-2.81-.89-4.22l-.52.24a10.23,10.23,0,0,1,.64,2.7A5,5,0,0,1,306,78.37c-2.27,2-5.4,2.45-8.24,2.8a12.67,12.67,0,0,1-7.33-1c-1.69-.82-3-1.8-3-3.92a6.85,6.85,0,0,1,1.4-3.88l-.46-.37c-.47,1.05-.92,2.11-1.4,3.15-.7,1.43-2.57,2.3-3.91,2.94a10.72,10.72,0,0,1-5.79,1.16c-2.38-.27-4.55-1.7-4.49-4.43A.28.28,0,1,0,272.14,74.76Z"/></g><g class="cls-22"><path class="cls-18" d="M74.84,175.21a3.68,3.68,0,0,0,.2,1.43,2.8,2.8,0,0,0,.66,1.41c1.18,1.65,3.38,2,5.35,2,2.29,0,6.94-2.11,8.38-4L91,172.56c-.27.2-.29.43-.39.61-.17.33-.27.55-.39.82s-.23.63-.39,1a2.74,2.74,0,0,0-.33.94,5.85,5.85,0,0,0,.45,2.73,4.36,4.36,0,0,0,1.81,1.67c4.26,2.41,7.1,1.84,11.86,1a11.16,11.16,0,0,0,4.68-2.08,5.37,5.37,0,0,0,1.6-2,5.13,5.13,0,0,0,.31-3.28,21.39,21.39,0,0,0-.68-2.78l.89,4.22a10.19,10.19,0,0,0,7.68-1.73,8.19,8.19,0,0,0,3.39-7.55,11.31,11.31,0,0,0-3.46-6c-3.43-3.49-8.17-6.18-12.86-5.2a5.12,5.12,0,0,0-2.21.94l3-1.1c2.74-2,2.3-5.86,1.25-9.21-.55-1.77-3.25-4.53-6.11-5.49-2.51-.85-5.38-.06-6,.62l-.33,3c.39-2.9.57-6.39-1.69-8.17a6.84,6.84,0,0,0-3.5-1.2c-5.52-.61-11,1.49-15.47,4.9a17.49,17.49,0,0,0-2.34,1.83c-2.86,3-4,5.21-3.89,10l3.93,1.66a11.07,11.07,0,0,0-3.26-1.21c-2.2-.55-4.75,1-6.5,2.45a28.62,28.62,0,0,0-2.12,2.8,8,8,0,0,0-1.81,5.69c.31,2,1.83,3.1,3.74,3.55a6.23,6.23,0,0,0,2.14-.41,16.52,16.52,0,0,0,2.52-1.43l-1.94,1.23c-1.36,1.22-1.81,3.75-1.71,5.26a6,6,0,0,0,1.88,4.16,8.28,8.28,0,0,0,6.87,1.57c2.43-.46,5.89-3.42,7.35-5.08"/><path class="cls-5" d="M74.55,175.21a4.7,4.7,0,0,0,3.33,4.69,9.59,9.59,0,0,0,6.53-.34A17.14,17.14,0,0,0,87.56,178a6.61,6.61,0,0,0,2.12-1.82,30,30,0,0,0,1.55-3.47c.14-.31-.21-.63-.46-.37a9.12,9.12,0,0,0-1.42,2.94,4.84,4.84,0,0,0,.25,3.39A5.52,5.52,0,0,0,92.36,181a12.29,12.29,0,0,0,3.58,1.2,21.49,21.49,0,0,0,7.23-.51c2.43-.43,5.27-1.47,6.67-3.75a5.58,5.58,0,0,0,.68-3.94,10.73,10.73,0,0,0-.74-3,.29.29,0,0,0-.52.24c.29,1.41.58,2.82.89,4.23a.32.32,0,0,0,.27.22,10.59,10.59,0,0,0,8-1.94,8.74,8.74,0,0,0,3.37-6.28c.13-2.84-1.46-5.27-3.29-7.21a19.74,19.74,0,0,0-7-4.93c-2.66-1.06-6.26-1.49-8.75.28-.25.19-.1.68.24.55,1.24-.45,2.78-.73,3.75-1.71,1.81-1.86,1.71-4.71,1.18-7.1a9,9,0,0,0-1.3-3.39,12.35,12.35,0,0,0-2.82-2.77,8.47,8.47,0,0,0-8-1.29c-.7.27-1,.47-1.13,1.22s-.19,1.74-.29,2.62c0,.34.53.42.57.08.33-2.51.62-5.57-1-7.69-1.84-2.37-5.59-2.31-8.26-2a22.63,22.63,0,0,0-9.19,3.15A22.51,22.51,0,0,0,69.75,143a12.67,12.67,0,0,0-2.2,8.16.3.3,0,0,0,.22.29c1.32.53,2.62,1.06,3.94,1.61.31.12.51-.39.24-.55a9.38,9.38,0,0,0-4.3-1.37,7.64,7.64,0,0,0-4,1.33,9.17,9.17,0,0,0-2.76,2.47,20.46,20.46,0,0,0-2.52,3.94c-1,2.38-.86,5.26,1.45,6.69a4.13,4.13,0,0,0,3.08.67,7.68,7.68,0,0,0,2.12-.75c.56-.31,1.06-.76,1.63-1-.1-.19-.2-.35-.29-.53a22,22,0,0,0-1.89,1.18,5,5,0,0,0-1.59,2.75c-.72,2.64-.26,5.7,1.9,7.43a8.38,8.38,0,0,0,8,1.08,19,19,0,0,0,6.4-4.81c.25-.29-.16-.72-.41-.43a19.88,19.88,0,0,1-5.38,4.3,7.92,7.92,0,0,1-7.61-.18c-2.43-1.49-3.05-4.53-2.31-7.22a4.13,4.13,0,0,1,1.63-2.57l1.58-1a.3.3,0,0,0-.29-.53,21.59,21.59,0,0,1-2.8,1.51,3.87,3.87,0,0,1-3.33-.35c-2.62-1.53-2.08-4.86-.72-7.16A13.94,13.94,0,0,1,63.84,153a7.47,7.47,0,0,1,3.67-1.33A8.71,8.71,0,0,1,71.67,153l.24-.55c-1.32-.53-2.63-1.06-4-1.61.08.1.14.2.21.28a12.41,12.41,0,0,1,1.48-6.87,18.72,18.72,0,0,1,5.54-5.39,24,24,0,0,1,7.92-3.69c2.7-.68,6.14-1,8.78.08,3.21,1.37,3,5.43,2.59,8.43l.56.08c.08-.8.18-1.57.26-2.37a2.26,2.26,0,0,1,.06-.53c0-.12.07,0,.07,0,.33-.41,1.29-.53,1.77-.63,3.44-.66,6.83,1.2,8.93,4a10.47,10.47,0,0,1,1.42,4.06,7.89,7.89,0,0,1-.35,4.59,3.61,3.61,0,0,1-2.22,2l-2.12.77c.08.19.16.37.23.55,2.76-2,6.77-1.08,9.55.33a19.24,19.24,0,0,1,7.25,6.41,7.54,7.54,0,0,1-.48,9.14c-2.26,2.69-5.72,3.47-9,3.06a3.42,3.42,0,0,1,.28.22c-.3-1.4-.59-2.81-.9-4.22l-.52.24a10.23,10.23,0,0,1,.64,2.7,5,5,0,0,1-1.56,4.77c-2.27,2-5.4,2.45-8.24,2.8a12.67,12.67,0,0,1-7.33-1c-1.69-.82-3-1.8-3-3.92a6.71,6.71,0,0,1,1.4-3.88l-.47-.36c-.47,1-.91,2.1-1.4,3.14-.7,1.43-2.57,2.3-3.91,2.94a10.7,10.7,0,0,1-5.79,1.16c-2.37-.27-4.55-1.69-4.49-4.43A.28.28,0,1,0,74.55,175.21Z"/></g></g></g></svg>