<svg xmlns="http://www.w3.org/2000/svg" viewBox="0 0 78.84 53.71"><g data-name="Layer 2"><g data-name="Layer 1"><path d="M56.08 48.38a4.18 4.18 0 0 1-.42 1.56c-.14.44-.17.64-1 1.48-1.66 1.66-4.32 1.7-6.66 1.44-2.78-.31-8.08-3.33-9.56-5.63L37 43.15a1.41 1.41 0 0 1 .39.74c.16.38.24.65.36 1s.2.74.33 1.19a2.65 2.65 0 0 1 .28 1.08 6 6 0 0 1-.9 3 5.25 5.25 0 0 1-2.4 1.61c-5.45 2.07-8.79 1-14.42-.58a14.41 14.41 0 0 1-5.37-3 6 6 0 0 1-1.66-2.46 5.29 5.29 0 0 1 .05-3.7 20.31 20.31 0 0 1 1.18-3l-1.62 4.57a13.17 13.17 0 0 1-9-3 8.88 8.88 0 0 1-3.1-8.87c.72-2.56 2.78-4.55 4.95-6.16 4.59-3.4 10.64-5.71 16.16-4a6.83 6.83 0 0 1 2.55 1.36l-3.48-1.65c-3.05-2.61-2-6.84-.3-10.4.9-1.9 4.51-4.59 8.07-5.26 3.13-.59 6.5.7 7.18 1.53v3.45c-.09-3.28.15-7.18 3.1-8.85a8.63 8.63 0 0 1 4.36-.84c6.73.11 13.1 3.21 18 7.63a20.81 20.81 0 0 1 2.57 2.37c3.06 3.75 4.17 6.35 3.38 11.67l-5 1.23a14.86 14.86 0 0 1 4.1-.89c2.72-.29 5.58 1.83 7.5 3.67A32.32 32.32 0 0 1 76.49 30c1.22 2 2.07 4.36 1.44 6.58S75.32 39.76 73 40a8.18 8.18 0 0 1-2.52-.76 20.44 20.44 0 0 1-2.85-2l2.18 1.64c1.48 1.55 1.67 4.44 1.37 6.11a6.52 6.52 0 0 1-2.81 4.37c-2.21 1.45-5.61 1.64-8.47.77s-6.64-4.65-8.19-6.7" fill="#fff"/><path d="M55.36 48.18c-1.26 6.58-9.69 3.76-13.36 1.29-2.73-1.83-3.25-3.56-4.28-6.52l-1.37.58c4.49 8.51-7.89 8.93-12.88 7.62-2.58-.68-5.82-1.44-7.67-3.53-2.34-2.63-1.67-5.7-.31-8.23l-1.37-.58c-.32.91-.78 3.52-1.46 4.12s-4.8-1-5.76-1.45a9.61 9.61 0 0 1-5-5.84c-2.69-10.28 15.57-16.78 22.52-12l.76-1.29a17.16 17.16 0 0 1-2.9-1.38c-4.12-3.15-1.5-9.59 1.72-12.07 2.21-1.71 9.3-4.67 11.52-1.43.39.57 0 2.47 0 3.18H37c-.2-15.96 18.56-6.77 25.1-.79 2.4 2.2 6.75 7.48 5 11.21.42.68.29 1-.4 1l-1.7.4-2.47.62.4 1.44c5.26-1.74 9.66.3 12.34 4.85 1.51 2.56 4.72 7.78-1.11 9.67-2.37.76-4.42-1.12-6.17-2.39-.78-.58-1.51.72-.75 1.29 4.73 3.55 4.46 11.18-3 11.89-5.13.49-9-3.14-12-6.88-.6-.75-1.66.32-1.06 1.06 4 5 11.28 10.44 17.72 5.93 5.18-3.63 3.36-10.1-.9-13.29L67.21 38c2.65 1.93 5.44 3.79 8.72 2 2.63-1.41 3.35-4.2 2.67-7-1.84-7.5-8.65-12.39-16.1-9.92a.75.75 0 0 0 .4 1.44l4.95-1.22a.78.78 0 0 0 .55-.73C69.58 12.68 61.58 5.63 53 2.13 49.2.58 43-1.18 39.07 1.06 35.68 3 35.45 7.11 35.49 10.6a.75.75 0 0 0 1.5 0c0-2.48.58-3.85-1.84-5-4-1.88-8.84-.58-12.18 2-2.88 2.25-4.89 6.53-4.29 10.25.55 3.46 2.88 4.35 5.71 5.7a.75.75 0 0 0 .76-1.29c-7.33-5-19.76-.1-23.89 7.22-4.67 8.28 4.64 14.6 12 14.81a.76.76 0 0 0 .72-.55l1.62-4.57c.29-.81-1-1.32-1.37-.58-4.74 8.82 3.53 13 11.28 14.56 7.28 1.43 16.81-1.65 12.18-10.42-.39-.74-1.66-.23-1.37.58 1.66 4.77 3.54 7.22 8.49 9.32 4.5 1.9 11 1.55 12-4.09.18-.94-1.27-1.35-1.45-.4z" fill="#0c0c0c"/></g></g></svg>