<svg xmlns="http://www.w3.org/2000/svg" viewBox="0 0 85.65 85.65"><g data-name="Layer 2"><g data-name="Layer 1"><path d="M76.54 79.65H9.11C7.4 79.65 6 76.64 6 73V12.7C6 9 7.4 6 9.11 6h67.43c1.71 0 3.11 3 3.11 6.7V73c0 3.64-1.4 6.65-3.11 6.65z" fill="#ff8360" stroke="#ff8360" stroke-miterlimit="10" stroke-width="12"/><path d="M22.53 68.49l-1.48-.28a1.5 1.5 0 0 0 2.63 1.24zm24-22l1.2-.9zm-4.69-3.94l.45-1.43zM45.27 33l1.15 1zM23.68 69.45c2.05-2.44 4.69-3.26 7.71-4.08s6.34-1.61 8.8-4.53l-2.3-1.93c-1.74 2.08-4.18 2.72-7.29 3.57s-6.5 1.8-9.22 5zm16.51-8.61c4.56-5.44 4-11.4.66-14.18L38.92 49c1.68 1.41 2.79 5.39-1 9.95zm.66-14.18a7.23 7.23 0 0 0-6.58-1 13.71 13.71 0 0 0-6.82 4.54l2.29 1.93a10.89 10.89 0 0 1 5.31-3.58 4.29 4.29 0 0 1 3.87.46zm-13.4 3.49c-1.67 2-3.05 5.51-4.1 8.87a87.9 87.9 0 0 0-2.3 9.19l2.95.55a83.73 83.73 0 0 1 2.21-8.85c1.06-3.38 2.3-6.36 3.53-7.83zm20.33-4.6a5.17 5.17 0 0 1-.63-1.07 5.56 5.56 0 0 0-.58-1.18A3.84 3.84 0 0 0 45 42.09a19.19 19.19 0 0 0-2.69-1l-.91 2.86a17.06 17.06 0 0 1 2.28.84 2.24 2.24 0 0 1 .36.21h.06a5.15 5.15 0 0 1 .26.61 7.68 7.68 0 0 0 1 1.71zm-5.44-4.47c-.17 0-.17-.09-.14 0s0 0 0-.06a4 4 0 0 1 .51-1.69 29.64 29.64 0 0 1 3.7-5.3l-2.29-1.93A32.38 32.38 0 0 0 40 38a6.73 6.73 0 0 0-.81 3.2 3.1 3.1 0 0 0 .63 1.71 3.23 3.23 0 0 0 1.59 1.06zM46.42 34A105.24 105.24 0 0 1 57 23.94a45.34 45.34 0 0 1 6.46-4.64 8.74 8.74 0 0 1 2.23-.92c.58-.12.62 0 .53-.06L68.11 16a3.51 3.51 0 0 0-3-.58A11.65 11.65 0 0 0 62 16.67a47.69 47.69 0 0 0-6.94 5 107.62 107.62 0 0 0-10.93 10.38zm19.77-15.68C66 18.14 66 18 66 18.19a3.56 3.56 0 0 1-.09 1 21.1 21.1 0 0 1-1.33 4 76.56 76.56 0 0 1-6 11.11 53.09 53.09 0 0 1-7.41 9.41 8.77 8.77 0 0 1-2.72 1.9 1 1 0 0 1-.5.07s-.07 0-.16-.13l-2.39 1.81a3.2 3.2 0 0 0 1.87 1.24 3.88 3.88 0 0 0 2.12-.15 11.23 11.23 0 0 0 3.83-2.55 55.73 55.73 0 0 0 7.88-10 79.08 79.08 0 0 0 6.28-11.57 23.81 23.81 0 0 0 1.52-4.6 6.42 6.42 0 0 0 .1-1.86 2.68 2.68 0 0 0-.9-1.85z"/></g></g></svg>