<svg xmlns="http://www.w3.org/2000/svg" xmlns:xlink="http://www.w3.org/1999/xlink" viewBox="0 0 1951.87 756.52"><defs><style>.cls-1,.cls-4,.cls-9{fill:none;}.cls-12,.cls-2{fill:#69c212;}.cls-2{stroke:#43720c;stroke-width:11px;}.cls-2,.cls-4,.cls-5,.cls-8,.cls-9{stroke-miterlimit:10;}.cls-3{fill:#43720c;}.cls-4{stroke:#963;stroke-width:9px;}.cls-5,.cls-6{fill:#a67d52;}.cls-5,.cls-8,.cls-9{stroke:#e5a450;stroke-width:5px;}.cls-7{fill:#e5a450;}.cls-8{fill:#a67e52;}.cls-10{fill:#7c5c3f;}.cls-11{fill:#e6a451;}.cls-13{clip-path:url(#clip-path);}.cls-14{fill:#fff;}.cls-15{fill:#606060;}.cls-16{clip-path:url(#clip-path-2);}.cls-17{clip-path:url(#clip-path-3);}.cls-18{clip-path:url(#clip-path-4);}.cls-19{clip-path:url(#clip-path-5);}</style><clipPath id="clip-path"><rect class="cls-1" x="1670.46" y="116.68" width="129.5" height="67.41"/></clipPath><clipPath id="clip-path-2"><rect class="cls-1" x="1484.89" y="27.66" width="189.58" height="89.89"/></clipPath><clipPath id="clip-path-3"><rect class="cls-1" x="1775.26" y="0.01" width="80.1" height="60.5"/></clipPath><clipPath id="clip-path-4"><rect class="cls-1" x="249.34" y="55.2" width="64.08" height="48.4"/></clipPath><clipPath id="clip-path-5"><rect class="cls-1" x="51.75" y="155.65" width="64.08" height="48.4"/></clipPath></defs><title>Asset 105</title><g id="Layer_2" data-name="Layer 2"><g id="Layer_1-2" data-name="Layer 1"><path class="cls-2" d="M1358.42,746.75C1202.94,555.86,975.47,433.53,737.6,375S251,317.81,7.37,342.71l.5,405.84H1945.93l.44-438.29c-298.82-31.79-580.46,139.07-875.48,196.56"/><path class="cls-3" d="M71.32,430.47A18,18,0,0,1,78,444.23a1.13,1.13,0,0,0,2.25,0,20.25,20.25,0,0,0-7.3-15.36c-1.11-.92-2.71.67-1.59,1.6Z"/><path class="cls-3" d="M80.06,444.49a30.84,30.84,0,0,1,6-11.36c.92-1.1-.66-2.7-1.59-1.59a33.44,33.44,0,0,0-6.54,12.35,1.13,1.13,0,0,0,2.17.6Z"/><path class="cls-3" d="M79.14,430.13a34.65,34.65,0,0,1-.78,8.56c-.31,1.41,1.86,2,2.17.59a37.47,37.47,0,0,0,.86-9.15c0-1.44-2.3-1.45-2.25,0Z"/><path class="cls-3" d="M1836.32,405.47a18,18,0,0,1,6.64,13.76,1.13,1.13,0,0,0,2.25,0,20.25,20.25,0,0,0-7.3-15.36c-1.11-.92-2.71.67-1.59,1.6Z"/><path class="cls-3" d="M1845.06,419.49a30.84,30.84,0,0,1,6-11.36c.92-1.1-.66-2.7-1.59-1.59a33.44,33.44,0,0,0-6.54,12.35,1.13,1.13,0,0,0,2.17.6Z"/><path class="cls-3" d="M1844.14,405.13a34.65,34.65,0,0,1-.78,8.56c-.31,1.41,1.86,2,2.17.59a37.47,37.47,0,0,0,.86-9.15c-.05-1.44-2.3-1.45-2.25,0Z"/><path class="cls-3" d="M596.32,649.47A18,18,0,0,1,603,663.23a1.13,1.13,0,0,0,2.25,0,20.25,20.25,0,0,0-7.3-15.36c-1.11-.92-2.71.67-1.59,1.6Z"/><path class="cls-3" d="M605.06,663.49a30.84,30.84,0,0,1,6-11.36c.92-1.1-.66-2.7-1.59-1.59a33.44,33.44,0,0,0-6.54,12.35,1.13,1.13,0,0,0,2.17.6Z"/><path class="cls-3" d="M604.14,649.13a34.65,34.65,0,0,1-.78,8.56c-.31,1.41,1.86,2,2.17.59a37.47,37.47,0,0,0,.86-9.15c0-1.44-2.3-1.45-2.25,0Z"/><path class="cls-3" d="M436.32,390.47A18,18,0,0,1,443,404.23a1.13,1.13,0,0,0,2.25,0,20.25,20.25,0,0,0-7.3-15.36c-1.11-.92-2.71.67-1.59,1.6Z"/><path class="cls-3" d="M445.06,404.49a30.84,30.84,0,0,1,6-11.36c.92-1.1-.66-2.7-1.59-1.59a33.44,33.44,0,0,0-6.54,12.35,1.13,1.13,0,0,0,2.17.6Z"/><path class="cls-3" d="M444.14,390.13a34.65,34.65,0,0,1-.78,8.56c-.31,1.41,1.86,2,2.17.59a37.47,37.47,0,0,0,.86-9.15c-.05-1.44-2.3-1.45-2.25,0Z"/><path class="cls-3" d="M255.32,590.47A18,18,0,0,1,262,604.23a1.13,1.13,0,0,0,2.25,0,20.25,20.25,0,0,0-7.3-15.36c-1.11-.92-2.71.67-1.59,1.6Z"/><path class="cls-3" d="M264.06,604.49a30.84,30.84,0,0,1,6-11.36c.92-1.1-.66-2.7-1.59-1.59a33.44,33.44,0,0,0-6.54,12.35,1.13,1.13,0,0,0,2.17.6Z"/><path class="cls-3" d="M263.14,590.13a34.65,34.65,0,0,1-.78,8.56c-.31,1.41,1.86,2,2.17.59a37.47,37.47,0,0,0,.86-9.15c-.05-1.44-2.3-1.45-2.25,0Z"/><path class="cls-3" d="M727.32,497.47A18,18,0,0,1,734,511.23a1.13,1.13,0,0,0,2.25,0,20.25,20.25,0,0,0-7.3-15.36c-1.11-.92-2.71.67-1.59,1.6Z"/><path class="cls-3" d="M736.06,511.49a30.84,30.84,0,0,1,6-11.36c.92-1.1-.66-2.7-1.59-1.59a33.44,33.44,0,0,0-6.54,12.35,1.13,1.13,0,0,0,2.17.6Z"/><path class="cls-3" d="M735.14,497.13a34.65,34.65,0,0,1-.78,8.56c-.31,1.41,1.86,2,2.17.59a37.47,37.47,0,0,0,.86-9.15c0-1.44-2.3-1.45-2.25,0Z"/><path class="cls-3" d="M1313.32,590.47a18,18,0,0,1,6.64,13.76,1.13,1.13,0,0,0,2.25,0,20.25,20.25,0,0,0-7.3-15.36c-1.11-.92-2.71.67-1.59,1.6Z"/><path class="cls-3" d="M1322.06,604.49a30.84,30.84,0,0,1,6-11.36c.92-1.1-.66-2.7-1.59-1.59a33.44,33.44,0,0,0-6.54,12.35,1.13,1.13,0,0,0,2.17.6Z"/><path class="cls-3" d="M1321.14,590.13a34.65,34.65,0,0,1-.78,8.56c-.31,1.41,1.86,2,2.17.59a37.47,37.47,0,0,0,.86-9.15c-.05-1.44-2.3-1.45-2.25,0Z"/><path class="cls-3" d="M969.32,663.47A18,18,0,0,1,976,677.23a1.13,1.13,0,0,0,2.25,0,20.25,20.25,0,0,0-7.3-15.36c-1.11-.92-2.71.67-1.59,1.6Z"/><path class="cls-3" d="M978.06,677.49a30.84,30.84,0,0,1,6-11.36c.92-1.1-.66-2.7-1.59-1.59a33.44,33.44,0,0,0-6.54,12.35,1.13,1.13,0,0,0,2.17.6Z"/><path class="cls-3" d="M977.14,663.13a34.65,34.65,0,0,1-.78,8.56c-.31,1.41,1.86,2,2.17.59a37.47,37.47,0,0,0,.86-9.15c0-1.44-2.3-1.45-2.25,0Z"/><path class="cls-3" d="M1702.32,656.47a18,18,0,0,1,6.64,13.76,1.13,1.13,0,0,0,2.25,0,20.25,20.25,0,0,0-7.3-15.36c-1.11-.92-2.71.67-1.59,1.6Z"/><path class="cls-3" d="M1711.06,670.49a30.84,30.84,0,0,1,6-11.36c.92-1.1-.66-2.7-1.59-1.59a33.44,33.44,0,0,0-6.54,12.35,1.13,1.13,0,0,0,2.17.6Z"/><path class="cls-3" d="M1710.14,656.13a34.65,34.65,0,0,1-.78,8.56c-.31,1.41,1.86,2,2.17.59a37.47,37.47,0,0,0,.86-9.15c-.05-1.44-2.3-1.45-2.25,0Z"/><path class="cls-3" d="M1096.32,583.47a18,18,0,0,1,6.64,13.76,1.13,1.13,0,0,0,2.25,0,20.25,20.25,0,0,0-7.3-15.36c-1.11-.92-2.71.67-1.59,1.6Z"/><path class="cls-3" d="M1105.06,597.49a30.84,30.84,0,0,1,6-11.36c.92-1.1-.66-2.7-1.59-1.59a33.44,33.44,0,0,0-6.54,12.35,1.13,1.13,0,0,0,2.17.6Z"/><path class="cls-3" d="M1104.14,583.13a34.65,34.65,0,0,1-.78,8.56c-.31,1.41,1.86,2,2.17.59a37.47,37.47,0,0,0,.86-9.15c-.05-1.44-2.3-1.45-2.25,0Z"/><path class="cls-3" d="M1829.32,570.47a18,18,0,0,1,6.64,13.76,1.13,1.13,0,0,0,2.25,0,20.25,20.25,0,0,0-7.3-15.36c-1.11-.92-2.71.67-1.59,1.6Z"/><path class="cls-3" d="M1838.06,584.49a30.84,30.84,0,0,1,6-11.36c.92-1.1-.66-2.7-1.59-1.59a33.44,33.44,0,0,0-6.54,12.35,1.13,1.13,0,0,0,2.17.6Z"/><path class="cls-3" d="M1837.14,570.13a34.65,34.65,0,0,1-.78,8.56c-.31,1.41,1.86,2,2.17.59a37.47,37.47,0,0,0,.86-9.15c-.05-1.44-2.3-1.45-2.25,0Z"/><path class="cls-3" d="M1543.32,473.47a18,18,0,0,1,6.64,13.76,1.13,1.13,0,0,0,2.25,0,20.25,20.25,0,0,0-7.3-15.36c-1.11-.92-2.71.67-1.59,1.6Z"/><path class="cls-3" d="M1552.06,487.49a30.84,30.84,0,0,1,6-11.36c.92-1.1-.66-2.7-1.59-1.59a33.44,33.44,0,0,0-6.54,12.35,1.13,1.13,0,0,0,2.17.6Z"/><path class="cls-3" d="M1551.14,473.13a34.65,34.65,0,0,1-.78,8.56c-.31,1.41,1.86,2,2.17.59a37.47,37.47,0,0,0,.86-9.15c-.05-1.44-2.3-1.45-2.25,0Z"/><path class="cls-4" d="M27.27,287.19l5.27,60.72"/><path class="cls-4" d="M87.36,284.39l3.52,60.82"/><path class="cls-4" d="M88.48,303.8l-58,3"/><path class="cls-4" d="M90,329,31.9,331.89"/><path class="cls-4" d="M146,282.9l4,60.76"/><path class="cls-4" d="M147.56,303.88,89.4,305"/><path class="cls-4" d="M148.56,329.09l-58.17,1.06"/><path class="cls-4" d="M205.89,282.78l2.74,61.16"/><path class="cls-4" d="M206.79,302.32l-58.48.52"/><path class="cls-4" d="M207.91,327.65l-58.49.44"/><path class="cls-4" d="M263.74,280.71l3.08,61"/><path class="cls-4" d="M264,298.64l-58.55,3.1"/><path class="cls-4" d="M266.72,323.75l-58.55,3.1"/><path class="cls-4" d="M320,279.17l5.4,60.33"/><path class="cls-4" d="M321.82,298.77l-58.79.3"/><path class="cls-4" d="M324.28,323.7l-58.81.22"/><path class="cls-4" d="M379.56,297.13l-59.24,1.3"/><path class="cls-4" d="M382.81,322.07l-59.23,1.3"/><path class="cls-4" d="M28.48,306.82l-28,3"/><path class="cls-4" d="M30.17,331.65,2.1,334.55"/><path class="cls-4" d="M378.87,277.89l-2.29,60.91"/><path class="cls-4" d="M438.84,282.55l-4,60.79"/><path class="cls-4" d="M437.55,302l-57.93-4.2"/><path class="cls-4" d="M435.92,327.11l-58-4.29"/><path class="cls-4" d="M497.2,288.33l-3.54,60.79"/><path class="cls-4" d="M496.17,309.34l-57.86-6.07"/><path class="cls-4" d="M494,334.49l-57.86-6.16"/><path class="cls-4" d="M556.66,295.62l-4.85,61"/><path class="cls-4" d="M555.14,315.13,497,308.4"/><path class="cls-4" d="M553.11,340.4,495,333.6"/><path class="cls-4" d="M616.7,303.68l-7,60.68"/><path class="cls-4" d="M614,321.4l-58.26-6.57"/><path class="cls-4" d="M612.55,346.62l-58.25-6.57"/><path class="cls-4" d="M674.77,314.56l-7.34,60.13"/><path class="cls-4" d="M672.5,334.12l-57.56-12"/><path class="cls-4" d="M669.69,359l-57.55-12.08"/><path class="cls-4" d="M729.3,344.6l-58.2-11.12"/><path class="cls-4" d="M727.27,369.66l-58.2-11.11"/><path class="cls-4" d="M734.34,327,720.4,386.34"/><path class="cls-4" d="M792.3,343.11,776.67,402"/><path class="cls-4" d="M787.31,361.89l-56-15.25"/><path class="cls-4" d="M780.88,386.27l-56.09-15.35"/><path class="cls-4" d="M848.46,360l-15.15,59"/><path class="cls-4" d="M843.42,380.41l-55.61-17.07"/><path class="cls-4" d="M836.49,404.67,780.9,387.52"/><path class="cls-4" d="M905.42,378.57l-16.49,59"/><path class="cls-4" d="M900.18,397.42l-55.73-17.76"/><path class="cls-4" d="M893.33,421.83,837.63,404"/><path class="cls-4" d="M964.22,401.8,942.73,459"/><path class="cls-4" d="M957.27,418.33l-54.93-20.51"/><path class="cls-4" d="M949.79,442.46,894.86,422"/><path class="cls-4" d="M1019.11,426.76l-23.4,55.87"/><path class="cls-4" d="M1011.61,445l-52.12-27.19"/><path class="cls-4" d="M1002.15,468.16,950,440.89"/><path class="cls-4" d="M1063.43,470.48l-53-26.51"/><path class="cls-4" d="M1054.66,494.05l-53-26.51"/><path class="cls-4" d="M1060.75,447.83l-8,60.05"/><path class="cls-4" d="M1103.48,476.16l-46.61-9.45"/><path class="cls-4" d="M1100.36,501l-45.8-9.28"/><path class="cls-4" d="M1398.61,425.9,1374.26,370"/><path class="cls-4" d="M1342.54,447.7l-22.71-56.52"/><path class="cls-4" d="M1335.3,429.66l54-21.33"/><path class="cls-4" d="M1325.86,406.28,1380,385"/><path class="cls-4" d="M1287.45,467.79l-23.16-56.31"/><path class="cls-4" d="M1279.27,448.42,1334,428.8"/><path class="cls-4" d="M1270.29,424.83l54.8-19.54"/><path class="cls-4" d="M1230.7,487l-22.08-57.1"/><path class="cls-4" d="M1223.62,468.77l55.27-19.13"/><path class="cls-4" d="M1214.49,445.11l55.3-19.05"/><path class="cls-4" d="M1170.63,508l-16.4-58.83"/><path class="cls-4" d="M1167,492.2l55.42-19.15"/><path class="cls-4" d="M1158.23,465.28l55.35-19.34"/><path class="cls-4" d="M1103.18,517.87l1.26-60.56"/><path class="cls-4" d="M1105.45,501.22l59.86-11"/><path class="cls-4" d="M1100.69,476.74l57.86-10.51"/><path class="cls-4" d="M1431.07,348.72l19.55,57.69"/><path class="cls-4" d="M1437.31,367.13l-55.12,18.3"/><path class="cls-4" d="M1445.43,391l-55.2,18.25"/><path class="cls-4" d="M1487.19,331.7l20,57.51"/><path class="cls-4" d="M1494.29,351.5l-55.77,16.55"/><path class="cls-4" d="M1502,375.55,1446.15,392"/><path class="cls-4" d="M1544.92,315.66l18.89,58.24"/><path class="cls-4" d="M1551,334.26l-56.25,16"/><path class="cls-4" d="M1558.78,358.39l-56.27,16"/><path class="cls-4" d="M1600.13,298.3l19.18,58"/><path class="cls-4" d="M1605.1,315.52l-55.62,18.55"/><path class="cls-4" d="M1614.44,339l-55.62,18.55"/><path class="cls-4" d="M1659.05,281.46l19,57.52"/><path class="cls-4" d="M1665.33,300.12l-57.17,13.68"/><path class="cls-4" d="M1673.41,323.83l-57.21,13.61"/><path class="cls-4" d="M1721.18,285.37l-57.38,14.76"/><path class="cls-4" d="M1730,308.91l-57.38,14.76"/><path class="cls-4" d="M1721,265.91l6.93,60.46"/><path class="cls-4" d="M1781.83,261.29l5.16,60.6"/><path class="cls-4" d="M1783.47,280.63l-58.7,4.76"/><path class="cls-4" d="M1785.64,305.7l-58.77,4.69"/><path class="cls-4" d="M1841.2,258l5.65,60.53"/><path class="cls-4" d="M1843.35,278.9l-58.92,2.91"/><path class="cls-4" d="M1845,304l-58.93,2.83"/><path class="cls-4" d="M1901.91,256.06l4.37,61"/><path class="cls-4" d="M1903.33,275.55l-59.25,2.3"/><path class="cls-4" d="M1905.13,300.8,1845.86,303"/><path class="cls-4" d="M1947.24,272.69l-43.39,2.47"/><path class="cls-4" d="M1949.65,297.79l-43.39,2.48"/><path class="cls-5" d="M763.75,451.46,620.4,499l-19.76-60.42.41,1.37,106.6-30.18.13-.35c12.42-3,25.53,3.91,37.45,10.63a43.51,43.51,0,0,1,7.78,5.18,32.12,32.12,0,0,1,6,7c5,8.07,7.07,16.72,7,18Z"/><line class="cls-5" x1="577.49" y1="477.16" x2="654.15" y2="484.19"/><polyline class="cls-5" points="575.45 477.09 585.44 542.74 667.62 563.71 652.18 484.54"/><path class="cls-6" d="M575.45,477.09a30,30,0,0,1,.25-11.58c.53-2.14,1.15-4.54,1.53-6.26a13.21,13.21,0,0,1,2.68-4.69c1-1.29,3.34-3.72,4.29-5,1.39-1.95,8.51-6.27,9.19-6.67,5.42-3.21,11.38-3.64,17.68-3.54,4.77.07,24.91,14,31.27,24.59,3.11,5.19,7.09,11.7,10,18.94"/><path class="cls-7" d="M578.35,476.29a28,28,0,0,1,9.92-26.47c6.36-5,15.83-9.7,24.05-7.13,7.23,2.25,14.46,8.85,19.82,13.9,7.8,7.34,13.22,17.22,17.31,27,1.46,3.52,7.27,2,5.79-1.59-4.8-11.52-11-22.64-20.32-31a99.65,99.65,0,0,0-13.36-10.13c-3-1.89-6.45-4.11-10.07-4.53-10.3-1.19-21.7,3.22-29,10.57-3.13,3.15-6.82,7.27-8.16,11.54-2,6.28-3,12.92-1.78,19.44.69,3.79,6.47,2.18,5.79-1.6Z"/><polygon class="cls-8" points="764.47 443.41 654.17 482.53 669.49 562.92 670.67 564.05 775.71 508.52 775.64 508.11 764.47 443.41"/><line class="cls-9" x1="652.34" y1="482.84" x2="575.45" y2="477.09"/><path class="cls-10" d="M661.25,505.56c17.31-6.85,33.74-15,50.17-23.72,9-4.77,19.27-5.31,28.84-8.47,8.59-2.84,17.11-6,25.6-9.12.45-.17.26-.89-.2-.72-8.49,3.11-17,6.28-25.6,9.11s-17.71,3.3-25.83,7c-8.47,3.83-16.42,8.89-24.81,12.92-9.3,4.46-18.78,8.52-28.37,12.32-.45.18-.25.9.2.72Z"/><path class="cls-10" d="M665.62,527.17c7.26-4.39,14.42-9.19,22.19-12.66,8.75-3.92,17.94-7,26.91-10.33Q741.9,494,769.08,483.76c.45-.17.25-.9-.2-.73q-28.12,10.5-56.21,21.12c-8.15,3.06-16.46,5.87-24.45,9.36s-15.46,8.47-23,13a.37.37,0,0,0,.38.64Z"/><path class="cls-10" d="M669.35,547.35a278.79,278.79,0,0,0,50.11-21.63c16.82-9.35,33-22.65,52.13-26.81.47-.11.27-.83-.2-.73-18.1,3.94-33.41,16.1-49.18,25.12a277.08,277.08,0,0,1-53.06,23.32c-.46.15-.26.87.2.73Z"/><path class="cls-10" d="M667.45,538.18c6.15-3.58,12.74-5.38,19.19-8.19,6.18-2.7,11.94-6.64,18.05-9.57.26-.13,0-.52-.23-.39-6.55,3.15-12.8,7.6-19.56,10.16-6.15,2.32-11.95,4.27-17.68,7.6a.23.23,0,0,0,.23.39Z"/><path class="cls-10" d="M714.06,509.85a68.29,68.29,0,0,0,29.34-9.46.23.23,0,0,0-.23-.39,67.57,67.57,0,0,1-29.11,9.4c-.28,0-.28.47,0,.45Z"/><path class="cls-10" d="M741.66,506.06c7.38-2.44,14.43-6.12,21.51-9.28.27-.12,0-.51-.22-.39-7,3.14-14.08,6.82-21.41,9.24-.27.09-.15.52.12.43Z"/><path class="cls-10" d="M736.91,485.21c8.34-5.36,19.06-4,27.76-8.89.25-.14,0-.53-.23-.39-8.72,4.86-19.4,3.52-27.76,8.89-.24.16,0,.55.23.39Z"/><path class="cls-10" d="M737.2,490.45c-10.94.81-20.62,2.17-30.89,6.45-7.25,3-13.16,7.68-20.09,11.18-7.28,3.67-16,3.08-22.63,8.18-.22.18,0,.57.23.39,6.25-4.81,14.25-4.4,21.22-7.51S697.86,501,704.93,498c10.67-4.62,20.82-6.23,32.27-7.08.29,0,.29-.47,0-.45Z"/><path class="cls-10" d="M667.91,508c19.82-3.87,34.87-19.44,54.76-23.1.28-.05.16-.49-.12-.43-19.9,3.65-34.94,19.23-54.76,23.1-.29.05-.17.49.12.43Z"/><path class="cls-10" d="M662.27,494.64c7.69-7,17.29-8.44,26.51-12.38,8.44-3.6,16.68-7.75,25-11.65.27-.12,0-.51-.22-.39-9.51,4.47-19,9.57-28.84,13.19-8.28,3-16.05,4.84-22.76,10.92-.21.19.1.51.32.31Z"/><path class="cls-10" d="M713.27,475.62a129.06,129.06,0,0,0,20.44-6.19c.26-.11.15-.55-.12-.44a130.15,130.15,0,0,1-20.44,6.2c-.28.06-.16.49.12.43Z"/><path class="cls-10" d="M733.58,465.05c6.19-6.34,15.74-5.56,23.65-8.57.27-.1.15-.54-.12-.44-8.1,3.09-17.45,2.14-23.84,8.7a.22.22,0,0,0,.31.31Z"/><path class="cls-10" d="M751,465.23q7.29-1.65,14.4-3.88c.27-.09.15-.52-.12-.43q-7.12,2.22-14.4,3.88c-.28.06-.16.5.12.43Z"/><path class="cls-10" d="M678.14,550.94l24.13-11.27c.26-.12,0-.51-.23-.39l-24.13,11.27c-.26.13,0,.51.23.39Z"/><path class="cls-10" d="M720.85,533c3.08-6.25,10.93-6.92,15.68-11.39.21-.2-.11-.52-.32-.32-4.79,4.52-12.64,5.16-15.75,11.48-.12.26.27.49.39.23Z"/><path class="cls-10" d="M742.7,517.39c9.13-1.9,17.82-8.69,25.72-13.38a.23.23,0,0,0-.23-.39c-7.76,4.61-16.63,11.47-25.61,13.33-.28.06-.16.49.12.44Z"/><path class="cls-10" d="M662.17,546.42l-75.84-15.91c-.47-.1-.67.62-.2.72L662,547.14c.47.1.67-.62.19-.72Z"/><path class="cls-10" d="M657.25,525.47c-6.58.11-13.17.37-19.74.26-6.82-.11-12.55-1.93-18.93-4-11.24-3.7-23.36-3.29-34.58-7.11-.46-.16-.66.57-.2.72,11.74,4,24.43,3.54,36.15,7.66,12.32,4.32,24.39,3.46,37.3,3.25a.38.38,0,0,0,0-.75Z"/><path class="cls-10" d="M652.68,502.59a86.7,86.7,0,0,1-39.62-1.36c-10.62-2.88-20.84-6.91-32-5.5-.47.06-.48.81,0,.75,13-1.64,24.72,4.15,37.16,6.77a86.82,86.82,0,0,0,34.7.06c.47-.09.27-.81-.2-.72Z"/><path class="cls-10" d="M615.79,492.1c10.67-3,21.37.51,32.16.52a.23.23,0,0,0,0-.45c-10.84,0-21.58-3.55-32.28-.5a.22.22,0,0,0,.12.43Z"/><path class="cls-10" d="M580.9,486.57c8.88-2.66,18.2-1.62,27.32-1.2.29,0,.29-.44,0-.45-9.17-.43-18.52-1.45-27.44,1.22a.22.22,0,0,0,.12.43Z"/><path class="cls-10" d="M652.68,517.67a39.94,39.94,0,0,1-17.44.44c-.28-.05-.4.38-.12.44a40.88,40.88,0,0,0,17.68-.44.23.23,0,0,0-.12-.44Z"/><path class="cls-10" d="M585.21,523.79c5.28-1.43,10-2.23,15.12.15a39.84,39.84,0,0,0,6.64,2.75c5.68,1.49,11.63,1.06,17.42.63.29,0,.29-.47,0-.45-8.16.6-15.63.65-23.16-3-5.57-2.68-10.25-2.14-16.13-.55a.23.23,0,0,0,.11.44Z"/><path class="cls-10" d="M604.84,532c6.89-2.47,14.85.55,22,.87,7.94.36,15.95.27,23.89.11a.23.23,0,0,0,0-.45c-8.52.17-17.14.34-25.65-.2-6.68-.42-13.8-3.11-20.35-.76-.27.1-.15.53.12.43Z"/><path class="cls-10" d="M649,537.41a89,89,0,0,1,9.33-1.42c.28,0,.28-.48,0-.45a88.7,88.7,0,0,0-9.45,1.44c-.28.06-.16.49.12.43Z"/><path class="cls-10" d="M624.67,546c-6.91,1.68-12.66-1.78-18.86-4.27-5.34-2.15-10.82-2-16.28-3.5a.23.23,0,0,0-.12.44,54.26,54.26,0,0,0,8,1.32c4.76.62,8.83,2.48,13.2,4.34,4.66,2,9.16,3.32,14.18,2.11.28-.07.16-.51-.12-.44Z"/><path class="cls-10" d="M639,546.86a51.28,51.28,0,0,1,11.32,1.4c3.69,1,6.33,3.46,9.75,4.94.26.12.49-.27.22-.39-3.46-1.5-6.13-3.94-9.85-5A51.84,51.84,0,0,0,639,546.41c-.29,0-.29.44,0,.45Z"/><path class="cls-10" d="M582.08,505.34c7.26-.65,14.17,1,20.84,3.83a62.47,62.47,0,0,0,6.52,2.81c2.71.79,5.51.34,8,1.95.25.15.47-.24.23-.39a10.83,10.83,0,0,0-4.91-1.46c-3.89-.52-6.95-2.23-10.53-3.69-6.5-2.66-13.14-4.13-20.16-3.5-.29,0-.29.47,0,.45Z"/><path class="cls-10" d="M614.24,509.56c6-1.91,14.11.68,20.24,1.57.29,0,.41-.4.12-.44-6.26-.9-14.25-3.55-20.48-1.56-.28.08-.16.52.12.43Z"/><path class="cls-10" d="M638.56,465.8c-9.94.76-19.62-1.94-29.44-3.05a162.33,162.33,0,0,0-29.9-.51c-.48,0-.48.79,0,.75a162.33,162.33,0,0,1,29.9.51c9.82,1.11,19.49,3.81,29.44,3.05.48,0,.49-.79,0-.75Z"/><path class="cls-10" d="M591.58,454.55c5.44-1.34,11.23,2.52,16.68,3.28a38.44,38.44,0,0,0,11.63-.28c.29-.05.17-.48-.12-.43a36.32,36.32,0,0,1-18.29-1.4c-3.82-1.37-5.94-2.6-10-1.6a.22.22,0,0,0,.12.43Z"/><path class="cls-10" d="M605.85,448.27a25.27,25.27,0,0,1,9.33-.5c.29,0,.28-.41,0-.45a25.49,25.49,0,0,0-9.45.52.22.22,0,0,0,.12.43Z"/><path class="cls-10" d="M640.41,474c-11.24-.31-22.73,0-33.9-1.38-.29,0-.29.41,0,.45,11.17,1.36,22.66,1.07,33.9,1.38.29,0,.29-.44,0-.45Z"/><path class="cls-10" d="M581.77,469.63c6.25-.77,14.28-3.08,20.2-.23.26.12.49-.26.23-.39-6.13-2.95-14-.62-20.43.17-.28,0-.28.48,0,.45Z"/><path class="cls-10" d="M648.45,468.18c17.2-4.91,33.71-11.77,50.08-18.92,9-3.93,18-7.94,27-11.72,8.12-3.38,16.41-7.26,25.16-8.58.47-.07.27-.79-.2-.72-8.75,1.32-17,5.2-25.16,8.58s-15.91,6.83-23.84,10.31c-17.43,7.64-34.95,15.09-53.28,20.32a.38.38,0,0,0,.2.73Z"/><path class="cls-10" d="M634.54,449.91l52.4-15.11c15.76-4.55,30.72-12.32,45.81-18.72.45-.19.06-.83-.38-.65-15.67,6.65-31.17,14.48-47.54,19.2l-50.49,14.55a.38.38,0,0,0,.2.73Z"/><path class="cls-10" d="M712,412.12a64.85,64.85,0,0,1-11.3,4.87c-2.64.84-5.13,1.25-7.39,2.89-2.55,1.83-4.66,4.13-7.44,5.7a69.62,69.62,0,0,1-11.71,4.85c-.27.09-.15.53.12.43,6.17-2.13,11.9-4.42,17-8.56,4-3.21,7.18-4,11.87-5.66a66.7,66.7,0,0,0,9.06-4.14c.26-.13,0-.52-.22-.38Z"/><path class="cls-10" d="M696.7,426.05c2.43-.16,4.58-1.17,6.82-2.07l8.67-3.48c.27-.11.15-.54-.12-.44l-7.58,3.05c-2.53,1-5,2.3-7.79,2.49-.29,0-.29.47,0,.45Z"/><path class="cls-10" d="M637,439.23c9.31-3.16,18.58-5.85,26.77-11.44.24-.16,0-.55-.23-.39-8.15,5.57-17.4,8.26-26.66,11.39-.27.1-.15.53.12.44Z"/><path class="cls-10" d="M630.46,446.77a117.7,117.7,0,0,0,29.32-9.13c.26-.12,0-.51-.23-.39a117.23,117.23,0,0,1-29.21,9.09c-.28.05-.16.48.12.43Z"/><path class="cls-10" d="M639.83,455.47c11.52-5.65,25.1-4.41,36.33-10.81a.22.22,0,0,0-.22-.39c-11.24,6.4-24.81,5.17-36.34,10.81-.26.13,0,.52.23.39Z"/><path class="cls-10" d="M662.73,456.38a58,58,0,0,1,14.48-5.19c4-.84,7.21-1.28,10.56-3.8,8.33-6.27,17.84-9.65,27.43-13.68.26-.12.14-.55-.12-.44-8,3.38-17.77,6-24.7,11.42-2.2,1.71-4.15,3.53-6.78,4.55s-5.45,1.23-8.18,1.89A58.79,58.79,0,0,0,662.51,456c-.26.13,0,.52.22.39Z"/><path class="cls-10" d="M703.81,434.78l29.47-14.59c.26-.13,0-.52-.23-.39l-29.47,14.59c-.26.12,0,.51.23.39Z"/><path class="cls-10" d="M657.27,473.17c5-2.49,9.7-3.75,15-5.19,4.16-1.14,7.92-3.66,11.69-5.68.25-.14,0-.53-.23-.39-5,2.67-9.5,5.16-15.07,6.36A48.36,48.36,0,0,0,657,472.78c-.26.13,0,.52.23.39Z"/><path class="cls-10" d="M699.14,460.35c7.59-3.71,16.55-4.88,23.39-10,.23-.17,0-.56-.23-.39-6.81,5.08-15.81,6.28-23.39,10-.26.12,0,.51.23.39Z"/><path class="cls-10" d="M728.4,441.85c4.72-.86,9.58-1.32,14.25-2.36,4-.87,7-2.79,10.14-5.22.23-.18,0-.57-.22-.39-7.35,5.6-15.48,5.93-24.29,7.54-.28.05-.16.48.12.43Z"/><path class="cls-10" d="M712.5,448.31a46.9,46.9,0,0,0,10.7-3.57c.26-.12,0-.51-.23-.39a45.44,45.44,0,0,1-10.59,3.52c-.28.06-.16.49.12.44Z"/><path class="cls-11" d="M703.38,466.68a18,18,0,0,0-.44,7.75,2.77,2.77,0,0,0,.56,1.44,2.54,2.54,0,0,0,1.33.63c4,.9,8.57-.44,11.88,1.93,2.25,1.62,3.55,4.78,6.29,5.24-.69-3.19-1.29-6.85.69-9.43.58-.76,1.34-1.36,2-2.08a9.63,9.63,0,0,0,1.57-2.68c1.56-3.83,1.09-8.89-2.32-11.2Z"/><path class="cls-7" d="M701.93,466.29c-1.13,4.86-1.95,10.87,4,11.9,4.31.74,7.84-.45,11.46,3,1.77,1.67,2.79,3.19,5.2,3.95a1.51,1.51,0,0,0,1.84-1.84c-.38-1.91-1-4.27-.43-6.19.67-2.49,1.88-2.51,2.94-4.16a14.31,14.31,0,0,0,2.44-5.66,10.36,10.36,0,0,0-3.42-10,1.52,1.52,0,0,0-1.46-.39L703,465.24c-1.78.69-1,3.59.8,2.89L722.1,461c.65-.25,2.26-1.26,3-1.16-.76-.1,1.12,2.74,1.1,2.71a9,9,0,0,1-.47,6.49c-1.21,2.74-3.84,4.28-4.61,7.27-.65,2.54-.08,5.29.43,7.78l1.85-1.84c-3.66-1.16-5-5.37-9-6.41a35.69,35.69,0,0,0-4.95-.43c-5.71-.7-5.69-3.76-4.64-8.3C705.26,465.21,702.37,464.4,701.93,466.29Z"/><path d="M716.31,467,721.7,474l-5.33,1.83Z"/><ellipse cx="716.94" cy="468.81" rx="1.98" ry="1.9" transform="translate(-113.3 257.9) rotate(-18.93)"/><path class="cls-5" d="M1382.45,536.35l130.14-5.53L1510,476.06l.09,1.23-95.19,8.3-.21-.24c-10.94,1.36-19.39,11-26.94,20a36.69,36.69,0,0,0-4.68,6.55,27.81,27.81,0,0,0-2.72,7.47c-1.54,8-.57,15.65-.15,16.67Z"/><line class="cls-5" x1="1540.49" y1="500.05" x2="1480.84" y2="529.18"/><polyline class="cls-5" points="1542.11 499.37 1554.16 555.36 1494.32 597.42 1482.53 528.86"/><path class="cls-6" d="M1542.11,499.37a25.6,25.6,0,0,0-3.74-9.26c-1.08-1.57-2.32-3.32-3.15-4.58a11.17,11.17,0,0,0-3.6-3c-1.19-.74-3.83-2-5-2.76-1.72-1.14-8.78-2.44-9.45-2.56-5.35-.93-10.29.55-15.34,2.56-3.82,1.52-15.8,18.9-17.68,29.4a115.72,115.72,0,0,0-2.27,18.33"/><path class="cls-7" d="M1545,498.57c-1.91-9.92-8.53-17.46-17.47-21.66-8.16-3.84-19.51-4.08-27.41.4-6.33,3.59-10.9,12.46-14.1,18.63-5.07,9.77-6.78,20.67-7.15,31.6-.13,3.86,5.87,3.86,6,0,.3-8.8,1.37-18.16,5.15-26.21,2.83-6,6.68-13.53,11.87-17.87,5.63-4.7,15-4,21.56-1.7a24.24,24.24,0,0,1,15.76,18.41c.73,3.78,6.51,2.18,5.79-1.6Z"/><polygon class="cls-8" points="1379.41 530.08 1480.32 527.85 1492.58 597.36 1491.97 598.63 1390.28 586.01 1390.21 585.66 1379.41 530.08"/><line class="cls-9" x1="1481.88" y1="527.54" x2="1542.11" y2="499.37"/><path class="cls-10" d="M1481.63,547.89c-8.57-.12-17.13-.47-25.68-1.16-8.21-.67-16.35-2.29-24.55-2.87s-16.14,2-24.24,2.3c-7.5.27-15,.36-22.53.45a.38.38,0,0,0,0,.75c7.5-.09,15-.18,22.53-.45,8.07-.3,16.2-2.85,24.24-2.3s16.35,2.2,24.55,2.87c8.55.69,17.11,1,25.68,1.16a.38.38,0,0,0,0-.75Z"/><path class="cls-10" d="M1484.9,566.67c-7-1.28-14-2.9-21.12-3.39-8.28-.57-16.66-.17-24.94-.14-16.94.06-33.89.09-50.83.18a.38.38,0,0,0,0,.75c16.29-.09,32.58-.11,48.87-.17,7.72,0,15.46-.26,23.18,0,8.33.24,16.47,2,24.64,3.53.48.09.68-.63.2-.72Z"/><path class="cls-10" d="M1487.89,584.06a240.24,240.24,0,0,1-52.42-3c-14.72-2.48-29.91-7-44.94-4.79-.48.07-.28.8.2.73,16.75-2.45,33.79,3.3,50.25,5.68a241.29,241.29,0,0,0,46.91,2.09c.48,0,.48-.78,0-.75Z"/><path class="cls-10" d="M1486.74,576.38c-5.59-.91-11-.74-16.59-.73-6.2,0-12.72-1.67-18.94-2.2-.28,0-.28.42,0,.45,5.83.5,11.66,1.93,17.49,2.19,6.06.27,11.84-.26,17.92.72.28.05.4-.39.12-.43Z"/><path class="cls-10" d="M1440.26,567.81a58.61,58.61,0,0,1-26.33,1.35c-.29,0-.41.38-.12.43a59.37,59.37,0,0,0,26.57-1.34c.27-.08.16-.52-.12-.44Z"/><path class="cls-10" d="M1417,573.19c-6.67.26-13.46-.52-20.13-.9-.29,0-.29.44,0,.45,6.67.38,13.46,1.16,20.13.9.29,0,.29-.46,0-.45Z"/><path class="cls-10" d="M1414.52,554.94c-8.44-1.64-16.57,2.53-25.11,1.32-.28,0-.41.4-.12.44,8.51,1.2,16.73-3,25.11-1.33.28,0,.4-.38.12-.43Z"/><path class="cls-10" d="M1415.92,560.06c8.18-2.44,15.81-4.37,24.47-4.29,7.24.07,13.89,1.84,21,2.79,7.27,1,14.41-2.28,21.58-.22a.22.22,0,0,0,.12-.43c-6.68-1.93-13.16.85-19.91.4-4.22-.28-8.26-1.77-12.43-2.36a77.68,77.68,0,0,0-10.34-.63c-8.71-.08-16.34,1.84-24.59,4.3a.23.23,0,0,0,.12.44Z"/><path class="cls-10" d="M1476.94,552.14c-17.18,2.86-34-4.91-51.22-1.86-.29.05-.17.48.12.43,17.17-3.05,34,4.73,51.22,1.87.29-.05.17-.49-.12-.44Z"/><path class="cls-10" d="M1477.63,539.7c-7.59-2.93-14.71-1.79-22.62-1.82-8.78,0-17.63-1.14-26.37-1.81-.29,0-.29.43,0,.45,8.2.63,16.44,1.56,24.67,1.78,8.41.23,16.07-1.3,24.2,1.84.27.1.39-.33.12-.44Z"/><path class="cls-10" d="M1430.47,540a111.16,111.16,0,0,1-18.31,1.25.23.23,0,0,0,0,.45,112.62,112.62,0,0,0,18.43-1.26c.29,0,.16-.48-.12-.44Z"/><path class="cls-10" d="M1411.13,537.7c-7.22-3.3-14.38.28-21.91.28a.23.23,0,0,0,0,.45c7.32,0,14.73-3.52,21.68-.34.26.12.49-.27.23-.39Z"/><path class="cls-10" d="M1396.89,543.13q-6.35.89-12.73,1.27c-.29,0-.29.46,0,.45q6.45-.39,12.85-1.29c.28,0,.16-.47-.12-.43Z"/><path class="cls-10" d="M1482,589.93l-22.91-1.7c-.28,0-.28.43,0,.45l22.91,1.7c.29,0,.29-.43,0-.45Z"/><path class="cls-10" d="M1442.27,588.62c-4.51-4.11-11-2.33-16.26-4.47-.27-.1-.39.33-.12.44,5.2,2.09,11.65.33,16.06,4.35.22.2.54-.12.32-.32Z"/><path class="cls-10" d="M1419.53,582.65c-7.84,1.24-17-1.57-24.66-2.91-.28,0-.41.38-.12.43,7.75,1.35,17,4.17,24.9,2.91.28-.05.16-.48-.12-.43Z"/><path class="cls-10" d="M1493.8,582.4l56.28-36c.4-.26,0-.91-.38-.65l-56.28,36c-.41.26,0,.91.38.65Z"/><path class="cls-10" d="M1491.19,564.08c10.35-3.74,20.3-6.69,28.84-13.82,8.34-7,18.76-10.63,27.13-17.52.37-.3-.16-.83-.53-.53-7.7,6.34-17.29,9.7-25.12,15.84-4.85,3.81-9,7.26-14.79,9.57-5.17,2.07-10.48,3.84-15.73,5.74-.45.16-.25.88.2.72Z"/><path class="cls-10" d="M1487.79,544.25A74.9,74.9,0,0,0,1517,532.73c8.66-5.84,16.08-13.43,26.54-16,.47-.11.27-.84-.2-.72-9.45,2.29-16.49,8.67-24.17,14.24a75,75,0,0,1-31.59,13.25c-.48.08-.28.8.2.72Z"/><path class="cls-10" d="M1514.17,523.4c-9.58.86-17.13,6.93-25.88,10.28-.27.11-.15.54.12.44,8.68-3.33,16.25-9.41,25.76-10.27.28,0,.29-.48,0-.45Z"/><path class="cls-10" d="M1540.6,508.26c-8,.58-15.28,4.28-22.55,7.44-.27.11,0,.5.22.38,7.22-3.12,14.37-6.79,22.33-7.37.29,0,.29-.47,0-.45Z"/><path class="cls-10" d="M1492.29,556.15a34.8,34.8,0,0,0,14.4-5c.25-.16,0-.54-.22-.39a34.3,34.3,0,0,1-14.18,5c-.29,0-.29.48,0,.45Z"/><path class="cls-10" d="M1548.52,539.59c-4.89.48-8.9,1.28-12.42,4.89-5.26,5.39-11.06,7.84-18.19,10-.28.08-.16.52.12.43,4.7-1.4,9.53-2.84,13.61-5.67a36.89,36.89,0,0,0,4.77-4.41c3.61-3.57,7.23-4.28,12.11-4.76.29,0,.29-.48,0-.45Z"/><path class="cls-10" d="M1535.21,552.23c-5.52.15-9.73,3.7-14.51,6.06-7.12,3.5-14.83,6.12-22.29,8.79-.27.1-.15.54.12.44,6.45-2.32,12.94-4.68,19.24-7.4,5.61-2.43,11.17-7.27,17.44-7.44.29,0,.29-.46,0-.45Z"/><path class="cls-10" d="M1501.24,570.1a75.61,75.61,0,0,0-8,1.72.22.22,0,0,0,.12.43,75.61,75.61,0,0,1,8-1.72c.28,0,.16-.48-.12-.43Z"/><path class="cls-10" d="M1523.59,570.37c4.69-.63,8-3.34,11.31-6.57a41.26,41.26,0,0,1,7.07-6c2.57-1.57,5.29-2.67,7.73-4.46.23-.17,0-.56-.23-.39-3.71,2.72-8,4.22-11.52,7.32-4.48,4-8.1,8.86-14.48,9.72-.28,0-.16.47.12.43Z"/><path class="cls-10" d="M1512.09,574.69a42.41,42.41,0,0,0-9.15,4.91c-2.5,1.93-3.78,4.63-6,6.74-.21.2.11.52.32.32,2.44-2.3,3.87-5.23,6.69-7.22a45.53,45.53,0,0,1,8.4-4.36c.26-.12,0-.51-.23-.39Z"/><path class="cls-10" d="M1545.29,523.77a35.41,35.41,0,0,0-13.49,7.46c-2.44,2.08-4.48,4.88-7.11,6.69-2,1.34-4,1.8-5.47,3.72-.18.23.14.55.32.32,1.71-2.19,4.25-2.69,6.32-4.38,1.43-1.16,2.62-2.67,4-3.93,4.5-4.31,9.56-7.75,15.6-9.45a.22.22,0,0,0-.12-.43Z"/><path class="cls-10" d="M1520.76,537c-2.61.15-4.68,1.23-7,2.48l-9.1,5c-.25.14,0,.53.23.39l7-3.86c2.81-1.56,5.57-3.43,8.87-3.61.29,0,.29-.46,0-.45Z"/><path class="cls-10" d="M1488,510.25c7.56-2.23,14-6.74,20.84-10.44a139.45,139.45,0,0,1,25.92-10.6.37.37,0,0,0-.2-.72,140,140,0,0,0-23,9.05c-7.93,4-15.2,9.46-23.79,12a.38.38,0,0,0,.2.73Z"/><path class="cls-10" d="M1522.19,485.72c-3.51.42-4.86,2-7.51,4.26a31.66,31.66,0,0,1-14.46,6.83c-.28.05-.16.49.12.43a32.32,32.32,0,0,0,10-3.64c3.93-2.26,7.2-6.86,11.86-7.43.29,0,.29-.49,0-.45Z"/><path class="cls-10" d="M1508.76,485a22,22,0,0,0-7.83,2.49c-.26.14,0,.53.22.39a21.54,21.54,0,0,1,7.61-2.43c.29,0,.29-.48,0-.45Z"/><path class="cls-10" d="M1488.91,517.12c9-3.71,18.34-7,27-11.52.26-.13,0-.52-.22-.39-8.57,4.51-17.91,7.79-26.86,11.48-.27.11-.15.54.12.43Z"/><path class="cls-10" d="M1534.61,494.88c-5.36,1.32-12.59,1.83-16.54,6.12-.19.21.12.53.32.32,3.79-4.12,11.16-4.73,16.34-6,.28-.07.16-.5-.12-.44Z"/><path class="cls-10" d="M1480.5,513.83c-16.38,1.38-32.79.75-49.19-.07-7.88-.4-15.77-.83-23.66-1.06-7.21-.21-14.61-.67-21.72.84-.47.1-.27.82.2.72,7.64-1.62,15.75-1,23.5-.75s15.77.7,23.65,1.1c15.74.78,31.5,1.29,47.22,0,.48,0,.49-.79,0-.75Z"/><path class="cls-10" d="M1486.12,494.84c-15.9,1.31-31.81,2.66-47.72,3.93-13.75,1.1-28-.61-41.73-1.13-.49,0-.49.73,0,.75,13.78.52,28,2.23,41.73,1.13,15.91-1.27,31.82-2.62,47.72-3.93.48,0,.48-.79,0-.75Z"/><path class="cls-10" d="M1412.09,489.2c6.33.83,13.24-.71,19.24,1.25,5.68,1.85,11,2.11,16.92,1.94.29,0,.29-.46,0-.45a73.83,73.83,0,0,1-9.17-.11c-3.71-.36-6.61-1.95-10.13-2.69-2.24-.47-4.55,0-6.82.12a57.09,57.09,0,0,1-10-.51c-.29,0-.29.42,0,.45Z"/><path class="cls-10" d="M1428.61,494.93c-4.27,1.23-9.66.33-14.09.25-.28,0-.28.44,0,.45,4.5.09,9.84,1,14.21-.27a.22.22,0,0,0-.12-.43Z"/><path class="cls-10" d="M1480.9,487.26c-8.42.3-16.7,1-25-1a.23.23,0,0,0-.11.44c8.3,2,16.62,1.33,25.09,1,.28,0,.29-.46,0-.45Z"/><path class="cls-10" d="M1488.41,491.35a102,102,0,0,1-26.33,1.61c-.29,0-.29.43,0,.45a102.9,102.9,0,0,0,26.45-1.62c.28-.06.16-.49-.12-.44Z"/><path class="cls-10" d="M1483.62,501.23c-11-1-21.54,4-32.54,2.41-.28,0-.41.39-.12.44,11,1.64,21.62-3.36,32.66-2.4.29,0,.29-.43,0-.45Z"/><path class="cls-10" d="M1465.44,509c-8.37-.86-16.91,2.23-24.9-.25-7.72-2.39-16.4-1.69-24.39-2-.29,0-.29.44,0,.45l13.93.49c4.85.18,8.63,1.31,13.21,2.39a17.57,17.57,0,0,0,7.43-.16,54.58,54.58,0,0,1,14.72-.5c.28,0,.28-.42,0-.45Z"/><path class="cls-10" d="M1425.7,504.13l-28.22-2.74c-.29,0-.29.42,0,.45l28.22,2.74c.29,0,.29-.43,0-.45Z"/><path class="cls-10" d="M1475,520.84a46.74,46.74,0,0,0-11.52,0c-4.58.66-8.77,0-13.32-.65-.29,0-.29.41,0,.45,3.95.52,7.88,1.3,11.87.91a62.49,62.49,0,0,1,13-.31c.29,0,.29-.43,0-.45Z"/><path class="cls-10" d="M1437.3,523.31c-7.23-.65-14.81,1.09-21.86-.87a.22.22,0,0,0-.12.43c7.11,2,14.7.24,22,.89.29,0,.29-.42,0-.45Z"/><path class="cls-10" d="M1407.93,517.37c-7.52,1.38-14.25,3.6-21.82,1.35a.22.22,0,0,0-.12.43c7.73,2.3,14.34.07,22.06-1.35.29,0,.17-.49-.12-.43Z"/><path class="cls-10" d="M1422.73,517.7a40.16,40.16,0,0,1-9.61.4c-.29,0-.28.43,0,.45a41.06,41.06,0,0,0,9.72-.41c.29,0,.17-.48-.11-.44Z"/><path class="cls-11" d="M1435.79,530.14a15.67,15.67,0,0,1,2.72,6.11,2.31,2.31,0,0,1,0,1.33,2.23,2.23,0,0,1-.88.92c-2.92,1.94-7,2.27-9,5.19-1.33,2-1.4,4.94-3.47,6.15-.42-2.78-1.06-5.91-3.45-7.39-.7-.43-1.5-.68-2.22-1.07a8.3,8.3,0,0,1-2.09-1.69c-2.43-2.6-3.6-6.83-1.55-9.74Z"/><path class="cls-7" d="M1434.49,530.9c1.67,2.47,3.32,5.25.45,7.3-1.43,1-3.49,1.32-5,2.28-3.3,2.11-3,6-5.83,8.3l2.5.66a14.66,14.66,0,0,0-1.94-6.12c-1.23-1.78-2.69-2.14-4.41-3.24a8.5,8.5,0,0,1-3.73-5c-.06-.26-.48-3.64-.46-3.67.28-.31,2.73,0,3.08,0l16.64.16a1.5,1.5,0,0,0,0-3l-19.93-.19a1.52,1.52,0,0,0-1.3.75A9.31,9.31,0,0,0,1415,539a12.19,12.19,0,0,0,3.71,3.65c2,1.32,3.17,1.3,4.2,4a17.74,17.74,0,0,1,.78,3.61c.2,1.22,1.74,1.3,2.51.66,2.34-1.95,2.15-4.94,4.19-7s5.14-2.27,7.45-3.78c4.05-2.66,1.36-7.51-.79-10.71C1436,527.79,1433.41,529.29,1434.49,530.9Z"/><path d="M1425.46,534.36l-2.21,7.26,4.85-.16Z"/><ellipse cx="1425.51" cy="536" rx="1.71" ry="1.64" transform="matrix(1, -0.03, 0.03, 1, -16.68, 46.65)"/><rect class="cls-12" x="13.37" y="740.05" width="1927" height="14"/><path class="cls-3" d="M1345.49,739.92c2.13,2.23,3.91,4.75,6,7,1.85,2,2.85,4.53,4.15,6.9,3.4,6.17,12.85.65,9.45-5.53-1.61-2.94-3-5.86-5.2-8.42s-4.32-5.25-6.65-7.69c-4.88-5.1-12.62,2.65-7.75,7.74Z"/><g class="cls-13"><path class="cls-14" d="M1705,174.12a3.8,3.8,0,0,0,.4,2c.16.57.16.8,1.34,2,2.39,2.31,6.83,2.73,10.8,2.76,4.63,0,14-2.93,16.93-5.57l3.14-4.83c-.55.28-.58.6-.78.85a13.12,13.12,0,0,0-.78,1.14c-.32.45-.47.88-.79,1.42-.2.37-.67.79-.67,1.31a5.91,5.91,0,0,0,.91,3.8,8.16,8.16,0,0,0,3.65,2.34c8.6,3.35,14.34,2.55,24,1.36a28.54,28.54,0,0,0,9.47-2.9,9,9,0,0,0,3.23-2.81,5.18,5.18,0,0,0,.63-4.58,21.61,21.61,0,0,0-1.38-3.86l1.81,5.88a28.2,28.2,0,0,0,15.52-2.42c4.63-2.3,7.7-6.48,6.83-10.51-.7-3.27-3.73-6-7-8.33-6.92-4.86-16.5-8.61-26-7.25a13.35,13.35,0,0,0-4.48,1.31l6.09-1.53c5.54-2.79,4.63-8.16,2.52-12.82-1.11-2.47-6.56-6.31-12.34-7.65-5.07-1.19-10.89-.08-12.18.85l-.67,4.24c.79-4,1.14-8.9-3.42-11.37a18.24,18.24,0,0,0-7.07-1.68,58.55,58.55,0,0,0-31.27,6.83,37.09,37.09,0,0,0-4.72,2.55c-5.78,4.18-8.14,7.25-7.86,13.93l7.94,2.3a29.86,29.86,0,0,0-6.6-1.68c-4.45-.76-9.59,1.43-13.12,3.42a43.72,43.72,0,0,0-4.28,3.89c-2.41,2.27-4.29,5.09-3.66,7.93s3.69,4.32,7.55,4.94a17.67,17.67,0,0,0,4.31-.56,39.26,39.26,0,0,0,5.11-2l-3.92,1.7a8.24,8.24,0,0,0-3.47,7.33,7.51,7.51,0,0,0,3.81,5.8c3.38,2.11,9,2.84,13.88,2.19s11.9-4.77,14.84-7.08"/><path class="cls-15" d="M1704.41,174.12c-.12,3.13,2.63,5.6,6.72,6.54a27.78,27.78,0,0,0,13.2-.48,42.55,42.55,0,0,0,6.36-2.19c1.46-.66,3.35-1.45,4.29-2.53a38.69,38.69,0,0,0,3.14-4.83c.28-.43-.44-.88-.94-.51-1.38,1-2.17,2.78-2.87,4.09a4.84,4.84,0,0,0,.51,4.72c1.1,1.62,3.42,2.53,5.58,3.27a33.41,33.41,0,0,0,7.23,1.67c4.86.54,9.82-.11,14.61-.71s10.65-2,13.48-5.23a5.77,5.77,0,0,0,1.38-5.48,11.67,11.67,0,0,0-1.5-4.18c-.36-.43-1.22-.14-1.06.34.59,2,1.18,3.92,1.81,5.88a.63.63,0,0,0,.55.32c5.73.51,11.55-.18,16.26-2.7,3.82-2.05,6.52-5.29,6.8-8.76.28-3.95-3-7.33-6.64-10a43.32,43.32,0,0,0-14.14-6.88c-5.39-1.48-12.66-2.07-17.69.4-.5.25-.19.94.47.77,2.52-.63,5.63-1,7.59-2.39,3.66-2.59,3.46-6.57,2.4-9.89a10.66,10.66,0,0,0-2.63-4.72,24.21,24.21,0,0,0-21.85-5.65c-1.42.36-2.09.65-2.28,1.7-.2,1.22-.39,2.42-.59,3.64-.08.48,1.06.59,1.14.11.67-3.49,1.25-7.76-2-10.71-3.74-3.3-11.32-3.21-16.7-2.85a61.19,61.19,0,0,0-18.59,4.38c-5.1,2.11-10.09,4.61-13.71,8a13.88,13.88,0,0,0-4.44,11.37c0,.2.2.34.43.39,2.68.74,5.31,1.48,8,2.25.63.17,1-.54.48-.77a25.3,25.3,0,0,0-8.69-1.9,20.39,20.39,0,0,0-8.06,1.85,17.88,17.88,0,0,0-5.58,3.43,30.51,30.51,0,0,0-5.1,5.49c-2,3.33-1.73,7.33,2.94,9.32a11.42,11.42,0,0,0,6.21.94,19.56,19.56,0,0,0,4.28-1.05c1.14-.43,2.17-1,3.31-1.42l-.59-.74c-1.26.54-2.6,1-3.82,1.65a7.1,7.1,0,0,0-3.22,3.83,8,8,0,0,0,3.85,10.35c4.28,2.39,11.12,2.9,16.11,1.51a40.37,40.37,0,0,0,12.93-6.71c.51-.4-.32-1-.82-.6a41.42,41.42,0,0,1-10.89,6,22.46,22.46,0,0,1-15.36-.26c-4.91-2.07-6.17-6.31-4.68-10.06a6,6,0,0,1,3.3-3.58c1.06-.45,2.13-.91,3.19-1.39.66-.29.08-1-.59-.74-2,.65-3.54,1.65-5.66,2.1a10.84,10.84,0,0,1-6.72-.48c-5.31-2.13-4.2-6.77-1.45-10a24.21,24.21,0,0,1,8.72-6.79,19.32,19.32,0,0,1,7.42-1.85,23.58,23.58,0,0,1,8.41,1.79l.48-.76c-2.67-.74-5.31-1.48-8-2.25.15.14.28.28.43.4-.12-3.38.43-6.68,3-9.58,2.83-3.21,6.91-5.4,11.2-7.5a60.45,60.45,0,0,1,16-5.15c5.47-.93,12.42-1.45,17.77.12,6.48,1.9,6,7.56,5.22,11.73.39,0,.78.09,1.14.12.16-1.11.36-2.19.51-3.3,0-.2,0-.57.12-.74s.15-.05.15-.05c.67-.57,2.6-.74,3.58-.89a23,23,0,0,1,18,5.6,11.72,11.72,0,0,1,2.87,5.66,7.78,7.78,0,0,1-.7,6.39,7,7,0,0,1-4.48,2.79c-1.42.37-2.88.71-4.28,1.08l.47.77c5.57-2.76,13.67-1.51,19.29.45s11.11,5.15,14.66,8.93c3.8,4.06,3.53,9-1,12.73s-11.56,4.83-18.15,4.26c.2.12.39.2.55.31-.59-2-1.18-3.92-1.81-5.88l-1.06.34c.82,1.05,1,2.59,1.3,3.75.7,2.53-.4,5-3.15,6.65-4.6,2.79-10.92,3.41-16.66,3.9a36.09,36.09,0,0,1-14.81-1.45c-3.42-1.14-6-2.5-6.13-5.46a7.83,7.83,0,0,1,2.83-5.4l-.94-.51c-1,1.45-1.85,2.93-2.83,4.38-1.42,2-5.18,3.21-7.9,4.09a30,30,0,0,1-11.71,1.62c-4.79-.37-9.19-2.36-9.07-6.17C1705.59,173.58,1704.41,173.58,1704.41,174.12Z"/></g><g class="cls-16"><path class="cls-14" d="M1535.44,104.25a4.72,4.72,0,0,0,.58,2.65c.23.76.23,1.06,2,2.62,3.5,3.06,10,3.63,15.81,3.67,6.79,0,20.54-3.9,24.79-7.43l4.6-6.44c-.8.38-.86.8-1.15,1.14a15.34,15.34,0,0,0-1.14,1.51c-.47.61-.7,1.18-1.16,1.9-.29.49-1,1.06-1,1.74,0,1.74,0,3.56,1.32,5.08s3.22,2.35,5.35,3.11c12.59,4.47,21,3.41,35.08,1.82a44.84,44.84,0,0,0,13.87-3.87,12.9,12.9,0,0,0,4.72-3.75,6.38,6.38,0,0,0,.91-6.1c-.4-1.14-1.44-4.63-2-5.16l2.64,7.85c8.17.72,15.88-.11,22.73-3.22s11.26-8.64,10-14c-1-4.36-5.46-8-10.23-11.11-10.12-6.48-24.16-11.48-38-9.66a20.9,20.9,0,0,0-6.55,1.74l8.91-2c8.11-3.72,6.79-10.88,3.69-17.09-1.61-3.3-9.61-8.42-18.06-10.2-7.43-1.59-15.93-.11-17.84,1.14l-1,5.65c1.16-5.39,1.67-11.87-5-15.16-2.93-1.44-6.67-2-10.35-2.24a92.89,92.89,0,0,0-45.79,9.1c-2.64,1.29-4.6,1.89-6.9,3.41-8.46,5.57-11.9,9.66-11.5,18.57l11.61,3.07a46.2,46.2,0,0,0-9.65-2.24c-6.51-1-14,1.89-19.22,4.55a65.6,65.6,0,0,0-6.26,5.19c-3.51,3-6.28,6.78-5.35,10.57s5.4,5.76,11,6.59a27.79,27.79,0,0,0,6.32-.75c3.29-.69,6.51-2.43,7.49-2.66L1505,86.06a10.57,10.57,0,0,0-5.06,9.77c.29,2.81,1.9,5.69,5.58,7.74,4.94,2.8,13.11,3.78,20.3,2.91s17.43-6.36,21.75-9.43"/><path class="cls-15" d="M1534.59,104.25c-.18,4.17,3.85,7.46,9.83,8.71a44.3,44.3,0,0,0,19.32-.64,64.91,64.91,0,0,0,9.32-2.92c2.13-.87,4.89-1.93,6.27-3.37,1.9-1.93,3.11-4.36,4.6-6.44.41-.57-.63-1.18-1.38-.69-2,1.33-3.16,3.72-4.2,5.46s-.57,4.55.75,6.29c1.61,2.16,5,3.37,8.17,4.36a53.12,53.12,0,0,0,10.58,2.24c7.14.72,14.38-.16,21.4-1,7.19-.8,15.58-2.73,19.73-7a7.21,7.21,0,0,0,2-7.32c-.52-1.78-.86-4-2.19-5.57-.51-.57-1.78-.19-1.55.46.87,2.61,1.73,5.23,2.65,7.84.11.27.46.38.81.42,8.39.68,16.91-.23,23.8-3.6,5.59-2.73,9.55-7,10-11.67.4-5.27-4.32-9.78-9.72-13.38A66.37,66.37,0,0,0,1644,67.34c-7.87-2-18.51-2.77-25.88.53-.75.34-.28,1.25.7,1,3.68-.83,8.22-1.36,11.1-3.18,5.34-3.45,5.06-8.75,3.5-13.19a13.89,13.89,0,0,0-3.85-6.29,34.13,34.13,0,0,0-8.34-5.15,37.67,37.67,0,0,0-23.64-2.39c-2.07.49-3,.87-3.33,2.27-.29,1.63-.58,3.22-.86,4.85-.12.65,1.55.8,1.66.16,1-4.67,1.84-10.35-3-14.29-5.46-4.4-16.56-4.28-24.45-3.79a96.61,96.61,0,0,0-27.2,5.84c-7.47,2.8-14.78,6.13-20.08,10.64a17.62,17.62,0,0,0-6.49,15.16c0,.27.28.46.63.53,3.91,1,7.77,2,11.67,3,.92.22,1.5-.72.7-1a40.08,40.08,0,0,0-12.72-2.54A32.47,32.47,0,0,0,1502.38,62a26.34,26.34,0,0,0-8.17,4.58c-2.71,2.31-5.64,4.63-7.48,7.32-3,4.43-2.53,9.77,4.32,12.43a18.35,18.35,0,0,0,9.08,1.25,30.88,30.88,0,0,0,6.27-1.41c1.66-.56,3.16-1.4,4.83-1.89-.28-.34-.58-.65-.86-1-1.84.72-3.8,1.37-5.58,2.2a9.71,9.71,0,0,0-4.72,5.12c-2.13,4.89-.75,10.57,5.64,13.79s16.27,3.87,23.58,2a61.21,61.21,0,0,0,18.92-8.94c.75-.53-.46-1.33-1.21-.8a62.39,62.39,0,0,1-15.93,8,36,36,0,0,1-22.48-.34c-7.19-2.77-9-8.42-6.85-13.42a8.35,8.35,0,0,1,4.83-4.77c1.56-.61,3.1-1.22,4.66-1.86,1-.38.12-1.29-.86-1-2.88.88-5.18,2.2-8.29,2.81a17.26,17.26,0,0,1-9.83-.65c-7.76-2.84-6.15-9-2.13-13.3a35.13,35.13,0,0,1,12.77-9,30.73,30.73,0,0,1,10.87-2.47A37.52,37.52,0,0,1,1526.07,63l.69-1c-3.91-1-7.77-2-11.67-3a7.38,7.38,0,0,0,.63.53c-.17-4.51.63-8.9,4.37-12.77,4.14-4.28,10.12-7.2,16.39-10a94.77,94.77,0,0,1,23.41-6.86c8-1.25,18.18-1.93,26,.15,9.49,2.54,8.85,10.08,7.65,15.65.57,0,1.15.12,1.67.15.23-1.47.51-2.91.74-4.39.06-.27,0-.76.17-1s.24-.07.24-.07c1-.76,3.8-1,5.23-1.18,10.18-1.21,20.19,2.24,26.4,7.47a15.22,15.22,0,0,1,4.2,7.54c.75,2.8.92,5.91-1,8.53-1.5,2-3.57,3-6.56,3.71-2.07.49-4.2.95-6.27,1.44.23.34.45.68.69,1,8.17-3.67,20-2,28.24.61s16.28,6.86,21.46,11.9c5.58,5.42,5.17,12-1.45,17s-16.91,6.45-26.56,5.69a8.48,8.48,0,0,1,.8.42c-.87-2.62-1.73-5.23-2.65-7.85l-1.55.46c1.21,1.4,1.44,3.44,1.9,5,1,3.37-.58,6.63-4.6,8.87-6.73,3.71-16,4.54-24.39,5.19a57.56,57.56,0,0,1-21.69-1.94c-5-1.51-8.74-3.33-9-7.27-.12-2,1.84-5.69,4.14-7.2l-1.38-.68c-1.38,1.93-2.7,3.9-4.14,5.83-2.07,2.65-7.59,4.28-11.56,5.46a47.64,47.64,0,0,1-17.14,2.16c-7-.49-13.46-3.15-13.28-8.22C1536.3,103.53,1534.59,103.53,1534.59,104.25Z"/></g><g class="cls-17"><path class="cls-14" d="M1796.62,51.55a4.89,4.89,0,0,0,.24,1.79,3.48,3.48,0,0,0,.83,1.76c1.49,2.06,4.23,2.45,6.69,2.47,2.86,0,8.67-2.62,10.47-5l2-4.33c-.35.25-.36.53-.49.76-.22.41-.34.69-.49,1s-.28.79-.48,1.28a3.31,3.31,0,0,0-.42,1.17,7.42,7.42,0,0,0,.56,3.42,5.43,5.43,0,0,0,2.26,2.09c5.33,3,8.88,2.3,14.83,1.22a13.94,13.94,0,0,0,5.86-2.6,6.93,6.93,0,0,0,2-2.52,6.44,6.44,0,0,0,.38-4.11,24.61,24.61,0,0,0-.84-3.47l1.11,5.28a12.68,12.68,0,0,0,9.6-2.17,10.2,10.2,0,0,0,4.23-9.43c-.43-2.94-2.3-5.41-4.32-7.48-4.28-4.36-10.21-7.72-16.07-6.5a6.5,6.5,0,0,0-2.77,1.17l3.77-1.37c3.43-2.5,2.86-7.32,1.56-11.51-.69-2.22-4.06-5.66-7.64-6.86-3.13-1.07-6.73-.08-7.53.77l-.41,3.8c.48-3.62.7-8-2.12-10.21A8.61,8.61,0,0,0,1815,.49c-6.9-.77-13.8,1.86-19.35,6.12a22.56,22.56,0,0,0-2.92,2.3c-3.57,3.75-5,6.5-4.86,12.49l4.92,2.07a14.08,14.08,0,0,0-4.09-1.5c-2.75-.69-5.93,1.27-8.12,3.06a38,38,0,0,0-2.65,3.49c-1.48,2-2.64,4.57-2.26,7.12s2.29,3.87,4.67,4.44a7.81,7.81,0,0,0,2.67-.52,19.16,19.16,0,0,0,3.16-1.78l-2.43,1.53c-1.7,1.53-2.26,4.69-2.13,6.58a7.37,7.37,0,0,0,2.36,5.2c2.08,1.89,5.53,2.55,8.57,2s7.37-4.29,9.19-6.35"/><path class="cls-15" d="M1796.26,51.55a5.91,5.91,0,0,0,4.15,5.87,12.05,12.05,0,0,0,8.18-.43,21.24,21.24,0,0,0,3.93-2,8.37,8.37,0,0,0,2.65-2.27,38.32,38.32,0,0,0,1.94-4.33c.17-.39-.27-.8-.58-.46a11.38,11.38,0,0,0-1.78,3.67,6.05,6.05,0,0,0,.32,4.23,6.85,6.85,0,0,0,3.45,2.94,15.51,15.51,0,0,0,4.47,1.5c3,.49,6.08-.1,9-.64s6.58-1.83,8.33-4.69a7,7,0,0,0,.85-4.92,13.83,13.83,0,0,0-.92-3.75.36.36,0,0,0-.66.3q.54,2.64,1.12,5.28a.38.38,0,0,0,.34.28,13.25,13.25,0,0,0,10.06-2.42,10.91,10.91,0,0,0,4.21-7.85c.16-3.55-1.83-6.58-4.11-9a24.83,24.83,0,0,0-8.75-6.17c-3.33-1.33-7.83-1.86-10.94.36-.32.23-.12.84.3.69,1.55-.57,3.47-.92,4.69-2.15,2.26-2.32,2.14-5.89,1.48-8.87a11.35,11.35,0,0,0-1.63-4.24A15.5,15.5,0,0,0,1832.88,9a10.59,10.59,0,0,0-10-1.6c-.88.33-1.29.58-1.41,1.53s-.25,2.17-.36,3.26c-.06.44.65.54.7.1.41-3.13.77-7-1.26-9.61-2.32-3-7-2.88-10.34-2.55a28.3,28.3,0,0,0-11.49,3.93,28,28,0,0,0-8.48,7.16c-2.22,3-2.85,6.46-2.75,10.21a.38.38,0,0,0,.27.35c1.65.67,3.28,1.33,4.94,2,.38.15.63-.49.28-.69a11.6,11.6,0,0,0-5.37-1.71,9.49,9.49,0,0,0-5,1.66,11.42,11.42,0,0,0-3.45,3.08A26.18,26.18,0,0,0,1776,31.1c-1.27,3-1.07,6.58,1.82,8.36a5.13,5.13,0,0,0,3.85.84,9,9,0,0,0,2.64-.94c.7-.38,1.33-.94,2.05-1.27-.13-.23-.25-.44-.37-.67-.78.49-1.61.92-2.36,1.48a6.31,6.31,0,0,0-2,3.45c-.9,3.29-.32,7.11,2.38,9.28A10.5,10.5,0,0,0,1794,53a23.67,23.67,0,0,0,8-6c.32-.36-.19-.89-.51-.53a25.06,25.06,0,0,1-6.73,5.38,9.92,9.92,0,0,1-9.51-.23c-3-1.86-3.81-5.66-2.89-9a5.14,5.14,0,0,1,2-3.21c.66-.41,1.32-.82,2-1.25a.38.38,0,0,0-.37-.67,25.77,25.77,0,0,1-3.51,1.89,4.76,4.76,0,0,1-4.14-.43c-3.29-1.92-2.61-6.07-.9-9a17.5,17.5,0,0,1,5.39-6.09,9.17,9.17,0,0,1,4.59-1.66,10.75,10.75,0,0,1,5.2,1.61l.3-.69c-1.66-.67-3.29-1.33-4.93-2a2.56,2.56,0,0,0,.26.36,15.45,15.45,0,0,1,1.84-8.6c1.76-2.88,4.29-4.84,6.93-6.73a30.17,30.17,0,0,1,9.9-4.62c3.37-.84,7.68-1.3,11,.11,4,1.71,3.74,6.78,3.23,10.53l.7.1c.1-1,.23-2,.32-3a2.84,2.84,0,0,1,.08-.66c.07-.15.09,0,.09,0,.41-.51,1.6-.66,2.21-.79,4.31-.82,8.54,1.5,11.16,5a12.79,12.79,0,0,1,1.77,5.08,9.85,9.85,0,0,1-.43,5.74,4.51,4.51,0,0,1-2.77,2.5c-.88.33-1.78.64-2.65,1,.09.23.19.46.29.69,3.44-2.48,8.46-1.36,11.93.4a24.16,24.16,0,0,1,9.07,8,9.43,9.43,0,0,1-.61,11.43c-2.82,3.37-7.15,4.34-11.23,3.83a3.17,3.17,0,0,1,.34.28c-.37-1.76-.73-3.52-1.12-5.28l-.65.3a12.75,12.75,0,0,1,.8,3.37,6.23,6.23,0,0,1-1.94,6c-2.85,2.5-6.76,3.06-10.31,3.49a15.71,15.71,0,0,1-9.16-1.3c-2.12-1-3.7-2.24-3.79-4.9a8.38,8.38,0,0,1,1.74-4.84l-.57-.46c-.59,1.3-1.15,2.63-1.76,3.93-.87,1.78-3.2,2.88-4.88,3.67a13.28,13.28,0,0,1-7.25,1.45c-3-.33-5.68-2.11-5.61-5.53A.34.34,0,1,0,1796.26,51.55Z"/></g><g class="cls-18"><path class="cls-14" d="M266.43,96.44a3.72,3.72,0,0,0,.2,1.43,2.57,2.57,0,0,0,.66,1.4c1.18,1.66,3.38,2,5.34,2,2.3,0,6.94-2.1,8.38-4l1.56-3.46a1.28,1.28,0,0,0-.39.61c-.17.32-.27.55-.39.81s-.23.64-.39,1a2.9,2.9,0,0,0-.33.94,5.87,5.87,0,0,0,.45,2.74,4.36,4.36,0,0,0,1.81,1.67c4.25,2.41,7.09,1.84,11.86,1a11.29,11.29,0,0,0,4.68-2.08,5.55,5.55,0,0,0,1.6-2,5.22,5.22,0,0,0,.31-3.29,21.2,21.2,0,0,0-.68-2.77l.89,4.22a10.19,10.19,0,0,0,7.68-1.73,8.19,8.19,0,0,0,3.39-7.55,11.26,11.26,0,0,0-3.47-6c-3.42-3.49-8.16-6.18-12.85-5.2a5.1,5.1,0,0,0-2.21.93l3-1.1c2.74-2,2.29-5.85,1.24-9.2-.54-1.77-3.24-4.53-6.1-5.49-2.51-.86-5.39-.06-6,.61l-.33,3c.39-2.89.57-6.38-1.69-8.16a6.87,6.87,0,0,0-3.5-1.2c-5.52-.61-11,1.49-15.48,4.9a18.06,18.06,0,0,0-2.33,1.83c-2.86,3-4,5.21-3.89,10L263.36,74a11,11,0,0,0-3.27-1.2c-2.19-.55-4.74,1-6.49,2.45A28.21,28.21,0,0,0,251.48,78a8,8,0,0,0-1.81,5.7c.31,2,1.83,3.1,3.74,3.55a6.4,6.4,0,0,0,2.13-.41,16.25,16.25,0,0,0,2.53-1.43l-1.94,1.22c-1.36,1.23-1.81,3.76-1.71,5.27a5.94,5.94,0,0,0,1.88,4.16,8.27,8.27,0,0,0,6.87,1.57c2.43-.47,5.89-3.43,7.34-5.08"/><path class="cls-15" d="M266.14,96.44a4.71,4.71,0,0,0,3.33,4.69,9.59,9.59,0,0,0,6.53-.34,16.58,16.58,0,0,0,3.15-1.58,6.71,6.71,0,0,0,2.12-1.81,30,30,0,0,0,1.55-3.47c.14-.31-.21-.63-.46-.37a9.12,9.12,0,0,0-1.42,2.94,4.84,4.84,0,0,0,.25,3.39,5.46,5.46,0,0,0,2.76,2.34,12.31,12.31,0,0,0,3.58,1.21,21.49,21.49,0,0,0,7.23-.51c2.43-.43,5.27-1.47,6.67-3.76a5.54,5.54,0,0,0,.68-3.93,11.08,11.08,0,0,0-.74-3,.29.29,0,0,0-.52.24c.29,1.41.58,2.82.89,4.22a.32.32,0,0,0,.27.23A10.59,10.59,0,0,0,310.06,95a8.72,8.72,0,0,0,3.36-6.28c.14-2.84-1.45-5.27-3.28-7.21a20,20,0,0,0-7-4.94c-2.66-1.06-6.26-1.48-8.75.29-.25.18-.1.67.23.55,1.25-.45,2.78-.73,3.76-1.71,1.8-1.86,1.71-4.72,1.18-7.1a9,9,0,0,0-1.3-3.39,12.61,12.61,0,0,0-2.82-2.78,8.49,8.49,0,0,0-8-1.28c-.7.26-1,.47-1.13,1.22S286.13,64.1,286,65c0,.35.53.43.56.09.33-2.51.63-5.57-1-7.7-1.84-2.36-5.6-2.3-8.26-2a25.16,25.16,0,0,0-16,8.88,12.67,12.67,0,0,0-2.2,8.16.32.32,0,0,0,.21.29c1.33.53,2.63,1.06,3.95,1.61.31.12.51-.39.24-.55a9.27,9.27,0,0,0-4.3-1.37,7.64,7.64,0,0,0-4,1.33,9,9,0,0,0-2.76,2.47A21.25,21.25,0,0,0,250,80.07c-1,2.39-.85,5.27,1.46,6.7a4.16,4.16,0,0,0,3.07.67,7.45,7.45,0,0,0,2.12-.75c.57-.31,1.07-.76,1.64-1-.1-.19-.2-.35-.29-.54-.63.39-1.29.74-1.89,1.19a5.09,5.09,0,0,0-1.6,2.75c-.71,2.63-.25,5.7,1.91,7.43a8.4,8.4,0,0,0,8,1.08,19.09,19.09,0,0,0,6.4-4.81c.25-.29-.16-.72-.41-.43a19.93,19.93,0,0,1-5.39,4.3,7.9,7.9,0,0,1-7.6-.18c-2.43-1.49-3.05-4.53-2.31-7.22a4.13,4.13,0,0,1,1.63-2.57l1.58-1a.31.31,0,0,0-.29-.54,20.44,20.44,0,0,1-2.8,1.51,3.84,3.84,0,0,1-3.33-.34c-2.62-1.53-2.08-4.86-.72-7.16a13.94,13.94,0,0,1,4.32-4.88,7.37,7.37,0,0,1,3.67-1.33,8.61,8.61,0,0,1,4.16,1.29l.24-.55c-1.33-.53-2.63-1.06-3.95-1.61.08.1.14.2.21.28a12.46,12.46,0,0,1,1.48-6.88,18.81,18.81,0,0,1,5.54-5.38,24,24,0,0,1,7.92-3.7c2.7-.67,6.14-1,8.78.09,3.21,1.36,3,5.42,2.59,8.42l.56.08c.08-.79.18-1.57.26-2.36a2.22,2.22,0,0,1,.05-.53c.06-.13.08,0,.08,0,.33-.41,1.29-.53,1.77-.64,3.44-.65,6.83,1.21,8.93,4a10.41,10.41,0,0,1,1.41,4.06,7.76,7.76,0,0,1-.35,4.6,3.53,3.53,0,0,1-2.21,2c-.7.27-1.42.52-2.12.78.08.18.15.37.23.55,2.76-2,6.77-1.08,9.55.33a19.3,19.3,0,0,1,7.25,6.4,7.54,7.54,0,0,1-.49,9.15c-2.25,2.69-5.71,3.46-9,3.06a2.13,2.13,0,0,1,.27.22c-.29-1.41-.58-2.81-.89-4.22l-.52.24a10.23,10.23,0,0,1,.64,2.7,5,5,0,0,1-1.56,4.77c-2.27,2-5.4,2.45-8.24,2.8a12.67,12.67,0,0,1-7.33-1c-1.69-.82-3-1.8-3-3.92a6.85,6.85,0,0,1,1.4-3.88l-.46-.37c-.47,1-.92,2.11-1.4,3.15-.7,1.42-2.57,2.3-3.91,2.93a10.63,10.63,0,0,1-5.79,1.17c-2.38-.27-4.55-1.7-4.49-4.43A.28.28,0,1,0,266.14,96.44Z"/></g><g class="cls-19"><path class="cls-14" d="M68.84,196.89a3.72,3.72,0,0,0,.2,1.43,2.8,2.8,0,0,0,.66,1.41c1.18,1.65,3.38,2,5.35,2,2.29,0,6.94-2.11,8.38-4L85,194.24c-.27.2-.29.43-.39.61-.17.33-.27.55-.39.82s-.23.63-.39,1a2.76,2.76,0,0,0-.33.93,5.87,5.87,0,0,0,.45,2.74A4.36,4.36,0,0,0,85.74,202c4.26,2.41,7.1,1.84,11.86,1a11.16,11.16,0,0,0,4.68-2.08,5.37,5.37,0,0,0,1.6-2,5.15,5.15,0,0,0,.31-3.29,21.2,21.2,0,0,0-.68-2.77l.89,4.22a10.19,10.19,0,0,0,7.68-1.73,8.19,8.19,0,0,0,3.39-7.55,11.31,11.31,0,0,0-3.46-6c-3.43-3.49-8.17-6.18-12.86-5.2a5.12,5.12,0,0,0-2.21.94l3-1.11c2.74-2,2.3-5.85,1.25-9.2-.55-1.77-3.25-4.53-6.11-5.49-2.51-.85-5.38-.06-6,.61l-.33,3c.39-2.9.57-6.39-1.69-8.17a6.84,6.84,0,0,0-3.5-1.2c-5.52-.61-11,1.49-15.47,4.9a17.49,17.49,0,0,0-2.34,1.83c-2.86,3-4,5.21-3.89,10l3.93,1.65a11.33,11.33,0,0,0-3.26-1.2c-2.2-.55-4.75,1-6.5,2.45a28.21,28.21,0,0,0-2.12,2.79,8,8,0,0,0-1.81,5.7c.31,2,1.83,3.1,3.74,3.55A6.23,6.23,0,0,0,58,187.3a16.52,16.52,0,0,0,2.52-1.43l-1.94,1.22c-1.36,1.23-1.81,3.76-1.71,5.27a6,6,0,0,0,1.88,4.16,8.28,8.28,0,0,0,6.87,1.57c2.43-.47,5.89-3.42,7.35-5.08"/><path class="cls-15" d="M68.55,196.89a4.71,4.71,0,0,0,3.33,4.69,9.59,9.59,0,0,0,6.53-.34,17.14,17.14,0,0,0,3.15-1.57,6.74,6.74,0,0,0,2.12-1.82,30,30,0,0,0,1.55-3.47c.14-.31-.21-.63-.46-.37A9.12,9.12,0,0,0,83.35,197a4.84,4.84,0,0,0,.25,3.39,5.46,5.46,0,0,0,2.76,2.34,12.31,12.31,0,0,0,3.58,1.21,21.49,21.49,0,0,0,7.23-.51c2.43-.43,5.27-1.47,6.67-3.76a5.54,5.54,0,0,0,.68-3.93,10.73,10.73,0,0,0-.74-3,.29.29,0,0,0-.52.24c.29,1.41.58,2.82.89,4.22a.32.32,0,0,0,.27.23,10.59,10.59,0,0,0,8-1.94,8.74,8.74,0,0,0,3.37-6.28c.13-2.84-1.46-5.27-3.29-7.21a19.74,19.74,0,0,0-7-4.93c-2.66-1.07-6.26-1.49-8.75.28-.25.18-.1.67.24.55,1.24-.45,2.78-.73,3.75-1.71,1.81-1.86,1.71-4.72,1.18-7.1a9,9,0,0,0-1.3-3.39,12.61,12.61,0,0,0-2.82-2.78,8.49,8.49,0,0,0-8-1.28c-.7.26-1,.47-1.13,1.22s-.19,1.74-.29,2.62c0,.34.53.42.57.08.33-2.51.62-5.57-1-7.7-1.84-2.36-5.59-2.3-8.26-2a22.63,22.63,0,0,0-9.19,3.15,22.51,22.51,0,0,0-6.79,5.73,12.67,12.67,0,0,0-2.2,8.16.31.31,0,0,0,.22.29c1.32.53,2.62,1.06,3.94,1.61.31.12.51-.39.24-.55a9.27,9.27,0,0,0-4.3-1.37,7.64,7.64,0,0,0-4,1.33,9.17,9.17,0,0,0-2.76,2.47,20.46,20.46,0,0,0-2.52,3.94c-1,2.38-.86,5.26,1.45,6.69a4.13,4.13,0,0,0,3.08.67,7.68,7.68,0,0,0,2.12-.75c.56-.31,1.06-.76,1.63-1-.1-.19-.2-.35-.29-.53a22,22,0,0,0-1.89,1.18,5,5,0,0,0-1.59,2.75c-.72,2.64-.26,5.7,1.9,7.43a8.38,8.38,0,0,0,8,1.08,19,19,0,0,0,6.4-4.81c.25-.29-.16-.72-.41-.43a19.88,19.88,0,0,1-5.38,4.3,7.92,7.92,0,0,1-7.61-.18c-2.43-1.49-3-4.53-2.31-7.22a4.13,4.13,0,0,1,1.63-2.57l1.58-1a.3.3,0,0,0-.29-.53,22.88,22.88,0,0,1-2.8,1.51,3.87,3.87,0,0,1-3.33-.35c-2.62-1.53-2.08-4.86-.72-7.16a13.94,13.94,0,0,1,4.32-4.88,7.37,7.37,0,0,1,3.67-1.33,8.61,8.61,0,0,1,4.16,1.29l.24-.55c-1.32-.53-2.63-1.06-3.95-1.61.08.1.14.2.21.28a12.46,12.46,0,0,1,1.48-6.88,18.81,18.81,0,0,1,5.54-5.38,24,24,0,0,1,7.92-3.7c2.7-.67,6.14-1,8.78.09,3.21,1.36,3,5.42,2.59,8.42.2,0,.39.07.56.09.08-.8.18-1.58.26-2.37a2.26,2.26,0,0,1,.06-.53c0-.12.07,0,.07,0,.33-.41,1.29-.53,1.77-.64,3.44-.65,6.83,1.21,8.93,4a10.59,10.59,0,0,1,1.42,4.06,7.92,7.92,0,0,1-.35,4.6,3.61,3.61,0,0,1-2.22,2l-2.12.77c.08.18.16.37.23.55,2.76-2,6.77-1.08,9.55.33a19.24,19.24,0,0,1,7.25,6.41,7.54,7.54,0,0,1-.48,9.14c-2.26,2.69-5.72,3.47-9,3.06a3.42,3.42,0,0,1,.28.22c-.3-1.41-.59-2.81-.9-4.22l-.52.24a10.23,10.23,0,0,1,.64,2.7,5,5,0,0,1-1.56,4.77c-2.27,2-5.4,2.45-8.24,2.8a12.67,12.67,0,0,1-7.33-1c-1.69-.82-3-1.8-3-3.92a6.71,6.71,0,0,1,1.4-3.88c-.16-.12-.32-.24-.47-.37-.47,1-.91,2.11-1.4,3.15-.7,1.43-2.57,2.3-3.91,2.93a10.61,10.61,0,0,1-5.79,1.17c-2.37-.27-4.55-1.7-4.49-4.43A.28.28,0,1,0,68.55,196.89Z"/></g></g></g></svg>