<svg xmlns="http://www.w3.org/2000/svg" viewBox="0 0 1962.76 933.86"><defs><style>.cls-1,.cls-4{fill:none}.cls-4{stroke-miterlimit:10}.cls-3{fill:#43720c}.cls-4{stroke:#963;stroke-width:9px}.cls-6{fill:#fff}.cls-7{fill:#606060}</style><clipPath id="clip-path"><path class="cls-1" d="M1755 149.73h145.5v73.96H1755z"/></clipPath><clipPath id="clip-path-2"><path class="cls-1" d="M1546.5 52.07h213v98.61h-213z"/></clipPath><clipPath id="clip-path-3"><path class="cls-1" d="M1872.75 21.73h90V88.1h-90z"/></clipPath><clipPath id="clip-path-4"><path class="cls-1" d="M298.75 0h72v53.1h-72z"/></clipPath><clipPath id="clip-path-5"><path class="cls-1" d="M76.75 192.48h72v53.1h-72z"/></clipPath></defs><g id="Layer_2" data-name="Layer 2"><g id="Layer_1-2" data-name="Layer 1"><path d="M1358.42 926.56c-155.48-190.89-383-313.22-620.82-371.76S251 497.62 7.37 522.51l.5 405.85L1945.93 927l.44-436.88c-298.82-31.8-580.46 139.06-875.48 196.56" stroke-miterlimit="10" fill="#69c212" stroke="#43720c" stroke-width="11"/><path class="cls-3" d="M71.32 610.27A18 18 0 0 1 78 624a1.13 1.13 0 0 0 2.25 0 20.23 20.23 0 0 0-7.3-15.36c-1.11-.92-2.71.66-1.59 1.59z"/><path class="cls-3" d="M80.06 624.29a30.8 30.8 0 0 1 6-11.35c.92-1.11-.66-2.71-1.59-1.59a33.4 33.4 0 0 0-6.54 12.34 1.13 1.13 0 0 0 2.17.6z"/><path class="cls-3" d="M79.14 609.94a34.62 34.62 0 0 1-.78 8.55c-.31 1.41 1.86 2 2.17.6a37.52 37.52 0 0 0 .86-9.15c0-1.45-2.3-1.45-2.25 0zM1836.32 585.27A18 18 0 0 1 1843 599a1.13 1.13 0 0 0 2.25 0 20.23 20.23 0 0 0-7.3-15.36c-1.11-.92-2.71.66-1.59 1.59z"/><path class="cls-3" d="M1845.06 599.29a30.8 30.8 0 0 1 6-11.35c.92-1.11-.66-2.71-1.59-1.59a33.4 33.4 0 0 0-6.54 12.34 1.13 1.13 0 0 0 2.17.6z"/><path class="cls-3" d="M1844.14 584.94a34.62 34.62 0 0 1-.78 8.55c-.31 1.41 1.86 2 2.17.6a37.52 37.52 0 0 0 .86-9.15c-.05-1.45-2.3-1.45-2.25 0zM596.32 829.27A18 18 0 0 1 603 843a1.13 1.13 0 0 0 2.25 0 20.23 20.23 0 0 0-7.3-15.36c-1.11-.92-2.71.66-1.59 1.59z"/><path class="cls-3" d="M605.06 843.29a30.8 30.8 0 0 1 6-11.35c.92-1.11-.66-2.71-1.59-1.59a33.4 33.4 0 0 0-6.54 12.34 1.13 1.13 0 0 0 2.17.6z"/><path class="cls-3" d="M604.14 828.94a34.62 34.62 0 0 1-.78 8.55c-.31 1.41 1.86 2 2.17.6a37.52 37.52 0 0 0 .86-9.15c0-1.45-2.3-1.45-2.25 0zM436.32 570.27A18 18 0 0 1 443 584a1.13 1.13 0 0 0 2.25 0 20.23 20.23 0 0 0-7.3-15.36c-1.11-.92-2.71.66-1.59 1.59z"/><path class="cls-3" d="M445.06 584.29a30.8 30.8 0 0 1 6-11.35c.92-1.11-.66-2.71-1.59-1.59a33.4 33.4 0 0 0-6.54 12.34 1.13 1.13 0 0 0 2.17.6z"/><path class="cls-3" d="M444.14 569.94a34.62 34.62 0 0 1-.78 8.55c-.31 1.41 1.86 2 2.17.6a37.52 37.52 0 0 0 .86-9.15c-.05-1.45-2.3-1.45-2.25 0zM255.32 770.27A18 18 0 0 1 262 784a1.13 1.13 0 0 0 2.25 0 20.23 20.23 0 0 0-7.3-15.36c-1.11-.92-2.71.66-1.59 1.59z"/><path class="cls-3" d="M264.06 784.29a30.8 30.8 0 0 1 6-11.35c.92-1.11-.66-2.71-1.59-1.59a33.4 33.4 0 0 0-6.54 12.34 1.13 1.13 0 0 0 2.17.6z"/><path class="cls-3" d="M263.14 769.94a34.62 34.62 0 0 1-.78 8.55c-.31 1.41 1.86 2 2.17.6a37.52 37.52 0 0 0 .86-9.15c-.05-1.45-2.3-1.45-2.25 0zM727.32 677.27A18 18 0 0 1 734 691a1.13 1.13 0 0 0 2.25 0 20.23 20.23 0 0 0-7.3-15.36c-1.11-.92-2.71.66-1.59 1.59z"/><path class="cls-3" d="M736.06 691.29a30.8 30.8 0 0 1 6-11.35c.92-1.11-.66-2.71-1.59-1.59a33.4 33.4 0 0 0-6.54 12.34 1.13 1.13 0 0 0 2.17.6z"/><path class="cls-3" d="M735.14 676.94a34.62 34.62 0 0 1-.78 8.55c-.31 1.41 1.86 2 2.17.6a37.52 37.52 0 0 0 .86-9.15c0-1.45-2.3-1.45-2.25 0zM1313.32 770.27A18 18 0 0 1 1320 784a1.13 1.13 0 0 0 2.25 0 20.23 20.23 0 0 0-7.3-15.36c-1.11-.92-2.71.66-1.59 1.59z"/><path class="cls-3" d="M1322.06 784.29a30.8 30.8 0 0 1 6-11.35c.92-1.11-.66-2.71-1.59-1.59a33.4 33.4 0 0 0-6.54 12.34 1.13 1.13 0 0 0 2.17.6z"/><path class="cls-3" d="M1321.14 769.94a34.62 34.62 0 0 1-.78 8.55c-.31 1.41 1.86 2 2.17.6a37.52 37.52 0 0 0 .86-9.15c-.05-1.45-2.3-1.45-2.25 0zM969.32 843.27A18 18 0 0 1 976 857a1.13 1.13 0 0 0 2.25 0 20.23 20.23 0 0 0-7.3-15.36c-1.11-.92-2.71.66-1.59 1.59z"/><path class="cls-3" d="M978.06 857.29a30.8 30.8 0 0 1 6-11.35c.92-1.11-.66-2.71-1.59-1.59a33.4 33.4 0 0 0-6.54 12.34 1.13 1.13 0 0 0 2.17.6z"/><path class="cls-3" d="M977.14 842.94a34.62 34.62 0 0 1-.78 8.55c-.31 1.41 1.86 2 2.17.6a37.52 37.52 0 0 0 .86-9.15c0-1.45-2.3-1.45-2.25 0zM1702.32 836.27A18 18 0 0 1 1709 850a1.13 1.13 0 0 0 2.25 0 20.23 20.23 0 0 0-7.3-15.36c-1.11-.92-2.71.66-1.59 1.59z"/><path class="cls-3" d="M1711.06 850.29a30.8 30.8 0 0 1 6-11.35c.92-1.11-.66-2.71-1.59-1.59a33.4 33.4 0 0 0-6.54 12.34 1.13 1.13 0 0 0 2.17.6z"/><path class="cls-3" d="M1710.14 835.94a34.62 34.62 0 0 1-.78 8.55c-.31 1.41 1.86 2 2.17.6a37.52 37.52 0 0 0 .86-9.15c-.05-1.45-2.3-1.45-2.25 0zM1096.32 763.27A18 18 0 0 1 1103 777a1.13 1.13 0 0 0 2.25 0 20.23 20.23 0 0 0-7.3-15.36c-1.11-.92-2.71.66-1.59 1.59z"/><path class="cls-3" d="M1105.06 777.29a30.8 30.8 0 0 1 6-11.35c.92-1.11-.66-2.71-1.59-1.59a33.4 33.4 0 0 0-6.54 12.34 1.13 1.13 0 0 0 2.17.6z"/><path class="cls-3" d="M1104.14 762.94a34.62 34.62 0 0 1-.78 8.55c-.31 1.41 1.86 2 2.17.6a37.52 37.52 0 0 0 .86-9.15c-.05-1.45-2.3-1.45-2.25 0zM1829.32 750.27A18 18 0 0 1 1836 764a1.13 1.13 0 0 0 2.25 0 20.23 20.23 0 0 0-7.3-15.36c-1.11-.92-2.71.66-1.59 1.59z"/><path class="cls-3" d="M1838.06 764.29a30.8 30.8 0 0 1 6-11.35c.92-1.11-.66-2.71-1.59-1.59a33.4 33.4 0 0 0-6.54 12.34 1.13 1.13 0 0 0 2.17.6z"/><path class="cls-3" d="M1837.14 749.94a34.62 34.62 0 0 1-.78 8.55c-.31 1.41 1.86 2 2.17.6a37.52 37.52 0 0 0 .86-9.15c-.05-1.45-2.3-1.45-2.25 0zM1543.32 653.27A18 18 0 0 1 1550 667a1.13 1.13 0 0 0 2.25 0 20.23 20.23 0 0 0-7.3-15.36c-1.11-.92-2.71.66-1.59 1.59z"/><path class="cls-3" d="M1552.06 667.29a30.8 30.8 0 0 1 6-11.35c.92-1.11-.66-2.71-1.59-1.59a33.4 33.4 0 0 0-6.54 12.34 1.13 1.13 0 0 0 2.17.6z"/><path class="cls-3" d="M1551.14 652.94a34.62 34.62 0 0 1-.78 8.55c-.31 1.41 1.86 2 2.17.6a37.52 37.52 0 0 0 .86-9.15c-.05-1.45-2.3-1.45-2.25 0z"/><path class="cls-4" d="M27.27 467l5.27 60.73M87.36 464.2l3.52 60.8M88.48 483.6l-58 3M90 508.77l-58.1 2.92M146 462.71l4 60.75M147.56 483.68l-58.16 1.14M148.56 508.9L90.39 510M205.89 462.58l2.74 61.16M206.79 482.13l-58.48.51M207.91 507.46l-58.49.43M263.74 460.51l3.08 61M264 478.44l-58.55 3.1M266.72 503.55l-58.55 3.1M320 459l5.4 60.34M321.82 478.57l-58.79.3M324.28 503.5l-58.81.22M379.56 476.93l-59.24 1.31M382.81 501.87l-59.23 1.31M28.48 486.63l-28 3M30.17 511.46L2.1 514.35M378.87 457.7l-2.29 60.9M438.84 462.36l-4 60.78M437.55 481.75l-57.93-4.2M435.92 506.91l-58-4.29M497.2 468.14l-3.54 60.78M496.17 489.14l-57.86-6.07M494 514.29l-57.86-6.15M556.66 475.43l-4.85 61M555.14 494.93L497 488.21M553.11 520.2L495 513.4M616.7 483.48l-7 60.68M614 501.2l-58.26-6.57M612.55 526.43l-58.25-6.58M674.77 494.36l-7.34 60.13M672.5 513.92l-57.56-12M669.69 538.82l-57.55-12.09M729.3 524.4l-58.2-11.12M727.27 549.47l-58.2-11.12M734.34 506.81l-13.94 59.34M792.3 522.91l-15.63 58.87M787.31 541.7l-56-15.26M780.88 566.07l-56.09-15.34M848.46 539.79l-15.15 59M843.42 560.21l-55.61-17.07M836.49 584.48l-55.59-17.15M905.42 558.37l-16.49 59M900.18 577.22l-55.73-17.76M893.33 601.63l-55.7-17.84M964.22 581.61l-21.49 57.16M957.27 598.13l-54.93-20.51M949.79 622.26l-54.93-20.51M1019.11 606.56l-23.4 55.88M1011.61 624.77l-52.12-27.19M1002.15 648L950 620.69M1063.43 650.28l-53-26.51M1054.66 673.85l-53-26.5M1060.75 627.64l-8 60M1103.48 656l-46.61-9.45M1100.36 680.84l-45.8-9.28M1398.61 605.7l-24.35-55.87M1342.54 627.5l-22.71-56.5M1335.3 609.46l54-21.32M1325.86 586.09l54.14-21.28M1287.45 647.6l-23.16-56.31M1279.27 628.22l54.73-19.61M1270.29 604.64l54.8-19.54M1230.7 666.81l-22.08-57.1M1223.62 648.57l55.27-19.13M1214.49 624.92l55.3-19.06M1170.63 687.81l-16.4-58.81M1167 672l55.42-19.15M1158.23 645.08l55.35-19.33M1103.18 697.68l1.26-60.57M1105.45 681l59.86-10.94M1100.69 656.54l57.86-10.5M1431.07 528.52l19.55 57.69M1437.31 546.93l-55.12 18.3M1445.43 570.79l-55.2 18.21M1487.19 511.5l20 57.51M1494.29 531.31l-55.77 16.55M1502 555.35l-55.8 16.47M1544.92 495.47l18.89 58.23M1551 514.07l-56.25 16M1558.78 538.19l-56.27 16M1600.13 478.1l19.18 58M1605.1 495.33l-55.62 18.54M1614.44 518.8l-55.62 18.55M1659.05 461.26l19 57.52M1665.33 479.92l-57.17 13.68M1673.41 503.63l-57.21 13.61M1721.18 465.18l-57.38 14.76M1730 488.72l-57.38 14.76M1721 445.71l6.93 60.46M1781.83 441.09l5.16 60.6M1783.47 460.43l-58.7 4.76M1785.64 485.51l-58.77 4.68M1841.2 437.82l5.65 60.53M1843.35 458.71l-58.92 2.91M1845 483.85l-58.93 2.82M1901.91 435.87l4.37 61M1903.33 455.35l-59.25 2.3M1905.13 480.6l-59.27 2.22M1947.24 452.49l-43.39 2.51M1949.65 477.6l-43.39 2.47"/><g clip-path="url(#clip-path)"><path class="cls-6" d="M1793.8 212.74a4.11 4.11 0 0 0 .44 2.18c.18.63.18.88 1.51 2.16 2.69 2.52 7.68 3 12.13 3 5.21 0 15.76-3.21 19-6.11l3.53-5.3c-.62.31-.66.65-.88.93a13.61 13.61 0 0 0-.88 1.25c-.36.5-.53 1-.89 1.56-.22.41-.75.87-.75 1.43a6.42 6.42 0 0 0 1 4.18 9.24 9.24 0 0 0 4.1 2.56c9.67 3.68 16.12 2.81 26.93 1.5a33 33 0 0 0 10.64-3.18 10.09 10.09 0 0 0 3.62-3.09 5.56 5.56 0 0 0 .71-5c-.31-.94-1.11-3.8-1.55-4.24l2 6.45c6.27.6 12.19-.09 17.44-2.65s8.65-7.11 7.68-11.53c-.79-3.59-4.19-6.61-7.86-9.14-7.77-5.33-18.54-9.45-29.18-7.95a15.4 15.4 0 0 0-5 1.43l6.84-1.68c6.23-3.05 5.21-8.95 2.83-14.06-1.24-2.71-7.37-6.92-13.86-8.39-5.7-1.31-12.23-.09-13.69.94l-.75 4.64c.89-4.42 1.28-9.76-3.84-12.47a21 21 0 0 0-7.94-1.84 67.16 67.16 0 0 0-35.14 7.49 41.42 41.42 0 0 0-5.3 2.8c-6.49 4.58-9.14 7.95-8.83 15.28l8.92 2.52a34.44 34.44 0 0 0-7.42-1.84c-5-.84-10.77 1.56-14.74 3.75a49.57 49.57 0 0 0-4.81 4.27c-2.7 2.49-4.82 5.58-4.11 8.7s4.15 4.74 8.48 5.42a19.9 19.9 0 0 0 4.85-.62c2.52-.56 5-2 5.74-2.18l-4.41 1.87a8.92 8.92 0 0 0-3.89 8 8.22 8.22 0 0 0 4.28 6.36c3.8 2.31 10.07 3.12 15.59 2.4s13.37-5.24 16.68-7.76"/><path class="cls-7" d="M1793.14 212.74c-.13 3.43 3 6.14 7.55 7.17a31.75 31.75 0 0 0 14.83-.53 47.26 47.26 0 0 0 7.15-2.4c1.64-.71 3.76-1.59 4.82-2.77a42.8 42.8 0 0 0 3.53-5.3c.31-.47-.49-1-1.06-.56-1.55 1.09-2.43 3.05-3.22 4.49a5.2 5.2 0 0 0 .57 5.17c1.24 1.78 3.84 2.78 6.27 3.59a38.87 38.87 0 0 0 8.12 1.84c5.47.59 11-.13 16.42-.78s12-2.25 15.14-5.74a6.22 6.22 0 0 0 1.55-6c-.4-1.46-.66-3.27-1.68-4.58-.4-.47-1.37-.16-1.19.37.66 2.16 1.32 4.31 2 6.46a.7.7 0 0 0 .62.34c6.44.56 13-.19 18.27-3 4.29-2.25 7.33-5.8 7.64-9.6.31-4.34-3.31-8.05-7.46-11a49.32 49.32 0 0 0-15.89-7.55c-6.05-1.62-14.22-2.27-19.87.44-.57.28-.22 1 .53.84 2.83-.68 6.32-1.12 8.52-2.62 4.11-2.83 3.89-7.2 2.7-10.85a11.66 11.66 0 0 0-3-5.17 26.29 26.29 0 0 0-6.4-4.24 27.13 27.13 0 0 0-18.15-2c-1.59.41-2.34.72-2.56 1.87-.22 1.34-.44 2.65-.66 4-.09.53 1.19.65 1.28.12.75-3.84 1.41-8.51-2.29-11.75-4.2-3.62-12.72-3.53-18.77-3.12a69.87 69.87 0 0 0-20.88 4.8c-5.73 2.31-11.34 5.05-15.4 8.76a15 15 0 0 0-5 12.47c0 .22.22.38.48.44 3 .81 6 1.62 9 2.46.7.19 1.14-.59.53-.84a28.89 28.89 0 0 0-9.76-2.09 23.41 23.41 0 0 0-9 2 20.14 20.14 0 0 0-6.27 3.77c-2.07 1.9-4.32 3.8-5.74 6-2.29 3.65-1.94 8 3.31 10.22a13 13 0 0 0 7 1 22.51 22.51 0 0 0 4.81-1.15c1.28-.47 2.43-1.15 3.71-1.56l-.66-.81c-1.42.59-2.92 1.12-4.29 1.81a7.82 7.82 0 0 0-3.62 4.21c-1.63 4-.57 8.7 4.33 11.35s12.49 3.18 18.1 1.65a45.76 45.76 0 0 0 14.52-7.36c.58-.44-.35-1.09-.92-.65a47 47 0 0 1-12.23 6.57 25.82 25.82 0 0 1-17.26-.28c-5.52-2.27-6.93-6.92-5.26-11a6.67 6.67 0 0 1 3.71-3.93c1.19-.5 2.39-1 3.58-1.53.75-.31.09-1.06-.66-.81-2.21.72-4 1.81-6.36 2.31a12.52 12.52 0 0 1-7.55-.53c-6-2.34-4.72-7.42-1.63-10.95a27.13 27.13 0 0 1 9.8-7.45 22.38 22.38 0 0 1 8.34-2 27 27 0 0 1 9.45 2c.17-.28.35-.56.53-.84-3-.81-6-1.62-9-2.47a4.79 4.79 0 0 0 .48.44c-.13-3.71.49-7.33 3.36-10.51 3.18-3.52 7.77-5.92 12.58-8.23a68.91 68.91 0 0 1 18-5.64c6.14-1 14-1.59 20 .12 7.28 2.09 6.8 8.3 5.87 12.88.44 0 .88.09 1.28.13.18-1.22.4-2.41.57-3.62 0-.22 0-.63.14-.81s.17-.06.17-.06c.75-.63 2.92-.82 4-1a26.15 26.15 0 0 1 20.26 6.14 12.72 12.72 0 0 1 3.22 6.21c.58 2.3.71 4.86-.79 7a7.85 7.85 0 0 1-5 3.06c-1.59.4-3.23.78-4.81 1.18.17.28.35.56.53.84 6.26-3 15.36-1.65 21.67.5s12.49 5.65 16.47 9.79c4.28 4.46 4 9.89-1.11 14s-13 5.3-20.39 4.68a6 6 0 0 1 .62.34c-.67-2.15-1.33-4.3-2-6.45l-1.2.37c.93 1.15 1.11 2.84 1.46 4.12.79 2.77-.44 5.45-3.53 7.29-5.17 3.06-12.27 3.74-18.72 4.27a41.24 41.24 0 0 1-16.64-1.59c-3.84-1.24-6.71-2.74-6.89-6a8.49 8.49 0 0 1 3.18-5.93l-1.06-.56c-1.06 1.59-2.07 3.21-3.18 4.8-1.59 2.18-5.82 3.53-8.87 4.49a34.42 34.42 0 0 1-13.16 1.78c-5.38-.41-10.33-2.59-10.19-6.77-.01-.56-1.34-.56-1.34.03z"/></g><g clip-path="url(#clip-path-2)"><path class="cls-6" d="M1603.3 136.09a5.13 5.13 0 0 0 .7 2.91c.26.83.26 1.16 2.2 2.87 3.94 3.36 11.24 4 17.77 4 7.62 0 23.07-4.28 27.85-8.15l5.17-7.07c-.9.42-1 .88-1.29 1.25a17.39 17.39 0 0 0-1.29 1.66c-.52.67-.78 1.29-1.3 2.08-.32.54-1.09 1.16-1.09 1.91 0 1.92.06 3.91 1.48 5.57s3.62 2.58 6 3.41c14.15 4.91 23.59 3.74 39.42 2a51.35 51.35 0 0 0 15.58-4.24 14.35 14.35 0 0 0 5.3-4.12 6.84 6.84 0 0 0 1-6.69c-.45-1.25-1.62-5.07-2.26-5.65l3 8.6c9.18.79 17.84-.12 25.53-3.53s12.66-9.48 11.24-15.38c-1.16-4.78-6.14-8.82-11.5-12.18-11.37-7.11-27.14-12.6-42.72-10.61a24 24 0 0 0-7.36 1.92l10-2.25c9.11-4.07 7.63-11.93 4.14-18.75-1.81-3.61-10.79-9.23-20.29-11.18-8.34-1.75-17.9-.12-20 1.25l-1.1 6.19c1.3-5.9 1.88-13-5.62-16.63-3.29-1.58-7.49-2.16-11.63-2.45a106.4 106.4 0 0 0-51.44 10c-3 1.41-5.17 2.08-7.76 3.74-9.5 6.11-13.37 10.6-12.92 20.37l13 3.37a53.12 53.12 0 0 0-10.85-2.46c-7.31-1.12-15.77 2.08-21.59 5-1.23.63-4.59 3.62-7 5.7-3.94 3.32-7 7.44-6 11.6s6.07 6.31 12.41 7.23a33.16 33.16 0 0 0 7.1-.83c3.69-.75 7.31-2.66 8.41-2.91l-6.47 2.49a11.53 11.53 0 0 0-5.68 10.73c.32 3.07 2.13 6.23 6.27 8.48 5.55 3.07 14.73 4.16 22.81 3.2s19.58-7 24.43-10.35"/><path class="cls-7" d="M1602.34 136.09c-.2 4.57 4.33 8.19 11.05 9.56a51 51 0 0 0 21.71-.71 75 75 0 0 0 10.47-3.2c2.39-1 5.49-2.12 7-3.7 2.14-2.12 3.49-4.78 5.17-7.07.46-.62-.71-1.28-1.55-.74-2.26 1.45-3.55 4.07-4.72 6s-.64 5 .84 6.9c1.81 2.37 5.63 3.7 9.18 4.78a60.7 60.7 0 0 0 11.89 2.46c8 .79 16.16-.17 24-1 8.08-.88 17.51-3 22.17-7.65a7.79 7.79 0 0 0 2.26-8c-.58-1.95-1-4.36-2.46-6.11-.58-.62-2-.2-1.74.5 1 2.87 1.94 5.74 3 8.61.13.29.52.41.91.45 9.43.75 19-.24 26.75-3.94 6.27-3 10.73-7.74 11.18-12.81.45-5.78-4.85-10.72-10.92-14.67a75.47 75.47 0 0 0-23.27-10.06c-8.85-2.17-20.8-3-29.08.58-.84.37-.32 1.37.78 1.12 4.14-.91 9.24-1.5 12.47-3.49 6-3.78 5.69-9.6 3.94-14.47a15.12 15.12 0 0 0-4.33-6.9 38.63 38.63 0 0 0-9.37-5.65 43.25 43.25 0 0 0-26.56-2.62c-2.32.54-3.42 1-3.74 2.49-.33 1.79-.65 3.54-1 5.32-.13.71 1.74.88 1.87.17 1.1-5.11 2.07-11.35-3.36-15.67-6.14-4.82-18.61-4.7-27.47-4.16a110.82 110.82 0 0 0-30.56 6.4c-8.4 3.08-16.61 6.74-22.56 11.68a19.15 19.15 0 0 0-7.3 16.63c0 .29.32.5.71.58 4.4 1.09 8.73 2.17 13.12 3.29 1 .25 1.68-.79.78-1.12a45.65 45.65 0 0 0-14.21-2.87 37.38 37.38 0 0 0-13.24 2.7 30.18 30.18 0 0 0-9.18 5c-3 2.54-6.33 5.08-8.4 8-3.36 4.86-2.84 10.72 4.85 13.63a20.81 20.81 0 0 0 10.21 1.37 36.12 36.12 0 0 0 7-1.53c1.87-.63 3.55-1.54 5.43-2.08-.32-.38-.65-.71-1-1.08-2.07.79-4.27 1.49-6.27 2.41a10.75 10.75 0 0 0-5.3 5.61c-2.39 5.36-.84 11.6 6.33 15.13s18.29 4.24 26.5 2.21a69.71 69.71 0 0 0 21.26-9.82c.84-.58-.52-1.45-1.36-.87a70.71 70.71 0 0 1-17.9 8.77 41.27 41.27 0 0 1-25.26-.37c-8.08-3-10.15-9.23-7.69-14.72a9.27 9.27 0 0 1 5.42-5.24c1.75-.66 3.49-1.33 5.24-2 1.1-.42.13-1.42-1-1.08-3.23 1-5.82 2.41-9.31 3.07a19.89 19.89 0 0 1-11-.7c-8.72-3.12-6.91-9.9-2.39-14.6a39.58 39.58 0 0 1 14.35-9.93 35.22 35.22 0 0 1 12.21-2.7 42.74 42.74 0 0 1 13.83 2.62l.78-1.13c-4.4-1.08-8.73-2.16-13.12-3.28a7.24 7.24 0 0 0 .71.58c-.19-4.95.71-9.77 4.91-14 4.65-4.7 11.37-7.9 18.42-11a108.65 108.65 0 0 1 26.3-7.53c9-1.37 20.42-2.12 29.21.17 10.66 2.78 10 11.06 8.6 17.17.64 0 1.29.12 1.87.16.26-1.62.58-3.2.84-4.82.06-.29 0-.83.19-1.08s.26-.08.26-.08c1.1-.83 4.27-1.08 5.88-1.29 11.44-1.33 22.69 2.45 29.66 8.19a16.56 16.56 0 0 1 4.72 8.27c.84 3.08 1 6.49-1.16 9.35-1.68 2.21-4 3.33-7.37 4.08-2.32.54-4.72 1-7 1.58l.77 1.12c9.18-4 22.49-2.2 31.73.67s18.29 7.52 24.11 13c6.27 5.94 5.81 13.18-1.62 18.62s-19 7.07-29.85 6.24c.32.17.64.29.9.46-1-2.87-1.94-5.74-3-8.61l-1.75.5c1.36 1.54 1.62 3.78 2.14 5.49 1.16 3.7-.65 7.27-5.17 9.73-7.56 4.07-18 5-27.4 5.69A66.07 66.07 0 0 1 1663 147c-5.62-1.66-9.82-3.66-10.08-8-.13-2.25 2.07-6.24 4.65-7.9l-1.55-.75c-1.55 2.12-3 4.28-4.65 6.4-2.33 2.91-8.53 4.7-13 6a54.7 54.7 0 0 1-19.26 2.37c-7.88-.54-15.12-3.45-14.92-9 .08-.82-1.85-.82-1.85-.03z"/></g><g clip-path="url(#clip-path-3)"><path class="cls-6" d="M1896.75 78.28a5.15 5.15 0 0 0 .27 2 3.73 3.73 0 0 0 .93 1.93c1.67 2.27 4.75 2.68 7.51 2.71 3.22 0 9.75-2.88 11.77-5.48l2.19-4.76c-.39.28-.41.59-.55.84-.25.45-.38.76-.55 1.12s-.32.87-.54 1.4a3.46 3.46 0 0 0-.47 1.29 7.91 7.91 0 0 0 .63 3.75 6.06 6.06 0 0 0 2.54 2.29c6 3.3 10 2.52 16.66 1.34a16 16 0 0 0 6.58-2.85 7.65 7.65 0 0 0 2.24-2.77 6.92 6.92 0 0 0 .43-4.51 27.61 27.61 0 0 0-1-3.8l1.25 5.79a14.58 14.58 0 0 0 10.79-2.38 11.11 11.11 0 0 0 4.75-10.35c-.49-3.22-2.59-5.93-4.86-8.2-4.81-4.78-11.47-8.48-18-7.13a7.24 7.24 0 0 0-3.11 1.28l4.23-1.51c3.85-2.74 3.22-8 1.75-12.62-.77-2.43-4.56-6.21-8.58-7.52-3.52-1.18-7.56-.09-8.46.84l-.46 4.17c.54-4 .79-8.76-2.38-11.2a9.82 9.82 0 0 0-4.91-1.65c-7.76-.84-15.51 2-21.74 6.72a24.59 24.59 0 0 0-3.28 2.52c-4 4.11-5.65 7.13-5.46 13.71l5.52 2.26a16.07 16.07 0 0 0-4.59-1.65c-3.09-.75-6.66 1.4-9.12 3.36a39.88 39.88 0 0 0-3 3.83c-1.66 2.24-3 5-2.54 7.81s2.57 4.25 5.25 4.87a9 9 0 0 0 3-.56 22.45 22.45 0 0 0 3.55-2l-2.73 1.68c-1.91 1.68-2.54 5.15-2.4 7.22a8.08 8.08 0 0 0 2.65 5.71c2.34 2.07 6.22 2.79 9.63 2.15s8.28-4.7 10.33-7"/><path class="cls-7" d="M1896.34 78.28a6.5 6.5 0 0 0 4.67 6.44 13.85 13.85 0 0 0 9.18-.48 23.79 23.79 0 0 0 4.42-2.16 9.17 9.17 0 0 0 3-2.49 40.92 40.92 0 0 0 2.18-4.75c.19-.42-.3-.87-.65-.51a12.27 12.27 0 0 0-2 4 6.51 6.51 0 0 0 .36 4.65 7.66 7.66 0 0 0 3.87 3.22 17.89 17.89 0 0 0 5 1.65c3.38.53 6.83-.12 10.16-.7s7.4-2 9.36-5.15a7.48 7.48 0 0 0 1-5.4 14.86 14.86 0 0 0-1-4.11.41.41 0 0 0-.74.33c.41 1.93.82 3.86 1.26 5.79a.44.44 0 0 0 .38.31 15.22 15.22 0 0 0 11.21-2.63 11.89 11.89 0 0 0 4.72-8.62c.19-3.88-2-7.21-4.61-9.87a27.86 27.86 0 0 0-9.83-6.77c-3.75-1.46-8.8-2.05-12.29.39-.36.25-.14.92.33.75 1.74-.61 3.9-1 5.27-2.35 2.54-2.54 2.4-6.46 1.66-9.73a12.21 12.21 0 0 0-1.83-4.65 17.22 17.22 0 0 0-4-3.8 12.15 12.15 0 0 0-11.22-1.77c-1 .37-1.45.65-1.58 1.68-.14 1.2-.28 2.38-.41 3.58-.06.48.73.59.79.12.46-3.45.87-7.64-1.42-10.55-2.6-3.25-7.87-3.17-11.61-2.8a32.37 32.37 0 0 0-12.91 4.31 31.44 31.44 0 0 0-9.53 7.86c-2.49 3.33-3.2 7.08-3.09 11.19a.41.41 0 0 0 .3.39c1.86.73 3.69 1.46 5.55 2.21.43.17.71-.53.32-.75a13.24 13.24 0 0 0-6-1.88 11.07 11.07 0 0 0-5.6 1.82 12.74 12.74 0 0 0-3.88 3.39 28.61 28.61 0 0 0-3.55 5.4c-1.42 3.27-1.2 7.22 2.05 9.18a5.91 5.91 0 0 0 4.32.92 10.41 10.41 0 0 0 3-1c.79-.42 1.5-1 2.3-1.39-.14-.26-.28-.48-.41-.73-.88.53-1.81 1-2.65 1.62a6.89 6.89 0 0 0-2.24 3.78c-1 3.61-.36 7.81 2.68 10.18a12 12 0 0 0 11.19 1.49 26.58 26.58 0 0 0 9-6.61c.36-.39-.21-1-.57-.58a28 28 0 0 1-7.56 5.9 11.38 11.38 0 0 1-10.68-.25c-3.41-2-4.29-6.21-3.25-9.91a5.63 5.63 0 0 1 2.29-3.52c.74-.45 1.48-.9 2.22-1.37a.42.42 0 0 0-.41-.73c-1.37.64-2.46 1.62-3.94 2.07a5.46 5.46 0 0 1-4.66-.48c-3.69-2.1-2.93-6.66-1-9.82a19.39 19.39 0 0 1 6.06-6.69 10.35 10.35 0 0 1 5.16-1.81 12.36 12.36 0 0 1 5.84 1.76l.33-.76c-1.86-.72-3.69-1.45-5.54-2.21a4.41 4.41 0 0 0 .3.39 16.56 16.56 0 0 1 2.07-9.43c2-3.16 4.81-5.31 7.78-7.38a34.19 34.19 0 0 1 11.12-5.07c3.79-.92 8.63-1.42 12.34.12 4.5 1.87 4.2 7.44 3.63 11.55.27 0 .55.09.79.11.11-1.09.25-2.15.36-3.24a3.4 3.4 0 0 1 .08-.73c.08-.17.11-.06.11-.06.46-.56 1.8-.72 2.48-.86 4.84-.9 9.59 1.65 12.54 5.51a13.91 13.91 0 0 1 2 5.57 10.47 10.47 0 0 1-.49 6.29 5 5 0 0 1-3.11 2.74c-1 .37-2 .7-3 1.07l.33.75c3.87-2.71 9.5-1.48 13.4.45a26.91 26.91 0 0 1 10.16 8.75 10.14 10.14 0 0 1-.68 12.53c-3.17 3.7-8 4.76-12.62 4.2a4.23 4.23 0 0 1 .38.31c-.41-1.93-.82-3.86-1.25-5.79l-.74.33a13.29 13.29 0 0 1 .9 3.69 6.72 6.72 0 0 1-2.18 6.55c-3.2 2.74-7.59 3.36-11.58 3.84a18.11 18.11 0 0 1-10.23-1.43c-2.38-1.12-4.16-2.46-4.26-5.37a9.05 9.05 0 0 1 2-5.32l-.65-.5c-.66 1.42-1.29 2.88-2 4.31-1 1.95-3.6 3.16-5.49 4a15.13 15.13 0 0 1-8.14 1.6c-3.33-.36-6.38-2.32-6.3-6.07a.39.39 0 1 0-.82-.01z"/></g><g clip-path="url(#clip-path-4)"><path class="cls-6" d="M318 45.24a4.26 4.26 0 0 0 .22 1.57 3 3 0 0 0 .75 1.54c1.33 1.82 3.8 2.15 6 2.18 2.58 0 7.8-2.31 9.42-4.39l1.75-3.81a1.4 1.4 0 0 0-.44.68 9.06 9.06 0 0 0-.44.89c-.17.36-.26.69-.43 1.12a2.86 2.86 0 0 0-.38 1 6.33 6.33 0 0 0 .51 3 4.68 4.68 0 0 0 2 1.83c4.78 2.65 8 2 13.32 1.08a12.86 12.86 0 0 0 5.27-2.28 6.24 6.24 0 0 0 1.79-2.22 5.57 5.57 0 0 0 .35-3.6 20.71 20.71 0 0 0-.77-3l1 4.63a11.63 11.63 0 0 0 8.63-1.9 8.88 8.88 0 0 0 3.8-8.28c-.39-2.57-2.08-4.75-3.89-6.56-3.84-3.83-9.17-6.78-14.44-5.71a5.89 5.89 0 0 0-2.49 1l3.39-1.21c3.08-2.19 2.57-6.42 1.39-10.09-.61-2-3.64-5-6.85-6-2.82-.94-6.06-.07-6.78.67l-.37 3.33c.44-3.17.64-7-1.9-8.95a7.81 7.81 0 0 0-3.94-1.33c-6.2-.67-12.41 1.63-17.39 5.37a19.21 19.21 0 0 0-2.62 2c-3.21 3.29-4.52 5.7-4.37 11l4.41 1.82a12.6 12.6 0 0 0-3.67-1.32c-2.46-.61-5.33 1.12-7.29 2.68a31.8 31.8 0 0 0-2.38 3.02 8.62 8.62 0 0 0-2 6.25c.35 2.23 2.06 3.4 4.2 3.89a7 7 0 0 0 2.4-.45 17.94 17.94 0 0 0 2.84-1.56l-2.18 1.34c-1.53 1.34-2 4.12-1.93 5.77a6.52 6.52 0 0 0 2.12 4.57 9.43 9.43 0 0 0 7.72 1.72c2.73-.51 6.61-3.76 8.25-5.57"/><path class="cls-7" d="M317.63 45.24a5.18 5.18 0 0 0 3.73 5.15 11 11 0 0 0 7.34-.39 19.29 19.29 0 0 0 3.54-1.72 7.39 7.39 0 0 0 2.38-2 34.56 34.56 0 0 0 1.75-3.81c.15-.34-.24-.69-.52-.4a9.63 9.63 0 0 0-1.6 3.22 5.2 5.2 0 0 0 .29 3.72 6.12 6.12 0 0 0 3.1 2.57 13.86 13.86 0 0 0 4 1.32 24.67 24.67 0 0 0 8.12-.56c2.73-.47 5.92-1.61 7.5-4.12a6 6 0 0 0 .76-4.32 12.13 12.13 0 0 0-.83-3.29.33.33 0 0 0-.59.27c.33 1.55.66 3.09 1 4.63a.34.34 0 0 0 .3.25 12.12 12.12 0 0 0 9-2.13 9.51 9.51 0 0 0 3.78-6.89c.16-3.11-1.63-5.78-3.69-7.9a22.23 22.23 0 0 0-7.86-5.42c-3-1.16-7-1.63-9.83.31-.29.21-.11.74.26.61 1.4-.49 3.12-.81 4.22-1.88 2-2 1.92-5.17 1.33-7.79a10 10 0 0 0-1.39-3.67 14.07 14.07 0 0 0-3.17-3 9.72 9.72 0 0 0-9-1.41c-.79.29-1.16.51-1.27 1.34s-.22 1.9-.33 2.87c0 .38.59.47.64.09.37-2.76.7-6.11-1.14-8.44-2.07-2.6-6.29-2.53-9.28-2.24a25.91 25.91 0 0 0-10.33 3.45 25 25 0 0 0-7.63 6.29 13.69 13.69 0 0 0-2.47 8.95.32.32 0 0 0 .24.31l4.44 1.77c.35.14.57-.42.26-.6a10.56 10.56 0 0 0-4.83-1.5 8.84 8.84 0 0 0-4.48 1.45 10.32 10.32 0 0 0-3.1 2.71 23 23 0 0 0-2.84 4.32c-1.13 2.62-1 5.78 1.64 7.34a4.7 4.7 0 0 0 3.45.74 7.94 7.94 0 0 0 2.38-.83c.64-.33 1.21-.82 1.84-1.12l-.33-.58c-.7.43-1.44.81-2.12 1.3a5.54 5.54 0 0 0-1.79 3c-.81 2.89-.28 6.25 2.14 8.15a9.65 9.65 0 0 0 9 1.19 21.27 21.27 0 0 0 7.18-5.29c.29-.31-.17-.78-.45-.47a22.51 22.51 0 0 1-6.05 4.73 9.12 9.12 0 0 1-8.55-.2c-2.73-1.64-3.43-5-2.6-7.93a4.53 4.53 0 0 1 1.83-2.87c.59-.36 1.18-.71 1.77-1.1a.33.33 0 0 0-.33-.58 23 23 0 0 1-3.14 1.66 4.43 4.43 0 0 1-3.74-.38c-2.95-1.68-2.34-5.33-.81-7.86a15.49 15.49 0 0 1 4.85-5.35 8.36 8.36 0 0 1 4.13-1.45 9.83 9.83 0 0 1 4.67 1.41l.27-.61c-1.49-.58-3-1.16-4.44-1.77.09.12.16.23.24.32a13.33 13.33 0 0 1 1.66-7.55 21 21 0 0 1 6.23-5.91 27.56 27.56 0 0 1 8.89-4c3-.74 6.9-1.14 9.87.09 3.61 1.5 3.37 6 2.91 9.25.22 0 .44.06.63.09.09-.88.2-1.73.29-2.6a2.65 2.65 0 0 1 .06-.58c.07-.14.09 0 .09 0 .37-.44 1.44-.58 2-.69 3.86-.72 7.66 1.32 10 4.41a11.19 11.19 0 0 1 1.6 4.45 8.42 8.42 0 0 1-.4 5 3.94 3.94 0 0 1-2.49 2.19c-.78.29-1.59.56-2.38.85l.27.61c3.1-2.17 7.6-1.19 10.72.36a21.41 21.41 0 0 1 8.15 7 8.09 8.09 0 0 1-.55 10c-2.53 3-6.42 3.81-10.09 3.36.11.09.22.16.31.25-.33-1.55-.66-3.09-1-4.64l-.59.27a10.26 10.26 0 0 1 .72 3 5.38 5.38 0 0 1-1.74 5.24c-2.56 2.19-6.08 2.68-9.27 3.06a14.47 14.47 0 0 1-8.23-1.14c-1.9-.89-3.32-2-3.41-4.3a7.3 7.3 0 0 1 1.57-4.25l-.52-.4c-.53 1.14-1 2.3-1.57 3.44-.79 1.57-2.89 2.53-4.39 3.23a12.17 12.17 0 0 1-6.51 1.27c-2.67-.29-5.12-1.85-5.05-4.85a.31.31 0 1 0-.62-.08z"/></g><g clip-path="url(#clip-path-5)"><path class="cls-6" d="M96 237.72a4.24 4.24 0 0 0 .22 1.56 3 3 0 0 0 .75 1.55c1.33 1.81 3.8 2.15 6 2.17 2.58 0 7.8-2.31 9.42-4.39l1.75-3.8c-.31.22-.33.47-.44.67-.2.36-.31.6-.44.89s-.26.7-.43 1.12a2.86 2.86 0 0 0-.38 1 6.31 6.31 0 0 0 .51 3 4.76 4.76 0 0 0 2 1.84c4.78 2.64 8 2 13.32 1.07a12.73 12.73 0 0 0 5.27-2.28 6.07 6.07 0 0 0 1.79-2.22 5.57 5.57 0 0 0 .35-3.6 20.88 20.88 0 0 0-.77-3l1 4.63a11.73 11.73 0 0 0 8.63-1.9 8.93 8.93 0 0 0 3.8-8.29c-.4-2.57-2.08-4.74-3.89-6.55-3.84-3.83-9.17-6.79-14.44-5.71a5.84 5.84 0 0 0-2.49 1l3.39-1.21c3.08-2.2 2.57-6.43 1.39-10.1-.61-1.94-3.64-5-6.86-6-2.81-.94-6-.07-6.77.67l-.37 3.34c.44-3.18.64-7-1.9-9a7.81 7.81 0 0 0-3.93-1.32c-6.2-.67-12.41 1.64-17.39 5.38a20 20 0 0 0-2.62 2c-3.21 3.29-4.52 5.71-4.37 11l4.41 1.81a12.6 12.6 0 0 0-3.67-1.32c-2.47-.6-5.33 1.12-7.29 2.69a30.18 30.18 0 0 0-2.38 3.06 8.62 8.62 0 0 0-2 6.25c.35 2.24 2.06 3.4 4.2 3.89a7.15 7.15 0 0 0 2.4-.44 18.61 18.61 0 0 0 2.84-1.57L84.38 227c-1.53 1.35-2 4.12-1.93 5.78a6.49 6.49 0 0 0 2.12 4.56 9.46 9.46 0 0 0 7.71 1.66c2.74-.52 6.62-3.76 8.26-5.58"/><path class="cls-7" d="M95.63 237.72a5.19 5.19 0 0 0 3.73 5.15 11.08 11.08 0 0 0 7.34-.38 18.71 18.71 0 0 0 3.54-1.73 7.26 7.26 0 0 0 2.38-2 32.94 32.94 0 0 0 1.75-3.81c.15-.33-.24-.69-.52-.4a9.72 9.72 0 0 0-1.6 3.22 5.2 5.2 0 0 0 .29 3.72 6.08 6.08 0 0 0 3.1 2.57 14.18 14.18 0 0 0 4 1.33 24.94 24.94 0 0 0 8.12-.56c2.73-.47 5.92-1.62 7.5-4.12a6 6 0 0 0 .76-4.32 12 12 0 0 0-.83-3.29.33.33 0 0 0-.59.27c.33 1.54.66 3.08 1 4.63a.35.35 0 0 0 .31.24 12.11 12.11 0 0 0 9-2.12 9.53 9.53 0 0 0 3.78-6.9c.16-3.11-1.63-5.77-3.69-7.9a22.33 22.33 0 0 0-7.86-5.41c-3-1.17-7-1.64-9.83.31-.29.2-.11.74.26.6 1.4-.49 3.12-.8 4.22-1.88 2-2 1.92-5.17 1.33-7.79a9.83 9.83 0 0 0-1.47-3.71 13.66 13.66 0 0 0-3.16-3 9.75 9.75 0 0 0-9-1.41c-.79.29-1.16.52-1.27 1.35l-.22 2.82c0 .38.59.47.64.09.37-2.75.7-6.11-1.14-8.44-2.07-2.6-6.29-2.53-9.28-2.24a25.86 25.86 0 0 0-10.33 3.45 25.32 25.32 0 0 0-7.63 6.29 13.69 13.69 0 0 0-2.47 9 .35.35 0 0 0 .24.32c1.49.58 3 1.16 4.44 1.77.35.13.57-.43.26-.61a10.68 10.68 0 0 0-4.83-1.5 8.76 8.76 0 0 0-4.48 1.46 10.18 10.18 0 0 0-3.1 2.71 22.7 22.7 0 0 0-2.84 4.32c-1.13 2.61-1 5.77 1.64 7.34a4.75 4.75 0 0 0 3.45.74 8.53 8.53 0 0 0 2.38-.83c.64-.34 1.21-.83 1.84-1.12l-.33-.58c-.7.42-1.44.8-2.12 1.29a5.6 5.6 0 0 0-1.79 3c-.81 2.88-.28 6.24 2.14 8.14a9.59 9.59 0 0 0 9 1.19 21.11 21.11 0 0 0 7.18-5.28c.29-.31-.17-.78-.45-.47a22.33 22.33 0 0 1-6.06 4.72 9.1 9.1 0 0 1-8.54-.2c-2.73-1.63-3.43-5-2.6-7.92A4.5 4.5 0 0 1 85 227c.59-.36 1.18-.72 1.77-1.1a.33.33 0 0 0-.33-.58 24.7 24.7 0 0 1-3.15 1.68 4.36 4.36 0 0 1-3.74-.38c-3-1.68-2.34-5.32-.81-7.85a15.32 15.32 0 0 1 4.85-5.35 8.27 8.27 0 0 1 4.13-1.46 9.94 9.94 0 0 1 4.67 1.41l.27-.6-4.44-1.77c.09.11.16.22.24.31a13.3 13.3 0 0 1 1.66-7.54 20.9 20.9 0 0 1 6.23-5.91 27.14 27.14 0 0 1 8.89-4.05c3-.74 6.9-1.14 9.87.09 3.61 1.5 3.37 5.95 2.91 9.24.22 0 .44.07.63.09.09-.87.2-1.72.29-2.6a2.78 2.78 0 0 1 .06-.63c.07-.13.09 0 .09 0 .37-.45 1.44-.58 2-.7 3.86-.71 7.66 1.32 10 4.41a11.17 11.17 0 0 1 1.6 4.46 8.39 8.39 0 0 1-.4 5 4 4 0 0 1-2.49 2.2c-.78.29-1.59.56-2.38.85l.27.6c3.1-2.17 7.6-1.18 10.72.36a21.57 21.57 0 0 1 8.15 7 8.11 8.11 0 0 1-.55 10c-2.53 2.95-6.42 3.8-10.09 3.36.11.09.22.15.31.24-.33-1.54-.66-3.09-1-4.63l-.59.27a10.2 10.2 0 0 1 .72 2.95 5.38 5.38 0 0 1-1.74 5.24c-2.56 2.19-6.08 2.69-9.27 3.07a14.47 14.47 0 0 1-8.23-1.15c-1.9-.89-3.32-2-3.41-4.29a7.33 7.33 0 0 1 1.57-4.26l-.52-.4c-.53 1.14-1 2.31-1.57 3.45-.79 1.57-2.89 2.53-4.4 3.22a12.22 12.22 0 0 1-6.5 1.28c-2.67-.29-5.12-1.86-5.05-4.86a.31.31 0 1 0-.61.05z"/></g></g></g></svg>