<svg xmlns="http://www.w3.org/2000/svg" viewBox="0 0 1951.87 498.31"><defs><style>.cls-3{stroke-miterlimit:10}.cls-2{fill:#43720c}.cls-3{fill:none;stroke:#963;stroke-width:9px}</style></defs><g id="Layer_2" data-name="Layer 2"><g id="Layer_1-2" data-name="Layer 1"><path d="M1358.42 491c-155.48-190.89-383-313.22-620.82-371.76S251 62.07 7.37 87l.5 405.84 1938.06-1.4.44-436.89c-298.82-31.79-580.46 139.07-875.48 196.56" stroke-miterlimit="10" fill="#69c212" stroke="#43720c" stroke-width="11"/><path class="cls-2" d="M71.32 174.72A18.06 18.06 0 0 1 78 188.49a1.13 1.13 0 0 0 2.25 0 20.23 20.23 0 0 0-7.3-15.36c-1.11-.92-2.71.66-1.59 1.59z"/><path class="cls-2" d="M80.06 188.74a30.88 30.88 0 0 1 6-11.35c.92-1.1-.66-2.7-1.59-1.59a33.44 33.44 0 0 0-6.54 12.35 1.12 1.12 0 0 0 2.17.59z"/><path class="cls-2" d="M79.14 174.39a34.62 34.62 0 0 1-.78 8.55c-.31 1.41 1.86 2 2.17.6a37.52 37.52 0 0 0 .86-9.15c0-1.44-2.3-1.45-2.25 0zM1836.32 149.72a18.06 18.06 0 0 1 6.64 13.77 1.13 1.13 0 0 0 2.25 0 20.23 20.23 0 0 0-7.3-15.36c-1.11-.92-2.71.66-1.59 1.59z"/><path class="cls-2" d="M1845.06 163.74a30.88 30.88 0 0 1 6-11.35c.92-1.1-.66-2.7-1.59-1.59a33.44 33.44 0 0 0-6.54 12.35 1.12 1.12 0 0 0 2.17.59z"/><path class="cls-2" d="M1844.14 149.39a34.62 34.62 0 0 1-.78 8.55c-.31 1.41 1.86 2 2.17.6a37.52 37.52 0 0 0 .86-9.15c-.05-1.44-2.3-1.45-2.25 0zM596.32 393.72a18.06 18.06 0 0 1 6.68 13.77 1.13 1.13 0 0 0 2.25 0 20.23 20.23 0 0 0-7.3-15.36c-1.11-.92-2.71.66-1.59 1.59z"/><path class="cls-2" d="M605.06 407.74a30.88 30.88 0 0 1 6-11.35c.92-1.1-.66-2.7-1.59-1.59a33.44 33.44 0 0 0-6.54 12.35 1.12 1.12 0 0 0 2.17.59z"/><path class="cls-2" d="M604.14 393.39a34.62 34.62 0 0 1-.78 8.55c-.31 1.41 1.86 2 2.17.6a37.52 37.52 0 0 0 .86-9.15c0-1.44-2.3-1.45-2.25 0zM436.32 134.72a18.06 18.06 0 0 1 6.68 13.77 1.13 1.13 0 0 0 2.25 0 20.23 20.23 0 0 0-7.3-15.36c-1.11-.92-2.71.66-1.59 1.59z"/><path class="cls-2" d="M445.06 148.74a30.88 30.88 0 0 1 6-11.35c.92-1.1-.66-2.7-1.59-1.59a33.44 33.44 0 0 0-6.54 12.35 1.12 1.12 0 0 0 2.17.59z"/><path class="cls-2" d="M444.14 134.39a34.62 34.62 0 0 1-.78 8.55c-.31 1.41 1.86 2 2.17.6a37.52 37.52 0 0 0 .86-9.15c-.05-1.44-2.3-1.45-2.25 0zM255.32 334.72a18.06 18.06 0 0 1 6.68 13.77 1.13 1.13 0 0 0 2.25 0 20.23 20.23 0 0 0-7.3-15.36c-1.11-.92-2.71.66-1.59 1.59z"/><path class="cls-2" d="M264.06 348.74a30.88 30.88 0 0 1 6-11.35c.92-1.1-.66-2.7-1.59-1.59a33.44 33.44 0 0 0-6.54 12.35 1.12 1.12 0 0 0 2.17.59z"/><path class="cls-2" d="M263.14 334.39a34.62 34.62 0 0 1-.78 8.55c-.31 1.41 1.86 2 2.17.6a37.52 37.52 0 0 0 .86-9.15c-.05-1.44-2.3-1.45-2.25 0zM727.32 241.72a18.06 18.06 0 0 1 6.68 13.77 1.13 1.13 0 0 0 2.25 0 20.23 20.23 0 0 0-7.3-15.36c-1.11-.92-2.71.66-1.59 1.59z"/><path class="cls-2" d="M736.06 255.74a30.88 30.88 0 0 1 6-11.35c.92-1.1-.66-2.7-1.59-1.59a33.44 33.44 0 0 0-6.54 12.35 1.12 1.12 0 0 0 2.17.59z"/><path class="cls-2" d="M735.14 241.39a34.62 34.62 0 0 1-.78 8.55c-.31 1.41 1.86 2 2.17.6a37.52 37.52 0 0 0 .86-9.15c0-1.44-2.3-1.45-2.25 0zM1313.32 334.72a18.06 18.06 0 0 1 6.64 13.77 1.13 1.13 0 0 0 2.25 0 20.23 20.23 0 0 0-7.3-15.36c-1.11-.92-2.71.66-1.59 1.59z"/><path class="cls-2" d="M1322.06 348.74a30.88 30.88 0 0 1 6-11.35c.92-1.1-.66-2.7-1.59-1.59a33.44 33.44 0 0 0-6.54 12.35 1.12 1.12 0 0 0 2.17.59z"/><path class="cls-2" d="M1321.14 334.39a34.62 34.62 0 0 1-.78 8.55c-.31 1.41 1.86 2 2.17.6a37.52 37.52 0 0 0 .86-9.15c-.05-1.44-2.3-1.45-2.25 0zM969.32 407.72a18.06 18.06 0 0 1 6.68 13.77 1.13 1.13 0 0 0 2.25 0 20.23 20.23 0 0 0-7.3-15.36c-1.11-.92-2.71.66-1.59 1.59z"/><path class="cls-2" d="M978.06 421.74a30.88 30.88 0 0 1 6-11.35c.92-1.1-.66-2.7-1.59-1.59a33.44 33.44 0 0 0-6.54 12.35 1.12 1.12 0 0 0 2.17.59z"/><path class="cls-2" d="M977.14 407.39a34.62 34.62 0 0 1-.78 8.55c-.31 1.41 1.86 2 2.17.6a37.52 37.52 0 0 0 .86-9.15c0-1.44-2.3-1.45-2.25 0zM1702.32 400.72a18.06 18.06 0 0 1 6.64 13.77 1.13 1.13 0 0 0 2.25 0 20.23 20.23 0 0 0-7.3-15.36c-1.11-.92-2.71.66-1.59 1.59z"/><path class="cls-2" d="M1711.06 414.74a30.88 30.88 0 0 1 6-11.35c.92-1.1-.66-2.7-1.59-1.59a33.44 33.44 0 0 0-6.54 12.35 1.12 1.12 0 0 0 2.17.59z"/><path class="cls-2" d="M1710.14 400.39a34.62 34.62 0 0 1-.78 8.55c-.31 1.41 1.86 2 2.17.6a37.52 37.52 0 0 0 .86-9.15c-.05-1.44-2.3-1.45-2.25 0zM1096.32 327.72a18.06 18.06 0 0 1 6.64 13.77 1.13 1.13 0 0 0 2.25 0 20.23 20.23 0 0 0-7.3-15.36c-1.11-.92-2.71.66-1.59 1.59z"/><path class="cls-2" d="M1105.06 341.74a30.88 30.88 0 0 1 6-11.35c.92-1.1-.66-2.7-1.59-1.59a33.44 33.44 0 0 0-6.54 12.35 1.12 1.12 0 0 0 2.17.59z"/><path class="cls-2" d="M1104.14 327.39a34.62 34.62 0 0 1-.78 8.55c-.31 1.41 1.86 2 2.17.6a37.52 37.52 0 0 0 .86-9.15c-.05-1.44-2.3-1.45-2.25 0zM1829.32 314.72a18.06 18.06 0 0 1 6.64 13.77 1.13 1.13 0 0 0 2.25 0 20.23 20.23 0 0 0-7.3-15.36c-1.11-.92-2.71.66-1.59 1.59z"/><path class="cls-2" d="M1838.06 328.74a30.88 30.88 0 0 1 6-11.35c.92-1.1-.66-2.7-1.59-1.59a33.44 33.44 0 0 0-6.54 12.35 1.12 1.12 0 0 0 2.17.59z"/><path class="cls-2" d="M1837.14 314.39a34.62 34.62 0 0 1-.78 8.55c-.31 1.41 1.86 2 2.17.6a37.52 37.52 0 0 0 .86-9.15c-.05-1.44-2.3-1.45-2.25 0zM1543.32 217.72a18.06 18.06 0 0 1 6.64 13.77 1.13 1.13 0 0 0 2.25 0 20.23 20.23 0 0 0-7.3-15.36c-1.11-.92-2.71.66-1.59 1.59z"/><path class="cls-2" d="M1552.06 231.74a30.88 30.88 0 0 1 6-11.35c.92-1.1-.66-2.7-1.59-1.59a33.44 33.44 0 0 0-6.54 12.35 1.12 1.12 0 0 0 2.17.59z"/><path class="cls-2" d="M1551.14 217.39a34.62 34.62 0 0 1-.78 8.55c-.31 1.41 1.86 2 2.17.6a37.52 37.52 0 0 0 .86-9.15c-.05-1.44-2.3-1.45-2.25 0z"/><path class="cls-3" d="M27.27 31.45l5.27 60.72M87.36 28.65l3.52 60.81M88.48 48.06l-58 3M90 73.22l-58.1 2.93M146 27.16l4 60.76M147.56 48.14L89.4 49.27M148.56 73.35l-58.17 1.06M205.89 27l2.74 61.16M206.79 46.58l-58.48.52M207.91 71.91l-58.49.44M263.74 25l3.08 61M264 42.89L205.4 46M266.72 68l-58.55 3.1M320 23.42l5.4 60.34M321.82 43l-58.79.3M324.28 68l-58.81.22M379.56 41.39l-59.24 1.3M382.81 66.33l-59.23 1.3M28.48 51.08l-28 3M30.17 75.91L2.1 78.81M378.87 22.15l-2.29 60.91M438.84 26.81l-4 60.78M437.55 46.21L379.62 42M435.92 71.36l-58-4.28M497.2 32.59l-3.54 60.78M496.17 53.6l-57.86-6.07M494 78.74l-57.86-6.15M556.66 39.88l-4.85 61M555.14 59.39L497 52.66M553.11 84.66L495 77.85M616.7 47.94l-7 60.67M614 65.66l-58.3-6.58M612.55 90.88l-58.25-6.57M674.77 58.82L667.43 119M672.5 78.38l-57.56-12M669.69 103.27l-57.55-12.09M729.3 88.85l-58.2-11.11M727.27 113.92l-58.2-11.11M734.34 71.27L720.4 130.6M792.3 87.37l-15.63 58.87M787.31 106.15l-56-15.25M780.88 130.53l-56.09-15.35M848.46 104.25l-15.15 59M843.42 124.67l-55.61-17.08M836.49 148.93l-55.59-17.15M905.42 122.83l-16.49 59M900.18 141.67l-55.73-17.76M893.33 166.09l-55.7-17.84M964.22 146.06l-21.49 57.17M957.27 162.58l-54.93-20.5M949.79 186.71l-54.93-20.5M1019.11 171l-23.4 55.88M1011.61 189.22L959.49 162M1002.15 212.41L950 185.15M1063.43 214.74l-53-26.51M1054.66 238.31l-53-26.51M1060.75 192.09l-8 60M1103.48 220.41l-46.61-9.41M1100.36 245.29l-45.8-9.28M1398.61 170.16l-24.35-55.88M1342.54 192l-22.71-56.52M1335.3 173.92l54-21.33M1325.86 150.54l54.14-21.28M1287.45 212.05l-23.16-56.31M1279.27 192.67l54.73-19.61M1270.29 169.09l54.8-19.54M1230.7 231.26l-22.08-57.1M1223.62 213l55.27-19.12M1214.49 189.37l55.3-19.05M1170.63 252.26l-16.4-58.83M1167 236.45l55.42-19.14M1158.23 209.54l55.35-19.34M1103.18 262.13l1.26-60.56M1105.45 245.48l59.86-10.95M1100.69 221l57.86-10.5M1431.07 93l19.55 57.69M1437.31 111.39l-55.12 18.3M1445.43 135.25l-55.2 18.25M1487.19 76l20 57.51M1494.29 95.76l-55.77 16.55M1502 119.8l-55.8 16.48M1544.92 59.92l18.89 58.24M1551 78.52l-56.25 16M1558.78 102.64l-56.27 16M1600.13 42.55l19.18 58M1605.1 59.78l-55.62 18.55M1614.44 83.25l-55.62 18.55M1659.05 25.71l19 57.52M1665.33 44.37l-57.17 13.68M1673.41 68.09L1616.2 81.7M1721.18 29.63l-57.38 14.76M1730 53.17l-57.38 14.76M1721 10.17l6.93 60.45M1781.83 5.55l5.17 60.59M1783.47 24.89l-58.7 4.76M1785.64 50l-58.77 4.69M1841.2 2.27l5.65 60.53M1843.35 23.16l-58.92 2.91M1845 48.3l-58.93 2.83M1901.91.32l4.37 61M1903.33 19.8l-59.25 2.3M1905.13 45.05l-59.27 2.22M1947.24 16.94l-43.39 2.48M1949.65 42.05l-43.39 2.48"/></g></g></svg>