<svg xmlns="http://www.w3.org/2000/svg" viewBox="0 0 36.05 37.12"><g data-name="Layer 2"><g data-name="Layer 1"><path d="M29 31.12H7c-.56 0-1-1-1-2.28V8.28C6 7 6.46 6 7 6h22c.56 0 1 1 1 2.28v20.56c.05 1.26-.41 2.28-1 2.28z" fill="#ff8360" stroke="#ff8360" stroke-miterlimit="10" stroke-width="12"/><path d="M17.3 21.26a11.36 11.36 0 0 1 .64-1.16c.3-.46.59-.93.88-1.42a12.23 12.23 0 0 0 .76-1.48 3.38 3.38 0 0 0 .32-1.36 1.73 1.73 0 0 0-.7-1.52 3.14 3.14 0 0 0-2-.52 2.85 2.85 0 0 0-1.06.16 1.94 1.94 0 0 0-.66.38 2.66 2.66 0 0 0-.4.5c-.09.17-.18.34-.28.5a1.25 1.25 0 0 1-.36.4.94.94 0 0 1-.54.14.81.81 0 0 1-.68-.24 1.19 1.19 0 0 1-.18-.68 2.44 2.44 0 0 1 .66-1.64 4.71 4.71 0 0 1 .5-.5 3.93 3.93 0 0 1 .74-.48A4.24 4.24 0 0 1 16 12a5 5 0 0 1 1.34-.16 4.91 4.91 0 0 1 3.38 1.06 3.76 3.76 0 0 1 1.2 3 4.32 4.32 0 0 1-.2 1.32 8 8 0 0 1-.52 1.32c-.21.42-.45.85-.72 1.28s-.5.82-.76 1.22a14.87 14.87 0 0 1-.9 1.3 1 1 0 0 1-.78.44 1.16 1.16 0 0 1-.66-.18.63.63 0 0 1-.26-.5v-.38a.91.91 0 0 1 .18-.46zm.52 3.36a1.18 1.18 0 0 1 .84.36 1.1 1.1 0 0 1 0 1.7 1.36 1.36 0 0 1-.9.34 1.23 1.23 0 0 1-.8-.34 1.21 1.21 0 0 1-.36-.88 1.08 1.08 0 0 1 .4-.8 1.23 1.23 0 0 1 .82-.38z"/><path d="M30.09 18.56c0 7-5.44 12.66-12.07 12.66S6 25.59 6 18.56 11.4 5.91 18 5.91s12.09 5.62 12.09 12.65z" fill="none" stroke="#000" stroke-width="2"/></g></g></svg>