<svg xmlns="http://www.w3.org/2000/svg" xmlns:xlink="http://www.w3.org/1999/xlink" viewBox="0 0 1962.76 934.32"><defs><style>.cls-1,.cls-4{fill:none;}.cls-17,.cls-2{fill:#69c212;}.cls-2{stroke:#43720c;stroke-width:11px;}.cls-15,.cls-16,.cls-2,.cls-4{stroke-miterlimit:10;}.cls-3{fill:#43720c;}.cls-4{stroke:#963;stroke-width:9px;}.cls-5{clip-path:url(#clip-path);}.cls-15,.cls-6{fill:#fff;}.cls-7{fill:#606060;}.cls-8{clip-path:url(#clip-path-2);}.cls-9{clip-path:url(#clip-path-3);}.cls-10{clip-path:url(#clip-path-4);}.cls-11{clip-path:url(#clip-path-5);}.cls-12{fill:#212121;}.cls-13{fill:#303030;}.cls-14{fill:#f9f9e1;}.cls-15,.cls-16{stroke:#000;}.cls-15{stroke-width:2px;}</style><clipPath id="clip-path"><rect class="cls-1" x="1755" y="149.73" width="145.5" height="73.96"/></clipPath><clipPath id="clip-path-2"><rect class="cls-1" x="1546.5" y="52.07" width="213" height="98.61"/></clipPath><clipPath id="clip-path-3"><rect class="cls-1" x="1872.75" y="21.73" width="90" height="66.37"/></clipPath><clipPath id="clip-path-4"><rect class="cls-1" x="298.75" width="72" height="53.1"/></clipPath><clipPath id="clip-path-5"><rect class="cls-1" x="76.75" y="192.48" width="72" height="53.1"/></clipPath></defs><title>Asset 98</title><g id="Layer_2" data-name="Layer 2"><g id="Layer_1-2" data-name="Layer 1"><path class="cls-2" d="M1358.42,926.56c-155.48-190.89-383-313.22-620.82-371.76S251,497.62,7.37,522.51l.5,405.85L1945.93,927l.44-436.88c-298.82-31.8-580.46,139.06-875.48,196.56"/><path class="cls-3" d="M71.32,610.27A18,18,0,0,1,78,624a1.13,1.13,0,0,0,2.25,0,20.23,20.23,0,0,0-7.3-15.36c-1.11-.92-2.71.66-1.59,1.59Z"/><path class="cls-3" d="M80.06,624.29a30.8,30.8,0,0,1,6-11.35c.92-1.11-.66-2.71-1.59-1.59a33.4,33.4,0,0,0-6.54,12.34,1.13,1.13,0,0,0,2.17.6Z"/><path class="cls-3" d="M79.14,609.94a34.62,34.62,0,0,1-.78,8.55c-.31,1.41,1.86,2,2.17.6a37.52,37.52,0,0,0,.86-9.15c0-1.45-2.3-1.45-2.25,0Z"/><path class="cls-3" d="M1836.32,585.27A18,18,0,0,1,1843,599a1.13,1.13,0,0,0,2.25,0,20.23,20.23,0,0,0-7.3-15.36c-1.11-.92-2.71.66-1.59,1.59Z"/><path class="cls-3" d="M1845.06,599.29a30.8,30.8,0,0,1,6-11.35c.92-1.11-.66-2.71-1.59-1.59a33.4,33.4,0,0,0-6.54,12.34,1.13,1.13,0,0,0,2.17.6Z"/><path class="cls-3" d="M1844.14,584.94a34.62,34.62,0,0,1-.78,8.55c-.31,1.41,1.86,2,2.17.6a37.52,37.52,0,0,0,.86-9.15c-.05-1.45-2.3-1.45-2.25,0Z"/><path class="cls-3" d="M596.32,829.27A18,18,0,0,1,603,843a1.13,1.13,0,0,0,2.25,0,20.23,20.23,0,0,0-7.3-15.36c-1.11-.92-2.71.66-1.59,1.59Z"/><path class="cls-3" d="M605.06,843.29a30.8,30.8,0,0,1,6-11.35c.92-1.11-.66-2.71-1.59-1.59a33.4,33.4,0,0,0-6.54,12.34,1.13,1.13,0,0,0,2.17.6Z"/><path class="cls-3" d="M604.14,828.94a34.62,34.62,0,0,1-.78,8.55c-.31,1.41,1.86,2,2.17.6a37.52,37.52,0,0,0,.86-9.15c0-1.45-2.3-1.45-2.25,0Z"/><path class="cls-3" d="M436.32,570.27A18,18,0,0,1,443,584a1.13,1.13,0,0,0,2.25,0,20.23,20.23,0,0,0-7.3-15.36c-1.11-.92-2.71.66-1.59,1.59Z"/><path class="cls-3" d="M445.06,584.29a30.8,30.8,0,0,1,6-11.35c.92-1.11-.66-2.71-1.59-1.59a33.4,33.4,0,0,0-6.54,12.34,1.13,1.13,0,0,0,2.17.6Z"/><path class="cls-3" d="M444.14,569.94a34.62,34.62,0,0,1-.78,8.55c-.31,1.41,1.86,2,2.17.6a37.52,37.52,0,0,0,.86-9.15c-.05-1.45-2.3-1.45-2.25,0Z"/><path class="cls-3" d="M255.32,770.27A18,18,0,0,1,262,784a1.13,1.13,0,0,0,2.25,0,20.23,20.23,0,0,0-7.3-15.36c-1.11-.92-2.71.66-1.59,1.59Z"/><path class="cls-3" d="M264.06,784.29a30.8,30.8,0,0,1,6-11.35c.92-1.11-.66-2.71-1.59-1.59a33.4,33.4,0,0,0-6.54,12.34,1.13,1.13,0,0,0,2.17.6Z"/><path class="cls-3" d="M263.14,769.94a34.62,34.62,0,0,1-.78,8.55c-.31,1.41,1.86,2,2.17.6a37.52,37.52,0,0,0,.86-9.15c-.05-1.45-2.3-1.45-2.25,0Z"/><path class="cls-3" d="M727.32,677.27A18,18,0,0,1,734,691a1.13,1.13,0,0,0,2.25,0,20.23,20.23,0,0,0-7.3-15.36c-1.11-.92-2.71.66-1.59,1.59Z"/><path class="cls-3" d="M736.06,691.29a30.8,30.8,0,0,1,6-11.35c.92-1.11-.66-2.71-1.59-1.59a33.4,33.4,0,0,0-6.54,12.34,1.13,1.13,0,0,0,2.17.6Z"/><path class="cls-3" d="M735.14,676.94a34.62,34.62,0,0,1-.78,8.55c-.31,1.41,1.86,2,2.17.6a37.52,37.52,0,0,0,.86-9.15c0-1.45-2.3-1.45-2.25,0Z"/><path class="cls-3" d="M1313.32,770.27A18,18,0,0,1,1320,784a1.13,1.13,0,0,0,2.25,0,20.23,20.23,0,0,0-7.3-15.36c-1.11-.92-2.71.66-1.59,1.59Z"/><path class="cls-3" d="M1322.06,784.29a30.8,30.8,0,0,1,6-11.35c.92-1.11-.66-2.71-1.59-1.59a33.4,33.4,0,0,0-6.54,12.34,1.13,1.13,0,0,0,2.17.6Z"/><path class="cls-3" d="M1321.14,769.94a34.62,34.62,0,0,1-.78,8.55c-.31,1.41,1.86,2,2.17.6a37.52,37.52,0,0,0,.86-9.15c-.05-1.45-2.3-1.45-2.25,0Z"/><path class="cls-3" d="M969.32,843.27A18,18,0,0,1,976,857a1.13,1.13,0,0,0,2.25,0,20.23,20.23,0,0,0-7.3-15.36c-1.11-.92-2.71.66-1.59,1.59Z"/><path class="cls-3" d="M978.06,857.29a30.8,30.8,0,0,1,6-11.35c.92-1.11-.66-2.71-1.59-1.59a33.4,33.4,0,0,0-6.54,12.34,1.13,1.13,0,0,0,2.17.6Z"/><path class="cls-3" d="M977.14,842.94a34.62,34.62,0,0,1-.78,8.55c-.31,1.41,1.86,2,2.17.6a37.52,37.52,0,0,0,.86-9.15c0-1.45-2.3-1.45-2.25,0Z"/><path class="cls-3" d="M1702.32,836.27A18,18,0,0,1,1709,850a1.13,1.13,0,0,0,2.25,0,20.23,20.23,0,0,0-7.3-15.36c-1.11-.92-2.71.66-1.59,1.59Z"/><path class="cls-3" d="M1711.06,850.29a30.8,30.8,0,0,1,6-11.35c.92-1.11-.66-2.71-1.59-1.59a33.4,33.4,0,0,0-6.54,12.34,1.13,1.13,0,0,0,2.17.6Z"/><path class="cls-3" d="M1710.14,835.94a34.62,34.62,0,0,1-.78,8.55c-.31,1.41,1.86,2,2.17.6a37.52,37.52,0,0,0,.86-9.15c-.05-1.45-2.3-1.45-2.25,0Z"/><path class="cls-3" d="M1096.32,763.27A18,18,0,0,1,1103,777a1.13,1.13,0,0,0,2.25,0,20.23,20.23,0,0,0-7.3-15.36c-1.11-.92-2.71.66-1.59,1.59Z"/><path class="cls-3" d="M1105.06,777.29a30.8,30.8,0,0,1,6-11.35c.92-1.11-.66-2.71-1.59-1.59a33.4,33.4,0,0,0-6.54,12.34,1.13,1.13,0,0,0,2.17.6Z"/><path class="cls-3" d="M1104.14,762.94a34.62,34.62,0,0,1-.78,8.55c-.31,1.41,1.86,2,2.17.6a37.52,37.52,0,0,0,.86-9.15c-.05-1.45-2.3-1.45-2.25,0Z"/><path class="cls-3" d="M1829.32,750.27A18,18,0,0,1,1836,764a1.13,1.13,0,0,0,2.25,0,20.23,20.23,0,0,0-7.3-15.36c-1.11-.92-2.71.66-1.59,1.59Z"/><path class="cls-3" d="M1838.06,764.29a30.8,30.8,0,0,1,6-11.35c.92-1.11-.66-2.71-1.59-1.59a33.4,33.4,0,0,0-6.54,12.34,1.13,1.13,0,0,0,2.17.6Z"/><path class="cls-3" d="M1837.14,749.94a34.62,34.62,0,0,1-.78,8.55c-.31,1.41,1.86,2,2.17.6a37.52,37.52,0,0,0,.86-9.15c-.05-1.45-2.3-1.45-2.25,0Z"/><path class="cls-3" d="M1543.32,653.27A18,18,0,0,1,1550,667a1.13,1.13,0,0,0,2.25,0,20.23,20.23,0,0,0-7.3-15.36c-1.11-.92-2.71.66-1.59,1.59Z"/><path class="cls-3" d="M1552.06,667.29a30.8,30.8,0,0,1,6-11.35c.92-1.11-.66-2.71-1.59-1.59a33.4,33.4,0,0,0-6.54,12.34,1.13,1.13,0,0,0,2.17.6Z"/><path class="cls-3" d="M1551.14,652.94a34.62,34.62,0,0,1-.78,8.55c-.31,1.41,1.86,2,2.17.6a37.52,37.52,0,0,0,.86-9.15c-.05-1.45-2.3-1.45-2.25,0Z"/><path class="cls-4" d="M27.27,467l5.27,60.73"/><path class="cls-4" d="M87.36,464.2,90.88,525"/><path class="cls-4" d="M88.48,483.6l-58,3"/><path class="cls-4" d="M90,508.77,31.9,511.69"/><path class="cls-4" d="M146,462.71l4,60.75"/><path class="cls-4" d="M147.56,483.68,89.4,484.82"/><path class="cls-4" d="M148.56,508.9,90.39,510"/><path class="cls-4" d="M205.89,462.58l2.74,61.16"/><path class="cls-4" d="M206.79,482.13l-58.48.51"/><path class="cls-4" d="M207.91,507.46l-58.49.43"/><path class="cls-4" d="M263.74,460.51l3.08,61"/><path class="cls-4" d="M264,478.44l-58.55,3.1"/><path class="cls-4" d="M266.72,503.55l-58.55,3.1"/><path class="cls-4" d="M320,459l5.4,60.34"/><path class="cls-4" d="M321.82,478.57l-58.79.3"/><path class="cls-4" d="M324.28,503.5l-58.81.22"/><path class="cls-4" d="M379.56,476.93l-59.24,1.31"/><path class="cls-4" d="M382.81,501.87l-59.23,1.31"/><path class="cls-4" d="M28.48,486.63l-28,3"/><path class="cls-4" d="M30.17,511.46,2.1,514.35"/><path class="cls-4" d="M378.87,457.7l-2.29,60.9"/><path class="cls-4" d="M438.84,462.36l-4,60.78"/><path class="cls-4" d="M437.55,481.75l-57.93-4.2"/><path class="cls-4" d="M435.92,506.91l-58-4.29"/><path class="cls-4" d="M497.2,468.14l-3.54,60.78"/><path class="cls-4" d="M496.17,489.14l-57.86-6.07"/><path class="cls-4" d="M494,514.29l-57.86-6.15"/><path class="cls-4" d="M556.66,475.43l-4.85,61"/><path class="cls-4" d="M555.14,494.93,497,488.21"/><path class="cls-4" d="M553.11,520.2,495,513.4"/><path class="cls-4" d="M616.7,483.48l-7,60.68"/><path class="cls-4" d="M614,501.2l-58.26-6.57"/><path class="cls-4" d="M612.55,526.43l-58.25-6.58"/><path class="cls-4" d="M674.77,494.36l-7.34,60.13"/><path class="cls-4" d="M672.5,513.92l-57.56-12"/><path class="cls-4" d="M669.69,538.82l-57.55-12.09"/><path class="cls-4" d="M729.3,524.4l-58.2-11.12"/><path class="cls-4" d="M727.27,549.47l-58.2-11.12"/><path class="cls-4" d="M734.34,506.81,720.4,566.15"/><path class="cls-4" d="M792.3,522.91l-15.63,58.87"/><path class="cls-4" d="M787.31,541.7l-56-15.26"/><path class="cls-4" d="M780.88,566.07l-56.09-15.34"/><path class="cls-4" d="M848.46,539.79l-15.15,59"/><path class="cls-4" d="M843.42,560.21l-55.61-17.07"/><path class="cls-4" d="M836.49,584.48,780.9,567.33"/><path class="cls-4" d="M905.42,558.37l-16.49,59"/><path class="cls-4" d="M900.18,577.22l-55.73-17.76"/><path class="cls-4" d="M893.33,601.63l-55.7-17.84"/><path class="cls-4" d="M964.22,581.61l-21.49,57.16"/><path class="cls-4" d="M957.27,598.13l-54.93-20.51"/><path class="cls-4" d="M949.79,622.26l-54.93-20.51"/><path class="cls-4" d="M1019.11,606.56l-23.4,55.88"/><path class="cls-4" d="M1011.61,624.77l-52.12-27.19"/><path class="cls-4" d="M1002.15,648,950,620.69"/><path class="cls-4" d="M1063.43,650.28l-53-26.51"/><path class="cls-4" d="M1054.66,673.85l-53-26.5"/><path class="cls-4" d="M1060.75,627.64l-8,60"/><path class="cls-4" d="M1103.48,656l-46.61-9.45"/><path class="cls-4" d="M1100.36,680.84l-45.8-9.28"/><path class="cls-4" d="M1398.61,605.7l-24.35-55.87"/><path class="cls-4" d="M1342.54,627.5,1319.83,571"/><path class="cls-4" d="M1335.3,609.46l54-21.32"/><path class="cls-4" d="M1325.86,586.09,1380,564.81"/><path class="cls-4" d="M1287.45,647.6l-23.16-56.31"/><path class="cls-4" d="M1279.27,628.22,1334,608.61"/><path class="cls-4" d="M1270.29,604.64l54.8-19.54"/><path class="cls-4" d="M1230.7,666.81l-22.08-57.1"/><path class="cls-4" d="M1223.62,648.57l55.27-19.13"/><path class="cls-4" d="M1214.49,624.92l55.3-19.06"/><path class="cls-4" d="M1170.63,687.81,1154.23,629"/><path class="cls-4" d="M1167,672l55.42-19.15"/><path class="cls-4" d="M1158.23,645.08l55.35-19.33"/><path class="cls-4" d="M1103.18,697.68l1.26-60.57"/><path class="cls-4" d="M1105.45,681l59.86-10.94"/><path class="cls-4" d="M1100.69,656.54l57.86-10.5"/><path class="cls-4" d="M1431.07,528.52l19.55,57.69"/><path class="cls-4" d="M1437.31,546.93l-55.12,18.3"/><path class="cls-4" d="M1445.43,570.79,1390.23,589"/><path class="cls-4" d="M1487.19,511.5l20,57.51"/><path class="cls-4" d="M1494.29,531.31l-55.77,16.55"/><path class="cls-4" d="M1502,555.35l-55.8,16.47"/><path class="cls-4" d="M1544.92,495.47l18.89,58.23"/><path class="cls-4" d="M1551,514.07l-56.25,16"/><path class="cls-4" d="M1558.78,538.19l-56.27,16"/><path class="cls-4" d="M1600.13,478.1l19.18,58"/><path class="cls-4" d="M1605.1,495.33l-55.62,18.54"/><path class="cls-4" d="M1614.44,518.8l-55.62,18.55"/><path class="cls-4" d="M1659.05,461.26l19,57.52"/><path class="cls-4" d="M1665.33,479.92l-57.17,13.68"/><path class="cls-4" d="M1673.41,503.63l-57.21,13.61"/><path class="cls-4" d="M1721.18,465.18l-57.38,14.76"/><path class="cls-4" d="M1730,488.72l-57.38,14.76"/><path class="cls-4" d="M1721,445.71l6.93,60.46"/><path class="cls-4" d="M1781.83,441.09l5.16,60.6"/><path class="cls-4" d="M1783.47,460.43l-58.7,4.76"/><path class="cls-4" d="M1785.64,485.51l-58.77,4.68"/><path class="cls-4" d="M1841.2,437.82l5.65,60.53"/><path class="cls-4" d="M1843.35,458.71l-58.92,2.91"/><path class="cls-4" d="M1845,483.85l-58.93,2.82"/><path class="cls-4" d="M1901.91,435.87l4.37,61"/><path class="cls-4" d="M1903.33,455.35l-59.25,2.3"/><path class="cls-4" d="M1905.13,480.6l-59.27,2.22"/><path class="cls-4" d="M1947.24,452.49,1903.85,455"/><path class="cls-4" d="M1949.65,477.6l-43.39,2.47"/><g class="cls-5"><path class="cls-6" d="M1793.8,212.74a4.11,4.11,0,0,0,.44,2.18c.18.63.18.88,1.51,2.16,2.69,2.52,7.68,3,12.13,3,5.21,0,15.76-3.21,19-6.11l3.53-5.3c-.62.31-.66.65-.88.93a13.61,13.61,0,0,0-.88,1.25c-.36.5-.53,1-.89,1.56-.22.41-.75.87-.75,1.43a6.42,6.42,0,0,0,1,4.18,9.24,9.24,0,0,0,4.1,2.56c9.67,3.68,16.12,2.81,26.93,1.5a33,33,0,0,0,10.64-3.18,10.09,10.09,0,0,0,3.62-3.09,5.56,5.56,0,0,0,.71-5c-.31-.94-1.11-3.8-1.55-4.24l2,6.45c6.27.6,12.19-.09,17.44-2.65s8.65-7.11,7.68-11.53c-.79-3.59-4.19-6.61-7.86-9.14-7.77-5.33-18.54-9.45-29.18-7.95a15.4,15.4,0,0,0-5,1.43l6.84-1.68c6.23-3.05,5.21-8.95,2.83-14.06-1.24-2.71-7.37-6.92-13.86-8.39-5.7-1.31-12.23-.09-13.69.94l-.75,4.64c.89-4.42,1.28-9.76-3.84-12.47a21,21,0,0,0-7.94-1.84,67.16,67.16,0,0,0-35.14,7.49,41.42,41.42,0,0,0-5.3,2.8c-6.49,4.58-9.14,7.95-8.83,15.28l8.92,2.52a34.44,34.44,0,0,0-7.42-1.84c-5-.84-10.77,1.56-14.74,3.75a49.57,49.57,0,0,0-4.81,4.27c-2.7,2.49-4.82,5.58-4.11,8.7s4.15,4.74,8.48,5.42a19.9,19.9,0,0,0,4.85-.62c2.52-.56,5-2,5.74-2.18l-4.41,1.87a8.92,8.92,0,0,0-3.89,8,8.22,8.22,0,0,0,4.28,6.36c3.8,2.31,10.07,3.12,15.59,2.4s13.37-5.24,16.68-7.76"/><path class="cls-7" d="M1793.14,212.74c-.13,3.43,3,6.14,7.55,7.17a31.75,31.75,0,0,0,14.83-.53,47.26,47.26,0,0,0,7.15-2.4c1.64-.71,3.76-1.59,4.82-2.77a42.8,42.8,0,0,0,3.53-5.3c.31-.47-.49-1-1.06-.56-1.55,1.09-2.43,3.05-3.22,4.49a5.2,5.2,0,0,0,.57,5.17c1.24,1.78,3.84,2.78,6.27,3.59a38.87,38.87,0,0,0,8.12,1.84c5.47.59,11-.13,16.42-.78s12-2.25,15.14-5.74a6.22,6.22,0,0,0,1.55-6c-.4-1.46-.66-3.27-1.68-4.58-.4-.47-1.37-.16-1.19.37.66,2.16,1.32,4.31,2,6.46a.7.7,0,0,0,.62.34c6.44.56,13-.19,18.27-3,4.29-2.25,7.33-5.8,7.64-9.6.31-4.34-3.31-8.05-7.46-11a49.32,49.32,0,0,0-15.89-7.55c-6.05-1.62-14.22-2.27-19.87.44-.57.28-.22,1,.53.84,2.83-.68,6.32-1.12,8.52-2.62,4.11-2.83,3.89-7.2,2.7-10.85a11.66,11.66,0,0,0-3-5.17,26.29,26.29,0,0,0-6.4-4.24,27.13,27.13,0,0,0-18.15-2c-1.59.41-2.34.72-2.56,1.87-.22,1.34-.44,2.65-.66,4-.09.53,1.19.65,1.28.12.75-3.84,1.41-8.51-2.29-11.75-4.2-3.62-12.72-3.53-18.77-3.12a69.87,69.87,0,0,0-20.88,4.8c-5.73,2.31-11.34,5.05-15.4,8.76a15,15,0,0,0-5,12.47c0,.22.22.38.48.44,3,.81,6,1.62,9,2.46.7.19,1.14-.59.53-.84a28.89,28.89,0,0,0-9.76-2.09,23.41,23.41,0,0,0-9,2,20.14,20.14,0,0,0-6.27,3.77c-2.07,1.9-4.32,3.8-5.74,6-2.29,3.65-1.94,8,3.31,10.22a13,13,0,0,0,7,1,22.51,22.51,0,0,0,4.81-1.15c1.28-.47,2.43-1.15,3.71-1.56l-.66-.81c-1.42.59-2.92,1.12-4.29,1.81a7.82,7.82,0,0,0-3.62,4.21c-1.63,4-.57,8.7,4.33,11.35s12.49,3.18,18.1,1.65a45.76,45.76,0,0,0,14.52-7.36c.58-.44-.35-1.09-.92-.65a47,47,0,0,1-12.23,6.57,25.82,25.82,0,0,1-17.26-.28c-5.52-2.27-6.93-6.92-5.26-11a6.67,6.67,0,0,1,3.71-3.93c1.19-.5,2.39-1,3.58-1.53.75-.31.09-1.06-.66-.81-2.21.72-4,1.81-6.36,2.31a12.52,12.52,0,0,1-7.55-.53c-6-2.34-4.72-7.42-1.63-10.95a27.13,27.13,0,0,1,9.8-7.45,22.38,22.38,0,0,1,8.34-2,27,27,0,0,1,9.45,2c.17-.28.35-.56.53-.84-3-.81-6-1.62-9-2.47a4.79,4.79,0,0,0,.48.44c-.13-3.71.49-7.33,3.36-10.51,3.18-3.52,7.77-5.92,12.58-8.23a68.91,68.91,0,0,1,18-5.64c6.14-1,14-1.59,20,.12,7.28,2.09,6.8,8.3,5.87,12.88.44,0,.88.09,1.28.13.18-1.22.4-2.41.57-3.62,0-.22,0-.63.14-.81s.17-.06.17-.06c.75-.63,2.92-.82,4-1a26.15,26.15,0,0,1,20.26,6.14,12.72,12.72,0,0,1,3.22,6.21c.58,2.3.71,4.86-.79,7a7.85,7.85,0,0,1-5,3.06c-1.59.4-3.23.78-4.81,1.18.17.28.35.56.53.84,6.26-3,15.36-1.65,21.67.5s12.49,5.65,16.47,9.79c4.28,4.46,4,9.89-1.11,14s-13,5.3-20.39,4.68a6,6,0,0,1,.62.34c-.67-2.15-1.33-4.3-2-6.45l-1.2.37c.93,1.15,1.11,2.84,1.46,4.12.79,2.77-.44,5.45-3.53,7.29-5.17,3.06-12.27,3.74-18.72,4.27a41.24,41.24,0,0,1-16.64-1.59c-3.84-1.24-6.71-2.74-6.89-6a8.49,8.49,0,0,1,3.18-5.93l-1.06-.56c-1.06,1.59-2.07,3.21-3.18,4.8-1.59,2.18-5.82,3.53-8.87,4.49a34.42,34.42,0,0,1-13.16,1.78c-5.38-.41-10.33-2.59-10.19-6.77C1794.47,212.15,1793.14,212.15,1793.14,212.74Z"/></g><g class="cls-8"><path class="cls-6" d="M1603.3,136.09A5.13,5.13,0,0,0,1604,139c.26.83.26,1.16,2.2,2.87,3.94,3.36,11.24,4,17.77,4,7.62,0,23.07-4.28,27.85-8.15l5.17-7.07c-.9.42-1,.88-1.29,1.25a17.39,17.39,0,0,0-1.29,1.66c-.52.67-.78,1.29-1.3,2.08-.32.54-1.09,1.16-1.09,1.91,0,1.92.06,3.91,1.48,5.57s3.62,2.58,6,3.41c14.15,4.91,23.59,3.74,39.42,2a51.35,51.35,0,0,0,15.58-4.24,14.35,14.35,0,0,0,5.3-4.12,6.84,6.84,0,0,0,1-6.69c-.45-1.25-1.62-5.07-2.26-5.65l3,8.6c9.18.79,17.84-.12,25.53-3.53s12.66-9.48,11.24-15.38c-1.16-4.78-6.14-8.82-11.5-12.18-11.37-7.11-27.14-12.6-42.72-10.61a24,24,0,0,0-7.36,1.92l10-2.25c9.11-4.07,7.63-11.93,4.14-18.75-1.81-3.61-10.79-9.23-20.29-11.18-8.34-1.75-17.9-.12-20,1.25l-1.1,6.19c1.3-5.9,1.88-13-5.62-16.63-3.29-1.58-7.49-2.16-11.63-2.45a106.4,106.4,0,0,0-51.44,10c-3,1.41-5.17,2.08-7.76,3.74-9.5,6.11-13.37,10.6-12.92,20.37l13,3.37a53.12,53.12,0,0,0-10.85-2.46c-7.31-1.12-15.77,2.08-21.59,5-1.23.63-4.59,3.62-7,5.7-3.94,3.32-7,7.44-6,11.6s6.07,6.31,12.41,7.23a33.16,33.16,0,0,0,7.1-.83c3.69-.75,7.31-2.66,8.41-2.91l-6.47,2.49a11.53,11.53,0,0,0-5.68,10.73c.32,3.07,2.13,6.23,6.27,8.48,5.55,3.07,14.73,4.16,22.81,3.2s19.58-7,24.43-10.35"/><path class="cls-7" d="M1602.34,136.09c-.2,4.57,4.33,8.19,11.05,9.56a51,51,0,0,0,21.71-.71,75,75,0,0,0,10.47-3.2c2.39-1,5.49-2.12,7-3.7,2.14-2.12,3.49-4.78,5.17-7.07.46-.62-.71-1.28-1.55-.74-2.26,1.45-3.55,4.07-4.72,6s-.64,5,.84,6.9c1.81,2.37,5.63,3.7,9.18,4.78a60.7,60.7,0,0,0,11.89,2.46c8,.79,16.16-.17,24-1,8.08-.88,17.51-3,22.17-7.65a7.79,7.79,0,0,0,2.26-8c-.58-1.95-1-4.36-2.46-6.11-.58-.62-2-.2-1.74.5,1,2.87,1.94,5.74,3,8.61.13.29.52.41.91.45,9.43.75,19-.24,26.75-3.94,6.27-3,10.73-7.74,11.18-12.81.45-5.78-4.85-10.72-10.92-14.67a75.47,75.47,0,0,0-23.27-10.06c-8.85-2.17-20.8-3-29.08.58-.84.37-.32,1.37.78,1.12,4.14-.91,9.24-1.5,12.47-3.49,6-3.78,5.69-9.6,3.94-14.47a15.12,15.12,0,0,0-4.33-6.9,38.63,38.63,0,0,0-9.37-5.65,43.25,43.25,0,0,0-26.56-2.62c-2.32.54-3.42,1-3.74,2.49-.33,1.79-.65,3.54-1,5.32-.13.71,1.74.88,1.87.17,1.1-5.11,2.07-11.35-3.36-15.67-6.14-4.82-18.61-4.7-27.47-4.16a110.82,110.82,0,0,0-30.56,6.4c-8.4,3.08-16.61,6.74-22.56,11.68a19.15,19.15,0,0,0-7.3,16.63c0,.29.32.5.71.58,4.4,1.09,8.73,2.17,13.12,3.29,1,.25,1.68-.79.78-1.12A45.65,45.65,0,0,0,1579.39,87a37.38,37.38,0,0,0-13.24,2.7,30.18,30.18,0,0,0-9.18,5c-3,2.54-6.33,5.08-8.4,8-3.36,4.86-2.84,10.72,4.85,13.63a20.81,20.81,0,0,0,10.21,1.37,36.12,36.12,0,0,0,7-1.53c1.87-.63,3.55-1.54,5.43-2.08-.32-.38-.65-.71-1-1.08-2.07.79-4.27,1.49-6.27,2.41a10.75,10.75,0,0,0-5.3,5.61c-2.39,5.36-.84,11.6,6.33,15.13s18.29,4.24,26.5,2.21a69.71,69.71,0,0,0,21.26-9.82c.84-.58-.52-1.45-1.36-.87a70.71,70.71,0,0,1-17.9,8.77,41.27,41.27,0,0,1-25.26-.37c-8.08-3-10.15-9.23-7.69-14.72a9.27,9.27,0,0,1,5.42-5.24c1.75-.66,3.49-1.33,5.24-2,1.1-.42.13-1.42-1-1.08-3.23,1-5.82,2.41-9.31,3.07a19.89,19.89,0,0,1-11-.7c-8.72-3.12-6.91-9.9-2.39-14.6a39.58,39.58,0,0,1,14.35-9.93,35.22,35.22,0,0,1,12.21-2.7,42.74,42.74,0,0,1,13.83,2.62l.78-1.13c-4.4-1.08-8.73-2.16-13.12-3.28a7.24,7.24,0,0,0,.71.58c-.19-4.95.71-9.77,4.91-14,4.65-4.7,11.37-7.9,18.42-11a108.65,108.65,0,0,1,26.3-7.53c9-1.37,20.42-2.12,29.21.17,10.66,2.78,10,11.06,8.6,17.17.64,0,1.29.12,1.87.16.26-1.62.58-3.2.84-4.82.06-.29,0-.83.19-1.08s.26-.08.26-.08c1.1-.83,4.27-1.08,5.88-1.29,11.44-1.33,22.69,2.45,29.66,8.19a16.56,16.56,0,0,1,4.72,8.27c.84,3.08,1,6.49-1.16,9.35-1.68,2.21-4,3.33-7.37,4.08-2.32.54-4.72,1-7,1.58l.77,1.12c9.18-4,22.49-2.2,31.73.67s18.29,7.52,24.11,13c6.27,5.94,5.81,13.18-1.62,18.62s-19,7.07-29.85,6.24c.32.17.64.29.9.46-1-2.87-1.94-5.74-3-8.61l-1.75.5c1.36,1.54,1.62,3.78,2.14,5.49,1.16,3.7-.65,7.27-5.17,9.73-7.56,4.07-18,5-27.4,5.69A66.07,66.07,0,0,1,1663,147c-5.62-1.66-9.82-3.66-10.08-8-.13-2.25,2.07-6.24,4.65-7.9l-1.55-.75c-1.55,2.12-3,4.28-4.65,6.4-2.33,2.91-8.53,4.7-13,6a54.7,54.7,0,0,1-19.26,2.37c-7.88-.54-15.12-3.45-14.92-9C1604.27,135.3,1602.34,135.3,1602.34,136.09Z"/></g><g class="cls-9"><path class="cls-6" d="M1896.75,78.28a5.15,5.15,0,0,0,.27,2,3.73,3.73,0,0,0,.93,1.93c1.67,2.27,4.75,2.68,7.51,2.71,3.22,0,9.75-2.88,11.77-5.48l2.19-4.76c-.39.28-.41.59-.55.84-.25.45-.38.76-.55,1.12s-.32.87-.54,1.4a3.46,3.46,0,0,0-.47,1.29,7.91,7.91,0,0,0,.63,3.75,6.06,6.06,0,0,0,2.54,2.29c6,3.3,10,2.52,16.66,1.34a16,16,0,0,0,6.58-2.85,7.65,7.65,0,0,0,2.24-2.77,6.92,6.92,0,0,0,.43-4.51,27.61,27.61,0,0,0-1-3.8l1.25,5.79a14.58,14.58,0,0,0,10.79-2.38,11.11,11.11,0,0,0,4.75-10.35c-.49-3.22-2.59-5.93-4.86-8.2-4.81-4.78-11.47-8.48-18-7.13a7.24,7.24,0,0,0-3.11,1.28l4.23-1.51c3.85-2.74,3.22-8,1.75-12.62-.77-2.43-4.56-6.21-8.58-7.52-3.52-1.18-7.56-.09-8.46.84l-.46,4.17c.54-4,.79-8.76-2.38-11.2a9.82,9.82,0,0,0-4.91-1.65c-7.76-.84-15.51,2-21.74,6.72a24.59,24.59,0,0,0-3.28,2.52c-4,4.11-5.65,7.13-5.46,13.71l5.52,2.26a16.07,16.07,0,0,0-4.59-1.65c-3.09-.75-6.66,1.4-9.12,3.36a39.88,39.88,0,0,0-3,3.83c-1.66,2.24-3,5-2.54,7.81s2.57,4.25,5.25,4.87a9,9,0,0,0,3-.56,22.45,22.45,0,0,0,3.55-2l-2.73,1.68c-1.91,1.68-2.54,5.15-2.4,7.22a8.08,8.08,0,0,0,2.65,5.71c2.34,2.07,6.22,2.79,9.63,2.15s8.28-4.7,10.33-7"/><path class="cls-7" d="M1896.34,78.28a6.5,6.5,0,0,0,4.67,6.44,13.85,13.85,0,0,0,9.18-.48,23.79,23.79,0,0,0,4.42-2.16,9.17,9.17,0,0,0,3-2.49,40.92,40.92,0,0,0,2.18-4.75c.19-.42-.3-.87-.65-.51a12.27,12.27,0,0,0-2,4,6.51,6.51,0,0,0,.36,4.65,7.66,7.66,0,0,0,3.87,3.22,17.89,17.89,0,0,0,5,1.65c3.38.53,6.83-.12,10.16-.7s7.4-2,9.36-5.15a7.48,7.48,0,0,0,1-5.4,14.86,14.86,0,0,0-1-4.11.41.41,0,0,0-.74.33c.41,1.93.82,3.86,1.26,5.79a.44.44,0,0,0,.38.31A15.22,15.22,0,0,0,1958,76.29a11.89,11.89,0,0,0,4.72-8.62c.19-3.88-2-7.21-4.61-9.87a27.86,27.86,0,0,0-9.83-6.77c-3.75-1.46-8.8-2.05-12.29.39-.36.25-.14.92.33.75,1.74-.61,3.9-1,5.27-2.35,2.54-2.54,2.4-6.46,1.66-9.73a12.21,12.21,0,0,0-1.83-4.65,17.22,17.22,0,0,0-4-3.8,12.15,12.15,0,0,0-11.22-1.77c-1,.37-1.45.65-1.58,1.68-.14,1.2-.28,2.38-.41,3.58-.06.48.73.59.79.12.46-3.45.87-7.64-1.42-10.55-2.6-3.25-7.87-3.17-11.61-2.8a32.37,32.37,0,0,0-12.91,4.31,31.44,31.44,0,0,0-9.53,7.86c-2.49,3.33-3.2,7.08-3.09,11.19a.41.41,0,0,0,.3.39c1.86.73,3.69,1.46,5.55,2.21.43.17.71-.53.32-.75a13.24,13.24,0,0,0-6-1.88,11.07,11.07,0,0,0-5.6,1.82,12.74,12.74,0,0,0-3.88,3.39,28.61,28.61,0,0,0-3.55,5.4c-1.42,3.27-1.2,7.22,2.05,9.18a5.91,5.91,0,0,0,4.32.92,10.41,10.41,0,0,0,3-1c.79-.42,1.5-1,2.3-1.39-.14-.26-.28-.48-.41-.73-.88.53-1.81,1-2.65,1.62a6.89,6.89,0,0,0-2.24,3.78c-1,3.61-.36,7.81,2.68,10.18a12,12,0,0,0,11.19,1.49,26.58,26.58,0,0,0,9-6.61c.36-.39-.21-1-.57-.58a28,28,0,0,1-7.56,5.9,11.38,11.38,0,0,1-10.68-.25c-3.41-2-4.29-6.21-3.25-9.91a5.63,5.63,0,0,1,2.29-3.52c.74-.45,1.48-.9,2.22-1.37a.42.42,0,0,0-.41-.73c-1.37.64-2.46,1.62-3.94,2.07a5.46,5.46,0,0,1-4.66-.48c-3.69-2.1-2.93-6.66-1-9.82a19.39,19.39,0,0,1,6.06-6.69,10.35,10.35,0,0,1,5.16-1.81,12.36,12.36,0,0,1,5.84,1.76l.33-.76c-1.86-.72-3.69-1.45-5.54-2.21a4.41,4.41,0,0,0,.3.39,16.56,16.56,0,0,1,2.07-9.43c2-3.16,4.81-5.31,7.78-7.38a34.19,34.19,0,0,1,11.12-5.07c3.79-.92,8.63-1.42,12.34.12,4.5,1.87,4.2,7.44,3.63,11.55.27,0,.55.09.79.11.11-1.09.25-2.15.36-3.24a3.4,3.4,0,0,1,.08-.73c.08-.17.11-.06.11-.06.46-.56,1.8-.72,2.48-.86,4.84-.9,9.59,1.65,12.54,5.51a13.91,13.91,0,0,1,2,5.57,10.47,10.47,0,0,1-.49,6.29,5,5,0,0,1-3.11,2.74c-1,.37-2,.7-3,1.07l.33.75c3.87-2.71,9.5-1.48,13.4.45A26.91,26.91,0,0,1,1960,61.41a10.14,10.14,0,0,1-.68,12.53c-3.17,3.7-8,4.76-12.62,4.2a4.23,4.23,0,0,1,.38.31c-.41-1.93-.82-3.86-1.25-5.79l-.74.33a13.29,13.29,0,0,1,.9,3.69,6.72,6.72,0,0,1-2.18,6.55c-3.2,2.74-7.59,3.36-11.58,3.84A18.11,18.11,0,0,1,1922,85.64c-2.38-1.12-4.16-2.46-4.26-5.37a9.05,9.05,0,0,1,2-5.32l-.65-.5c-.66,1.42-1.29,2.88-2,4.31-1,1.95-3.6,3.16-5.49,4a15.13,15.13,0,0,1-8.14,1.6c-3.33-.36-6.38-2.32-6.3-6.07A.39.39,0,1,0,1896.34,78.28Z"/></g><g class="cls-10"><path class="cls-6" d="M318,45.24a4.26,4.26,0,0,0,.22,1.57,3,3,0,0,0,.75,1.54c1.33,1.82,3.8,2.15,6,2.18,2.58,0,7.8-2.31,9.42-4.39l1.75-3.81a1.4,1.4,0,0,0-.44.68,9.06,9.06,0,0,0-.44.89c-.17.36-.26.69-.43,1.12a2.86,2.86,0,0,0-.38,1,6.33,6.33,0,0,0,.51,3,4.68,4.68,0,0,0,2,1.83c4.78,2.65,8,2,13.32,1.08a12.86,12.86,0,0,0,5.27-2.28,6.24,6.24,0,0,0,1.79-2.22,5.57,5.57,0,0,0,.35-3.6,20.71,20.71,0,0,0-.77-3l1,4.63a11.63,11.63,0,0,0,8.63-1.9,8.88,8.88,0,0,0,3.8-8.28c-.39-2.57-2.08-4.75-3.89-6.56-3.84-3.83-9.17-6.78-14.44-5.71a5.89,5.89,0,0,0-2.49,1l3.39-1.21c3.08-2.19,2.57-6.42,1.39-10.09-.61-2-3.64-5-6.85-6-2.82-.94-6.06-.07-6.78.67l-.37,3.33c.44-3.17.64-7-1.9-8.95A7.81,7.81,0,0,0,334.47.43c-6.2-.67-12.41,1.63-17.39,5.37a19.21,19.21,0,0,0-2.62,2c-3.21,3.29-4.52,5.7-4.37,11l4.41,1.82a12.6,12.6,0,0,0-3.67-1.32c-2.46-.61-5.33,1.12-7.29,2.68A31.8,31.8,0,0,0,301.16,25a8.62,8.62,0,0,0-2,6.25c.35,2.23,2.06,3.4,4.2,3.89a7,7,0,0,0,2.4-.45,17.94,17.94,0,0,0,2.84-1.56l-2.18,1.34c-1.53,1.34-2,4.12-1.93,5.77a6.52,6.52,0,0,0,2.12,4.57,9.43,9.43,0,0,0,7.72,1.72c2.73-.51,6.61-3.76,8.25-5.57"/><path class="cls-7" d="M317.63,45.24a5.18,5.18,0,0,0,3.73,5.15A11,11,0,0,0,328.7,50a19.29,19.29,0,0,0,3.54-1.72,7.39,7.39,0,0,0,2.38-2,34.56,34.56,0,0,0,1.75-3.81c.15-.34-.24-.69-.52-.4a9.63,9.63,0,0,0-1.6,3.22,5.2,5.2,0,0,0,.29,3.72,6.12,6.12,0,0,0,3.1,2.57,13.86,13.86,0,0,0,4,1.32,24.67,24.67,0,0,0,8.12-.56c2.73-.47,5.92-1.61,7.5-4.12a6,6,0,0,0,.76-4.32,12.13,12.13,0,0,0-.83-3.29.33.33,0,0,0-.59.27c.33,1.55.66,3.09,1,4.63a.34.34,0,0,0,.3.25,12.12,12.12,0,0,0,9-2.13,9.51,9.51,0,0,0,3.78-6.89c.16-3.11-1.63-5.78-3.69-7.9a22.23,22.23,0,0,0-7.86-5.42c-3-1.16-7-1.63-9.83.31-.29.21-.11.74.26.61,1.4-.49,3.12-.81,4.22-1.88,2-2,1.92-5.17,1.33-7.79A10,10,0,0,0,353.72,11a14.07,14.07,0,0,0-3.17-3,9.72,9.72,0,0,0-9-1.41c-.79.29-1.16.51-1.27,1.34s-.22,1.9-.33,2.87c0,.38.59.47.64.09.37-2.76.7-6.11-1.14-8.44-2.07-2.6-6.29-2.53-9.28-2.24a25.91,25.91,0,0,0-10.33,3.45,25,25,0,0,0-7.63,6.29,13.69,13.69,0,0,0-2.47,8.95.32.32,0,0,0,.24.31l4.44,1.77c.35.14.57-.42.26-.6a10.56,10.56,0,0,0-4.83-1.5,8.84,8.84,0,0,0-4.48,1.45,10.32,10.32,0,0,0-3.1,2.71,23,23,0,0,0-2.84,4.32c-1.13,2.62-1,5.78,1.64,7.34a4.7,4.7,0,0,0,3.45.74,7.94,7.94,0,0,0,2.38-.83c.64-.33,1.21-.82,1.84-1.12l-.33-.58c-.7.43-1.44.81-2.12,1.3a5.54,5.54,0,0,0-1.79,3c-.81,2.89-.28,6.25,2.14,8.15a9.65,9.65,0,0,0,9,1.19,21.27,21.27,0,0,0,7.18-5.29c.29-.31-.17-.78-.45-.47a22.51,22.51,0,0,1-6.05,4.73,9.12,9.12,0,0,1-8.55-.2c-2.73-1.64-3.43-5-2.6-7.93A4.53,4.53,0,0,1,307,34.52c.59-.36,1.18-.71,1.77-1.1a.33.33,0,0,0-.33-.58,23,23,0,0,1-3.14,1.66,4.43,4.43,0,0,1-3.74-.38c-2.95-1.68-2.34-5.33-.81-7.86a15.49,15.49,0,0,1,4.85-5.35,8.36,8.36,0,0,1,4.13-1.45,9.83,9.83,0,0,1,4.67,1.41l.27-.61c-1.49-.58-3-1.16-4.44-1.77.09.12.16.23.24.32a13.33,13.33,0,0,1,1.66-7.55,21,21,0,0,1,6.23-5.91,27.56,27.56,0,0,1,8.89-4c3-.74,6.9-1.14,9.87.09,3.61,1.5,3.37,6,2.91,9.25.22,0,.44.06.63.09.09-.88.2-1.73.29-2.6a2.65,2.65,0,0,1,.06-.58c.07-.14.09,0,.09,0,.37-.44,1.44-.58,2-.69,3.86-.72,7.66,1.32,10,4.41a11.19,11.19,0,0,1,1.6,4.45,8.42,8.42,0,0,1-.4,5,3.94,3.94,0,0,1-2.49,2.19c-.78.29-1.59.56-2.38.85l.27.61c3.1-2.17,7.6-1.19,10.72.36a21.41,21.41,0,0,1,8.15,7,8.09,8.09,0,0,1-.55,10c-2.53,3-6.42,3.81-10.09,3.36.11.09.22.16.31.25-.33-1.55-.66-3.09-1-4.64l-.59.27a10.26,10.26,0,0,1,.72,3,5.38,5.38,0,0,1-1.74,5.24c-2.56,2.19-6.08,2.68-9.27,3.06a14.47,14.47,0,0,1-8.23-1.14c-1.9-.89-3.32-2-3.41-4.3a7.3,7.3,0,0,1,1.57-4.25l-.52-.4c-.53,1.14-1,2.3-1.57,3.44-.79,1.57-2.89,2.53-4.39,3.23a12.17,12.17,0,0,1-6.51,1.27c-2.67-.29-5.12-1.85-5.05-4.85A.31.31,0,1,0,317.63,45.24Z"/></g><g class="cls-11"><path class="cls-6" d="M96,237.72a4.24,4.24,0,0,0,.22,1.56,3,3,0,0,0,.75,1.55c1.33,1.81,3.8,2.15,6,2.17,2.58,0,7.8-2.31,9.42-4.39l1.75-3.8c-.31.22-.33.47-.44.67-.2.36-.31.6-.44.89s-.26.7-.43,1.12a2.86,2.86,0,0,0-.38,1,6.31,6.31,0,0,0,.51,3,4.76,4.76,0,0,0,2,1.84c4.78,2.64,8,2,13.32,1.07a12.73,12.73,0,0,0,5.27-2.28,6.07,6.07,0,0,0,1.79-2.22,5.57,5.57,0,0,0,.35-3.6,20.88,20.88,0,0,0-.77-3l1,4.63a11.73,11.73,0,0,0,8.63-1.9,8.93,8.93,0,0,0,3.8-8.29c-.4-2.57-2.08-4.74-3.89-6.55-3.84-3.83-9.17-6.79-14.44-5.71a5.84,5.84,0,0,0-2.49,1l3.39-1.21c3.08-2.2,2.57-6.43,1.39-10.1-.61-1.94-3.64-5-6.86-6-2.81-.94-6-.07-6.77.67l-.37,3.34c.44-3.18.64-7-1.9-9a7.81,7.81,0,0,0-3.93-1.32c-6.2-.67-12.41,1.64-17.39,5.38a20,20,0,0,0-2.62,2c-3.21,3.29-4.52,5.71-4.37,11l4.41,1.81a12.6,12.6,0,0,0-3.67-1.32c-2.47-.6-5.33,1.12-7.29,2.69a30.18,30.18,0,0,0-2.38,3.06,8.62,8.62,0,0,0-2,6.25c.35,2.24,2.06,3.4,4.2,3.89a7.15,7.15,0,0,0,2.4-.44,18.61,18.61,0,0,0,2.84-1.57L84.38,227c-1.53,1.35-2,4.12-1.93,5.78a6.49,6.49,0,0,0,2.12,4.56A9.46,9.46,0,0,0,92.28,239c2.74-.52,6.62-3.76,8.26-5.58"/><path class="cls-7" d="M95.63,237.72a5.19,5.19,0,0,0,3.73,5.15,11.08,11.08,0,0,0,7.34-.38,18.71,18.71,0,0,0,3.54-1.73,7.26,7.26,0,0,0,2.38-2,32.94,32.94,0,0,0,1.75-3.81c.15-.33-.24-.69-.52-.4a9.72,9.72,0,0,0-1.6,3.22,5.2,5.2,0,0,0,.29,3.72,6.08,6.08,0,0,0,3.1,2.57,14.18,14.18,0,0,0,4,1.33,24.94,24.94,0,0,0,8.12-.56c2.73-.47,5.92-1.62,7.5-4.12a6,6,0,0,0,.76-4.32,12,12,0,0,0-.83-3.29.33.33,0,0,0-.59.27c.33,1.54.66,3.08,1,4.63a.35.35,0,0,0,.31.24,12.11,12.11,0,0,0,9-2.12,9.53,9.53,0,0,0,3.78-6.9c.16-3.11-1.63-5.77-3.69-7.9a22.33,22.33,0,0,0-7.86-5.41c-3-1.17-7-1.64-9.83.31-.29.2-.11.74.26.6,1.4-.49,3.12-.8,4.22-1.88,2-2,1.92-5.17,1.33-7.79a9.83,9.83,0,0,0-1.47-3.71,13.66,13.66,0,0,0-3.16-3,9.75,9.75,0,0,0-9-1.41c-.79.29-1.16.52-1.27,1.35L118,203.2c0,.38.59.47.64.09.37-2.75.7-6.11-1.14-8.44-2.07-2.6-6.29-2.53-9.28-2.24a25.86,25.86,0,0,0-10.33,3.45,25.32,25.32,0,0,0-7.63,6.29,13.69,13.69,0,0,0-2.47,9,.35.35,0,0,0,.24.32c1.49.58,3,1.16,4.44,1.77.35.13.57-.43.26-.61a10.68,10.68,0,0,0-4.83-1.5,8.76,8.76,0,0,0-4.48,1.46,10.18,10.18,0,0,0-3.1,2.71,22.7,22.7,0,0,0-2.84,4.32c-1.13,2.61-1,5.77,1.64,7.34a4.75,4.75,0,0,0,3.45.74,8.53,8.53,0,0,0,2.38-.83c.64-.34,1.21-.83,1.84-1.12l-.33-.58c-.7.42-1.44.8-2.12,1.29a5.6,5.6,0,0,0-1.79,3c-.81,2.88-.28,6.24,2.14,8.14a9.59,9.59,0,0,0,9,1.19,21.11,21.11,0,0,0,7.18-5.28c.29-.31-.17-.78-.45-.47a22.33,22.33,0,0,1-6.06,4.72,9.1,9.1,0,0,1-8.54-.2c-2.73-1.63-3.43-5-2.6-7.92A4.5,4.5,0,0,1,85,227c.59-.36,1.18-.72,1.77-1.1a.33.33,0,0,0-.33-.58A24.7,24.7,0,0,1,83.29,227a4.36,4.36,0,0,1-3.74-.38c-3-1.68-2.34-5.32-.81-7.85a15.32,15.32,0,0,1,4.85-5.35,8.27,8.27,0,0,1,4.13-1.46,9.94,9.94,0,0,1,4.67,1.41l.27-.6L88.22,211c.09.11.16.22.24.31a13.3,13.3,0,0,1,1.66-7.54,20.9,20.9,0,0,1,6.23-5.91,27.14,27.14,0,0,1,8.89-4.05c3-.74,6.9-1.14,9.87.09,3.61,1.5,3.37,5.95,2.91,9.24.22,0,.44.07.63.09.09-.87.2-1.72.29-2.6A2.78,2.78,0,0,1,119,200c.07-.13.09,0,.09,0,.37-.45,1.44-.58,2-.7,3.86-.71,7.66,1.32,10,4.41a11.17,11.17,0,0,1,1.6,4.46,8.39,8.39,0,0,1-.4,5,4,4,0,0,1-2.49,2.2c-.78.29-1.59.56-2.38.85l.27.6c3.1-2.17,7.6-1.18,10.72.36a21.57,21.57,0,0,1,8.15,7,8.11,8.11,0,0,1-.55,10c-2.53,2.95-6.42,3.8-10.09,3.36.11.09.22.15.31.24-.33-1.54-.66-3.09-1-4.63l-.59.27a10.2,10.2,0,0,1,.72,2.95,5.38,5.38,0,0,1-1.74,5.24c-2.56,2.19-6.08,2.69-9.27,3.07a14.47,14.47,0,0,1-8.23-1.15c-1.9-.89-3.32-2-3.41-4.29a7.33,7.33,0,0,1,1.57-4.26l-.52-.4c-.53,1.14-1,2.31-1.57,3.45-.79,1.57-2.89,2.53-4.4,3.22a12.22,12.22,0,0,1-6.5,1.28c-2.67-.29-5.12-1.86-5.05-4.86A.31.31,0,1,0,95.63,237.72Z"/></g><path class="cls-7" d="M1726.35,670.84c-2.21,0-6.82-1.36-8.12-1.41-2.06-.09-3.69-.2-7.21-.18l-3.28,2.41c-.09,6-.18,39.84-.27,45.81,0,2.56-.51,21-1.08,23.63s1.7,17,3.07,22.41c1.27,5.06.79,10.19,1.34,15.34s-.7,22.47-.89,27.73l3.31.25c4.47,0,5.8,0,10.26.1l4.93-.32c-.28-10.61-2.08-33.47-1.62-43.55a102.19,102.19,0,0,1,1.51-14.57c.72-3.9.29-6.38.89-15.09.18-2.68-.16-12.89-.21-15.93-.1-6,1.36-39.84,1.26-45.81Z"/><path class="cls-12" d="M1726.35,669.34c-6.27-.37-20-5.54-20.14,4.82-.09,10.91-.11,21.82-.17,32.73,0,8.58-.17,17.15-.55,25.72-.16,3.84-.85,7.77-.6,11.6a122.89,122.89,0,0,0,2.55,17.16c3.13,15,1.59,30.09,1,45.21a1.53,1.53,0,0,0,1.5,1.5,131.29,131.29,0,0,0,18.5,0,1.52,1.52,0,0,0,1.5-1.5c-.39-13.21-1.7-26.41-1.69-39.63,0-12.68,2.63-25.12,2.51-37.85-.18-19.17,1.22-38.32,1-57.47a1.53,1.53,0,0,0-1.1-1.45l-3.89-.81c-1.88-.4-2.69,2.49-.8,2.89l3.89.82-1.1-1.45c.21,19.15-1.19,38.3-1,57.47.12,12.73-2.51,25.16-2.51,37.85,0,13.22,1.3,26.42,1.69,39.63l1.5-1.5a131.29,131.29,0,0,1-18.5,0l1.5,1.5c.49-11.9,1.09-23.53.49-35.43-.54-10.63-4.89-21-3.8-31.72,1.89-18.69,1-37.94,1.06-56.68q0-3.6,0-7.2c0-.94,0-1.88,0-2.81,0-1.25-1.18.44.24-.5s1.61-1.27,3.17-1.49a22.84,22.84,0,0,1,4.6.13c3.08.24,6,1.28,9.12,1.46C1728.28,672.46,1728.27,669.46,1726.35,669.34Z"/><path class="cls-13" d="M1695.11,847.3a176.07,176.07,0,0,1,45.86-1.17l.74-.94,1.17-22.1c.19-3.61.37-7.29-.62-10.76s-3.17-6.59-5.4-9.49a30.19,30.19,0,0,0-7.2-7.24c-7.18-4.64-17.24-3-23.84,2.43s-10.13,13.87-11.38,22.32-.49,17.06.07,25.59"/><path class="cls-12" d="M1695.51,848.74a179.33,179.33,0,0,1,32.07-2q3.84.1,7.66.39c1.53.11,4.41,1,5.73.51a3.47,3.47,0,0,0,2.24-2.44c.71-2,.28-5.25.39-7.37l.39-7.36c.23-4.25.7-8.55.52-12.8-.3-7.58-4.33-13.71-9.32-19.18-9.41-10.32-24.79-8.51-33.65,1.63-11,12.57-9.56,30.37-8.53,45.83.13,1.91,3.13,1.93,3,0-.9-13.48-2.4-28.43,5.23-40.41,3.92-6.17,10.24-10.69,17.7-11.11,8.22-.45,13.57,4.81,18,11.07,4.8,6.74,4.64,13.35,4.22,21.28l-.59,11.05c-.08,1.54-.18,3.07-.24,4.61-.1,2.3,0,2.15-2.25,1.92a174.23,174.23,0,0,0-43.4,1.5c-1.9.29-1.09,3.18.8,2.89Z"/><path class="cls-7" d="M1769.37,672.14c2-.06,6.13-1.56,7.3-1.66,1.86-.14,3.34-.3,6.53-.39l3.07,2.31c.3,6,1.65,39.81,2,45.78.13,2.55.74,10,.92,11.36s.15,9.6.77,12.18.47,17-.56,22.49a119.19,119.19,0,0,0-1.85,15.4c-.3,5.25,1.48,22.45,1.85,27.69l-3,.35c-4,.1-5.26.17-9.3.4l-4.48-.17c-.14-10.61.24-33.42-.16-43.57a84.55,84.55,0,0,0-1.79-14.47c-.8-3.88-.5-5-1.37-13.73-.27-2.67-.47-14.26-.54-17.29-.12-6-2.72-39.78-2.85-45.75Z"/><path class="cls-12" d="M1769.37,673.64c2.42-.26,4.65-1.15,7-1.59a20.64,20.64,0,0,1,4.37-.36,5.53,5.53,0,0,1,3.58,1.13c1.5.86.42-.07.46.41,0,.66.06,1.34.09,2l.27,6.23q.64,15.42,1.29,30.83c.8,18.57,3.63,36.82.8,55.34-2,13.4-.4,26.27.6,39.66l1.5-1.5a108,108,0,0,1-16.77.58l1.5,1.5c-.15-13.56.25-27.13-.07-40.69-.29-12.11-3.09-23.94-3.49-36.07-.64-19.37-2.63-38.69-3.15-58l-1.1,1.45,3.49-.94a1.5,1.5,0,0,0-.8-2.89l-3.49.93a1.53,1.53,0,0,0-1.1,1.45c.52,19.36,2.51,38.68,3.15,58,.4,12.13,3.2,24,3.49,36.07.32,13.56-.08,27.13.07,40.69a1.53,1.53,0,0,0,1.5,1.5,108,108,0,0,0,16.77-.58,1.52,1.52,0,0,0,1.5-1.5c-.93-12.47-2.63-24.66-.94-37.14a158.1,158.1,0,0,0,1.84-18.94c.06-4.86-.57-9.5-.82-14.31-1-19.25-2-38.49-2.87-57.76-.15-3.43.59-6.71-2.21-8.92-4.8-3.79-11.13-.17-16.49.41C1767.47,670.84,1767.45,673.84,1769.37,673.64Z"/><path class="cls-13" d="M1805.77,847.44a176.54,176.54,0,0,0-45.87.44l-.77-.91-2-22.05c-.31-3.59-.62-7.27.25-10.77s2.94-6.7,5.07-9.67a30,30,0,0,1,6.93-7.49c7-4.89,17.13-3.59,23.92,1.59s10.6,13.51,12.15,21.91,1.08,17,.82,25.57"/><path class="cls-12" d="M1805.77,845.94a185.2,185.2,0,0,0-23-1.28q-5.27.06-10.53.42c-1.91.13-3.82.3-5.73.49-1.27.13-3.51.9-4.76.55-1.61-.45-.64.59-1.33-1-.53-1.2-.37-4.2-.49-5.51l-1-11c-.7-7.9-1.14-14.51,3.44-21.42,4.29-6.47,9.37-11.82,17.61-11.75,7,.07,13.2,3.94,17.32,9.4,8.87,11.75,7.89,27.32,7.44,41.23-.06,1.93,2.94,1.93,3,0,.5-15.49,1.29-33.32-10.09-45.52-9.55-10.24-25.2-11-34.23.13-4.55,5.58-8.08,11.49-8.14,18.83,0,4.85.71,9.78,1.13,14.61l.65,7.35c.15,1.69-.09,4.33.54,5.91a3.43,3.43,0,0,0,2.22,2c1.41.51,5.82-.73,7.62-.91q3.81-.36,7.64-.57a182,182,0,0,1,30.61,1c1.92.22,1.9-2.78,0-3Z"/><path class="cls-14" d="M1698.65,468.66a19.76,19.76,0,0,0-24,22.78c-14,7.76-21,26.16-15.68,41.25A72.06,72.06,0,0,0,1644,565.92c-.68,4-1,8.14.24,12s4.35,7.3,8.34,7.91c-6.09,9.23-10.71,20.22-8.9,31.12s12.06,20.86,23,19c-.54,8.18-1,16.73,2.34,24.2s11.87,13.31,19.66,10.77a25,25,0,0,0,22,19.69c9.84.74,19.4-4.51,29.25-3.79,4.83.35,9.48,2.13,14.32,2.24s10.33-2.18,11.54-6.87c5.56,7,16.34,7,24.73,4s15.87-8.47,24.52-10.67c5-1.27,10.28-1.42,15.15-3.14s9.53-5.61,9.91-10.76c.12-1.66-.71-7-.24-8.58.74-2.55,6.77-3.25,8.84-4.91,10.92-8.74,9.74-21.6,10.79-35.54.3-4.11.58-8.39-1-12.18s-5.67-6.89-9.67-5.92a20,20,0,0,0,8.87-17.53c-.39-6.84-5.58-17.64-11.72-20.69,1.52-6.38,6.52-6.47,8-12.84,1.82-7.67.25-19.53-6.44-23.7-2.18-1.36-6.64-.43-7-3-.15-1.13,1.73-4.09,2.15-5.16,1.28-3.24,1.88-6.95.6-10.19s-9.74-8.52-13.11-7.62c-13.87-17.27-31.62-24.31-53.71-22.75-2.91.2-5.86.59-8.73.09-3.36-.59-6.38-2.35-9.56-3.6a33,33,0,0,0-21.82-.76c-3.79-6.73-7.73-9.86-15.46-9.87s-12.56,3-16.37,9.69Z"/><path class="cls-12" d="M1699.05,467.21c-15.2-2.92-27.94,9.36-25.8,24.63l.69-1.69a36.58,36.58,0,0,0-16,19.41,37,37,0,0,0-2.18,13.79,34.06,34.06,0,0,0,.71,5.79c.65,3.12.57,3.52-1.3,6.12a72.57,72.57,0,0,0-12.81,31.12c-1.26,8.3.18,18.61,9.76,20.88l-.89-2.2c-6.85,10.61-12.64,24.37-7.74,37,3.64,9.36,12.72,16.74,23.09,15.46l-1.5-1.5c-.62,9.6-1.23,20.53,4.77,28.72,4.43,6.06,11.69,9.65,19.13,7.7l-1.85-1c3.51,15.72,18.4,22.83,33.37,20,5.28-1,10.5-2.75,15.91-3,5.17-.24,10,1.44,15.08,2,6.43.77,13.34-1.14,15.69-7.74l-2.51.66c7.46,8.53,19.84,7.18,29.3,3.15,6.67-2.84,12.83-6.89,19.8-9,6.47-2,13.67-1.63,19.73-4.89,4.06-2.18,7.6-5.94,8-10.71.18-2.06-.54-4.17-.33-6.21.39-3.77,3.49-3.86,6.39-5.2,9.72-4.5,12-17,12.69-26.52.63-8.9,4.46-33-11.5-30.9l.76,2.79c6.71-4.76,10.66-12.62,9.37-20.91-1.17-7.48-5.45-16.06-12.22-19.9l.69,1.7c1.72-5.75,7.27-8.3,8.37-14.55a29.91,29.91,0,0,0-1.73-16.5,16.65,16.65,0,0,0-3.66-5.56c-2-1.93-3.76-1.67-6.06-2.73-1.37-.63-1.27.34-1.58-1.37-.19-1.09.19-1.19.5-2.05s.88-1.8,1.22-2.75c1.11-3.13,1.63-7,.3-10.16-1.61-3.83-6.36-6.66-10.08-8-.94-.35-2-.43-2.88-.75-1.45-.51-.83-.14-2-1.28-2.63-2.56-4.92-5.36-7.75-7.75a59.45,59.45,0,0,0-33.67-13.64,79.85,79.85,0,0,0-11.88,0,31.73,31.73,0,0,1-16-2.64,36,36,0,0,0-24.56-1.57l1.7.69c-4.82-8.25-12.15-12.18-21.83-10.13a17.58,17.58,0,0,0-10.21,6.4c-1.49,1.85-1.33,2.48-3.16,3.44a31.25,31.25,0,0,1-4.21,1.47c-1.81.63-1,3.53.8,2.89s4.08-1,5.72-2c2.74-1.63,3.85-5.38,6.75-7.26a18.24,18.24,0,0,1,13.54-2c4.83,1.15,7.61,4.61,10,8.72a1.52,1.52,0,0,0,1.69.69,32.59,32.59,0,0,1,16.11-.73c4.51,1,8.4,3.51,12.81,4.7,7.59,2.06,16.23-.32,24.09.51A56.15,56.15,0,0,1,1812.3,480a57,57,0,0,1,9.73,7.25c1.44,1.33,2.81,2.72,4.13,4.16.89,1,2.09,3.14,3.26,3.7.82.4,2.06.14,2.89.29a14.66,14.66,0,0,1,5,2.3c5.19,3.3,6.34,8.12,3.79,13.85-1.71,3.83-3.52,7.31,1.86,8.62,4.54,1.11,6.92,2.88,8.64,7.45a27.32,27.32,0,0,1,1.54,11.09,14.89,14.89,0,0,1-4.62,10.49,15.81,15.81,0,0,0-4,6.71,1.51,1.51,0,0,0,.69,1.69c12.53,7.11,14.78,27.17,2.84,35.63-1,.75-.87,3,.76,2.8,11.45-1.53,9.26,14.28,8.88,21.2-.35,6.45-.41,13.13-2.57,19.29a22.48,22.48,0,0,1-5.26,8.58c-2.43,2.44-5,2.92-7.93,4.34-3.75,1.8-3.84,4-3.59,7.91.23,3.56.5,6.41-2.1,9.41s-6.14,4.29-9.75,5.16c-6.88,1.64-13.51,2.24-20,5.18-11.47,5.17-28.65,16.6-39.61,4.07a1.52,1.52,0,0,0-2.51.66c-3.28,9.27-15.45,4.71-22.21,3.77-6.47-.89-12.67.7-18.94,2.11-7.38,1.66-14.67,2.48-21.52-1.39A23.86,23.86,0,0,1,1690,670.54a1.53,1.53,0,0,0-1.85-1c-8.19,2.15-15.65-4-18.48-11.35-2.67-7-2.09-14.84-1.62-22.18a1.5,1.5,0,0,0-1.5-1.5c-10,1.23-18.6-6.53-21.07-15.91-3-11.22,2.35-22.75,8.31-32a1.51,1.51,0,0,0-.9-2.2c-12.09-2.86-7.8-19.53-5.15-27.82a70.8,70.8,0,0,1,5.91-13.43q1.66-2.91,3.59-5.66c.9-1.29,3-2.85,3.18-4.37.34-2.87-1.57-6.72-1.69-9.74a34.41,34.41,0,0,1,1.63-11.7,33.53,33.53,0,0,1,15.06-18.91,1.58,1.58,0,0,0,.69-1.7,18.55,18.55,0,0,1,22.1-20.94C1700.14,470.47,1701,467.57,1699.05,467.21Z"/><path class="cls-7" d="M1740.41,337.35c-17.52,20-21.1,46.95-26.37,72.08a423.34,423.34,0,0,1-17.78,61.3c-1.18,3.14-2.4,6.32-2.6,9.62-.54,8.56,5.86,16.19,13.36,21.13,12.87,8.48,29.22,11.35,45.15,11.86,19.87.64,41.83-3,54.86-17.08,9.64-10.4,12.63-24.8,12-38.33s-4.64-26.68-7.29-40c-3.3-16.54-4.6-33.44-8.84-49.77-2.29-8.81-5.5-17.54-11.08-24.94S1778,329.84,1768.38,328s-20.62,1.08-26.67,8.34"/><path class="cls-12" d="M1739.35,336.29c-22.67,26.5-23.7,64.16-32.44,96.44q-3.95,14.52-8.9,28.74c-2.65,7.6-7.32,15.87-5.36,24.15,3.53,14.9,21.24,22.68,34.58,26,27.25,6.82,68.53,6.24,85.51-20.36,9-14.13,8.86-31.54,6-47.48-1.73-9.73-4.34-19.28-6.16-29s-3-19.75-4.71-29.6c-3.11-18.58-7.69-39.49-23.56-51.53-12.77-9.68-32.32-11.1-43.68,1.61-1.29,1.44.83,3.57,2.12,2.12,11.36-12.71,30.83-9.67,42.46.9,12.49,11.36,16.47,29,19.3,44.93,2.93,16.59,5.19,33.14,8.9,49.59,3.59,15.94,6.75,33,.77,48.8-11.67,30.86-51.68,33.4-79.52,28.53-14-2.44-34.69-9-39-24.65-2.18-7.94,3-16.77,5.5-24.13q4.15-12,7.59-24.23c4.84-17.23,7.84-34.79,11.85-52.2,3.87-16.78,9.47-33.26,20.82-46.53,1.25-1.46-.86-3.59-2.12-2.12Z"/><path class="cls-7" d="M1731.28,351.88c-16.11,10.14-23.73,29.13-34.14,45.06a129.08,129.08,0,0,1-10.5,13.92,30.4,30.4,0,0,1-7.19,6.54c-2.25,1.33-8.9,6.36-11.24,7.51-4.78,2.35-4.58,1.86-9,4.87a49.18,49.18,0,0,1-22.65,8.3,14.35,14.35,0,0,1-6.49-.47c-3.93-1.47-6.21-5.76-6.63-9.93-.7-6.81,2.65-13.53,7.39-18.46s10.8-8.37,16.75-11.74l30.12-17a108.86,108.86,0,0,0,14-8.88c3.92-3.08,7.4-6.69,11.23-9.88a67.72,67.72,0,0,1,22.82-12.44,7,7,0,0,1,3.93-.4c1.29.37,2.37,1.76,1.92,3"/><path class="cls-12" d="M1730.52,350.59c-13.51,8.81-21.18,23-29.14,36.55a146.58,146.58,0,0,1-15.8,22.66c-4.59,5.26-11.07,9.74-17.14,13.26-2.32,1.35-4.86,2.24-7.18,3.6-4.4,2.6-8.38,5.44-13.24,7.23-4.44,1.64-10,3.29-14.73,2.83-7.33-.72-9.41-8.68-8-14.85,2.48-10.53,12-16.79,20.8-21.82,9.07-5.22,18.22-10.32,27.33-15.47,9.52-5.39,18.23-10.76,26.35-18.13a76.75,76.75,0,0,1,14-10.4c1.45-.81,16.28-8.34,16.32-4.19,0,1.93,3,1.93,3,0-.1-9-13.25-2.21-17.21-.3-10.85,5.25-18.24,14.08-27.91,20.89-10.26,7.23-21.88,12.83-32.79,19-9.52,5.39-20.56,10.32-27.5,19.1-5,6.28-8.16,15.75-3.9,23.26,4.81,8.46,15.65,6.08,23.36,3.55a56.58,56.58,0,0,0,13.47-6.73c3.1-2,6.52-3.3,9.69-5.2,7.34-4.42,14.19-9.53,19.62-16.18,14.62-17.87,22.14-43.06,42.08-56.07,1.62-1.05.11-3.65-1.51-2.59Z"/><path class="cls-7" d="M1796.74,351.61c17.27,8,27.25,25.85,39.61,40.32a131.66,131.66,0,0,0,12.19,12.47,30.45,30.45,0,0,0,8,5.56c2.39,1,9.63,5.18,12.1,6,5,1.72,4.78,1.25,9.53,3.68a49.26,49.26,0,0,0,23.53,5.34,14.44,14.44,0,0,0,6.37-1.3c3.71-2,5.42-6.5,5.31-10.7-.18-6.84-4.36-13.08-9.69-17.36s-11.78-6.92-18.12-9.5l-32-13.05a109.62,109.62,0,0,1-15-7c-4.28-2.56-8.19-5.7-12.41-8.37a67.83,67.83,0,0,0-24.22-9.42,7,7,0,0,0-3.95.11c-1.22.53-2.12,2.05-1.52,3.24"/><path class="cls-12" d="M1796,352.9c19.07,9.21,28.94,29,42.79,44a99.67,99.67,0,0,0,11.5,10.91c3.33,2.61,7.23,4.28,11,6.23a60.51,60.51,0,0,0,9.69,4.26c4,1.31,7.66,3.42,11.61,4.92,7.38,2.81,20.8,6.25,27.75.79,6.5-5.09,5.19-15.1,1.47-21.4-5-8.44-13.89-13-22.62-16.62-11.69-4.88-23.48-9.55-35.22-14.35a100.16,100.16,0,0,1-19.35-9.93c-5.48-3.78-10.82-7.51-17-10.19-3.73-1.63-23.92-10.26-22.71.11.22,1.89,3.23,1.92,3,0-.48-4.13,13.78.75,15.33,1.32a68.75,68.75,0,0,1,14.45,7.6,133.51,133.51,0,0,0,24.58,13.64c9.78,4,19.56,8,29.34,11.95,8.9,3.62,18.9,7,25.24,14.68,3.11,3.75,5.36,8.62,5,13.59-.59,8.19-7.73,9.44-14.5,9a48.1,48.1,0,0,1-14-3.08c-3.49-1.34-6.68-3.29-10.23-4.49a110.68,110.68,0,0,1-17.28-7.88c-7.91-4.29-14.69-12.54-20.33-19.4-11.43-13.92-21.21-30.15-38-38.25-1.73-.83-3.26,1.75-1.52,2.59Z"/><circle class="cls-15" cx="1735.52" cy="379.17" r="23.79"/><circle class="cls-16" cx="1724.48" cy="379.88" r="7.65"/><circle class="cls-15" cx="1787" cy="377.31" r="23.79"/><circle class="cls-16" cx="1778.35" cy="378.4" r="7.65"/><path class="cls-7" d="M1682.18,514.91a29.84,29.84,0,0,0-5.65,2.11,9.28,9.28,0,0,1-3.77.64,31.86,31.86,0,0,1-13.32-2.81c-4-1.8-5.11-4.57-7-8.42a123.4,123.4,0,0,1-8.78-23.78c-4.32-16.37-6-33.3-7.61-50.12-.24-2.49-.46-5.13.61-7.4s1.58-8.91,3.36-10.69c18.6-18.6,54.53-45.65,73.85-66.54,1.54-1.66.41-.66,2.24.81s4.73-2.41,6.43-.95c2.7,2.31,1.74,2.54-.15,6.9-.71,1.62-37.34,41.16-47.83,49.15-8.58,6.54-15.94,10.63-21.25,21.26-5.85,11.69,3.33,37.8,8,50a199.94,199.94,0,0,0,20.79,40"/><path class="cls-12" d="M1681.78,513.47c-4.42,1.18-7.66,3-12.44,2.53-5.21-.54-11-2.16-13.85-6.83-5-8.1-8-17.79-10.42-26.92a227.89,227.89,0,0,1-5.61-31c-1.07-8.91-3.3-18.63-.86-27.32.91-3.26,1-6.61,3.27-9.23a88.51,88.51,0,0,1,7.39-7c5.77-5.26,11.7-10.35,17.64-15.42,12.61-10.77,25.4-21.37,37.45-32.77,2.68-2.53,5.32-5.11,7.89-7.76.38-.39,3.18-3.31,2.14-3-.45.12-.74-.36.18.56a3.4,3.4,0,0,0,1.46,1c1.92.64,3.32-1.1,5.15-.75,2.36.46.48,3.45-.61,5-4.87,6.95-11.77,13.06-17.58,19.19-7.79,8.23-15.64,16.47-24,24.18-8.94,8.3-20.24,13.87-26.29,24.92-6.78,12.4-.85,29.58,3.25,41.93a212.46,212.46,0,0,0,24.78,51c1.07,1.59,3.67.09,2.59-1.52a209.19,209.19,0,0,1-24.89-51.55c-2.47-7.61-4.69-15.5-5.39-23.5-.78-8.85,1.53-15.82,7.69-22.39,4.89-5.22,11.11-8.8,16.55-13.37,3.71-3.12,7.17-6.56,10.61-10,9-8.94,17.78-18.16,26.38-27.5,3.06-3.32,13.19-11.7,11-17.21a4.81,4.81,0,0,0-3.52-2.86c-.92-.09-1.53.42-2.38.55a6.14,6.14,0,0,1-3.28-.12c-.36-.1-.39-.67-.9-.69-2.17-.1-3.26,2-4.67,3.49-2.87,3-5.85,5.89-8.87,8.73-13,12.26-26.87,23.62-40.44,35.27-6.24,5.36-12.46,10.75-18.43,16.41-1.88,1.78-4.07,3.46-5.15,5.86-1.29,2.85-1.67,6.28-2.51,9.29-1.33,4.79-.51,9.43,0,14.35.59,5.92,1.23,11.84,2,17.75a193.92,193.92,0,0,0,7.31,34.05,121.3,121.3,0,0,0,6.23,15.49c1.48,3.07,2.89,6.33,5.69,8.43,3.56,2.67,8.6,3.78,12.94,4.2,5.22.51,8.31-1.33,13.24-2.64a1.5,1.5,0,0,0-.8-2.89Z"/><path class="cls-13" d="M1770.39,362c-1.64-8.86-3.36-12.68-2.7-20.09h0c-10.81-3.76-7-2.19-17.73-4.21a36,36,0,0,0-14.56.22c-4.68,1.08-10,1.78-13.91,2.59-4.5.93-9.19,5.63-10.69,8.8-2.62,5.58.81,11.71,8.84,13.87s19.86,2.36,31.47,1.49,7.75-.94,19.28-2.67"/><path class="cls-12" d="M1771.84,361.64c-1.28-6.61-3.11-12.92-2.65-19.7a1.54,1.54,0,0,0-1.1-1.45c-10.49-3.63-22-6.11-33.08-4-6.4,1.23-14.14,1.37-19.55,5.33-3.68,2.69-7.24,6.9-7,11.73.57,12.08,17.75,12.79,26.44,13.06,12.25.39,23.89-1.3,35.9-3.14,1.9-.29,1.09-3.18-.8-2.89-8.79,1.34-17.26,2.72-26.2,3-8,.26-31.39,2-32.34-10-.49-6.09,6.71-10.74,11.8-11.84,5.93-1.28,12.38-2.79,18.42-3.09,8.52-.42,17.61,2,25.62,4.75l-1.1-1.44c-.48,7.07,1.43,13.61,2.75,20.49.37,1.9,3.26,1.09,2.9-.79Z"/><path class="cls-7" d="M1812.53,522.13c1.18-1,1.26-2.69,2.17-3.93.68-.92,3-1.71,4-2.27a28.45,28.45,0,0,1,11.57-3.56c3.91-.33,4.63,1.49,7.79,3.65,2.7,1.85,8.87,29.18,14.49,61.52.58,3.34,4.34,11.75,4.91,15.17s-.94,12.66-.39,16.23c5.7,36.67,8.65,63.65,5.79,75.32-.49,2-.5,2.3-2.55,2s-3.91-.8-5.85-1.2c-3.1-.63-12-2-12.4-6.2-.15-1.57,1.54-3.14,2.24-4.4,1.38-2.46,2.36-5.21,3.49-7.79,3.53-8-12-81.33-25-120.42-4.41-13.23-7.21-22.67-10.23-24.21"/><path class="cls-12" d="M1813.59,523.19c2.16-2.62,3.35-4.83,6.62-6.37,5.09-2.4,10.76-4.49,15.55-.64,2.79,2.25,3.41,5.8,4.36,9.17,4.24,15,7,30.53,9.77,45.88,1.25,6.92,3.61,12.91,5.52,19.61,1.64,5.77-.39,11.79.1,17.68.73,9,2.7,17.94,3.86,26.86,1,7.52,1.86,15.06,2.45,22.62a153.94,153.94,0,0,1,.57,17.18,51.32,51.32,0,0,1-.59,6.67c-.1.59-.15,2.1-.54,2.5-.89.95-4.11-.3-5.7-.63a58.84,58.84,0,0,1-7.4-1.73c-2.05-.72-3.78-1.18-4-3.39-.18-2,2-4.61,2.88-6.49,1.4-3.12,2.62-5.71,2.71-9.09.22-8.08-1.47-16.43-2.82-24.35-2.15-12.58-4.79-25.08-7.66-37.52-3.42-14.85-7.19-29.64-11.56-44.24-2.23-7.44-4.67-14.82-7.19-22.17-1.49-4.36-3-11.37-7.23-14-1.63-1-3.14,1.56-1.51,2.59,2.2,1.4,3.28,5.2,4.13,7.44,1.76,4.61,3.24,9.33,4.79,14q3.12,9.43,5.88,19c4.19,14.62,7.86,29.39,11.17,44.23,2.9,13,5.59,26.09,7.53,39.27,1.42,9.63,2.85,17.67-2.33,26.41-2.64,4.47-3.46,7.63,2,10.27a31.85,31.85,0,0,0,7.59,2.24c2.63.55,6.51,2.21,9.17,1.62,3.37-.76,3.24-6.21,3.49-9a114.76,114.76,0,0,0-.13-17.49c-.52-8.1-1.44-16.17-2.46-24.22-1.23-9.61-3.43-19.3-4.13-28.95-.45-6.26,1.61-12.43-.32-18.57-1-3.06-2.22-6-3.23-9.07-1.37-4.15-1.85-8.55-2.64-12.84-1.91-10.48-4-20.93-6.32-31.31-1.39-6.06-2.65-12.41-5-18.19a11.89,11.89,0,0,0-9.17-7.25c-4-.44-8.71,1.25-12.29,3-1.56.75-3.73,1.52-5.06,2.65-1.53,1.32-1.64,3-2.93,4.6s.89,3.61,2.12,2.12Z"/><path class="cls-13" d="M1827.17,703.51a131.31,131.31,0,0,1,33,8.6l.72-.51,5.38-15.56a24.15,24.15,0,0,0,1.77-7.81,21.8,21.8,0,0,0-1.91-7.89,22.38,22.38,0,0,0-3.65-6.66c-4.17-4.78-11.7-5.67-17.53-3.16s-10.09,7.82-12.72,13.61-3.86,12.08-5.21,18.29"/><path class="cls-12" d="M1827.17,705a134.08,134.08,0,0,1,24.16,5.45c2.69.88,8.55,4.95,10.87,1.89,1.65-2.18,2.25-6.43,3.14-9,1.23-3.55,2.7-7.11,3.59-10.76,1.35-5.52-.21-10.83-2.7-15.82-4.65-9.35-15.94-11.53-24.61-6.2-10.8,6.64-13.56,20-16,31.45-.41,1.88,2.48,2.68,2.89.8,2.12-9.78,4.11-20.81,12.07-27.71,4-3.46,9.49-5.41,14.74-4,6,1.6,8.94,7.1,10.52,12.75s-.59,10.75-2.46,16.14c-.9,2.59-1.82,5.17-2.69,7.77-.12.35-.56,2.64-.87,2.82,0,0-2.4-1.14-2.56-1.2-9.54-3.86-19.88-6-30-7.35-1.9-.25-1.89,2.75,0,3Z"/><rect class="cls-17" x="1.37" y="919.86" width="1949" height="14"/><path class="cls-3" d="M1343.89,917.73c2.13,2.22,3.91,4.74,6,7,1.85,2,2.85,4.53,4.15,6.89,3.4,6.17,12.85.66,9.45-5.53-1.61-2.94-3-5.86-5.2-8.42s-4.32-5.25-6.65-7.69c-4.88-5.1-12.62,2.65-7.75,7.75Z"/></g></g></svg>