<svg xmlns="http://www.w3.org/2000/svg" viewBox="0 0 1410.92 341.31"><defs><style>.cls-1{fill:none}.cls-16,.cls-3,.cls-30{fill:#fff}.cls-4{fill:#606060}.cls-16,.cls-17,.cls-25,.cls-30,.cls-31{stroke-miterlimit:10}.cls-15{fill:#212121}.cls-16,.cls-17{stroke:#000}.cls-16{stroke-width:2px}.cls-18{fill:#303030}.cls-23{fill:#fec600}.cls-25{fill:#a25443;stroke:#6c332c;stroke-width:5px}.cls-27{fill:#c8897b}.cls-29{fill:#966158}.cls-30{stroke:#fff}.cls-31{fill:#41b9d6;stroke:#41b9d6}</style><clipPath id="clip-path" transform="translate(-.1)"><path class="cls-1" d="M0 14.01h210.75v107.14H0z"/></clipPath><clipPath id="clip-path-2" transform="translate(-.1)"><path class="cls-1" d="M1242.5 131.44H1388v73.96h-145.5z"/></clipPath><clipPath id="clip-path-3" transform="translate(-.1)"><path class="cls-1" d="M1089 .01h213v98.61h-213z"/></clipPath><clipPath id="clip-path-4" transform="translate(-.1)"><path class="cls-1" d="M1321 12.01h90v66.37h-90z"/></clipPath><clipPath id="clip-path-5" transform="translate(-.1)"><path class="cls-1" d="M239 25.01h72v53.1h-72z"/></clipPath><clipPath id="clip-path-6" transform="translate(-.1)"><path class="cls-1" d="M27 163.01h72v53.1H27z"/></clipPath><clipPath id="clip-path-7" transform="translate(-.1)"><path class="cls-1" d="M157 128.01h1148v213H157z"/></clipPath><clipPath id="clip-path-8" transform="translate(-.1)"><path class="cls-1" d="M414 72.01h101v112H414z"/></clipPath></defs><g id="Layer_2" data-name="Layer 2"><g id="Layer_1-2" data-name="Layer 1"><g clip-path="url(#clip-path)"><path class="cls-3" d="M56.2 105.29a6 6 0 0 0 .64 3.17c.26.9.26 1.26 2.18 3.11 3.9 3.66 11.12 4.34 17.58 4.38 7.55 0 22.83-4.65 27.56-8.85l5.12-7.68c-.9.45-1 1-1.28 1.36a19.76 19.76 0 0 0-1.28 1.8c-.51.73-.77 1.4-1.28 2.26-.32.59-1.09 1.27-1.09 2.08 0 2.08.07 4.25 1.47 6s3.58 2.8 6 3.71c14 5.33 23.34 4.06 39 2.16a47.27 47.27 0 0 0 15.41-4.6 14.55 14.55 0 0 0 5.25-4.47 8.07 8.07 0 0 0 1-7.28c-.45-1.35-1.6-5.51-2.24-6.14l2.94 9.35c9.08.86 17.65-.14 25.26-3.84s12.53-10.3 11.13-16.71c-1.16-5.2-6.08-9.58-11.39-13.24-11.28-7.67-26.88-13.63-42.29-11.46a21.9 21.9 0 0 0-7.29 2.07l9.91-2.47c9-4.42 7.54-13 4.09-20.37-1.79-3.93-10.68-10-20.08-12.15-8.24-1.89-17.71-.13-19.82 1.36l-1.08 6.73c1.27-6.42 1.85-14.14-5.57-18.07-3.26-1.72-7.41-2.35-11.51-2.66-18.16-1.36-36.31 3.29-50.89 10.84-2.94 1.56-5.12 2.32-7.65 4.09-9.4 6.64-13.23 11.52-12.78 22.13l12.88 3.66a49.23 49.23 0 0 0-10.74-2.66c-7.23-1.22-15.6 2.26-21.36 5.42-1.21.68-4.54 3.93-7 6.19-3.9 3.61-7 8.08-5.94 12.6S7.1 84 13.36 85a29.94 29.94 0 0 0 7-.91c3.64-.81 7.22-2.89 8.31-3.16l-6.39 2.71c-4.48 2.71-5.95 8.31-5.63 11.66a11.92 11.92 0 0 0 6.2 9.21c5.5 3.34 14.58 4.52 22.57 3.48s19.38-7.59 24.17-11.25" transform="translate(-.1)"/><path class="cls-4" d="M55.25 105.29c-.2 5 4.28 8.9 10.93 10.39a46.1 46.1 0 0 0 21.48-.76A70.39 70.39 0 0 0 98 111.44c2.37-1 5.44-2.31 7-4 2.11-2.31 3.45-5.2 5.12-7.68.44-.68-.71-1.4-1.54-.81-2.24 1.58-3.51 4.42-4.67 6.5s-.64 5.42.84 7.5c1.79 2.57 5.56 4 9.08 5.19a54.87 54.87 0 0 0 11.76 2.67c7.93.86 16-.18 23.79-1.13 8-1 17.33-3.25 21.93-8.31a9 9 0 0 0 2.24-8.72c-.58-2.12-1-4.74-2.43-6.64-.58-.68-2-.23-1.73.54 1 3.12 1.92 6.23 2.94 9.35a1 1 0 0 0 .9.5c9.33.81 18.79-.27 26.47-4.29 6.2-3.25 10.61-8.4 11.06-13.91.45-6.28-4.79-11.66-10.81-16a71.35 71.35 0 0 0-23-10.93c-8.77-2.35-20.59-3.3-28.78.63-.83.41-.32 1.49.77 1.22 4.09-1 9.14-1.62 12.34-3.79 6-4.11 5.63-10.44 3.9-15.72a16.94 16.94 0 0 0-4.28-7.5 37.8 37.8 0 0 0-9.3-6.11c-7.67-3.66-17.39-5.2-26.28-2.85-2.3.59-3.38 1-3.7 2.71-.32 1.94-.64 3.84-1 5.78-.13.77 1.72 1 1.85.18 1.09-5.55 2-12.33-3.32-17-6.08-5.24-18.42-5.11-27.18-4.52a100.85 100.85 0 0 0-30.24 7c-8.31 3.34-16.44 7.31-22.32 12.69S32 45.36 32.23 52c0 .31.32.54.7.63 4.35 1.17 8.63 2.35 13 3.57 1 .27 1.66-.86.77-1.22a41.82 41.82 0 0 0-14.13-3 34 34 0 0 0-13.11 2.94 29 29 0 0 0-9.08 5.46c-3 2.76-6.27 5.51-8.31 8.72-3.35 5.25-2.84 11.62 4.77 14.78a19.07 19.07 0 0 0 10.1 1.5 32.25 32.25 0 0 0 7-1.68c1.86-.67 3.52-1.67 5.38-2.25-.32-.41-.64-.77-1-1.18-2 .86-4.22 1.63-6.21 2.62A11.32 11.32 0 0 0 16.88 89c-2.37 5.83-.83 12.6 6.27 16.44s18.09 4.61 26.21 2.39a65.88 65.88 0 0 0 21-10.66c.83-.63-.51-1.58-1.34-.94a67.88 67.88 0 0 1-17.72 9.53 37.37 37.37 0 0 1-25-.41c-8-3.3-10-10-7.61-16a9.65 9.65 0 0 1 5.38-5.69c1.72-.72 3.45-1.45 5.18-2.21 1.08-.46.12-1.54-1-1.18-3.2 1-5.76 2.62-9.21 3.34a18 18 0 0 1-10.94-.76C-.45 79.46 1.34 72.1 5.82 67c3.77-4.25 8.06-8.18 14.18-10.8a32.28 32.28 0 0 1 12.1-2.94 38.89 38.89 0 0 1 13.68 2.85c.26-.41.51-.82.77-1.22-4.35-1.18-8.63-2.35-13-3.57.26.22.45.45.7.63-.19-5.37.71-10.61 4.86-15.22 4.61-5.11 11.26-8.58 18.23-11.93a99.77 99.77 0 0 1 26-8.17c8.89-1.49 20.2-2.31 28.9.18 10.55 3 9.85 12 8.51 18.65.63 0 1.27.14 1.85.18.25-1.76.57-3.47.83-5.24.06-.31 0-.9.19-1.17s.26-.09.26-.09c1.08-.9 4.22-1.17 5.82-1.4a37.85 37.85 0 0 1 29.35 8.9c2.68 2.66 3.83 5.82 4.66 9 .84 3.34 1 7-1.15 10.16-1.66 2.39-4 3.61-7.29 4.43-2.3.58-4.66 1.13-7 1.71.26.41.51.82.77 1.22 9.08-4.38 22.25-2.39 31.4.72s18.09 8.18 23.85 14.19c6.2 6.46 5.75 14.32-1.6 20.23s-18.69 7.7-29.47 6.77a8.07 8.07 0 0 1 .89.5c-1-3.12-1.92-6.24-2.94-9.35l-1.73.54c1.35 1.67 1.6 4.11 2.11 6 1.16 4-.64 7.9-5.11 10.57-7.48 4.43-17.78 5.42-27.11 6.19-8.38.72-16.37.22-24.11-2.31-5.56-1.8-9.72-4-10-8.67-.13-2.44 2-6.77 4.6-8.58l-1.53-.81c-1.54 2.3-3 4.65-4.61 7-2.3 3.16-8.44 5.11-12.85 6.51a49.68 49.68 0 0 1-19 2.57c-7.8-.59-15-3.75-14.77-9.8.1-.99-1.81-.99-1.81-.14z" transform="translate(-.1)"/></g><g clip-path="url(#clip-path-2)"><path class="cls-3" d="M1281.3 194.45a4.11 4.11 0 0 0 .44 2.18c.18.63.18.87 1.51 2.15 2.69 2.53 7.68 3 12.13 3 5.21 0 15.76-3.21 19-6.11l3.53-5.3c-.62.31-.66.65-.88.93a12.37 12.37 0 0 0-.88 1.25c-.36.5-.53 1-.89 1.56-.22.4-.75.87-.75 1.43a6.43 6.43 0 0 0 1 4.18 9.42 9.42 0 0 0 4.1 2.56c9.67 3.68 16.12 2.8 26.93 1.49a32.48 32.48 0 0 0 10.64-3.18 10 10 0 0 0 3.62-3.08 5.56 5.56 0 0 0 .71-5c-.31-.94-1.11-3.81-1.55-4.24l2 6.45c6.27.59 12.19-.09 17.44-2.65s8.65-7.11 7.68-11.54c-.79-3.58-4.19-6.61-7.86-9.13-7.77-5.33-18.54-9.45-29.18-7.95a15.16 15.16 0 0 0-5 1.43l6.84-1.68c6.23-3.06 5.21-9 2.83-14.06-1.24-2.72-7.37-6.93-13.86-8.39-5.7-1.31-12.23-.09-13.69.93l-.75 4.65c.89-4.43 1.28-9.76-3.84-12.47a20.81 20.81 0 0 0-7.94-1.84 67.16 67.16 0 0 0-35.14 7.48 41.45 41.45 0 0 0-5.3 2.81c-6.49 4.58-9.14 8-8.83 15.28l8.92 2.52a34.44 34.44 0 0 0-7.42-1.84c-5-.84-10.77 1.56-14.74 3.74a52.47 52.47 0 0 0-4.81 4.27c-2.7 2.5-4.82 5.59-4.11 8.7s4.15 4.74 8.48 5.43a21 21 0 0 0 4.85-.62 43.48 43.48 0 0 0 5.74-2.19l-4.41 1.87a8.94 8.94 0 0 0-3.89 8.05 8.25 8.25 0 0 0 4.28 6.36c3.8 2.31 10.07 3.12 15.59 2.4s13.37-5.24 16.68-7.76" transform="translate(-.1)"/><path class="cls-4" d="M1280.64 194.45c-.13 3.43 3 6.14 7.55 7.17a31.75 31.75 0 0 0 14.83-.53 47.26 47.26 0 0 0 7.15-2.4c1.64-.72 3.76-1.59 4.82-2.78a42.07 42.07 0 0 0 3.53-5.3c.31-.46-.49-1-1.06-.56-1.55 1.09-2.43 3.06-3.22 4.49a5.22 5.22 0 0 0 .57 5.18c1.24 1.78 3.84 2.77 6.27 3.58a37.65 37.65 0 0 0 8.12 1.84c5.47.6 11-.12 16.42-.78s12-2.24 15.14-5.73a6.22 6.22 0 0 0 1.55-6c-.4-1.47-.66-3.27-1.68-4.58-.4-.47-1.37-.16-1.19.37.66 2.15 1.32 4.3 2 6.45a.71.71 0 0 0 .62.35c6.44.56 13-.19 18.27-3 4.29-2.25 7.33-5.8 7.64-9.61.31-4.33-3.31-8-7.46-11a49.32 49.32 0 0 0-15.89-7.55c-6.05-1.62-14.22-2.27-19.87.44-.57.28-.22 1 .53.84 2.83-.69 6.32-1.12 8.52-2.62 4.11-2.84 3.89-7.2 2.7-10.85a11.61 11.61 0 0 0-3-5.17 26.31 26.31 0 0 0-6.4-4.25 27.19 27.19 0 0 0-18.15-2c-1.59.41-2.34.72-2.56 1.87l-.66 4c-.09.53 1.19.66 1.28.13.75-3.84 1.41-8.51-2.29-11.76-4.2-3.61-12.72-3.52-18.77-3.12a69.88 69.88 0 0 0-20.88 4.81c-5.73 2.3-11.34 5-15.4 8.76a15 15 0 0 0-5 12.47c0 .22.22.37.48.44 3 .81 6 1.62 9 2.46.7.19 1.14-.59.53-.84a28.65 28.65 0 0 0-9.76-2.09 23.58 23.58 0 0 0-9 2 20.16 20.16 0 0 0-6.27 3.78c-2.07 1.9-4.32 3.8-5.74 6-2.29 3.65-1.94 8.05 3.31 10.23a13.22 13.22 0 0 0 7 1 22.51 22.51 0 0 0 4.81-1.15c1.28-.47 2.43-1.16 3.71-1.56l-.66-.81c-1.42.59-2.92 1.12-4.29 1.8a7.89 7.89 0 0 0-3.62 4.21c-1.63 4-.57 8.7 4.33 11.35s12.49 3.18 18.1 1.66a45.76 45.76 0 0 0 14.52-7.36c.58-.44-.35-1.09-.92-.66a46.72 46.72 0 0 1-12.23 6.58 25.82 25.82 0 0 1-17.26-.28c-5.52-2.28-6.93-6.92-5.26-11a6.7 6.7 0 0 1 3.71-3.93c1.19-.49 2.39-1 3.58-1.52.75-.31.09-1.06-.66-.81-2.21.71-4 1.8-6.36 2.3a12.44 12.44 0 0 1-7.55-.53c-6-2.33-4.72-7.42-1.63-10.94a27.13 27.13 0 0 1 9.8-7.45 22.19 22.19 0 0 1 8.34-2 27 27 0 0 1 9.45 2l.53-.85c-3-.81-6-1.62-9-2.46a6.39 6.39 0 0 0 .48.44c-.13-3.71.49-7.33 3.36-10.51 3.18-3.52 7.77-5.92 12.58-8.23a68.91 68.91 0 0 1 18-5.64c6.14-1 14-1.59 20 .12 7.28 2.09 6.8 8.29 5.87 12.88.44 0 .88.09 1.28.12.18-1.21.4-2.4.57-3.61 0-.22 0-.63.14-.82s.17-.06.17-.06c.75-.62 2.92-.81 4-1a26.15 26.15 0 0 1 20.26 6.14 12.73 12.73 0 0 1 3.22 6.2c.58 2.31.71 4.87-.79 7a7.84 7.84 0 0 1-5 3.05c-1.59.41-3.23.78-4.81 1.19.17.28.35.56.53.84 6.26-3 15.36-1.65 21.67.5s12.49 5.64 16.47 9.79c4.28 4.46 4 9.88-1.11 14s-13 5.3-20.39 4.67c.22.13.44.22.62.35-.67-2.15-1.33-4.31-2-6.46l-1.2.38c.93 1.15 1.11 2.83 1.46 4.11.79 2.78-.44 5.46-3.53 7.3-5.17 3.05-12.27 3.74-18.72 4.27a41.24 41.24 0 0 1-16.64-1.59c-3.84-1.25-6.71-2.74-6.89-6a8.49 8.49 0 0 1 3.18-5.92l-1.06-.56c-1.06 1.59-2.07 3.21-3.18 4.8-1.59 2.18-5.82 3.52-8.87 4.49a34.42 34.42 0 0 1-13.16 1.78c-5.38-.41-10.33-2.59-10.19-6.77.02-.57-1.34-.57-1.34.02z" transform="translate(-.1)"/></g><g clip-path="url(#clip-path-3)"><path class="cls-3" d="M1145.8 84a5.08 5.08 0 0 0 .65 2.91c.26.84.26 1.17 2.2 2.87 3.94 3.37 11.24 4 17.77 4 7.62 0 23.07-4.28 27.85-8.14l5.17-7.07c-.9.42-1 .87-1.29 1.25a17.39 17.39 0 0 0-1.29 1.66c-.52.66-.78 1.29-1.3 2.08-.32.54-1.09 1.16-1.09 1.91 0 1.91.06 3.91 1.48 5.57s3.62 2.58 6 3.41c14.15 4.91 23.59 3.74 39.42 2a51.64 51.64 0 0 0 15.63-4.2 14.33 14.33 0 0 0 5.3-4.11 6.84 6.84 0 0 0 1-6.69c-.45-1.25-1.62-5.08-2.26-5.66l3 8.61c9.18.79 17.84-.13 25.53-3.54s12.66-9.47 11.24-15.38c-1.16-4.78-6.14-8.81-11.5-12.18-11.37-7.11-27.14-12.59-42.72-10.6a23.69 23.69 0 0 0-7.36 1.91l10-2.24c9.11-4.07 7.63-11.93 4.14-18.75-1.81-3.62-10.79-9.23-20.29-11.18-8.34-1.75-17.9-.13-20 1.24l-1.1 6.2c1.3-5.9 1.88-13-5.62-16.63-3.36-1.58-7.56-2.16-11.7-2.45a106.39 106.39 0 0 0-51.44 10c-3 1.42-5.17 2.08-7.76 3.75-9.5 6.11-13.37 10.6-12.92 20.37l13 3.36a53.78 53.78 0 0 0-10.85-2.45c-7.31-1.12-15.77 2.08-21.59 5-1.23.62-4.59 3.62-7 5.69-3.94 3.33-7 7.45-6 11.6s6.07 6.32 12.41 7.24a33.16 33.16 0 0 0 7.1-.83c3.69-.75 7.31-2.67 8.41-2.91l-6.47 2.49a11.51 11.51 0 0 0-5.68 10.72c.32 3.08 2.13 6.24 6.27 8.49 5.55 3.07 14.73 4.15 22.81 3.2s19.58-7 24.43-10.35" transform="translate(-.1)"/><path class="cls-4" d="M1144.84 84c-.2 4.58 4.33 8.19 11.05 9.57a51 51 0 0 0 21.71-.71 75 75 0 0 0 10.47-3.2c2.39-1 5.49-2.12 7-3.7 2.14-2.12 3.49-4.78 5.17-7.07.46-.62-.71-1.29-1.55-.75-2.26 1.46-3.55 4.08-4.72 6s-.64 5 .84 6.9c1.81 2.37 5.63 3.7 9.18 4.78a60.69 60.69 0 0 0 11.89 2.45c8 .79 16.16-.16 24-1 8.08-.87 17.51-3 22.17-7.65a7.77 7.77 0 0 0 2.26-8c-.58-1.95-1-4.36-2.46-6.11-.58-.62-2-.21-1.74.5 1 2.87 1.94 5.74 3 8.6a1.05 1.05 0 0 0 .91.46c9.43.75 19-.25 26.75-4 6.27-3 10.73-7.73 11.18-12.8.45-5.78-4.85-10.73-10.92-14.68a75.47 75.47 0 0 0-23.27-10.06c-8.85-2.16-20.8-3-29.08.59-.84.37-.32 1.37.78 1.12 4.14-.92 9.24-1.5 12.47-3.49 6-3.79 5.69-9.61 3.94-14.47a15.06 15.06 0 0 0-4.33-6.9 38.65 38.65 0 0 0-9.37-5.66 43.25 43.25 0 0 0-26.56-2.61c-2.32.54-3.42 1-3.74 2.49-.33 1.79-.65 3.53-1 5.32-.13.71 1.74.87 1.87.17 1.1-5.12 2.07-11.35-3.36-15.68-6.06-4.82-18.53-4.69-27.38-4.15a110.45 110.45 0 0 0-30.56 6.4c-8.4 3.08-16.61 6.73-22.56 11.68a19.15 19.15 0 0 0-7.3 16.63c0 .29.32.5.71.58 4.4 1.08 8.73 2.16 13.12 3.29 1 .25 1.68-.79.78-1.13a45.93 45.93 0 0 0-14.29-2.78 37.16 37.16 0 0 0-13.24 2.7 30 30 0 0 0-9.18 5c-3 2.54-6.33 5.07-8.4 8-3.36 4.87-2.84 10.73 4.85 13.64a20.93 20.93 0 0 0 10.21 1.37 35.42 35.42 0 0 0 7-1.54c1.87-.62 3.55-1.54 5.43-2.08-.32-.37-.65-.7-1-1.08-2.07.79-4.27 1.5-6.27 2.41a10.77 10.77 0 0 0-5.3 5.62c-2.39 5.36-.84 11.6 6.33 15.13s18.29 4.24 26.5 2.2a69.46 69.46 0 0 0 21.26-9.81c.84-.58-.52-1.45-1.36-.87a70.71 70.71 0 0 1-17.9 8.77 41.35 41.35 0 0 1-25.26-.37c-8.08-3-10.15-9.23-7.69-14.72a9.24 9.24 0 0 1 5.42-5.24c1.75-.66 3.49-1.33 5.24-2 1.1-.41.13-1.41-1-1.08-3.23 1-5.82 2.41-9.31 3.08a19.89 19.89 0 0 1-11-.71c-8.72-3.11-6.91-9.89-2.39-14.59a39.45 39.45 0 0 1 14.35-9.93 35.22 35.22 0 0 1 12.21-2.71 43 43 0 0 1 13.83 2.62l.78-1.12c-4.4-1.08-8.73-2.16-13.12-3.28.26.2.45.41.71.58-.19-4.95.71-9.77 4.91-14 4.65-4.7 11.37-7.9 18.42-11a108.2 108.2 0 0 1 26.3-7.52c9-1.37 20.42-2.12 29.21.17 10.66 2.78 10 11.05 8.6 17.16.64.05 1.29.13 1.87.17.26-1.62.58-3.2.84-4.82.06-.29 0-.83.19-1.08s.26-.09.26-.09c1.1-.83 4.27-1.08 5.88-1.28 11.44-1.33 22.69 2.45 29.66 8.19a16.56 16.56 0 0 1 4.72 8.27c.84 3.07 1 6.48-1.16 9.35-1.68 2.21-4 3.33-7.37 4.08-2.32.54-4.72 1-7 1.58l.77 1.12c9.18-4 22.49-2.21 31.73.66s18.29 7.53 24.11 13.06c6.27 5.94 5.81 13.17-1.62 18.62s-19 7.07-29.85 6.24c.32.16.64.29.9.45-1-2.86-1.94-5.73-3-8.6l-1.75.5c1.36 1.54 1.62 3.78 2.14 5.48 1.16 3.7-.65 7.28-5.17 9.73-7.56 4.08-18 5-27.4 5.7a66.28 66.28 0 0 1-24.34-2.06c-5.62-1.67-9.82-3.66-10.08-8-.13-2.25 2.07-6.24 4.65-7.9l-1.55-.75c-1.55 2.12-3 4.28-4.65 6.4-2.33 2.91-8.53 4.7-13 6a55.17 55.17 0 0 1-19.26 2.37c-7.88-.54-15.12-3.45-14.92-9 .13-.89-1.8-.89-1.8-.12z" transform="translate(-.1)"/></g><g clip-path="url(#clip-path-4)"><path class="cls-3" d="M1345 68.56a5.22 5.22 0 0 0 .27 2 3.73 3.73 0 0 0 .93 1.93c1.67 2.26 4.75 2.68 7.51 2.71 3.22 0 9.75-2.88 11.77-5.48l2.19-4.76c-.39.28-.41.59-.55.84-.25.45-.38.75-.55 1.12s-.32.87-.54 1.4a3.48 3.48 0 0 0-.47 1.28 7.89 7.89 0 0 0 .63 3.75 6 6 0 0 0 2.54 2.3c6 3.3 10 2.52 16.66 1.34a16 16 0 0 0 6.61-2.89 7.65 7.65 0 0 0 2.24-2.77 6.93 6.93 0 0 0 .43-4.51 27.25 27.25 0 0 0-1-3.8l1.25 5.79a14.63 14.63 0 0 0 10.79-2.38 11.12 11.12 0 0 0 4.75-10.35c-.49-3.22-2.59-5.93-4.86-8.2-4.81-4.79-11.47-8.48-18-7.14a7.39 7.39 0 0 0-3.11 1.29l4.23-1.51c3.85-2.74 3.22-8 1.75-12.62-.77-2.43-4.56-6.21-8.58-7.53-3.52-1.17-7.56-.08-8.46.84l-.46 4.17c.54-4 .79-8.76-2.38-11.19a9.82 9.82 0 0 0-4.91-1.65c-7.76-.84-15.51 2-21.74 6.71a25.46 25.46 0 0 0-3.28 2.52c-4 4.12-5.65 7.14-5.46 13.71l5.52 2.27a15.77 15.77 0 0 0-4.59-1.65c-3.09-.76-6.66 1.4-9.12 3.36a39.88 39.88 0 0 0-3 3.83c-1.66 2.24-3 5-2.54 7.81s2.57 4.25 5.25 4.87a9 9 0 0 0 3-.56 22.45 22.45 0 0 0 3.55-2l-2.73 1.68c-1.91 1.68-2.54 5.14-2.4 7.22a8 8 0 0 0 2.65 5.7c2.34 2.07 6.22 2.8 9.63 2.16s8.28-4.7 10.33-7" transform="translate(-.1)"/><path class="cls-4" d="M1344.59 68.56a6.48 6.48 0 0 0 4.67 6.43 13.79 13.79 0 0 0 9.18-.47 23.79 23.79 0 0 0 4.42-2.16 9.17 9.17 0 0 0 3-2.49 41.7 41.7 0 0 0 2.18-4.75c.19-.42-.3-.87-.65-.51a12.18 12.18 0 0 0-2 4 6.51 6.51 0 0 0 .36 4.65 7.59 7.59 0 0 0 3.87 3.21 17.58 17.58 0 0 0 5 1.65c3.38.54 6.83-.11 10.16-.69s7.4-2 9.36-5.15a7.49 7.49 0 0 0 1-5.4 15 15 0 0 0-1-4.12.41.41 0 0 0-.74.34c.41 1.93.82 3.86 1.26 5.79a.44.44 0 0 0 .38.31 15.22 15.22 0 0 0 11.31-2.66A11.89 11.89 0 0 0 1411 58c.19-3.89-2-7.22-4.61-9.87a27.89 27.89 0 0 0-9.83-6.78c-3.75-1.45-8.8-2-12.29.4-.36.25-.14.92.33.75 1.74-.61 3.9-1 5.27-2.35 2.54-2.55 2.4-6.46 1.66-9.74a12.17 12.17 0 0 0-1.83-4.64 17.47 17.47 0 0 0-4-3.81 12.18 12.18 0 0 0-11.22-1.76c-1 .36-1.45.64-1.58 1.68-.14 1.2-.28 2.38-.41 3.58-.06.48.73.59.79.11.46-3.44.87-7.64-1.42-10.55-2.6-3.24-7.87-3.16-11.61-2.79a32.36 32.36 0 0 0-12.91 4.3 31.62 31.62 0 0 0-9.53 7.87c-2.49 3.33-3.2 7.08-3.09 11.19a.41.41 0 0 0 .3.39c1.86.73 3.69 1.46 5.55 2.21.43.17.71-.53.32-.75a13.24 13.24 0 0 0-6-1.88 10.89 10.89 0 0 0-5.6 1.82 12.61 12.61 0 0 0-3.88 3.39 28.3 28.3 0 0 0-3.55 5.4c-1.42 3.27-1.2 7.22 2.05 9.17a5.87 5.87 0 0 0 4.32.93 10.41 10.41 0 0 0 3-1c.79-.42 1.5-1 2.3-1.4-.14-.25-.28-.47-.41-.72-.88.53-1.81 1-2.65 1.62a6.89 6.89 0 0 0-2.24 3.78c-1 3.61-.36 7.8 2.68 10.18a12 12 0 0 0 11.19 1.48 26.42 26.42 0 0 0 9-6.6c.36-.39-.21-1-.57-.59a28.07 28.07 0 0 1-7.56 5.91 11.38 11.38 0 0 1-10.68-.25c-3.41-2-4.29-6.22-3.25-9.91a5.68 5.68 0 0 1 2.29-3.53c.74-.44 1.48-.89 2.22-1.37a.41.41 0 0 0-.41-.72c-1.37.64-2.46 1.62-3.94 2.07a5.46 5.46 0 0 1-4.66-.48c-3.69-2.1-2.93-6.66-1-9.82a19.3 19.3 0 0 1 6.06-6.69 10.46 10.46 0 0 1 5.16-1.82 12.37 12.37 0 0 1 5.84 1.77l.33-.76c-1.86-.73-3.69-1.45-5.54-2.21a4.41 4.41 0 0 0 .3.39 16.56 16.56 0 0 1 2.07-9.43c2-3.16 4.81-5.31 7.78-7.38a34 34 0 0 1 11.12-5.07c3.79-.92 8.63-1.43 12.34.11 4.5 1.88 4.2 7.45 3.63 11.56l.79.11c.11-1.09.25-2.15.36-3.24a3.4 3.4 0 0 1 .08-.73c.08-.17.11-.06.11-.06.46-.56 1.8-.73 2.48-.87 4.84-.89 9.59 1.66 12.54 5.52a13.92 13.92 0 0 1 2 5.56 10.5 10.5 0 0 1-.49 6.3 5 5 0 0 1-3.11 2.74c-1 .37-2 .7-3 1.07l.33.75c3.87-2.71 9.5-1.48 13.4.45a26.88 26.88 0 0 1 10.19 8.78 10.15 10.15 0 0 1-.68 12.54c-3.17 3.69-8 4.76-12.62 4.2a3 3 0 0 1 .38.31 541.8 541.8 0 0 0-1.25-5.8l-.74.34a13.2 13.2 0 0 1 .9 3.69 6.72 6.72 0 0 1-2.18 6.55c-3.2 2.74-7.59 3.36-11.58 3.83a18.1 18.1 0 0 1-10.29-1.42c-2.38-1.12-4.16-2.47-4.26-5.38a9 9 0 0 1 2-5.31l-.65-.51c-.66 1.43-1.29 2.89-2 4.31-1 2-3.6 3.16-5.49 4a15.23 15.23 0 0 1-8.14 1.6c-3.33-.37-6.38-2.33-6.3-6.07a.39.39 0 1 0-.82-.09z" transform="translate(-.1)"/></g><g clip-path="url(#clip-path-5)"><path class="cls-3" d="M258.2 70.25a4 4 0 0 0 .22 1.56 3 3 0 0 0 .74 1.55c1.33 1.81 3.8 2.15 6 2.17 2.58 0 7.8-2.31 9.41-4.39l1.75-3.8c-.3.22-.32.47-.43.67-.2.36-.31.6-.44.89s-.26.7-.44 1.12a2.86 2.86 0 0 0-.37 1 6.3 6.3 0 0 0 .5 3 4.88 4.88 0 0 0 2 1.84c4.79 2.64 8 2 13.33 1.07a12.64 12.64 0 0 0 5.26-2.28 6 6 0 0 0 1.8-2.22 5.57 5.57 0 0 0 .35-3.6 22.25 22.25 0 0 0-.77-3l1 4.63a11.72 11.72 0 0 0 8.63-1.9 8.89 8.89 0 0 0 3.8-8.29c-.39-2.57-2.07-4.74-3.88-6.55-3.85-3.83-9.18-6.79-14.44-5.71a5.84 5.84 0 0 0-2.49 1l3.38-1.21c3.08-2.2 2.58-6.43 1.4-10.1-.61-1.94-3.65-5-6.86-6-2.82-.94-6.05-.07-6.77.67l-.37 3.34c.43-3.18.63-7-1.9-9a7.88 7.88 0 0 0-3.93-1.32c-6.21-.67-12.41 1.64-17.39 5.38a18.55 18.55 0 0 0-2.62 2c-3.22 3.29-4.53 5.71-4.37 11l4.41 1.81a12.7 12.7 0 0 0-3.67-1.32c-2.47-.6-5.33 1.12-7.3 2.69A31.72 31.72 0 0 0 241.4 50c-1.33 1.79-2.38 4-2 6.25s2.06 3.4 4.2 3.89a7.19 7.19 0 0 0 2.4-.44 19.14 19.14 0 0 0 2.84-1.57l-2.19 1.34c-1.52 1.35-2 4.12-1.92 5.78a6.45 6.45 0 0 0 2.12 4.56 9.46 9.46 0 0 0 7.71 1.73c2.73-.52 6.62-3.76 8.26-5.58" transform="translate(-.1)"/><path class="cls-4" d="M257.87 70.25a5.21 5.21 0 0 0 3.74 5.15A11.08 11.08 0 0 0 269 75a19.32 19.32 0 0 0 3.54-1.73 7.26 7.26 0 0 0 2.38-2 32.94 32.94 0 0 0 1.75-3.81.34.34 0 0 0-.53-.4 9.8 9.8 0 0 0-1.59 3.22 5.2 5.2 0 0 0 .28 3.72 6.08 6.08 0 0 0 3.1 2.57 14.39 14.39 0 0 0 4 1.33 25 25 0 0 0 8.13-.56c2.73-.47 5.92-1.62 7.49-4.12a6 6 0 0 0 .77-4.32 12 12 0 0 0-.83-3.29.32.32 0 0 0-.59.26c.33 1.55.65 3.09 1 4.64a.35.35 0 0 0 .31.24 12.11 12.11 0 0 0 9-2.12 9.53 9.53 0 0 0 3.78-6.9c.15-3.11-1.64-5.77-3.69-7.9a22.49 22.49 0 0 0-7.86-5.42c-3-1.16-7-1.63-9.84.32-.28.2-.1.74.27.6 1.39-.49 3.12-.8 4.21-1.88 2-2 1.93-5.17 1.33-7.79A9.65 9.65 0 0 0 294 36a13.51 13.51 0 0 0-3.17-3 9.73 9.73 0 0 0-9-1.41c-.79.29-1.16.52-1.27 1.35l-.33 2.86c0 .38.59.47.64.09.37-2.75.69-6.11-1.14-8.44-2.08-2.6-6.29-2.53-9.29-2.24a26 26 0 0 0-10.33 3.45 25.28 25.28 0 0 0-7.62 6.29 13.63 13.63 0 0 0-2.49 8.88.35.35 0 0 0 .24.32c1.49.58 2.95 1.16 4.43 1.77.35.13.57-.43.27-.61a10.68 10.68 0 0 0-4.83-1.5 8.73 8.73 0 0 0-4.48 1.46 10 10 0 0 0-3.1 2.7 22.61 22.61 0 0 0-2.84 4.33c-1.14 2.61-1 5.77 1.64 7.34a4.74 4.74 0 0 0 3.45.74 8.53 8.53 0 0 0 2.38-.83c.63-.34 1.2-.83 1.84-1.12l-.33-.58c-.7.42-1.44.8-2.12 1.29a5.54 5.54 0 0 0-1.79 3c-.81 2.88-.29 6.24 2.14 8.14a9.6 9.6 0 0 0 9 1.19 21.28 21.28 0 0 0 7.19-5.28c.28-.32-.17-.79-.46-.47a22.13 22.13 0 0 1-6 4.72 9.1 9.1 0 0 1-8.54-.2c-2.73-1.63-3.43-5-2.6-7.92a4.5 4.5 0 0 1 1.84-2.82l1.77-1.1a.33.33 0 0 0-.33-.58 24.17 24.17 0 0 1-3.15 1.65 4.34 4.34 0 0 1-3.73-.38c-3-1.68-2.34-5.33-.81-7.85a15.32 15.32 0 0 1 4.85-5.35 8.24 8.24 0 0 1 4.07-1.43 9.94 9.94 0 0 1 4.67 1.41c.09-.2.18-.4.26-.6l-4.43-1.77c.09.11.15.22.24.31a13.22 13.22 0 0 1 1.66-7.54 20.66 20.66 0 0 1 6.23-5.91 27 27 0 0 1 8.89-4.05c3-.74 6.9-1.15 9.87.09 3.6 1.5 3.36 6 2.91 9.24.21 0 .43.07.63.09.09-.87.2-1.72.28-2.6a2.25 2.25 0 0 1 .07-.58c.06-.13.08 0 .08 0 .38-.45 1.45-.58 2-.7 3.87-.71 7.67 1.32 10 4.41a11.17 11.17 0 0 1 1.6 4.46 8.47 8.47 0 0 1-.4 5 4 4 0 0 1-2.49 2.2l-2.38.85c.09.2.18.4.26.6 3.1-2.17 7.6-1.18 10.73.36a21.57 21.57 0 0 1 8.15 7 8.14 8.14 0 0 1-.55 10c-2.53 3-6.42 3.8-10.09 3.36a2.62 2.62 0 0 1 .3.24c-.32-1.54-.65-3.09-1-4.63l-.59.27a10.53 10.53 0 0 1 .72 3 5.38 5.38 0 0 1-1.75 5.24c-2.55 2.19-6.07 2.69-9.26 3.07a14.52 14.52 0 0 1-8.24-1.15c-1.9-.89-3.32-2-3.4-4.29a7.26 7.26 0 0 1 1.57-4.26l-.52-.4c-.53 1.14-1 2.31-1.58 3.45-.78 1.56-2.88 2.53-4.39 3.22a12.24 12.24 0 0 1-6.51 1.28c-2.66-.29-5.11-1.86-5-4.86a.31.31 0 1 0-.67-.02z" transform="translate(-.1)"/></g><g clip-path="url(#clip-path-6)"><path class="cls-3" d="M46.2 208.25a4 4 0 0 0 .22 1.56 3 3 0 0 0 .74 1.55c1.34 1.81 3.8 2.15 6 2.17 2.58 0 7.8-2.31 9.41-4.39l1.75-3.8a1.35 1.35 0 0 0-.43.67c-.2.36-.31.6-.44.89s-.26.7-.44 1.12a2.86 2.86 0 0 0-.37 1 6.3 6.3 0 0 0 .5 3 4.88 4.88 0 0 0 2 1.84c4.79 2.64 8 2 13.33 1.07a12.69 12.69 0 0 0 5.26-2.28 6 6 0 0 0 1.8-2.22 5.57 5.57 0 0 0 .35-3.6 22.82 22.82 0 0 0-.77-3.05l1 4.64a11.7 11.7 0 0 0 8.62-1.9 8.89 8.89 0 0 0 3.8-8.29c-.39-2.57-2.07-4.74-3.88-6.56-3.85-3.82-9.18-6.78-14.44-5.7a5.84 5.84 0 0 0-2.49 1l3.38-1.21c3.08-2.2 2.58-6.43 1.4-10.1-.61-1.95-3.65-5-6.86-6-2.82-.94-6-.07-6.77.67l-.37 3.34c.44-3.18.63-7-1.9-9a7.88 7.88 0 0 0-3.93-1.32c-6.21-.67-12.41 1.64-17.39 5.38a18.55 18.55 0 0 0-2.62 2c-3.21 3.29-4.53 5.71-4.37 11l4.41 1.81a12.7 12.7 0 0 0-3.67-1.32c-2.47-.6-5.33 1.12-7.3 2.69A31.72 31.72 0 0 0 29.4 188c-1.33 1.79-2.38 4-2 6.25s2.05 3.4 4.2 3.89a7.19 7.19 0 0 0 2.4-.44 19.14 19.14 0 0 0 2.84-1.57l-2.19 1.34c-1.53 1.35-2 4.12-1.92 5.78a6.45 6.45 0 0 0 2.12 4.56 9.46 9.46 0 0 0 7.71 1.73c2.73-.52 6.62-3.76 8.26-5.58" transform="translate(-.1)"/><path class="cls-4" d="M45.87 208.25a5.21 5.21 0 0 0 3.74 5.15A11.08 11.08 0 0 0 57 213a19.32 19.32 0 0 0 3.54-1.73 7.26 7.26 0 0 0 2.38-2 33.73 33.73 0 0 0 1.75-3.81.34.34 0 0 0-.53-.4 9.8 9.8 0 0 0-1.59 3.22 5.2 5.2 0 0 0 .28 3.72 6.08 6.08 0 0 0 3.1 2.57 14.39 14.39 0 0 0 4 1.33 25 25 0 0 0 8.13-.56c2.73-.47 5.92-1.62 7.49-4.12a6 6 0 0 0 .77-4.32 12 12 0 0 0-.83-3.29.32.32 0 0 0-.59.26c.32 1.55.65 3.09 1 4.64a.37.37 0 0 0 .31.24 12.11 12.11 0 0 0 9-2.12 9.53 9.53 0 0 0 3.78-6.9c.15-3.11-1.64-5.77-3.69-7.9a22.43 22.43 0 0 0-7.87-5.42c-3-1.16-7-1.63-9.83.32-.28.2-.1.74.27.6 1.39-.49 3.12-.8 4.21-1.88 2-2 1.92-5.17 1.34-7.79A9.83 9.83 0 0 0 82 174a13.51 13.51 0 0 0-3.17-3 9.73 9.73 0 0 0-9-1.41c-.79.29-1.16.52-1.27 1.34s-.22 1.91-.33 2.87c0 .38.59.47.63.09.38-2.75.7-6.11-1.13-8.44-2.08-2.6-6.29-2.53-9.29-2.24a26 26 0 0 0-10.33 3.45 25.28 25.28 0 0 0-7.62 6.29 13.63 13.63 0 0 0-2.47 9 .35.35 0 0 0 .24.32c1.49.58 3 1.16 4.43 1.77.35.13.57-.43.27-.61a10.56 10.56 0 0 0-4.83-1.5 8.73 8.73 0 0 0-4.48 1.46 10 10 0 0 0-3.1 2.7 22.85 22.85 0 0 0-2.84 4.32c-1.14 2.62-1 5.78 1.64 7.35a4.74 4.74 0 0 0 3.45.74 8.53 8.53 0 0 0 2.38-.83c.63-.34 1.2-.83 1.84-1.12l-.33-.58c-.7.42-1.44.8-2.12 1.29a5.54 5.54 0 0 0-1.79 3c-.81 2.88-.29 6.24 2.14 8.14a9.6 9.6 0 0 0 9 1.19 21.28 21.28 0 0 0 7.19-5.28c.29-.32-.17-.79-.46-.47a22.13 22.13 0 0 1-6.05 4.72 9.1 9.1 0 0 1-8.54-.2c-2.73-1.63-3.43-5-2.6-7.92a4.55 4.55 0 0 1 1.84-2.83c.59-.35 1.18-.71 1.77-1.09a.33.33 0 0 0-.33-.58 24.17 24.17 0 0 1-3.15 1.65 4.34 4.34 0 0 1-3.73-.38c-2.95-1.68-2.34-5.33-.81-7.86a15.37 15.37 0 0 1 4.85-5.34 8.24 8.24 0 0 1 4.1-1.55 9.94 9.94 0 0 1 4.67 1.41c.09-.2.18-.4.26-.6l-4.43-1.77c.09.11.15.22.24.31a13.22 13.22 0 0 1 1.66-7.54 20.66 20.66 0 0 1 6.23-5.91 27 27 0 0 1 8.89-4.05c3-.74 6.9-1.15 9.87.09 3.6 1.5 3.36 5.95 2.9 9.24.22 0 .44.07.64.09.09-.87.2-1.72.28-2.6a2.25 2.25 0 0 1 .07-.58c.06-.13.09 0 .09 0 .37-.45 1.44-.59 2-.7 3.87-.71 7.67 1.32 10 4.41a11 11 0 0 1 1.59 4.46 8.39 8.39 0 0 1-.39 5 4 4 0 0 1-2.49 2.2l-2.38.85.26.6c3.1-2.17 7.6-1.18 10.73.36a21.57 21.57 0 0 1 8.15 7 8.14 8.14 0 0 1-.55 10c-2.53 2.95-6.42 3.8-10.09 3.36a1.86 1.86 0 0 1 .3.24c-.32-1.54-.65-3.09-1-4.63l-.59.27a10.45 10.45 0 0 1 .72 2.95 5.38 5.38 0 0 1-1.75 5.24c-2.55 2.19-6.07 2.69-9.26 3.07a14.52 14.52 0 0 1-8.24-1.15c-1.9-.89-3.32-2-3.4-4.29a7.26 7.26 0 0 1 1.57-4.26l-.52-.4c-.53 1.14-1 2.31-1.58 3.45-.78 1.56-2.88 2.53-4.39 3.22a12.26 12.26 0 0 1-6.51 1.28c-2.66-.29-5.11-1.86-5-4.86a.31.31 0 1 0-.68.03z" transform="translate(-.1)"/></g><g clip-path="url(#clip-path-7)" stroke-width="12" stroke-miterlimit="10"><path d="M234.5 273.84c-.26-7.22-.43-14.92-.61-22.9s-.25-17.19-.25-27.74l-12.45.29c-4.41.09-8.9.09-13.56.09h-15c-4.49 0-8.56-.09-12.1-.19-.09 8.46-.26 16.63-.35 24.51s-.34 16.44-.69 25.75a34.8 34.8 0 0 1-.86 7.41 10.89 10.89 0 0 1-1.73 4 4.09 4.09 0 0 1-2.5 1.71 16.22 16.22 0 0 1-3.2.28 7.07 7.07 0 0 1-5.53-2.56c-1.47-1.71-2.33-5.23-2.6-10.83-.25-4.85-.43-9.88-.43-15.11s-.17-10.92-.26-16.91-.26-12.44-.26-19.57v-23.66c0-9.5.09-17.68.18-24.52a133.8 133.8 0 0 1 1-16.62c.51-4.28 1.38-7.41 2.67-9.41a5.76 5.76 0 0 1 5.1-3 8.18 8.18 0 0 1 5.53 2.14c1.56 1.52 2.51 4.94 2.77 10.26.26 4.56.43 8.74.52 12.35s.25 7.31.34 10.92.17 7.23.17 11v12.54q13.74-.57 27-.57c4.24 0 8.56.09 13 .19s8.72.38 13.31.57v-5.89c0-9.5.08-17.68.17-24.52a133.8 133.8 0 0 1 1-16.62 25.33 25.33 0 0 1 2.67-9.5 5.74 5.74 0 0 1 5.1-3 8.22 8.22 0 0 1 5.53 2.18c1.56 1.52 2.51 4.94 2.77 10.26.26 4.85.43 9.12.52 12.92s.25 7.51.34 11.21.17 7.51.17 11.5v30.69c0 5.51-.08 10.92-.17 16.34s-.26 10.83-.34 16.34-.35 11.3-.52 17.29a34.68 34.68 0 0 1-.87 7.41 10.9 10.9 0 0 1-1.72 4 4.13 4.13 0 0 1-2.51 1.71 16.22 16.22 0 0 1-3.2.28 7.07 7.07 0 0 1-5.53-2.56c-1.5-1.44-2.36-4.95-2.62-10.46zm49.17-128.64a10.79 10.79 0 0 1 7.78 3.61 11.73 11.73 0 0 1 3.54 8.65 11.3 11.3 0 0 1-3.63 8.36 11.45 11.45 0 0 1-8.21 3.51 9.89 9.89 0 0 1-7.26-3.51 12.14 12.14 0 0 1-3.37-8.74 11.7 11.7 0 0 1 3.37-8.36 10.36 10.36 0 0 1 7.78-3.52zm-8.3 128.64c-.26-4.94-.43-10.64-.6-17s-.26-13.39-.26-21.09c0-9.5.09-17.67.17-24.51a139 139 0 0 1 1-16.72c.52-4.37 1.47-7.6 2.68-9.69a5.65 5.65 0 0 1 5.1-3.13 7.64 7.64 0 0 1 5.53 2.37c1.55 1.62 2.5 5.13 2.76 10.45.69 14.16 1.12 27.74 1.12 41 0 6.74-.08 13-.34 18.81s-.52 12.25-.69 19.28a34.68 34.68 0 0 1-.87 7.41 10.82 10.82 0 0 1-1.72 4 4.13 4.13 0 0 1-2.51 1.71 16.17 16.17 0 0 1-3.2.29 7.08 7.08 0 0 1-5.53-2.57c-1.51-1.59-2.38-5.1-2.64-10.61zm116.66 12.06a7.41 7.41 0 0 1-6.14-3.23 19 19 0 0 1-3.37-7.41 51.29 51.29 0 0 1-5 4.47 37.48 37.48 0 0 1-6.48 4.08 46 46 0 0 1-8 3.14 34.27 34.27 0 0 1-9.51 1.23 48.3 48.3 0 0 1-13.83-2.28 38.88 38.88 0 0 1-14.25-8.07 43.07 43.07 0 0 1-11.15-15.58c-3-6.56-4.5-14.82-4.5-24.8a68.05 68.05 0 0 1 3.46-22.61 46.54 46.54 0 0 1 9.85-16.62 42.85 42.85 0 0 1 15-10.26 49.42 49.42 0 0 1 19-3.52c5.88 0 10.54.76 13.91 2.19a24.7 24.7 0 0 1 8 5.22V179.5c0-4.66 0-9.12.09-13.49s.08-8.36.17-12 .17-6.37.26-8.27c.26-4.56.95-7.69 2.16-9.4s3.37-2.57 6.39-2.57q4.8 0 6.48 2.57c1.13 1.71 1.9 4.56 2.08 8.74.08 1.71.17 4.08.26 7s.08 6.17.08 9.69 0 7 .09 10.54.09 6.75.09 9.69v10q0 20.52-.26 37.91t-.26 27.64a13.39 13.39 0 0 0 1.55 4.28c.78 1.33 1.64 2.66 2.6 4a34.9 34.9 0 0 1 2.5 4.27 11.16 11.16 0 0 1 1.12 4.66 9.31 9.31 0 0 1-1.29 4.94 12 12 0 0 1-3.2 3.51 13.87 13.87 0 0 1-4.06 2.09 24.12 24.12 0 0 1-3.84.6zm-35.43-17.76c7.6 0 13.4-2.47 17.46-7.51s6-13.2 6-24.6c0-21.95-7.86-32.87-23.67-32.87A31.45 31.45 0 0 0 345.8 205a25.49 25.49 0 0 0-9.07 5.61 29.45 29.45 0 0 0-6.4 9.69 35.67 35.67 0 0 0-2.51 13.87 47.65 47.65 0 0 0 1.73 12.73 32.87 32.87 0 0 0 5.35 10.79 27.17 27.17 0 0 0 9 7.6 26.75 26.75 0 0 0 12.7 2.85zm105.6-18.91a83.82 83.82 0 0 1-13.48-1.14 61.08 61.08 0 0 1-15.3-4.75c1.13 8.17 4.15 14.35 9.25 18.53s12.36 6.27 22 6.27a54.07 54.07 0 0 0 9.24-.67 73.69 73.69 0 0 0 7.26-1.61c2.08-.57 3.89-1.14 5.53-1.62a15.18 15.18 0 0 1 4.41-.66 8.17 8.17 0 0 1 4.92 1.71c1.56 1.14 2.43 3 2.43 5.7a10.73 10.73 0 0 1-3.72 8.26 26.76 26.76 0 0 1-9.16 5.13 54.88 54.88 0 0 1-11.54 2.62 91 91 0 0 1-10.63.67 58.35 58.35 0 0 1-19.88-3.23 42.26 42.26 0 0 1-15.63-9.75 44.48 44.48 0 0 1-10.28-16.24 71.62 71.62 0 0 1-.09-44.75 47 47 0 0 1 9.68-16.34 40.29 40.29 0 0 1 14.78-10.07 49.11 49.11 0 0 1 18.4-3.42 52.66 52.66 0 0 1 14.95 2.19 40.39 40.39 0 0 1 12.88 6.65 32.37 32.37 0 0 1 9 11.21 35.05 35.05 0 0 1 3.37 15.86 30.94 30.94 0 0 1-2.77 13.68 22.26 22.26 0 0 1-7.78 9 35.06 35.06 0 0 1-12.1 5 67 67 0 0 1-15.74 1.77zm-1.3-46.74a35.1 35.1 0 0 0-9.5 1.33 23.62 23.62 0 0 0-14.69 12 33.41 33.41 0 0 0-3.46 11.78 54.68 54.68 0 0 0 13.57 4.75 72.62 72.62 0 0 0 13.91 1.33c7.17 0 12.53-1 16.07-2.94s5.19-5.51 5.19-10.55a17.51 17.51 0 0 0-4.84-12.25c-3.2-3.74-8.64-5.45-16.25-5.45z" fill="#ff568b" stroke="#ff568b"/><path d="M631.48 287.14a8.27 8.27 0 0 1-4.67-1.14 7.59 7.59 0 0 1-2.67-2.95 14.71 14.71 0 0 1-1.3-4.37 50.75 50.75 0 0 1-.52-5.32 36.93 36.93 0 0 1-11.84 10.45q-7.26 4.28-18.4 4.28a50.1 50.1 0 0 1-14.61-2.28 34.14 34.14 0 0 1-13.48-8.08c-4.06-3.8-7.34-8.93-9.93-15.39s-3.89-14.53-3.89-24.41a86.21 86.21 0 0 1 2.59-21.57 55.14 55.14 0 0 1 7.78-17.67 38.6 38.6 0 0 1 13.13-12 37.29 37.29 0 0 1 18.49-4.46 36.6 36.6 0 0 1 16.68 3.7c4.93 2.47 9.25 6.56 13.22 12.16 0-1.61.09-3.23.18-4.94a13.35 13.35 0 0 1 1-4.65 7.15 7.15 0 0 1 2.68-3.42 8.36 8.36 0 0 1 4.93-1.33 7 7 0 0 1 5.1 2.37c1.55 1.62 2.5 5.13 2.76 10.45.35 7.13.61 13.49.86 19.19s.26 11.5.26 17.58c0 7.41-.08 14.15-.17 20.33s-.43 12.73-.95 19.76a50.29 50.29 0 0 1-1 7.31 11.91 11.91 0 0 1-1.55 4 4.65 4.65 0 0 1-2.16 1.71 5.17 5.17 0 0 1-2.52.69zm-9.94-51.21q0-10.55-2.85-17.1a27.85 27.85 0 0 0-7.17-10.35 24.45 24.45 0 0 0-9.25-5.13 33.39 33.39 0 0 0-9.16-1.43 22 22 0 0 0-11.21 2.66 21.09 21.09 0 0 0-7.6 7.13 32.79 32.79 0 0 0-4.33 10.64 59.16 59.16 0 0 0-1.38 13.39c0 11.78 2.34 20.52 7.09 26.22s11.06 8.46 19.18 8.46a25.44 25.44 0 0 0 12.19-2.76 22.91 22.91 0 0 0 8.21-7.31 32.76 32.76 0 0 0 4.75-11 57 57 0 0 0 1.53-13.42zm82.87-35.53a29.55 29.55 0 0 0-12.18 2.38 69.67 69.67 0 0 0-12.18 7.22v12.35c0 5.41-.09 11.4-.18 17.76s-.26 12.64-.34 18.81-.35 11.4-.69 15.49a55.46 55.46 0 0 1-.87 6.36 9.22 9.22 0 0 1-1.29 3.52 3.63 3.63 0 0 1-2.17 1.52 18.08 18.08 0 0 1-3.54.28 17.47 17.47 0 0 1-3.54-.28 4.4 4.4 0 0 1-2.33-1.43 7.92 7.92 0 0 1-1.47-3.32 49.87 49.87 0 0 1-1-6.08c-.26-2.38-.44-5.61-.61-9.69s-.34-8.46-.43-13.21-.17-9.59-.26-14.53-.09-9.41-.09-13.59c0-6.84.09-12.44.26-16.72a104.29 104.29 0 0 1 1-11.49c.69-5.61 1.73-9.22 2.94-10.64a5.88 5.88 0 0 1 4.92-2.19c3 0 5.36 1 6.92 2.85s2.5 4.94 2.85 9.31a59.69 59.69 0 0 1 14.6-10.26A35.88 35.88 0 0 1 710.9 181a27.28 27.28 0 0 1 14.44 4c4.32 2.66 8 7 10.71 13.11a49.87 49.87 0 0 1 3.89 12 111.44 111.44 0 0 1 1.81 13.78c.09 2.18.26 4.27.35 6.36s.17 4.28.26 6.65.09 5 .09 8v10.45c0 4.28-.09 8.36-.18 12.07a51.23 51.23 0 0 1-1 9.78 13 13 0 0 1-2.86 6.46 7.06 7.06 0 0 1-5.53 2.28q-8.41 0-8.81-8.83v-5.13c0-3 0-6.56-.09-10.55s-.08-8.17-.17-12.25-.17-7.6-.26-10.26c-.08-2.19-.26-4.47-.43-6.94s-.43-5-.69-7.6-.69-5-1.21-7.31a47.93 47.93 0 0 0-1.82-6.37c-1.73-4.46-3.88-7.22-6.39-8.45a19.84 19.84 0 0 0-8.6-1.85zm135.49 85.5a7.38 7.38 0 0 1-6.13-3.23 18.69 18.69 0 0 1-3.37-7.41 52.65 52.65 0 0 1-5 4.47 37.48 37.48 0 0 1-6.48 4.08 45.78 45.78 0 0 1-8 3.14 34.15 34.15 0 0 1-9.5 1.23 48.3 48.3 0 0 1-13.83-2.28 38.8 38.8 0 0 1-14.25-8.07 43.07 43.07 0 0 1-11.15-15.58c-3-6.56-4.5-14.82-4.5-24.8a68.05 68.05 0 0 1 3.46-22.61 46.54 46.54 0 0 1 9.85-16.62 42.85 42.85 0 0 1 15-10.26 49.42 49.42 0 0 1 19-3.52c5.87 0 10.54.76 13.91 2.19a24.7 24.7 0 0 1 8 5.22V179.5c0-4.66 0-9.12.09-13.49s.08-8.36.17-12 .17-6.37.26-8.27c.26-4.56.95-7.69 2.16-9.4s3.37-2.57 6.39-2.57q4.8 0 6.48 2.57c1.13 1.71 1.9 4.56 2.08 8.74.08 1.71.17 4.08.26 7s.08 6.17.08 9.69 0 7 .09 10.54.09 6.75.09 9.69v10q0 20.52-.26 37.91t-.26 27.64a13.39 13.39 0 0 0 1.55 4.28q1.17 2 2.59 4a32.56 32.56 0 0 1 2.51 4.27 11.16 11.16 0 0 1 1.12 4.66 9.31 9.31 0 0 1-1.29 4.94 12 12 0 0 1-3.2 3.51 13.87 13.87 0 0 1-4.06 2.09 22.94 22.94 0 0 1-3.86.6zm-35.43-17.76c7.6 0 13.39-2.47 17.46-7.51s6.05-13.2 6.05-24.6c0-21.95-7.87-32.87-23.68-32.87a31.45 31.45 0 0 0-10.63 1.8 25.49 25.49 0 0 0-9.07 5.61 29.45 29.45 0 0 0-6.4 9.69 35.67 35.67 0 0 0-2.51 13.87 47.65 47.65 0 0 0 1.73 12.73 32.87 32.87 0 0 0 5.36 10.83 26 26 0 0 0 21.69 10.45z" fill="#60c6a6" stroke="#60c6a6"/><path d="M938.51 286.28c-6.83 0-12.36-.57-16.51-1.8a23.08 23.08 0 0 1-9.59-5.13 16.66 16.66 0 0 1-4.58-8.17 72.9 72.9 0 0 1-1.73-10.93c-.34-4.65-.6-10.92-.86-18.62s-.26-15.77-.26-24.13c0-4 0-8.26.09-12.82s.08-8.93.17-13.3.17-8.46.26-12.17.34-7 .52-9.69a68.88 68.88 0 0 1 1.81-11.3 19.08 19.08 0 0 1 4.84-8.65 23 23 0 0 1 10.11-5.51c4.32-1.23 10.11-1.9 17.37-1.9 16.42 0 28.6 3.33 36.72 10s12.19 16.05 12.19 28.31a42.44 42.44 0 0 1-3.72 17.53c-2.5 5.41-6.82 9.4-13 12.06a21.3 21.3 0 0 1 9.33 4.28 32.68 32.68 0 0 1 7.26 7.79 35.64 35.64 0 0 1 4.58 10.07 41.1 41.1 0 0 1 1.56 11.21 43.54 43.54 0 0 1-2.77 14.82 34.82 34.82 0 0 1-9.29 13.77c-4.41 4.18-10.2 7.6-17.54 10.26q-10.75 4.02-26.96 4.02zm4.39-124.93a34.91 34.91 0 0 0-9.86 1.14 14.09 14.09 0 0 0-5.7 2.95 8.73 8.73 0 0 0-2.59 4.46 23.2 23.2 0 0 0-.61 5.61v28.22c1.73.09 3.55.19 5.45.19h5.44a82.71 82.71 0 0 0 13-1 42.17 42.17 0 0 0 11.5-3.42 20.71 20.71 0 0 0 8.21-6.65c2.07-2.85 3.11-6.46 3.11-10.93a18.68 18.68 0 0 0-6.66-14.82q-6.75-5.75-21.29-5.75zm34 81.42c0-4.84-1-8.74-3-11.68a19.23 19.23 0 0 0-7.78-6.75 37.09 37.09 0 0 0-10.63-3.13 81.26 81.26 0 0 0-11.75-.76h-9.5c-3.29 0-6.4.09-9.16.19-.09 2.85-.26 5.7-.35 8.64s-.17 5.7-.26 8.36-.08 4.94-.08 6.84v4.09a51.71 51.71 0 0 0 .69 9 12.52 12.52 0 0 0 2.76 5.89 10.82 10.82 0 0 0 5.79 3.14 43.76 43.76 0 0 0 9.59.95c10.72 0 19.1-2.09 25-6.27s8.68-10.34 8.68-18.51zm77.32 6.46a83.94 83.94 0 0 1-13.49-1.14 61 61 0 0 1-15.29-4.75c1.12 8.17 4.15 14.35 9.25 18.53s12.35 6.27 21.94 6.27a54.11 54.11 0 0 0 9.25-.67 73.69 73.69 0 0 0 7.26-1.61c2.07-.57 3.89-1.14 5.53-1.62a15.13 15.13 0 0 1 4.41-.66 8.17 8.17 0 0 1 4.92 1.71c1.56 1.14 2.42 3 2.42 5.7a10.72 10.72 0 0 1-3.71 8.26 26.76 26.76 0 0 1-9.16 5.13 54.82 54.82 0 0 1-11.5 2.66 90.86 90.86 0 0 1-10.63.67 58.33 58.33 0 0 1-19.87-3.23 42.26 42.26 0 0 1-15.64-9.79 44.48 44.48 0 0 1-10.28-16.24 71.62 71.62 0 0 1-.09-44.75 46.17 46.17 0 0 1 9.85-16.34 40.29 40.29 0 0 1 14.78-10.07 49.11 49.11 0 0 1 18.4-3.42 52.66 52.66 0 0 1 14.95 2.19 40.39 40.39 0 0 1 12.88 6.65 32.37 32.37 0 0 1 9 11.21 35.05 35.05 0 0 1 3.37 15.86 30.94 30.94 0 0 1-2.77 13.68 22.19 22.19 0 0 1-7.78 9 35.09 35.09 0 0 1-12.09 5 69.77 69.77 0 0 1-15.91 1.77zm-1.3-46.74a35.23 35.23 0 0 0-9.51 1.33 23.69 23.69 0 0 0-14.69 12 33.41 33.41 0 0 0-3.45 11.78 54.62 54.62 0 0 0 13.56 4.75 72.81 72.81 0 0 0 13.92 1.33c7.17 0 12.53-1 16.07-2.94s5.18-5.51 5.18-10.55a17.51 17.51 0 0 0-4.84-12.25c-3.19-3.74-8.64-5.45-16.26-5.45zm99.37 46.74a83.91 83.91 0 0 1-13.48-1.14 61 61 0 0 1-15.29-4.75c1.12 8.17 4.15 14.35 9.24 18.53s12.36 6.27 22 6.27a54.19 54.19 0 0 0 9.25-.67 74.35 74.35 0 0 0 7.26-1.61c2.07-.57 3.89-1.14 5.53-1.62a15.09 15.09 0 0 1 4.41-.66 8.19 8.19 0 0 1 4.92 1.71c1.56 1.14 2.42 3 2.42 5.7a10.72 10.72 0 0 1-3.71 8.26 26.76 26.76 0 0 1-9.16 5.13 55 55 0 0 1-11.5 2.66 90.86 90.86 0 0 1-10.63.67 58.33 58.33 0 0 1-19.87-3.23 42.26 42.26 0 0 1-15.64-9.79 44.5 44.5 0 0 1-10.29-16.24 71.71 71.71 0 0 1-.08-44.75 46.17 46.17 0 0 1 9.85-16.34 40.29 40.29 0 0 1 14.78-10.07 49.07 49.07 0 0 1 18.4-3.42 52.66 52.66 0 0 1 15 2.19 40.39 40.39 0 0 1 12.88 6.65 32.23 32.23 0 0 1 9 11.21 34.92 34.92 0 0 1 3.37 15.86 31 31 0 0 1-2.76 13.68 22.26 22.26 0 0 1-7.78 9 35.06 35.06 0 0 1-12.1 5 69.65 69.65 0 0 1-16.02 1.77zm-1.29-46.74a35.17 35.17 0 0 0-9.51 1.33 23.69 23.69 0 0 0-14.69 12 33.41 33.41 0 0 0-3.45 11.78 54.62 54.62 0 0 0 13.56 4.75 72.81 72.81 0 0 0 13.92 1.33c7.17 0 12.53-1 16.07-2.94s5.18-5.51 5.18-10.55a17.51 17.51 0 0 0-4.84-12.25c-3.19-3.74-8.64-5.45-16.24-5.45zm76.99 112.87c0 2.56-.08 5-.17 7.31a20.73 20.73 0 0 1-1.21 6.37 10.77 10.77 0 0 1-2.94 4.56 8 8 0 0 1-5.44 1.71 8.3 8.3 0 0 1-6.66-3.14c-1.81-2.09-2.76-5.7-3-11-.09-3.32-.35-7.5-.52-12.25s-.43-10-.6-15.3-.35-10.74-.52-16.15-.26-10.36-.26-14.92c0-15.67 1-28.69 3-38.85s5-18.34 9.08-24.42a33 33 0 0 1 15-12.73 55.35 55.35 0 0 1 20.65-3.61 49.46 49.46 0 0 1 17.63 3.14 38.33 38.33 0 0 1 14.43 9.69 48.83 48.83 0 0 1 9.85 16.91c2.42 6.93 3.63 15.2 3.63 24.89a58.24 58.24 0 0 1-3.72 21.37 43.93 43.93 0 0 1-25.84 25.27 54.59 54.59 0 0 1-19 3.33 30.9 30.9 0 0 1-15.46-3.9q-6.87-4-9.86-8.55c.61 7.51 1.13 14.54 1.56 21 .2 6.35.37 12.81.37 19.27zm25.32-112.3a23.48 23.48 0 0 0-11.06 2.38 20.58 20.58 0 0 0-7.6 6.65 29.43 29.43 0 0 0-4.32 10.07 53.36 53.36 0 0 0-1.39 12.73 65.46 65.46 0 0 0 1.21 12.63 29.17 29.17 0 0 0 4 10.36 19.6 19.6 0 0 0 7.34 7 22.62 22.62 0 0 0 11.15 2.66 31.78 31.78 0 0 0 9.94-1.52 22.57 22.57 0 0 0 8.55-5.13 25.6 25.6 0 0 0 6-9.69q2.34-6 2.33-15.11a45.07 45.07 0 0 0-2.33-15.58 28.19 28.19 0 0 0-6-10.26 20.53 20.53 0 0 0-8.47-5.51 27.29 27.29 0 0 0-9.35-1.68z" fill="#ff8360" stroke="#ff8360"/></g><path d="M1011.13 104.22a6.91 6.91 0 0 0-6.3 1 6.72 6.72 0 0 0-2.56 5.78 11.89 11.89 0 0 0-6.71 13.29 24.16 24.16 0 0 0-6.21 10.61 8.11 8.11 0 0 0-.31 4 3.78 3.78 0 0 0 2.52 3c-2.39 2.87-4.32 6.4-4.1 10.12s3.33 7.38 7.06 7.16c-.45 2.73-.9 5.55 0 8.19s3.55 4.88 6.25 4.3a8.41 8.41 0 0 0 6.74 7.34c3.29.59 6.7-.84 10-.26 1.62.27 3.1 1 4.72 1.25s3.55-.35 4.14-1.92c1.62 2.55 5.26 2.91 8.18 2.19s5.63-2.28 8.64-2.72c1.71-.27 3.51-.14 5.22-.54s3.42-1.57 3.69-3.27a20.69 20.69 0 0 1 .22-2.86c.32-.85 2.38-.85 3.15-1.34 4-2.55 4-6.9 4.86-11.55a9.25 9.25 0 0 0 .09-4.12 3.06 3.06 0 0 0-3.06-2.33 6.71 6.71 0 0 0 3.6-5.55c.09-2.33-1.26-6.09-3.24-7.34.72-2.1 2.43-1.92 3.15-4 .9-2.5.77-6.53-1.34-8.14-.68-.54-2.21-.36-2.25-1.26 0-.4.72-1.3.9-1.65a4.81 4.81 0 0 0 .54-3.41c-.32-1.12-3-3.18-4.14-3-4.09-6.26-9.8-9.22-17.31-9.49a13 13 0 0 1-2.93-.27 16.8 16.8 0 0 1-3.1-1.52 10.9 10.9 0 0 0-7.33-1c-1-2.37-2.25-3.58-4.86-3.85a5.79 5.79 0 0 0-5.85 2.68z" transform="translate(-.1)" fill="#f9f9e1"/><path class="cls-15" d="M1011.31 103.54a7.5 7.5 0 0 0-9.54 5.33c-.32 1.39-.23 1.61-1.49 2.46a11.4 11.4 0 0 0-2.47 2.15 12.65 12.65 0 0 0-2.88 5.46c-.45 1.92.31 4.47-.9 6a28.76 28.76 0 0 0-4.23 6.58c-1.53 3.45-3.24 9.31 1.48 11.05a11.5 11.5 0 0 0-.31-1.11c-2.66 3.31-5.09 7.6-4.05 12a8 8 0 0 0 7.55 6.45c-.22-.27-.45-.58-.63-.85-.54 3.31-1.17 7.11.72 10.16a6.28 6.28 0 0 0 6.3 3.13 9.24 9.24 0 0 0-.86-.62c.72 5.59 5.44 8.59 10.89 8.05a46.46 46.46 0 0 1 5-.44c2.16 0 4 1.12 6.07 1.34s4-.35 4.9-2.19h-1.17c3.51 4.75 9.49 2.37 14 .76a20.88 20.88 0 0 1 5.67-1.16 13.68 13.68 0 0 0 4-.62 4.84 4.84 0 0 0 3.37-3.94c.14-1.48-.13-2.37 1.58-2.87a5.13 5.13 0 0 0 2.07-1 10.5 10.5 0 0 0 3.6-6.36c.76-3.35 3.24-12.39-2.74-12.35.13.4.22.85.36 1.25 5.12-2.95 5-10.65.36-14a6.39 6.39 0 0 1 .22.94c.68-1.48 2.12-2.06 2.88-3.4a7.33 7.33 0 0 0 .81-3c.23-2.15-.08-5.15-2-6.54-1-.76-2-.27-1.44-1.75.45-1.2 1.13-2.19 1-3.58-.23-2-2.16-3.17-3.87-4a4 4 0 0 1-.85-.4 10.22 10.22 0 0 1-1.31-1.7A19.57 19.57 0 0 0 1043 108c-3.42-.94-7.28-.27-10.39-1.88s-5.67-2.33-9-1.75c.27.09.5.23.77.32a6.7 6.7 0 0 0-7.34-4.17 5.71 5.71 0 0 0-3.64 1.93 3.71 3.71 0 0 1-2.52 1.25c-.85.18-.49 1.48.36 1.3a15.44 15.44 0 0 0 2-.45c.81-.36 1.22-1.3 1.94-1.83 3.1-2.24 6.65-.45 8.09 2.64a.73.73 0 0 0 .77.31 11.19 11.19 0 0 1 5.57.41c1.35.49 2.48 1.38 3.83 1.88 2.52.94 5.48.45 8.14 1a18.19 18.19 0 0 1 6.74 2.82 19.57 19.57 0 0 1 3.11 2.64c.81.85 1.62 2.64 2.56 3.27a11.28 11.28 0 0 0 1.71.63 3.49 3.49 0 0 1 2.29 3.89c-.27 1.25-2.25 2.86-1 4.07.86.85 2.07.59 2.88 1.79a6.85 6.85 0 0 1 .76 4 5.59 5.59 0 0 1-1.48 3.89 7.4 7.4 0 0 0-2.07 2.51.72.72 0 0 0 .22.94c3.87 2.82 3.78 9.35-.36 11.72a.69.69 0 0 0 .36 1.26c4.59 0 1.75 11.5.22 14.1a6.73 6.73 0 0 1-2.74 2.73c-.68.31-1.49.31-2.16.67a2.14 2.14 0 0 0-1.17 2.06 5.78 5.78 0 0 1-.41 2.64 4.91 4.91 0 0 1-3.55 2c-2.29.4-4.54.27-6.75.94-4.09 1.25-10.48 5-13.85.35a.7.7 0 0 0-1.17 0c-1.35 2.73-4.72 1.25-6.93.63a15.94 15.94 0 0 0-6.34-.18c-2.38.27-4.81.58-7-.63a7.84 7.84 0 0 1-4-6 .65.65 0 0 0-.86-.62c-6.52.89-6-7.79-5.35-11.64a.68.68 0 0 0-.63-.85c-3.55 0-6.12-3.14-6.38-6.49-.27-3.58 1.71-6.94 3.87-9.67a.68.68 0 0 0-.32-1.12c-4.09-1.52-1.44-7.74-.09-10.38a23.34 23.34 0 0 1 2.12-3.45c.54-.76 2.2-2.06 2.47-3s-.27-2.06-.27-3a12.11 12.11 0 0 1 .77-3.76 11.46 11.46 0 0 1 5.89-6.22.54.54 0 0 0 .32-.58 6.12 6.12 0 0 1 8-6.17.71.71 0 0 0 .32-1.21z" transform="translate(-.1)"/><path class="cls-4" d="M1028 59.41c-6.52 6.2-8.6 15.16-11.22 23.53a144.06 144.06 0 0 1-8 20.13 11.87 11.87 0 0 0-1.19 3.16c-.49 2.9 1.42 5.7 3.73 7.6 4 3.3 9.33 4.83 14.61 5.55 6.58.9 14 .39 18.83-3.91 3.55-3.16 5.06-8 5.28-12.57s-.63-9.18-1.08-13.79c-.53-5.7-.4-11.49-1.25-17.14a23.93 23.93 0 0 0-2.85-8.82 13 13 0 0 0-7.24-6 9.38 9.38 0 0 0-9.15 1.9" transform="translate(-.1)"/><path class="cls-15" d="M1027.61 59c-8.44 8.23-10.07 21-14.11 31.66a132.47 132.47 0 0 1-4.13 9.86c-1.15 2.44-2.79 4.93-2.34 7.74.75 4.74 5.64 7.86 9.68 9.53 9.07 3.74 23.82 5.13 30.52-3.82 3.24-4.35 3.86-10 3.5-15.29-.23-3.44-.8-6.87-1.07-10.31-.32-3.71-.36-7.46-.63-11.17-.45-6.42-1.48-13.65-6.63-18.08-4.05-3.48-10.18-4.15-14.3-.44-.63.59.31 1.54.93 1 4.57-4.16 11.33-1.73 14.61 2.79s3.83 10.9 4.15 16.46c.35 5.92.85 11.75 1.43 17.63.53 5.34.49 11.08-2.48 15.74-5.73 9-19.36 7.79-28 4.86-4.53-1.54-12-5.64-10.18-11.61.75-2.54 2.26-4.93 3.33-7.33 1.15-2.62 2.21-5.25 3.19-7.92 3.77-10.22 5.41-22.38 13.44-30.3.64-.67-.29-1.66-.91-1z" transform="translate(-.1)"/><path class="cls-4" d="M1023.39 63c-5.84 2.79-9.14 8.74-13.25 13.59a45.88 45.88 0 0 1-4.06 4.19 10.17 10.17 0 0 1-2.7 1.88c-.82.35-3.24 1.79-4.1 2.09A13.75 13.75 0 0 0 996 86a17.66 17.66 0 0 1-8 2 4.73 4.73 0 0 1-2.19-.39 3.81 3.81 0 0 1-1.91-3.46 7.78 7.78 0 0 1 3.2-5.82 25 25 0 0 1 6.13-3.33c3.65-1.52 7.25-3 10.9-4.53a38.54 38.54 0 0 0 5.11-2.44c1.46-.88 2.79-1.92 4.2-2.84a24.12 24.12 0 0 1 8.21-3.31 2.45 2.45 0 0 1 1.37 0 .87.87 0 0 1 .55 1.05" transform="translate(-.1)"/><path class="cls-15" d="M1023 62.38c-6.52 3.27-9.81 9.84-14.47 14.95a28.08 28.08 0 0 1-8 6.08c-1.1.57-2.23.92-3.42 1.4a34.42 34.42 0 0 1-5.52 2.13c-2.73.61-7 1-7-2.81 0-2.59 2-4.78 4.07-6.13 3.33-2.18 7.44-3.45 11.09-5 4-1.65 8-3.14 11.53-5.58a35.43 35.43 0 0 1 5-3.1c.27-.14 6.66-2.62 6.52-1.39-.09.83 1.27.83 1.37 0 .27-2.94-4.24-1.41-5.66-.93-3.69 1.22-6.43 3.49-9.67 5.46-3.69 2.27-8 3.71-12 5.36-3.51 1.49-7.52 2.71-10.4 5.24-2.14 1.88-3.79 4.86-2.83 7.71s4 3.07 6.78 2.73c3.28-.39 6.16-2 9.17-3.1a25.62 25.62 0 0 0 6.61-3.71c6.53-5.42 9.82-14.22 17.67-18.15.63-.42-.05-1.54-.84-1.16z" transform="translate(-.1)"/><path class="cls-4" d="M1047.52 67.93c5.58 3.23 8.35 9.45 12.07 14.66a43.12 43.12 0 0 0 3.72 4.54 11.26 11.26 0 0 0 2.5 2.13c.77.44 3.09 2 3.9 2.38a17.28 17.28 0 0 1 3.14 1.55 17.42 17.42 0 0 0 7.81 2.57 5.66 5.66 0 0 0 2.23-.22 3.87 3.87 0 0 0 2.18-3.35 7.89 7.89 0 0 0-2.67-6 25 25 0 0 0-5.81-3.76c-3.5-1.81-6.95-3.63-10.45-5.4a37.55 37.55 0 0 1-4.86-2.82c-1.36-1-2.59-2.17-4-3.19a24.45 24.45 0 0 0-7.95-4 2.44 2.44 0 0 0-1.36-.09.88.88 0 0 0-.64 1" transform="translate(-.1)"/><path class="cls-15" d="M1047.21 68.5c6.54 4 9.25 11.58 14 17.23a27.65 27.65 0 0 0 7.17 5.92c.91.53 1.87.89 2.82 1.37 1.54.76 2.9 1.73 4.54 2.35 2.54 1 6.77 2.13 8.86-.17 1.77-2 1.37-5 .14-7.19-1.86-3.18-5.35-4.9-8.53-6.54-4-2-8-4-11.85-6.15s-6.9-5.66-11.08-7.56c-1.45-.67-6.54-3.1-6.49.21a.68.68 0 0 0 1.36 0c0-1.1 6 1.69 6.4 2a40 40 0 0 1 5.09 3.85c3.17 2.56 7 4.24 10.62 6.15s8 3.54 11.08 6.23c1.86 1.59 3.54 4 3 6.54-.73 3.4-4.68 2.55-7.18 1.8a35.69 35.69 0 0 1-5.27-2.57 29.3 29.3 0 0 1-3.27-1.63 28.27 28.27 0 0 1-7.89-7.25c-4-5.44-6.76-11.93-12.8-15.6a.63.63 0 1 0-.72 1.01z" transform="translate(-.1)"/><path class="cls-16" d="M1024.29 80.75a8 8 0 1 0-8.08-8 8 8 0 0 0 8.08 8z" transform="translate(-.1)"/><path class="cls-17" d="M1026.93 76a2.59 2.59 0 1 0-2.62-2.58 2.59 2.59 0 0 0 2.62 2.58z" transform="translate(-.1)"/><path class="cls-16" d="M1042.44 82.73a8 8 0 1 0-8.07-8 8 8 0 0 0 8.07 8z" transform="translate(-.1)"/><path class="cls-17" d="M1039.36 77.29a2.59 2.59 0 1 0-2.62-2.59 2.6 2.6 0 0 0 2.62 2.59z" transform="translate(-.1)"/><path class="cls-4" d="M997.07 117.23a8.24 8.24 0 0 1-.57-1 2 2 0 0 0-.66-.54 7.25 7.25 0 0 0-2.85-1 3.23 3.23 0 0 0-2.27.83 26.1 26.1 0 0 0-4.34 3.64 76.87 76.87 0 0 0-7.09 9 3.27 3.27 0 0 0-.7 1.55 3.13 3.13 0 0 0 .44 1.64 93.92 93.92 0 0 1 5.85 18.46c.09.51.09.6.62.5l1.5-.31c.78-.14 3-.42 3.1-1.51.05-.41-.35-.82-.52-1.14-.31-.63-.53-1.36-.79-2-1.1-2.78-2.2-5.6-3.3-8.37-.88-2.27-1.81-4.73-1.46-7.14.44-3 2.62-5.29 4.9-7.16a45.43 45.43 0 0 1 8.41-5.47" transform="translate(-.1)"/><path class="cls-15" d="M997.66 116.92c-1.18-1.86-3.12-3.32-5.44-2.9-2.72.5-5.62 3.87-7.37 5.88a47 47 0 0 0-6.4 8.42c-1.36 2.5 1 5.64 1.85 7.91a91.14 91.14 0 0 1 3.4 11.32c.22.87.18 2.73 1 3.32s1.75 0 2.45-.09c1.19-.23 3.52-.51 3.6-2.15 0-.45-.26-.82-.44-1.22-.44-1-.83-2-1.23-3-.75-1.95-1.54-3.91-2.29-5.86-.88-2.23-2-4.59-2.16-7.05a8.83 8.83 0 0 1 2.76-6.42 37.44 37.44 0 0 1 10.35-7.2c.75-.36.08-1.55-.66-1.18-4.83 2.46-12.07 6.39-13.51 12.3-.83 3.41.76 6.78 2 9.87.75 2 1.54 3.91 2.29 5.86.31.77.62 1.59.92 2.36.4 1.14.75 1.69-.56 2.05a11.28 11.28 0 0 1-1.36.28c-1.32.23-1.23.32-1.54-1q-.66-2.86-1.46-5.73a85.41 85.41 0 0 0-3.7-10.5 4.1 4.1 0 0 1-.22-3.64 17.19 17.19 0 0 1 1.66-2.32 61.66 61.66 0 0 1 4-5c2.58-2.92 7.76-8.7 11-3.57.4.67 1.55-.01 1.06-.74z" transform="translate(-.1)"/><path class="cls-18" d="M994.89 155.37a33.26 33.26 0 0 0-8.38 2.18l-.18-.13c-.45-1.3-.9-2.64-1.4-3.94a6 6 0 0 1-.45-2 5.5 5.5 0 0 1 .5-2 5.4 5.4 0 0 1 .95-1.7 4 4 0 0 1 4.46-.8 6.57 6.57 0 0 1 3.24 3.44 23.79 23.79 0 0 1 1.35 4.6" transform="translate(-.1)"/><path class="cls-15" d="M994.71 154.74a29.1 29.1 0 0 0-6.94 1.65c-.63.27-.85.54-1.08.36a13.8 13.8 0 0 1-.58-1.79c-.45-1.25-1.08-2.59-.86-3.93.54-3.31 3.83-4.69 6.31-2.23 1.76 1.7 2.2 4.29 2.7 6.57.18.85 1.48.49 1.31-.36-.68-3-1.44-6.52-4.37-8.18a4.61 4.61 0 0 0-6.44 1.61 6.46 6.46 0 0 0-.91 4.06 20 20 0 0 0 .95 2.86 8.14 8.14 0 0 0 .94 2.6c.73.71 1.54.09 2.39-.18a35.6 35.6 0 0 1 6.94-1.65c.86-.23.5-1.52-.36-1.39z" transform="translate(-.1)"/><path class="cls-4" d="M1054.44 124.59c.31-.23.39-.68.61-1a2.11 2.11 0 0 1 .7-.51 6.42 6.42 0 0 1 2.88-.78 3.21 3.21 0 0 1 2.23 1 26.25 26.25 0 0 1 4.07 4 76.76 76.76 0 0 1 6.47 9.47 3.08 3.08 0 0 1 .62 1.59 3.73 3.73 0 0 1-.53 1.64 92.37 92.37 0 0 0-7 18.06c-.13.5-.13.59-.65.46s-1-.23-1.44-.36c-.74-.18-2.93-.64-3-1.73 0-.41.39-.77.61-1.09a19.34 19.34 0 0 0 .92-2c1.26-2.73 2.52-5.42 3.78-8.16 1-2.24 2.09-4.61 1.91-7.07-.26-3-2.27-5.46-4.42-7.46a46.37 46.37 0 0 0-8-6" transform="translate(-.1)"/><path class="cls-15" d="M1055 125c3.49-4.79 8.14 1 10.5 4a53.43 53.43 0 0 1 3.6 5.28c.44.68.88 1.41 1.27 2.09a3.71 3.71 0 0 1 .14 3.92c-1.31 3.32-3 6.42-4.23 9.8-.66 1.77-1.22 3.55-1.79 5.37-.17.51-.3 1.05-.43 1.55 0 .78-.22 1-.79.6a7.55 7.55 0 0 1-1.62-.41c-1-.32-1.58-.23-1.14-1.59a30.67 30.67 0 0 1 1.31-2.78c.87-1.92 1.79-3.79 2.66-5.7 1.4-3 3.23-6.24 2.66-9.7-1-6.11-8-10.6-12.71-13.37-.75-.46-1.4.73-.66 1.18a42.4 42.4 0 0 1 8.89 6.86 11.63 11.63 0 0 1 3.07 4.87c.71 2.6-.38 5.19-1.43 7.47-1.66 3.6-3.27 7.25-5.1 10.76-1 1.82.13 2.73 1.88 3.28 1.49.49 3.24 1.4 4-.28a55 55 0 0 0 1.66-5.43q1-3 2.22-5.88c.74-1.73 1.49-3.46 2.36-5.15.52-1 1.4-2.28 1.31-3.5s-1.14-2.55-1.76-3.6c-1-1.64-2-3.23-3.16-4.82-2-2.78-4.38-5.91-7.36-7.68-2.41-1.46-5.07.14-6.51 2.15-.47.71.67 1.35 1.16.71z" transform="translate(-.1)"/><path class="cls-18" d="M1055.41 162.68a33.69 33.69 0 0 1 8.25 2.77l.18-.13c.54-1.25 1.08-2.55 1.66-3.8a5.85 5.85 0 0 0 .59-1.92 4.94 4.94 0 0 0-.36-2 4.64 4.64 0 0 0-.81-1.74 4 4 0 0 0-4.42-1.12 6.55 6.55 0 0 0-3.47 3.21 24.23 24.23 0 0 0-1.66 4.51" transform="translate(-.1)"/><path class="cls-15" d="M1055.23 163.35a35.05 35.05 0 0 1 6.71 2.1c.77.36 1.62 1.07 2.39.4.54-.44.81-1.78 1.08-2.41.36-.85.81-1.74 1.09-2.63a5.8 5.8 0 0 0-.41-4.16 4.57 4.57 0 0 0-6.4-2.28c-3.06 1.43-4.1 5-5 7.91a.67.67 0 0 0 1.3.35c.63-2.14 1.22-4.55 2.93-6.16a3.91 3.91 0 0 1 4.24-1 4.49 4.49 0 0 1 2.07 4.65 19.31 19.31 0 0 1-1.4 3.4c-.18.4-.45 1.2-.58 1.2s-.73-.45-.86-.49a36.78 36.78 0 0 0-6.85-2.15c-.8-.21-1.17 1.09-.31 1.27z" transform="translate(-.1)"/><path d="M1028.31 79.12l-11.67-.85a3.11 3.11 0 0 1-2.91-3.25l.42-5.61a3.15 3.15 0 0 1 3.37-2.8l11.67.85a3.12 3.12 0 0 1 2.91 3.25l-.42 5.61a3.14 3.14 0 0 1-3.37 2.8zm20.99 1.59h-11.67a3.09 3.09 0 0 1-3.15-3V72a3.08 3.08 0 0 1 3.15-3h11.68a3.09 3.09 0 0 1 3.15 3v5.7a3.1 3.1 0 0 1-3.16 3.01z" transform="translate(-.1)" fill="#111" stroke="#000" stroke-miterlimit="10"/><path d="M1031.54 74.37l3.24-.85" stroke-width="7" stroke="#000" stroke-miterlimit="10" fill="none"/><path d="M1050.17 72.81l3.44-8.23M1016.03 71l-1.36-9.85" stroke-width="6" stroke="#000" stroke-miterlimit="10" fill="none"/><g clip-path="url(#clip-path-8)"><path class="cls-23" d="M470.44 166.49c0 2.74.17 5.49.17 8.24a1 1 0 0 1-1.89 0c0-2.75-.18-5.5-.18-8.24a1 1 0 0 1 1.9 0z" transform="translate(-.1)"/><path class="cls-23" d="M470.09 173.87c1.55 0 1.89 1.89 2.24 3.09a19.52 19.52 0 0 1 .52 5.5 1 1 0 0 1-1.9 0 25.74 25.74 0 0 0-.17-3.61 13.9 13.9 0 0 0-.69-3.09c-1.2.17-1.2-1.89 0-1.89z" transform="translate(-.1)"/><path class="cls-23" d="M470.61 174.9c-.17 2.41-1.21 5-.69 7.39.17 1.2-1.55 1.72-1.89.52-.52-2.75.51-5.33.68-7.91 0-1.37 2.07-1.37 1.9 0z" transform="translate(-.1)"/><path class="cls-23" d="M469.06 175.42a19.26 19.26 0 0 0-1.55 2.75 11.2 11.2 0 0 0-1 3.43c-.34 1.21-2.07.69-1.89-.51a17.3 17.3 0 0 1 1.89-5c.69-1.21 1.55-2.92 3.1-2.41 1.17.19.65 2.08-.55 1.74zM448.07 167c0 2.75-.17 5.5-.17 8.25a1 1 0 0 1-1.9 0c0-2.75.17-5.5.17-8.25a1 1 0 0 1 1.9 0z" transform="translate(-.1)"/><path class="cls-23" d="M446.52 176.45a13.9 13.9 0 0 0-.69 3.09 25.67 25.67 0 0 0-.17 3.61 1 1 0 0 1-1.89 0 30.1 30.1 0 0 1 .51-5.5c.35-1.2.69-3.09 2.24-3.09 1.2-.17 1.2 1.89 0 1.89z" transform="translate(-.1)"/><path class="cls-23" d="M447.9 175.25c.17 2.75 1.2 5.15.68 7.9-.17 1.2-2.06.69-1.89-.52.52-2.4-.51-5-.69-7.38-.17-1.25 1.72-1.25 1.9 0z" transform="translate(-.1)"/><path class="cls-23" d="M447 174c1.54-.51 2.41 1.38 3.09 2.41a17.73 17.73 0 0 1 1.9 5 1 1 0 0 1-1.9.52c-.34-1.21-.68-2.24-1-3.44a19.83 19.83 0 0 0-1.55-2.75c-1.19.54-1.71-1.35-.54-1.74z" transform="translate(-.1)"/><path d="M483.17 116c2.92-.34 5.85 1.89 7.22 4.64s1.55 6 1.73 9.11a27.52 27.52 0 0 1-.18 7.55 40 40 0 0 1-1.89 7.56c-.86 2.58-1.55 4.81-2.58 7.22-1.55 3.95-4.3 7.9-8.09 9.62zm-49.73-.19c-2.92-.34-5.85 1.89-7.22 4.64s-1.55 6-1.9 9.1a37.44 37.44 0 0 0 0 7.56c.35 2.58.35 4.81 1.21 7.56a45.05 45.05 0 0 0 2.58 6.7c1.55 3.95 4.65 8.24 8.6 10z" transform="translate(-.1)" fill="#904a38"/><path class="cls-25" d="M458.56 170.61c-16.69 0-30.28-15.8-30.28-35.22s13.59-35.21 30.28-35.21 30.29 15.8 30.29 35.21-13.6 35.22-30.29 35.22z" transform="translate(-.1)"/><path d="M458.56 161.85c-12.56 0-22.71-11.85-22.71-26.28s10.15-26.29 22.71-26.29S481.1 121 481.1 135.39s-10.1 26.46-22.54 26.46z" transform="translate(-.1)" fill="#f9bb92"/><path class="cls-27" d="M458.39 154.81c-8.26 0-15-7.73-15-17.35s6.71-17.35 15-17.35 15 7.73 15 17.35-6.74 17.35-15 17.35z" transform="translate(-.1)"/><path d="M467.51 120.45c-.17.51-.69.51-1 .17a47.14 47.14 0 0 0-5.85-9.27 19.69 19.69 0 0 1-2.07-3.1 6.52 6.52 0 0 1 .86-5.84 8.42 8.42 0 0 1 4.82-3.26c4.48-1.2 9.64 1 11.36 5.32a4.06 4.06 0 0 1 0 3.44v.17c-.55.52-6.74 6.92-8.12 12.37z" transform="translate(-.1)" fill="#fdc60b"/><path class="cls-25" d="M458.22 131.27c-17.38 0-31.32-11.16-31.32-24.91s13.94-24.9 31.32-24.9 31.14 11.16 31.14 24.9-13.93 24.91-31.14 24.91z" transform="translate(-.1)"/><path class="cls-27" d="M468.54 89.53c-4.47 2.23-7.4 7-8.43 12.54a16.19 16.19 0 0 0-.34 5.84 22 22 0 0 0 2.06 6.7c2.58 4.81 6.88 7.21 11.36 7 7.23-.34 14.45-13.4 13.94-20.78a12.11 12.11 0 0 0-.86-4.3v-.68a18.46 18.46 0 0 1 3.44-10.31c3.61-4.81 9.8-7 12.56-12.37A35 35 0 0 0 483 74.76a27.77 27.77 0 0 0-14.11 13.91z" transform="translate(-.1)"/><path class="cls-29" d="M468.72 89.87c-3.1 1.55-5.34 4.47-6.89 7.56a18.93 18.93 0 0 0-1.54 11.51 16.34 16.34 0 0 0 5 9.62c2.41 2.06 5.68 3.44 9 2.75 2.58-.52 4.82-2.58 6.54-4.64a30.47 30.47 0 0 0 4.82-8.25 17 17 0 0 0 1.37-8.24 7.38 7.38 0 0 0-.34-1.89l-.52-1.55a4.52 4.52 0 0 1 .18-1.54 18.64 18.64 0 0 1 7.91-14.09c2.93-2.4 6.2-4.46 7.92-7.9 0 .17.17.34.17.52-7.06-1.38-14.8-.86-21.17 2.74a31.66 31.66 0 0 0-7.57 6 33 33 0 0 0-2.92 4c-.69 1-1 2.23-1.89 3.43 0 .17-.69-.17-.35-.51.69-1.2 1.21-2.58 1.89-3.78a31.21 31.21 0 0 1 2.93-3.78 29.82 29.82 0 0 1 7.74-6.18c6.54-3.44 14.28-4 21.34-2.58a.33.33 0 0 1 .17.51c-1.55 3.1-4.3 5.16-7.05 7.22-3.27 2.4-6.2 5-7.58 8.93a26.46 26.46 0 0 0-1.2 6.19 11.6 11.6 0 0 0 .52 2.4 15.29 15.29 0 0 1 .34 2.92 24 24 0 0 1-1.89 8.42 25.07 25.07 0 0 1-5.16 8.07 12.36 12.36 0 0 1-6.72 4.12 11.4 11.4 0 0 1-8.6-2.57c-2.75-2.24-4.3-5.33-5.33-8.94-2.07-7.73 1.37-17.52 8.43-21.3.62-.04.79.66.45.83z" transform="translate(-.1)"/><path class="cls-30" d="M472.5 116.84a11.69 11.69 0 1 1 12.05-11.68 11.78 11.78 0 0 1-12.05 11.68z" transform="translate(-.1)"/><path class="cls-31" d="M472.5 113.75a8.42 8.42 0 1 1 8.78-8.42 8.62 8.62 0 0 1-8.78 8.42z" transform="translate(-.1)"/><path class="cls-17" d="M471.3 111.69a5.51 5.51 0 0 1-5.51-5.33 5.39 5.39 0 0 1 5.51-5.36 5.5 5.5 0 0 1 5.5 5.32 5.39 5.39 0 0 1-5.5 5.37z" transform="translate(-.1)"/><path class="cls-30" d="M469.4 104a1.89 1.89 0 1 1 1.9-1.89 1.91 1.91 0 0 1-1.9 1.89z" transform="translate(-.1)"/><path class="cls-27" d="M447.9 89.19c4.47 2.23 7.4 7 8.43 12.54a16.19 16.19 0 0 1 .34 5.84 22 22 0 0 1-2.06 6.7c-2.59 4.81-6.89 7.21-11.36 7-7.23-.35-14.45-13.4-13.94-20.79a12.06 12.06 0 0 1 .86-4.29v-.69a18.48 18.48 0 0 0-3.44-10.31c-3.44-4.63-9.81-6.87-12.39-12.19a31.61 31.61 0 0 1 19.1 1.54 27.87 27.87 0 0 1 14.11 13.96z" transform="translate(-.1)"/><path class="cls-29" d="M448.07 88.84A15.52 15.52 0 0 1 455 96.4a19.77 19.77 0 0 1 2 10.82c-.87 6.87-5 13.74-12.22 14.26-6 .52-10.32-5.15-12.91-10a26.83 26.83 0 0 1-2.92-8.59 15.24 15.24 0 0 1 .17-4.81 12.22 12.22 0 0 0 .52-2.41 20.06 20.06 0 0 0-.35-3.26 17.18 17.18 0 0 0-2.92-6.87 28.21 28.21 0 0 0-4.47-4.47c-2.93-2.23-6-4.46-7.92-7.9 0-.17 0-.51.17-.51 7.23-1.38 14.8-.86 21.34 2.57a24.66 24.66 0 0 1 7.74 6.19 30.17 30.17 0 0 1 2.92 3.78 14.51 14.51 0 0 1 1.9 3.6c.34.52-.17.86-.35.52a38.82 38.82 0 0 0-4.47-7.22 32.63 32.63 0 0 0-7.55-6.1c-6.54-3.44-14.28-3.95-21.34-2.58 0-.17.18-.34.18-.51 3.09 6 10.32 8.24 13.59 14.08a20.69 20.69 0 0 1 1.89 5.12 16 16 0 0 1 .52 4.12c0 .34-.35.86-.35 1.2a6.17 6.17 0 0 0-.34 1.72 13.17 13.17 0 0 0-.17 2.58 14.46 14.46 0 0 0 .69 4 29 29 0 0 0 3.95 8.41 14.94 14.94 0 0 0 6.37 5.84 9.52 9.52 0 0 0 8.6-.68 14.69 14.69 0 0 0 6.37-8.25 17.62 17.62 0 0 0 1-6.7 26.91 26.91 0 0 0-1.37-6.18A16.26 16.26 0 0 0 447.9 89c-.52.19-.18-.33.17-.16z" transform="translate(-.1)"/><path class="cls-30" d="M444.11 116.5a11.69 11.69 0 1 1 12-11.68 12 12 0 0 1-12 11.68z" transform="translate(-.1)"/><path class="cls-31" d="M444.11 113.41a8.43 8.43 0 1 1 8.78-8.42 8.62 8.62 0 0 1-8.78 8.42z" transform="translate(-.1)"/><path class="cls-17" d="M445.32 111.35a5.51 5.51 0 0 1-5.51-5.33 5.4 5.4 0 0 1 5.51-5.33 5.33 5.33 0 1 1 0 10.66z" transform="translate(-.1)"/><path class="cls-30" d="M447.21 103.44a1.89 1.89 0 1 1 1.89-1.89 1.9 1.9 0 0 1-1.89 1.89z" transform="translate(-.1)"/><path class="cls-23" d="M458.39 130.93c-.17.34-.69.51-.86.17a48.68 48.68 0 0 0-5-8.07 11.36 11.36 0 0 1-1.72-2.58 5.69 5.69 0 0 1 .69-5 8.3 8.3 0 0 1 4.13-2.75 8.4 8.4 0 0 1 9.81 4.64 4.31 4.31 0 0 1 0 2.92c0 .17 0 .17-.18.17-.67.57-5.66 5.86-6.87 10.5z" transform="translate(-.1)"/><path class="cls-27" d="M458.74 84.2a6.93 6.93 0 0 1 4.47-7c.86-.34 1 1 .34 1.2a5.66 5.66 0 0 0-3.61 5.84c.17.82-1.03.82-1.2-.04z" transform="translate(-.1)"/><path class="cls-27" d="M457.7 83.86a6.71 6.71 0 0 0-1-5.67c-.52-.69.69-1.37 1-.69a8 8 0 0 1 1.21 6.5.62.62 0 1 1-1.21-.14z" transform="translate(-.1)"/><path class="cls-27" d="M457.53 84a5.05 5.05 0 0 0-2.75-3.43c-.69-.35 0-1.55.69-1.21a6.05 6.05 0 0 1 3.27 4.13c.17.89-1.04 1.23-1.21.51z" transform="translate(-.1)"/></g></g></g></svg>