<svg xmlns="http://www.w3.org/2000/svg" viewBox="0 0 1951.87 500.77"><defs><style>.cls-1,.cls-11{fill:#69c212;}.cls-1{stroke:#43720c;stroke-width:11px;}.cls-1,.cls-3,.cls-4,.cls-7,.cls-8{stroke-miterlimit:10;}.cls-2{fill:#43720c;}.cls-3,.cls-8{fill:none;}.cls-3{stroke:#963;stroke-width:9px;}.cls-4,.cls-5{fill:#a67d52;}.cls-4,.cls-7,.cls-8{stroke:#e5a450;stroke-width:5px;}.cls-6{fill:#e5a450;}.cls-7{fill:#a67e52;}.cls-9{fill:#7c5c3f;}.cls-10{fill:#e6a451;}</style></defs><title>Asset 97</title><g id="Layer_2" data-name="Layer 2"><g id="Layer_1-2" data-name="Layer 1"><path class="cls-1" d="M1358.42,491c-155.48-190.89-383-313.22-620.82-371.76S251,62.07,7.37,87l.5,405.84H1945.93l.44-438.29c-298.82-31.79-580.46,139.07-875.48,196.56"/><path class="cls-2" d="M71.32,174.72A18.06,18.06,0,0,1,78,188.49a1.13,1.13,0,0,0,2.25,0,20.23,20.23,0,0,0-7.3-15.36c-1.11-.92-2.71.66-1.59,1.59Z"/><path class="cls-2" d="M80.06,188.74a30.88,30.88,0,0,1,6-11.35c.92-1.1-.66-2.7-1.59-1.59a33.44,33.44,0,0,0-6.54,12.35,1.12,1.12,0,0,0,2.17.59Z"/><path class="cls-2" d="M79.14,174.39a34.62,34.62,0,0,1-.78,8.55c-.31,1.41,1.86,2,2.17.6a37.52,37.52,0,0,0,.86-9.15c0-1.44-2.3-1.45-2.25,0Z"/><path class="cls-2" d="M1836.32,149.72a18.06,18.06,0,0,1,6.64,13.77,1.13,1.13,0,0,0,2.25,0,20.23,20.23,0,0,0-7.3-15.36c-1.11-.92-2.71.66-1.59,1.59Z"/><path class="cls-2" d="M1845.06,163.74a30.88,30.88,0,0,1,6-11.35c.92-1.1-.66-2.7-1.59-1.59a33.44,33.44,0,0,0-6.54,12.35,1.12,1.12,0,0,0,2.17.59Z"/><path class="cls-2" d="M1844.14,149.39a34.62,34.62,0,0,1-.78,8.55c-.31,1.41,1.86,2,2.17.6a37.52,37.52,0,0,0,.86-9.15c-.05-1.44-2.3-1.45-2.25,0Z"/><path class="cls-2" d="M596.32,393.72A18.06,18.06,0,0,1,603,407.49a1.13,1.13,0,0,0,2.25,0,20.23,20.23,0,0,0-7.3-15.36c-1.11-.92-2.71.66-1.59,1.59Z"/><path class="cls-2" d="M605.06,407.74a30.88,30.88,0,0,1,6-11.35c.92-1.1-.66-2.7-1.59-1.59a33.44,33.44,0,0,0-6.54,12.35,1.12,1.12,0,0,0,2.17.59Z"/><path class="cls-2" d="M604.14,393.39a34.62,34.62,0,0,1-.78,8.55c-.31,1.41,1.86,2,2.17.6a37.52,37.52,0,0,0,.86-9.15c0-1.44-2.3-1.45-2.25,0Z"/><path class="cls-2" d="M436.32,134.72A18.06,18.06,0,0,1,443,148.49a1.13,1.13,0,0,0,2.25,0,20.23,20.23,0,0,0-7.3-15.36c-1.11-.92-2.71.66-1.59,1.59Z"/><path class="cls-2" d="M445.06,148.74a30.88,30.88,0,0,1,6-11.35c.92-1.1-.66-2.7-1.59-1.59a33.44,33.44,0,0,0-6.54,12.35,1.12,1.12,0,0,0,2.17.59Z"/><path class="cls-2" d="M444.14,134.39a34.62,34.62,0,0,1-.78,8.55c-.31,1.41,1.86,2,2.17.6a37.52,37.52,0,0,0,.86-9.15c-.05-1.44-2.3-1.45-2.25,0Z"/><path class="cls-2" d="M255.32,334.72A18.06,18.06,0,0,1,262,348.49a1.13,1.13,0,0,0,2.25,0,20.23,20.23,0,0,0-7.3-15.36c-1.11-.92-2.71.66-1.59,1.59Z"/><path class="cls-2" d="M264.06,348.74a30.88,30.88,0,0,1,6-11.35c.92-1.1-.66-2.7-1.59-1.59a33.44,33.44,0,0,0-6.54,12.35,1.12,1.12,0,0,0,2.17.59Z"/><path class="cls-2" d="M263.14,334.39a34.62,34.62,0,0,1-.78,8.55c-.31,1.41,1.86,2,2.17.6a37.52,37.52,0,0,0,.86-9.15c-.05-1.44-2.3-1.45-2.25,0Z"/><path class="cls-2" d="M727.32,241.72A18.06,18.06,0,0,1,734,255.49a1.13,1.13,0,0,0,2.25,0,20.23,20.23,0,0,0-7.3-15.36c-1.11-.92-2.71.66-1.59,1.59Z"/><path class="cls-2" d="M736.06,255.74a30.88,30.88,0,0,1,6-11.35c.92-1.1-.66-2.7-1.59-1.59a33.44,33.44,0,0,0-6.54,12.35,1.12,1.12,0,0,0,2.17.59Z"/><path class="cls-2" d="M735.14,241.39a34.62,34.62,0,0,1-.78,8.55c-.31,1.41,1.86,2,2.17.6a37.52,37.52,0,0,0,.86-9.15c0-1.44-2.3-1.45-2.25,0Z"/><path class="cls-2" d="M1313.32,334.72a18.06,18.06,0,0,1,6.64,13.77,1.13,1.13,0,0,0,2.25,0,20.23,20.23,0,0,0-7.3-15.36c-1.11-.92-2.71.66-1.59,1.59Z"/><path class="cls-2" d="M1322.06,348.74a30.88,30.88,0,0,1,6-11.35c.92-1.1-.66-2.7-1.59-1.59a33.44,33.44,0,0,0-6.54,12.35,1.12,1.12,0,0,0,2.17.59Z"/><path class="cls-2" d="M1321.14,334.39a34.62,34.62,0,0,1-.78,8.55c-.31,1.41,1.86,2,2.17.6a37.52,37.52,0,0,0,.86-9.15c-.05-1.44-2.3-1.45-2.25,0Z"/><path class="cls-2" d="M969.32,407.72A18.06,18.06,0,0,1,976,421.49a1.13,1.13,0,0,0,2.25,0,20.23,20.23,0,0,0-7.3-15.36c-1.11-.92-2.71.66-1.59,1.59Z"/><path class="cls-2" d="M978.06,421.74a30.88,30.88,0,0,1,6-11.35c.92-1.1-.66-2.7-1.59-1.59a33.44,33.44,0,0,0-6.54,12.35,1.12,1.12,0,0,0,2.17.59Z"/><path class="cls-2" d="M977.14,407.39a34.62,34.62,0,0,1-.78,8.55c-.31,1.41,1.86,2,2.17.6a37.52,37.52,0,0,0,.86-9.15c0-1.44-2.3-1.45-2.25,0Z"/><path class="cls-2" d="M1702.32,400.72a18.06,18.06,0,0,1,6.64,13.77,1.13,1.13,0,0,0,2.25,0,20.23,20.23,0,0,0-7.3-15.36c-1.11-.92-2.71.66-1.59,1.59Z"/><path class="cls-2" d="M1711.06,414.74a30.88,30.88,0,0,1,6-11.35c.92-1.1-.66-2.7-1.59-1.59a33.44,33.44,0,0,0-6.54,12.35,1.12,1.12,0,0,0,2.17.59Z"/><path class="cls-2" d="M1710.14,400.39a34.62,34.62,0,0,1-.78,8.55c-.31,1.41,1.86,2,2.17.6a37.52,37.52,0,0,0,.86-9.15c-.05-1.44-2.3-1.45-2.25,0Z"/><path class="cls-2" d="M1096.32,327.72a18.06,18.06,0,0,1,6.64,13.77,1.13,1.13,0,0,0,2.25,0,20.23,20.23,0,0,0-7.3-15.36c-1.11-.92-2.71.66-1.59,1.59Z"/><path class="cls-2" d="M1105.06,341.74a30.88,30.88,0,0,1,6-11.35c.92-1.1-.66-2.7-1.59-1.59a33.44,33.44,0,0,0-6.54,12.35,1.12,1.12,0,0,0,2.17.59Z"/><path class="cls-2" d="M1104.14,327.39a34.62,34.62,0,0,1-.78,8.55c-.31,1.41,1.86,2,2.17.6a37.52,37.52,0,0,0,.86-9.15c-.05-1.44-2.3-1.45-2.25,0Z"/><path class="cls-2" d="M1829.32,314.72a18.06,18.06,0,0,1,6.64,13.77,1.13,1.13,0,0,0,2.25,0,20.23,20.23,0,0,0-7.3-15.36c-1.11-.92-2.71.66-1.59,1.59Z"/><path class="cls-2" d="M1838.06,328.74a30.88,30.88,0,0,1,6-11.35c.92-1.1-.66-2.7-1.59-1.59a33.44,33.44,0,0,0-6.54,12.35,1.12,1.12,0,0,0,2.17.59Z"/><path class="cls-2" d="M1837.14,314.39a34.62,34.62,0,0,1-.78,8.55c-.31,1.41,1.86,2,2.17.6a37.52,37.52,0,0,0,.86-9.15c-.05-1.44-2.3-1.45-2.25,0Z"/><path class="cls-2" d="M1543.32,217.72a18.06,18.06,0,0,1,6.64,13.77,1.13,1.13,0,0,0,2.25,0,20.23,20.23,0,0,0-7.3-15.36c-1.11-.92-2.71.66-1.59,1.59Z"/><path class="cls-2" d="M1552.06,231.74a30.88,30.88,0,0,1,6-11.35c.92-1.1-.66-2.7-1.59-1.59a33.44,33.44,0,0,0-6.54,12.35,1.12,1.12,0,0,0,2.17.59Z"/><path class="cls-2" d="M1551.14,217.39a34.62,34.62,0,0,1-.78,8.55c-.31,1.41,1.86,2,2.17.6a37.52,37.52,0,0,0,.86-9.15c-.05-1.44-2.3-1.45-2.25,0Z"/><path class="cls-3" d="M27.27,31.45l5.27,60.72"/><path class="cls-3" d="M87.36,28.65l3.52,60.81"/><path class="cls-3" d="M88.48,48.06l-58,3"/><path class="cls-3" d="M90,73.22,31.9,76.15"/><path class="cls-3" d="M146,27.16l4,60.76"/><path class="cls-3" d="M147.56,48.14,89.4,49.27"/><path class="cls-3" d="M148.56,73.35,90.39,74.41"/><path class="cls-3" d="M205.89,27l2.74,61.16"/><path class="cls-3" d="M206.79,46.58l-58.48.52"/><path class="cls-3" d="M207.91,71.91l-58.49.44"/><path class="cls-3" d="M263.74,25l3.08,61"/><path class="cls-3" d="M264,42.89,205.4,46"/><path class="cls-3" d="M266.72,68l-58.55,3.1"/><path class="cls-3" d="M320,23.42l5.4,60.34"/><path class="cls-3" d="M321.82,43l-58.79.3"/><path class="cls-3" d="M324.28,68l-58.81.22"/><path class="cls-3" d="M379.56,41.39l-59.24,1.3"/><path class="cls-3" d="M382.81,66.33l-59.23,1.3"/><path class="cls-3" d="M28.48,51.08l-28,3"/><path class="cls-3" d="M30.17,75.91,2.1,78.81"/><path class="cls-3" d="M378.87,22.15l-2.29,60.91"/><path class="cls-3" d="M438.84,26.81l-4,60.78"/><path class="cls-3" d="M437.55,46.21,379.62,42"/><path class="cls-3" d="M435.92,71.36l-58-4.28"/><path class="cls-3" d="M497.2,32.59l-3.54,60.78"/><path class="cls-3" d="M496.17,53.6l-57.86-6.07"/><path class="cls-3" d="M494,78.74l-57.86-6.15"/><path class="cls-3" d="M556.66,39.88l-4.85,61"/><path class="cls-3" d="M555.14,59.39,497,52.66"/><path class="cls-3" d="M553.11,84.66,495,77.85"/><path class="cls-3" d="M616.7,47.94l-7,60.67"/><path class="cls-3" d="M614,65.66,555.7,59.08"/><path class="cls-3" d="M612.55,90.88,554.3,84.31"/><path class="cls-3" d="M674.77,58.82,667.43,119"/><path class="cls-3" d="M672.5,78.38l-57.56-12"/><path class="cls-3" d="M669.69,103.27,612.14,91.18"/><path class="cls-3" d="M729.3,88.85,671.1,77.74"/><path class="cls-3" d="M727.27,113.92l-58.2-11.11"/><path class="cls-3" d="M734.34,71.27,720.4,130.6"/><path class="cls-3" d="M792.3,87.37l-15.63,58.87"/><path class="cls-3" d="M787.31,106.15l-56-15.25"/><path class="cls-3" d="M780.88,130.53l-56.09-15.35"/><path class="cls-3" d="M848.46,104.25l-15.15,59"/><path class="cls-3" d="M843.42,124.67l-55.61-17.08"/><path class="cls-3" d="M836.49,148.93,780.9,131.78"/><path class="cls-3" d="M905.42,122.83l-16.49,59"/><path class="cls-3" d="M900.18,141.67l-55.73-17.76"/><path class="cls-3" d="M893.33,166.09l-55.7-17.84"/><path class="cls-3" d="M964.22,146.06l-21.49,57.17"/><path class="cls-3" d="M957.27,162.58l-54.93-20.5"/><path class="cls-3" d="M949.79,186.71l-54.93-20.5"/><path class="cls-3" d="M1019.11,171l-23.4,55.88"/><path class="cls-3" d="M1011.61,189.22,959.49,162"/><path class="cls-3" d="M1002.15,212.41,950,185.15"/><path class="cls-3" d="M1063.43,214.74l-53-26.51"/><path class="cls-3" d="M1054.66,238.31l-53-26.51"/><path class="cls-3" d="M1060.75,192.09l-8,60"/><path class="cls-3" d="M1103.48,220.41,1056.87,211"/><path class="cls-3" d="M1100.36,245.29l-45.8-9.28"/><path class="cls-3" d="M1398.61,170.16l-24.35-55.88"/><path class="cls-3" d="M1342.54,192l-22.71-56.52"/><path class="cls-3" d="M1335.3,173.92l54-21.33"/><path class="cls-3" d="M1325.86,150.54,1380,129.26"/><path class="cls-3" d="M1287.45,212.05l-23.16-56.31"/><path class="cls-3" d="M1279.27,192.67,1334,173.06"/><path class="cls-3" d="M1270.29,169.09l54.8-19.54"/><path class="cls-3" d="M1230.7,231.26l-22.08-57.1"/><path class="cls-3" d="M1223.62,213l55.27-19.12"/><path class="cls-3" d="M1214.49,189.37l55.3-19.05"/><path class="cls-3" d="M1170.63,252.26l-16.4-58.83"/><path class="cls-3" d="M1167,236.45l55.42-19.14"/><path class="cls-3" d="M1158.23,209.54l55.35-19.34"/><path class="cls-3" d="M1103.18,262.13l1.26-60.56"/><path class="cls-3" d="M1105.45,245.48l59.86-10.95"/><path class="cls-3" d="M1100.69,221l57.86-10.5"/><path class="cls-3" d="M1431.07,93l19.55,57.69"/><path class="cls-3" d="M1437.31,111.39l-55.12,18.3"/><path class="cls-3" d="M1445.43,135.25l-55.2,18.25"/><path class="cls-3" d="M1487.19,76l20,57.51"/><path class="cls-3" d="M1494.29,95.76l-55.77,16.55"/><path class="cls-3" d="M1502,119.8l-55.8,16.48"/><path class="cls-3" d="M1544.92,59.92l18.89,58.24"/><path class="cls-3" d="M1551,78.52l-56.25,16"/><path class="cls-3" d="M1558.78,102.64l-56.27,16"/><path class="cls-3" d="M1600.13,42.55l19.18,58"/><path class="cls-3" d="M1605.1,59.78l-55.62,18.55"/><path class="cls-3" d="M1614.44,83.25l-55.62,18.55"/><path class="cls-3" d="M1659.05,25.71l19,57.52"/><path class="cls-3" d="M1665.33,44.37l-57.17,13.68"/><path class="cls-3" d="M1673.41,68.09,1616.2,81.7"/><path class="cls-3" d="M1721.18,29.63,1663.8,44.39"/><path class="cls-3" d="M1730,53.17l-57.38,14.76"/><path class="cls-3" d="M1721,10.17l6.93,60.45"/><path class="cls-3" d="M1781.83,5.55,1787,66.14"/><path class="cls-3" d="M1783.47,24.89l-58.7,4.76"/><path class="cls-3" d="M1785.64,50l-58.77,4.69"/><path class="cls-3" d="M1841.2,2.27l5.65,60.53"/><path class="cls-3" d="M1843.35,23.16l-58.92,2.91"/><path class="cls-3" d="M1845,48.3l-58.93,2.83"/><path class="cls-3" d="M1901.91.32l4.37,61"/><path class="cls-3" d="M1903.33,19.8l-59.25,2.3"/><path class="cls-3" d="M1905.13,45.05l-59.27,2.22"/><path class="cls-3" d="M1947.24,16.94l-43.39,2.48"/><path class="cls-3" d="M1949.65,42.05l-43.39,2.48"/><path class="cls-4" d="M763.75,195.72,620.4,243.29l-19.76-60.42.41,1.38,106.6-30.19.13-.35c12.42-3,25.53,3.91,37.45,10.64a43.51,43.51,0,0,1,7.78,5.18,32.31,32.31,0,0,1,6,7c5,8.07,7.07,16.72,7,18Z"/><line class="cls-4" x1="577.49" y1="221.41" x2="654.15" y2="228.44"/><polyline class="cls-4" points="575.45 221.35 585.44 287 667.62 307.97 652.18 228.8"/><path class="cls-5" d="M575.45,221.35a30,30,0,0,1,.25-11.58c.53-2.15,1.15-4.55,1.53-6.26a13,13,0,0,1,2.68-4.69c1-1.29,3.34-3.72,4.29-5,1.39-1.95,8.51-6.27,9.19-6.67,5.42-3.22,11.38-3.64,17.68-3.55,4.77.08,24.91,14,31.27,24.6,3.11,5.19,7.09,11.7,10,18.93"/><path class="cls-6" d="M578.35,220.55a28,28,0,0,1,9.92-26.47c6.36-5,15.83-9.7,24.05-7.14,7.23,2.26,14.46,8.86,19.82,13.9,7.8,7.35,13.22,17.23,17.31,27,1.46,3.51,7.27,2,5.79-1.59-4.8-11.52-11-22.65-20.32-31a99.65,99.65,0,0,0-13.36-10.13c-3-1.89-6.45-4.11-10.07-4.53-10.3-1.19-21.7,3.21-29,10.57-3.13,3.15-6.82,7.26-8.16,11.54-2,6.28-3,12.92-1.78,19.44.69,3.79,6.47,2.18,5.79-1.6Z"/><polygon class="cls-7" points="764.47 187.67 654.17 226.79 669.49 307.18 670.67 308.31 775.71 252.78 775.64 252.36 764.47 187.67"/><line class="cls-8" x1="652.34" y1="227.09" x2="575.45" y2="221.35"/><path class="cls-9" d="M661.25,249.82c17.31-6.86,33.74-15,50.17-23.73,9-4.76,19.27-5.3,28.84-8.46,8.59-2.84,17.11-6,25.6-9.12.45-.17.26-.89-.2-.73-8.49,3.11-17,6.28-25.6,9.12s-17.71,3.29-25.83,7c-8.47,3.83-16.42,8.89-24.81,12.92-9.3,4.46-18.78,8.52-28.37,12.32-.45.17-.25.9.2.72Z"/><path class="cls-9" d="M665.62,271.43c7.26-4.4,14.42-9.19,22.19-12.67,8.75-3.92,17.94-7,26.91-10.33,18.12-6.8,36.22-13.65,54.36-20.42.45-.16.25-.89-.2-.72-18.75,7-37.47,14.08-56.21,21.11-8.15,3.07-16.46,5.88-24.45,9.37s-15.46,8.46-23,13a.38.38,0,0,0,.38.65Z"/><path class="cls-9" d="M669.35,291.6A277.37,277.37,0,0,0,719.46,270c16.82-9.34,33-22.64,52.13-26.81.47-.1.27-.82-.2-.72-18.1,3.94-33.41,16.1-49.18,25.12a277.08,277.08,0,0,1-53.06,23.32c-.46.15-.26.87.2.72Z"/><path class="cls-9" d="M667.45,282.44c6.15-3.58,12.74-5.38,19.19-8.19,6.18-2.7,11.94-6.64,18.05-9.57.26-.13,0-.52-.23-.39-6.55,3.14-12.8,7.6-19.56,10.15-6.15,2.32-11.95,4.28-17.68,7.61a.23.23,0,0,0,.23.39Z"/><path class="cls-9" d="M714.06,254.1a68,68,0,0,0,29.34-9.46c.25-.14,0-.53-.23-.38a67.42,67.42,0,0,1-29.11,9.39c-.28,0-.28.48,0,.45Z"/><path class="cls-9" d="M741.66,250.32c7.38-2.44,14.43-6.13,21.51-9.28.27-.12,0-.51-.22-.39-7,3.14-14.08,6.81-21.41,9.23-.27.1-.15.53.12.44Z"/><path class="cls-9" d="M736.91,229.47c8.34-5.36,19.06-4,27.76-8.89a.23.23,0,0,0-.23-.39c-8.72,4.86-19.4,3.52-27.76,8.89-.24.16,0,.55.23.39Z"/><path class="cls-9" d="M737.2,234.71c-10.94.81-20.62,2.17-30.89,6.45-7.25,3-13.16,7.67-20.09,11.17-7.28,3.68-16,3.09-22.63,8.19-.22.18,0,.57.23.39,6.25-4.82,14.25-4.4,21.22-7.51s12.82-8.1,19.89-11.16c10.67-4.62,20.82-6.23,32.27-7.08.29,0,.29-.47,0-.45Z"/><path class="cls-9" d="M667.91,252.21c19.82-3.87,34.87-19.44,54.76-23.1.28-.05.16-.49-.12-.44-19.9,3.66-34.94,19.23-54.76,23.1-.29.06-.17.49.12.44Z"/><path class="cls-9" d="M662.27,238.9c7.69-7,17.29-8.44,26.51-12.38,8.44-3.6,16.68-7.75,25-11.65.27-.12,0-.51-.22-.39-9.51,4.46-19,9.56-28.84,13.18-8.28,3-16.05,4.85-22.76,10.92-.21.2.1.52.32.32Z"/><path class="cls-9" d="M713.27,219.88a128.06,128.06,0,0,0,20.44-6.2c.26-.1.15-.54-.12-.43a129.06,129.06,0,0,1-20.44,6.19c-.28.06-.16.5.12.44Z"/><path class="cls-9" d="M733.58,209.31c6.19-6.35,15.74-5.56,23.65-8.57.27-.11.15-.54-.12-.44-8.1,3.09-17.45,2.14-23.84,8.69-.21.21.11.53.31.32Z"/><path class="cls-9" d="M751,209.49q7.29-1.65,14.4-3.88c.27-.09.15-.52-.12-.44q-7.12,2.24-14.4,3.89c-.28.06-.16.49.12.43Z"/><path class="cls-9" d="M678.14,295.2l24.13-11.27c.26-.13,0-.51-.23-.39l-24.13,11.27c-.26.12,0,.51.23.39Z"/><path class="cls-9" d="M720.85,277.23c3.08-6.25,10.93-6.92,15.68-11.39.21-.2-.11-.52-.32-.32-4.79,4.51-12.64,5.16-15.75,11.48-.12.26.27.49.39.23Z"/><path class="cls-9" d="M742.7,261.64c9.13-1.89,17.82-8.68,25.72-13.37.24-.15,0-.54-.23-.39-7.76,4.61-16.63,11.46-25.61,13.33-.28.06-.16.49.12.43Z"/><path class="cls-9" d="M662.17,290.68l-75.84-15.92c-.47-.09-.67.63-.2.73L662,291.4c.47.1.67-.62.19-.72Z"/><path class="cls-9" d="M657.25,269.73c-6.58.11-13.17.37-19.74.26-6.82-.11-12.55-1.93-18.93-4-11.24-3.71-23.36-3.29-34.58-7.11-.46-.16-.66.56-.2.72,11.74,4,24.43,3.54,36.15,7.65,12.32,4.33,24.39,3.47,37.3,3.26a.38.38,0,0,0,0-.75Z"/><path class="cls-9" d="M652.68,246.85a86.7,86.7,0,0,1-39.62-1.36c-10.62-2.88-20.84-6.91-32-5.51-.47.06-.48.81,0,.75,13-1.63,24.72,4.16,37.16,6.78a86.82,86.82,0,0,0,34.7.06c.47-.09.27-.82-.2-.72Z"/><path class="cls-9" d="M615.79,236.36c10.67-3,21.37.51,32.16.52a.23.23,0,0,0,0-.45c-10.84,0-21.58-3.55-32.28-.51a.23.23,0,0,0,.12.44Z"/><path class="cls-9" d="M580.9,230.83c8.88-2.66,18.2-1.63,27.32-1.21.29,0,.29-.43,0-.45-9.17-.42-18.52-1.45-27.44,1.22-.27.09-.16.52.12.44Z"/><path class="cls-9" d="M652.68,261.93a40.09,40.09,0,0,1-17.44.44c-.28-.05-.4.38-.12.43a40.72,40.72,0,0,0,17.68-.43.23.23,0,0,0-.12-.44Z"/><path class="cls-9" d="M585.21,268.05c5.28-1.44,10-2.23,15.12.14a38.22,38.22,0,0,0,6.64,2.75c5.68,1.5,11.63,1.06,17.42.64.29,0,.29-.47,0-.45-8.16.6-15.63.65-23.16-3-5.57-2.68-10.25-2.14-16.13-.54a.23.23,0,0,0,.11.44Z"/><path class="cls-9" d="M604.84,276.27c6.89-2.47,14.85.55,22,.87,7.94.36,15.95.26,23.89.11a.23.23,0,0,0,0-.45c-8.52.16-17.14.34-25.65-.2-6.68-.43-13.8-3.11-20.35-.76-.27.1-.15.53.12.43Z"/><path class="cls-9" d="M649,281.67a89,89,0,0,1,9.33-1.42c.28,0,.28-.48,0-.45a88.7,88.7,0,0,0-9.45,1.44c-.28.06-.16.49.12.43Z"/><path class="cls-9" d="M624.67,290.22c-6.91,1.68-12.66-1.78-18.86-4.27-5.34-2.15-10.82-1.95-16.28-3.5a.23.23,0,0,0-.12.44,54.26,54.26,0,0,0,8,1.32c4.76.62,8.83,2.48,13.2,4.34,4.66,2,9.16,3.32,14.18,2.1a.22.22,0,0,0-.12-.43Z"/><path class="cls-9" d="M639,291.12a50.69,50.69,0,0,1,11.32,1.4c3.69,1,6.33,3.46,9.75,4.94.26.11.49-.27.22-.39-3.46-1.5-6.13-3.94-9.85-5A51.25,51.25,0,0,0,639,290.67c-.29,0-.29.44,0,.45Z"/><path class="cls-9" d="M582.08,249.59c7.26-.65,14.17,1,20.84,3.84a62.47,62.47,0,0,0,6.52,2.81c2.71.79,5.51.34,8,1.94.25.16.47-.23.23-.38a10.83,10.83,0,0,0-4.91-1.46c-3.89-.52-6.95-2.23-10.53-3.7-6.5-2.65-13.14-4.12-20.16-3.5-.29,0-.29.48,0,.45Z"/><path class="cls-9" d="M614.24,253.82c6-1.91,14.11.67,20.24,1.56.29,0,.41-.39.12-.43-6.26-.91-14.25-3.55-20.48-1.57-.28.09-.16.53.12.44Z"/><path class="cls-9" d="M638.56,210.05c-9.94.77-19.62-1.93-29.44-3a160.59,160.59,0,0,0-29.9-.51c-.48,0-.48.79,0,.75a160.59,160.59,0,0,1,29.9.51c9.82,1.11,19.49,3.81,29.44,3,.48,0,.49-.78,0-.75Z"/><path class="cls-9" d="M591.58,198.81c5.44-1.34,11.23,2.51,16.68,3.28a38.44,38.44,0,0,0,11.63-.28c.29-.05.17-.48-.12-.44a36.1,36.1,0,0,1-18.29-1.4c-3.82-1.36-5.94-2.6-10-1.59a.22.22,0,0,0,.12.43Z"/><path class="cls-9" d="M605.85,192.53a25.27,25.27,0,0,1,9.33-.5c.29,0,.28-.42,0-.45a25.49,25.49,0,0,0-9.45.52.22.22,0,0,0,.12.43Z"/><path class="cls-9" d="M640.41,218.21c-11.24-.32-22.73,0-33.9-1.39-.29,0-.29.42,0,.45,11.17,1.36,22.66,1.07,33.9,1.39.29,0,.29-.44,0-.45Z"/><path class="cls-9" d="M581.77,213.88c6.25-.76,14.28-3.08,20.2-.22.26.12.49-.27.23-.39-6.13-3-14-.62-20.43.16-.28,0-.28.49,0,.45Z"/><path class="cls-9" d="M648.45,212.43c17.2-4.9,33.71-11.76,50.08-18.91,9-3.93,18-7.94,27-11.72,8.12-3.38,16.41-7.26,25.16-8.58.47-.07.27-.79-.2-.72-8.75,1.32-17,5.2-25.16,8.58s-15.91,6.83-23.84,10.31c-17.43,7.64-34.95,15.09-53.28,20.32a.37.37,0,0,0,.2.72Z"/><path class="cls-9" d="M634.54,194.16l52.4-15.1c15.76-4.55,30.72-12.32,45.81-18.72.45-.19.06-.84-.38-.65-15.67,6.65-31.17,14.47-47.54,19.19l-50.49,14.56a.37.37,0,0,0,.2.72Z"/><path class="cls-9" d="M712,156.37a64.9,64.9,0,0,1-11.3,4.88c-2.64.83-5.13,1.25-7.39,2.88-2.55,1.84-4.66,4.14-7.44,5.71a70.46,70.46,0,0,1-11.71,4.85c-.27.09-.15.53.12.43,6.17-2.14,11.9-4.42,17-8.56,4-3.21,7.18-4,11.87-5.66a66.7,66.7,0,0,0,9.06-4.14c.26-.14,0-.52-.22-.39Z"/><path class="cls-9" d="M696.7,170.31a22.61,22.61,0,0,0,6.82-2.07l8.67-3.49c.27-.1.15-.54-.12-.43l-7.58,3.05c-2.53,1-5,2.3-7.79,2.49-.29,0-.29.46,0,.45Z"/><path class="cls-9" d="M637,183.49c9.31-3.16,18.58-5.85,26.77-11.44.24-.16,0-.55-.23-.39-8.15,5.57-17.4,8.25-26.66,11.39-.27.09-.15.53.12.44Z"/><path class="cls-9" d="M630.46,191a117.7,117.7,0,0,0,29.32-9.13c.26-.12,0-.51-.23-.39a117.23,117.23,0,0,1-29.21,9.09c-.28.05-.16.48.12.43Z"/><path class="cls-9" d="M639.83,199.73c11.52-5.65,25.1-4.41,36.33-10.81a.22.22,0,0,0-.22-.39c-11.24,6.39-24.81,5.16-36.34,10.81-.26.13,0,.52.23.39Z"/><path class="cls-9" d="M662.73,200.64a58,58,0,0,1,14.48-5.19c4-.84,7.21-1.28,10.56-3.8,8.33-6.28,17.84-9.65,27.43-13.69.26-.11.14-.54-.12-.43-8,3.37-17.77,6-24.7,11.41-2.2,1.72-4.15,3.54-6.78,4.56s-5.45,1.23-8.18,1.89a58.79,58.79,0,0,0-12.91,4.86c-.26.13,0,.52.22.39Z"/><path class="cls-9" d="M703.81,179l29.47-14.58c.26-.13,0-.52-.23-.39l-29.47,14.58c-.26.13,0,.52.23.39Z"/><path class="cls-9" d="M657.27,217.43c5-2.49,9.7-3.75,15-5.19,4.16-1.14,7.92-3.66,11.69-5.69.25-.13,0-.52-.23-.39-5,2.68-9.5,5.17-15.07,6.36A48.8,48.8,0,0,0,657,217c-.26.13,0,.52.23.39Z"/><path class="cls-9" d="M699.14,204.6c7.59-3.7,16.55-4.87,23.39-10,.23-.17,0-.56-.23-.39-6.81,5.07-15.81,6.27-23.39,10-.26.13,0,.52.23.39Z"/><path class="cls-9" d="M728.4,186.11c4.72-.86,9.58-1.32,14.25-2.36,4-.88,7-2.79,10.14-5.23.23-.17,0-.56-.22-.39-7.35,5.6-15.48,5.93-24.29,7.54-.28.06-.16.49.12.44Z"/><path class="cls-9" d="M712.5,192.56A46.39,46.39,0,0,0,723.2,189c.26-.12,0-.51-.23-.39a45.91,45.91,0,0,1-10.59,3.52c-.28.06-.16.49.12.43Z"/><path class="cls-10" d="M703.38,210.94a18,18,0,0,0-.44,7.75,2.77,2.77,0,0,0,.56,1.44,2.54,2.54,0,0,0,1.33.63c4,.9,8.57-.44,11.88,1.93,2.25,1.62,3.55,4.78,6.29,5.23-.69-3.18-1.29-6.84.69-9.42.58-.76,1.34-1.36,2-2.08a9.54,9.54,0,0,0,1.57-2.69c1.56-3.82,1.09-8.88-2.32-11.19Z"/><path class="cls-6" d="M701.93,210.54c-1.13,4.87-1.95,10.88,4,11.91,4.31.74,7.84-.45,11.46,3,1.77,1.66,2.79,3.18,5.2,4a1.51,1.51,0,0,0,1.84-1.85c-.38-1.9-1-4.26-.43-6.18.67-2.49,1.88-2.51,2.94-4.16a14.37,14.37,0,0,0,2.44-5.66,10.35,10.35,0,0,0-3.42-10,1.52,1.52,0,0,0-1.46-.39L703,209.5c-1.78.69-1,3.59.8,2.89l18.32-7.16c.65-.25,2.26-1.26,3-1.17-.76-.1,1.12,2.75,1.1,2.71a9.07,9.07,0,0,1-.47,6.5c-1.21,2.74-3.84,4.28-4.61,7.27-.65,2.54-.08,5.28.43,7.78l1.85-1.84c-3.66-1.17-5-5.37-9-6.41a35.69,35.69,0,0,0-4.95-.43c-5.71-.7-5.69-3.76-4.64-8.3C705.26,209.46,702.37,208.66,701.93,210.54Z"/><path d="M716.31,211.27l5.39,6.95-5.33,1.83Z"/><ellipse cx="716.94" cy="213.07" rx="1.98" ry="1.9" transform="translate(-30.35 244.07) rotate(-18.93)"/><path class="cls-4" d="M1382.45,280.6l130.14-5.52L1510,220.32l.09,1.23-95.19,8.3-.21-.25c-10.94,1.37-19.39,11-26.94,20a37.13,37.13,0,0,0-4.68,6.56,27.81,27.81,0,0,0-2.72,7.47c-1.54,8-.57,15.65-.15,16.66Z"/><line class="cls-4" x1="1540.49" y1="244.3" x2="1480.84" y2="273.44"/><polyline class="cls-4" points="1542.11 243.63 1554.16 299.61 1494.32 341.68 1482.53 273.12"/><path class="cls-5" d="M1542.11,243.63a25.64,25.64,0,0,0-3.74-9.27c-1.08-1.56-2.32-3.31-3.15-4.57a11,11,0,0,0-3.6-3c-1.19-.74-3.83-2-5-2.76-1.72-1.14-8.78-2.45-9.45-2.56-5.35-.94-10.29.55-15.34,2.55-3.82,1.53-15.8,18.91-17.68,29.41a115.72,115.72,0,0,0-2.27,18.33"/><path class="cls-6" d="M1545,242.83c-1.91-9.93-8.53-17.46-17.47-21.66-8.16-3.84-19.51-4.09-27.41.4-6.33,3.59-10.9,12.46-14.1,18.63-5.07,9.77-6.78,20.67-7.15,31.6-.13,3.86,5.87,3.85,6,0,.3-8.8,1.37-18.17,5.15-26.22,2.83-6,6.68-13.52,11.87-17.87,5.63-4.69,15-4,21.56-1.69a24.24,24.24,0,0,1,15.76,18.4c.73,3.79,6.51,2.19,5.79-1.59Z"/><polygon class="cls-7" points="1379.41 274.33 1480.32 272.11 1492.58 341.62 1491.97 342.89 1390.28 330.27 1390.21 329.91 1379.41 274.33"/><line class="cls-8" x1="1481.88" y1="271.8" x2="1542.11" y2="243.63"/><path class="cls-9" d="M1481.63,292.15c-8.57-.13-17.13-.47-25.68-1.16-8.21-.67-16.35-2.29-24.55-2.87s-16.14,2-24.24,2.29c-7.5.28-15,.36-22.53.45a.38.38,0,0,0,0,.75c7.5-.09,15-.17,22.53-.45,8.07-.29,16.2-2.85,24.24-2.29s16.35,2.2,24.55,2.87c8.55.69,17.11,1,25.68,1.16a.38.38,0,0,0,0-.75Z"/><path class="cls-9" d="M1484.9,310.93c-7-1.28-14-2.9-21.12-3.39-8.28-.58-16.66-.17-24.94-.14-16.94.06-33.89.08-50.83.18a.38.38,0,0,0,0,.75c16.29-.09,32.58-.12,48.87-.18,7.72,0,15.46-.25,23.18,0,8.33.24,16.47,2,24.64,3.53.48.09.68-.63.2-.72Z"/><path class="cls-9" d="M1487.89,328.32a240.86,240.86,0,0,1-52.42-3c-14.72-2.48-29.91-7-44.94-4.79-.48.07-.28.79.2.73,16.75-2.45,33.79,3.3,50.25,5.68a241.29,241.29,0,0,0,46.91,2.09c.48,0,.48-.78,0-.75Z"/><path class="cls-9" d="M1486.74,320.63c-5.59-.9-11-.73-16.59-.72-6.2,0-12.72-1.67-18.94-2.21-.28,0-.28.43,0,.45,5.83.5,11.66,1.93,17.49,2.2,6.06.27,11.84-.27,17.92.72.28,0,.4-.39.12-.44Z"/><path class="cls-9" d="M1440.26,312.07a58.75,58.75,0,0,1-26.33,1.34c-.29-.05-.41.39-.12.44a59.37,59.37,0,0,0,26.57-1.35.22.22,0,0,0-.12-.43Z"/><path class="cls-9" d="M1417,317.45c-6.67.25-13.46-.52-20.13-.9-.29,0-.29.43,0,.45,6.67.38,13.46,1.15,20.13.9.29,0,.29-.46,0-.45Z"/><path class="cls-9" d="M1414.52,299.19c-8.44-1.63-16.57,2.53-25.11,1.33-.28,0-.41.39-.12.43,8.51,1.2,16.73-2.94,25.11-1.32.28.05.4-.38.12-.44Z"/><path class="cls-9" d="M1415.92,304.31c8.18-2.44,15.81-4.37,24.47-4.28,7.24.07,13.89,1.84,21,2.79,7.27,1,14.41-2.29,21.58-.22a.22.22,0,0,0,.12-.43c-6.68-1.93-13.16.84-19.91.4-4.22-.28-8.26-1.77-12.43-2.36a77.68,77.68,0,0,0-10.34-.63c-8.71-.08-16.34,1.84-24.59,4.3-.28.08-.16.52.12.43Z"/><path class="cls-9" d="M1476.94,296.4c-17.18,2.86-34-4.92-51.22-1.86-.29,0-.17.48.12.43,17.17-3.05,34,4.73,51.22,1.86.29,0,.17-.48-.12-.43Z"/><path class="cls-9" d="M1477.63,284c-7.59-2.93-14.71-1.79-22.62-1.82-8.78,0-17.63-1.15-26.37-1.81-.29,0-.29.43,0,.45,8.2.62,16.44,1.55,24.67,1.78,8.41.23,16.07-1.31,24.2,1.84.27.1.39-.34.12-.44Z"/><path class="cls-9" d="M1430.47,284.22a111.16,111.16,0,0,1-18.31,1.25.23.23,0,0,0,0,.45,111.53,111.53,0,0,0,18.43-1.27c.29,0,.16-.47-.12-.43Z"/><path class="cls-9" d="M1411.13,282c-7.22-3.31-14.38.28-21.91.28a.23.23,0,0,0,0,.45c7.32,0,14.73-3.52,21.68-.34.26.12.49-.27.23-.39Z"/><path class="cls-9" d="M1396.89,287.39q-6.35.89-12.73,1.26c-.29,0-.29.47,0,.45q6.45-.37,12.85-1.28c.28,0,.16-.47-.12-.43Z"/><path class="cls-9" d="M1482,334.19l-22.91-1.7c-.28,0-.28.43,0,.45l22.91,1.7c.29,0,.29-.43,0-.45Z"/><path class="cls-9" d="M1442.27,332.88c-4.51-4.11-11-2.34-16.26-4.47-.27-.11-.39.33-.12.44,5.2,2.09,11.65.33,16.06,4.35.22.19.54-.12.32-.32Z"/><path class="cls-9" d="M1419.53,326.9c-7.84,1.25-17-1.56-24.66-2.9-.28-.05-.41.38-.12.43,7.75,1.35,17,4.17,24.9,2.91.28,0,.16-.48-.12-.44Z"/><path class="cls-9" d="M1493.8,326.66l56.28-36.05c.4-.26,0-.91-.38-.65L1493.42,326c-.41.26,0,.91.38.65Z"/><path class="cls-9" d="M1491.19,308.34c10.35-3.74,20.3-6.69,28.84-13.82,8.34-7,18.76-10.63,27.13-17.52.37-.31-.16-.83-.53-.53-7.7,6.34-17.29,9.7-25.12,15.84-4.85,3.81-9,7.26-14.79,9.57-5.17,2.06-10.48,3.84-15.73,5.73-.45.17-.25.89.2.73Z"/><path class="cls-9" d="M1487.79,288.51A74.76,74.76,0,0,0,1517,277c8.66-5.83,16.08-13.42,26.54-16,.47-.11.27-.84-.2-.72-9.45,2.29-16.49,8.67-24.17,14.24a74.88,74.88,0,0,1-31.59,13.24c-.48.09-.28.81.2.73Z"/><path class="cls-9" d="M1514.17,267.66c-9.58.86-17.13,6.93-25.88,10.28-.27.1-.15.54.12.43,8.68-3.32,16.25-9.41,25.76-10.26.28,0,.29-.48,0-.45Z"/><path class="cls-9" d="M1540.6,252.52c-8,.58-15.28,4.28-22.55,7.43-.27.12,0,.51.22.39,7.22-3.12,14.37-6.8,22.33-7.37.29,0,.29-.47,0-.45Z"/><path class="cls-9" d="M1492.29,300.41a35,35,0,0,0,14.4-5.06c.25-.15,0-.54-.22-.38a34.58,34.58,0,0,1-14.18,5c-.29,0-.29.48,0,.45Z"/><path class="cls-9" d="M1548.52,283.85c-4.89.48-8.9,1.27-12.42,4.89-5.26,5.38-11.06,7.84-18.19,10a.22.22,0,0,0,.12.43c4.7-1.4,9.53-2.84,13.61-5.67a36.27,36.27,0,0,0,4.77-4.42c3.61-3.56,7.23-4.27,12.11-4.75.29,0,.29-.48,0-.45Z"/><path class="cls-9" d="M1535.21,296.49c-5.52.15-9.73,3.7-14.51,6.06-7.12,3.5-14.83,6.12-22.29,8.79-.27.1-.15.53.12.44,6.45-2.32,12.94-4.68,19.24-7.41,5.61-2.43,11.17-7.26,17.44-7.43.29,0,.29-.46,0-.45Z"/><path class="cls-9" d="M1501.24,314.35a80.94,80.94,0,0,0-8,1.72.23.23,0,0,0,.12.44,75.61,75.61,0,0,1,8-1.72c.28-.05.16-.48-.12-.44Z"/><path class="cls-9" d="M1523.59,314.63c4.69-.63,8-3.34,11.31-6.57A40.39,40.39,0,0,1,1542,302c2.57-1.57,5.29-2.67,7.73-4.46.23-.17,0-.56-.23-.39-3.71,2.72-8,4.22-11.52,7.32-4.48,4-8.1,8.86-14.48,9.72-.28,0-.16.47.12.43Z"/><path class="cls-9" d="M1512.09,319a42,42,0,0,0-9.15,4.91c-2.5,1.93-3.78,4.63-6,6.74-.21.2.11.52.32.32,2.44-2.3,3.87-5.23,6.69-7.22a45.53,45.53,0,0,1,8.4-4.36c.26-.12,0-.51-.23-.39Z"/><path class="cls-9" d="M1545.29,268a35.28,35.28,0,0,0-13.49,7.46c-2.44,2.07-4.48,4.87-7.11,6.69-2,1.34-4,1.8-5.47,3.72-.18.23.14.55.32.32,1.71-2.19,4.25-2.7,6.32-4.38,1.43-1.16,2.62-2.67,4-3.94,4.5-4.3,9.56-7.74,15.6-9.44a.22.22,0,0,0-.12-.43Z"/><path class="cls-9" d="M1520.76,281.26c-2.61.14-4.68,1.22-7,2.48q-4.56,2.5-9.1,5.05c-.25.14,0,.53.23.39l7-3.86c2.81-1.56,5.57-3.43,8.87-3.61.29,0,.29-.47,0-.45Z"/><path class="cls-9" d="M1488,254.5c7.56-2.22,14-6.74,20.84-10.43a138.77,138.77,0,0,1,25.92-10.6.37.37,0,0,0-.2-.72,140,140,0,0,0-23,9.05c-7.93,4-15.2,9.45-23.79,12a.37.37,0,0,0,.2.72Z"/><path class="cls-9" d="M1522.19,230c-3.51.43-4.86,2-7.51,4.27a31.66,31.66,0,0,1-14.46,6.83c-.28.05-.16.49.12.43a32.32,32.32,0,0,0,10-3.64c3.93-2.26,7.2-6.87,11.86-7.44.29,0,.29-.48,0-.45Z"/><path class="cls-9" d="M1508.76,229.28a22,22,0,0,0-7.83,2.49c-.26.14,0,.53.22.39a21.34,21.34,0,0,1,7.61-2.43c.29,0,.29-.49,0-.45Z"/><path class="cls-9" d="M1488.91,261.38c9-3.71,18.34-7,27-11.52.26-.14,0-.52-.22-.39-8.57,4.51-17.91,7.79-26.86,11.47-.27.11-.15.55.12.44Z"/><path class="cls-9" d="M1534.61,239.14c-5.36,1.32-12.59,1.82-16.54,6.12-.19.21.12.53.32.32,3.79-4.12,11.16-4.73,16.34-6,.28-.07.16-.51-.12-.44Z"/><path class="cls-9" d="M1480.5,258.09c-16.38,1.38-32.79.75-49.19-.08-7.88-.39-15.77-.82-23.66-1.05-7.21-.21-14.61-.68-21.72.83-.47.1-.27.83.2.73,7.64-1.63,15.75-1,23.5-.75s15.77.7,23.65,1.09c15.74.78,31.5,1.3,47.22,0,.48,0,.49-.79,0-.75Z"/><path class="cls-9" d="M1486.12,239.1c-15.9,1.31-31.81,2.66-47.72,3.93-13.75,1.09-28-.61-41.73-1.13-.49,0-.49.73,0,.75,13.78.52,28,2.23,41.73,1.13,15.91-1.27,31.82-2.62,47.72-3.93.48,0,.48-.79,0-.75Z"/><path class="cls-9" d="M1412.09,233.46c6.33.82,13.24-.71,19.24,1.25,5.68,1.85,11,2.11,16.92,1.94.29,0,.29-.46,0-.45a73.83,73.83,0,0,1-9.17-.11c-3.71-.36-6.61-2-10.13-2.69-2.24-.47-4.55,0-6.82.11a56.14,56.14,0,0,1-10-.5c-.29,0-.29.41,0,.45Z"/><path class="cls-9" d="M1428.61,239.19c-4.27,1.23-9.66.33-14.09.25-.28,0-.28.44,0,.45,4.5.08,9.84,1,14.21-.27a.22.22,0,0,0-.12-.43Z"/><path class="cls-9" d="M1480.9,231.52c-8.42.3-16.7,1-25-1a.22.22,0,0,0-.11.43c8.3,2,16.62,1.34,25.09,1,.28,0,.29-.46,0-.45Z"/><path class="cls-9" d="M1488.41,235.61a102,102,0,0,1-26.33,1.61c-.29,0-.29.43,0,.45a102.46,102.46,0,0,0,26.45-1.63c.28,0,.16-.48-.12-.43Z"/><path class="cls-9" d="M1483.62,245.49c-11-1-21.54,4-32.54,2.41-.28,0-.41.39-.12.43,11,1.65,21.62-3.35,32.66-2.39.29,0,.29-.43,0-.45Z"/><path class="cls-9" d="M1465.44,253.23c-8.37-.86-16.91,2.23-24.9-.25-7.72-2.39-16.4-1.69-24.39-2-.29,0-.29.44,0,.45l13.93.49c4.85.18,8.63,1.3,13.21,2.39a17.9,17.9,0,0,0,7.43-.16,54.18,54.18,0,0,1,14.72-.5c.28,0,.28-.42,0-.45Z"/><path class="cls-9" d="M1425.7,248.38l-28.22-2.73c-.29,0-.29.42,0,.45l28.22,2.73c.29,0,.29-.42,0-.45Z"/><path class="cls-9" d="M1475,265.09a47.24,47.24,0,0,0-11.52.06c-4.58.65-8.77,0-13.32-.65-.29,0-.29.41,0,.45,3.95.52,7.88,1.3,11.87.91a62.5,62.5,0,0,1,13-.32c.29,0,.29-.42,0-.45Z"/><path class="cls-9" d="M1437.3,267.57c-7.23-.65-14.81,1.08-21.86-.87a.22.22,0,0,0-.12.43c7.11,2,14.7.23,22,.89.29,0,.29-.42,0-.45Z"/><path class="cls-9" d="M1407.93,261.62c-7.52,1.39-14.25,3.6-21.82,1.36-.27-.09-.39.35-.12.43,7.73,2.29,14.34.07,22.06-1.35.29-.05.17-.49-.12-.44Z"/><path class="cls-9" d="M1422.73,262a40.16,40.16,0,0,1-9.61.4c-.29,0-.28.42,0,.45a41.06,41.06,0,0,0,9.72-.41c.29,0,.17-.48-.11-.44Z"/><path class="cls-10" d="M1435.79,274.4a15.67,15.67,0,0,1,2.72,6.11,2.32,2.32,0,0,1,0,1.33,2.14,2.14,0,0,1-.88.91c-2.92,1.94-7,2.27-9,5.2-1.33,2-1.4,4.94-3.47,6.14-.42-2.78-1.06-5.91-3.45-7.38-.7-.44-1.5-.68-2.22-1.08a8.26,8.26,0,0,1-2.09-1.68c-2.43-2.6-3.6-6.83-1.55-9.74Z"/><path class="cls-6" d="M1434.49,275.15c1.67,2.48,3.32,5.26.45,7.31-1.43,1-3.49,1.32-5,2.28-3.3,2.11-3,6-5.83,8.29l2.5.67a14.66,14.66,0,0,0-1.94-6.13c-1.23-1.78-2.69-2.13-4.41-3.23a8.53,8.53,0,0,1-3.73-5c-.06-.26-.48-3.64-.46-3.67.28-.31,2.73,0,3.08,0l16.64.16a1.5,1.5,0,0,0,0-3l-19.93-.19a1.53,1.53,0,0,0-1.3.74,9.31,9.31,0,0,0,.47,9.82,12.11,12.11,0,0,0,3.71,3.66c2,1.32,3.17,1.3,4.2,3.95a17.88,17.88,0,0,1,.78,3.61c.2,1.22,1.74,1.3,2.51.66,2.34-1.94,2.15-4.93,4.19-7s5.14-2.26,7.45-3.78c4.05-2.65,1.36-7.5-.79-10.7C1436,272.05,1433.41,273.55,1434.49,275.15Z"/><path d="M1425.46,278.62l-2.21,7.25,4.85-.15Z"/><ellipse cx="1425.51" cy="280.26" rx="1.71" ry="1.64" transform="matrix(1, -0.03, 0.03, 1, -8.36, 46.52)"/><rect class="cls-11" x="13.37" y="484.31" width="1927" height="14"/><path class="cls-2" d="M1345.49,484.18c2.13,2.23,3.91,4.74,6,7,1.85,2,2.85,4.53,4.15,6.89,3.4,6.18,12.85.66,9.45-5.52-1.61-2.95-3-5.86-5.2-8.42s-4.32-5.25-6.65-7.69c-4.88-5.11-12.62,2.64-7.75,7.74Z"/></g></g></svg>