<svg xmlns="http://www.w3.org/2000/svg" viewBox="0 0 36.05 37.12"><defs><style>.cls-2{stroke-miterlimit:10;fill:none;stroke:#212121}</style></defs><g id="Layer_2" data-name="Layer 2"><g id="Layer_1-2" data-name="Layer 1"><path d="M29 31.12H7c-.56 0-1-1-1-2.28V8.28C6 7 6.46 6 7 6h22c.56 0 1 1 1 2.28v20.56c.05 1.26-.41 2.28-1 2.28z" stroke-miterlimit="10" fill="#ff8360" stroke="#ff8360" stroke-width="12"/><path class="cls-2" d="M26.5 18.8V8.73c0-.34-.58-.86-1.3-.86H8.52A1.23 1.23 0 0 0 7.23 9v19.87A1.23 1.23 0 0 0 8.52 30H25.2a1.23 1.23 0 0 0 1.3-1.15v-8.7"/><path d="M20.63 31.88L8.19 30.07a1.28 1.28 0 0 1-1-1.29V8.92c0-.63.43-1.08 1-1l12.44 1.81a1.29 1.29 0 0 1 1 1.29v19.86a.9.9 0 0 1-1 1z" stroke="#212121" stroke-miterlimit="10"/><path class="cls-2" d="M22.44 19.44h10.14M29.6 21.22l3.06-1.68a.12.12 0 0 0 .07-.1.12.12 0 0 0-.07-.1l-3.06-1.68"/></g></g></svg>