<svg xmlns="http://www.w3.org/2000/svg" viewBox="0 0 1328.5 224.17"><defs><style>.cls-1{fill:#ff568b;stroke:#ff568b}.cls-1,.cls-2,.cls-3{stroke-miterlimit:10;stroke-width:12px}.cls-2{fill:#60c6a6;stroke:#60c6a6}.cls-3{fill:#ff8360;stroke:#ff8360}</style></defs><g id="Layer_2" data-name="Layer 2"><g id="Layer_1-2" data-name="Layer 1"><path class="cls-1" d="M89.81 153.46q-.44-11.46-.74-24.08t-.32-29.17q-6.8.21-14.43.31t-15.7.11h-17.4q-7.84 0-14-.21-.22 13.36-.43 25.78t-.85 27.05a38.37 38.37 0 0 1-1 7.85 10.81 10.81 0 0 1-2 4.24 5.06 5.06 0 0 1-2.86 1.8 18.51 18.51 0 0 1-3.71.32 8.46 8.46 0 0 1-6.37-2.65q-2.55-2.66-3-11.35-.42-7.64-.53-15.91t-.32-17.83Q6 110.18 6 99V74.11Q6 59 6.21 48.33a150.85 150.85 0 0 1 1.17-17.51q1-6.78 3.08-10a6.74 6.74 0 0 1 5.94-3.18A9.59 9.59 0 0 1 22.76 20q2.76 2.34 3.18 10.82.43 7.22.64 13c.14 3.9.28 7.71.42 11.46s.22 7.61.22 11.56v13.21q15.92-.64 31.19-.64 7.43 0 15 .21t15.39.64v-6.15q0-15.06.21-25.78a150.85 150.85 0 0 1 1.17-17.51q.95-6.78 3.07-10a6.75 6.75 0 0 1 5.94-3.18 9.6 9.6 0 0 1 6.32 2.36c1.83 1.56 2.9 5.17 3.18 10.82q.42 7.65.64 13.58t.42 11.78Q110 62 110 68.27v32.36q0 8.7-.21 17.18t-.46 17.19q-.22 8.7-.64 18.25a38.37 38.37 0 0 1-1 7.85 10.81 10.81 0 0 1-2 4.24 5.06 5.06 0 0 1-2.86 1.8 18.61 18.61 0 0 1-3.72.32 8.45 8.45 0 0 1-6.36-2.65q-2.52-2.66-2.94-11.35zM146.67 18.09a13.06 13.06 0 0 1 9 3.82 12 12 0 0 1 4.15 9.09 11.33 11.33 0 0 1-4.24 8.8 14.12 14.12 0 0 1-9.58 3.75 12 12 0 0 1-8.38-3.71 12.17 12.17 0 0 1-3.93-9.23 11.7 11.7 0 0 1 3.93-8.8 12.73 12.73 0 0 1 9.05-3.72zm-9.55 135.37q-.44-7.85-.74-17.93t-.32-22.17q0-15.06.21-25.78A154 154 0 0 1 137.44 70q.94-6.89 3.07-10.18a6.7 6.7 0 0 1 6-3.29 9.13 9.13 0 0 1 6.31 2.47q2.76 2.55 3.18 11 1.27 22.28 1.28 43.07 0 10.6-.43 19.83t-.85 20.35a38.37 38.37 0 0 1-.95 7.85 10.81 10.81 0 0 1-2 4.24 5.06 5.06 0 0 1-2.86 1.8 18.51 18.51 0 0 1-3.71.32 8.46 8.46 0 0 1-6.37-2.65q-2.57-2.66-2.99-11.35zM272.06 166.19a8.93 8.93 0 0 1-7.11-3.4A18.56 18.56 0 0 1 261 155a60.85 60.85 0 0 1-5.84 4.66 50.29 50.29 0 0 1-16.87 7.64 45.3 45.3 0 0 1-11 1.27 60.35 60.35 0 0 1-16-2.44 46.24 46.24 0 0 1-29.49-24.93q-5.21-10.4-5.2-26.09a65.37 65.37 0 0 1 4-23.77A47.46 47.46 0 0 1 209.36 63a63.19 63.19 0 0 1 22-3.71q10.19 0 16.13 2.33a29 29 0 0 1 9.33 5.52v-13q0-7.32.11-14.22t.21-12.62q.11-5.73.32-8.7.42-7.21 2.55-9.87T267.39 6q5.52 0 7.53 2.65t2.44 9.23q.21 2.76.32 7.43c.07 3.11.11 6.51.11 10.18s0 7.39.1 11.14.11 7.15.11 10.19v10.5q0 21.65-.32 39.89t-.32 29.06a12.18 12.18 0 0 0 1.81 4.46c.92 1.41 1.91 2.83 3 4.24a37.13 37.13 0 0 1 2.86 4.46 10.05 10.05 0 0 1 1.28 4.88 9.17 9.17 0 0 1-1.49 5.2 13.37 13.37 0 0 1-3.71 3.71 18 18 0 0 1-4.67 2.23 15 15 0 0 1-4.38.74zm-40.95-18.67q13.15 0 20.16-7.85t7-25.89q0-34.57-27.37-34.58a40.1 40.1 0 0 0-12.31 1.91 29.19 29.19 0 0 0-10.5 5.94 30.66 30.66 0 0 0-7.43 10.18 34.48 34.48 0 0 0-2.86 14.64 43.82 43.82 0 0 0 2 13.37 33.25 33.25 0 0 0 6.2 11.35 30 30 0 0 0 10.39 8 34.12 34.12 0 0 0 14.72 2.93zM353.32 127.57a110.17 110.17 0 0 1-15.6-1.16 77.64 77.64 0 0 1-17.71-5q1.9 12.95 10.71 19.52t25.36 6.58a70.71 70.71 0 0 0 10.71-.74c3.18-.5 6-1.07 8.38-1.7l6.37-1.7a19.81 19.81 0 0 1 5.09-.74 10.35 10.35 0 0 1 5.73 1.8c1.83 1.21 2.76 3.22 2.76 6.05a10.58 10.58 0 0 1-4.35 8.7 34.05 34.05 0 0 1-10.61 5.41 65.76 65.76 0 0 1-13.26 2.76 120 120 0 0 1-12.31.74 74.57 74.57 0 0 1-23-3.39 49.39 49.39 0 0 1-18.14-10.3 46.94 46.94 0 0 1-11.88-17.08q-4.24-10.19-4.25-23.76a61.59 61.59 0 0 1 4.14-23.34 49.51 49.51 0 0 1 11.35-17.18 47.7 47.7 0 0 1 17.08-10.61 61.55 61.55 0 0 1 21.33-3.61 64 64 0 0 1 17.29 2.34 46.36 46.36 0 0 1 14.85 7 35.59 35.59 0 0 1 10.4 11.77 34 34 0 0 1 3.92 16.66 30.22 30.22 0 0 1-3.2 14.41 24.81 24.81 0 0 1-9 9.54 43 43 0 0 1-14 5.31 89.53 89.53 0 0 1-18.16 1.72zm-1.49-49.22a43.58 43.58 0 0 0-11 1.38 29.25 29.25 0 0 0-9.65 4.46 26 26 0 0 0-7.32 8.06 33.16 33.16 0 0 0-4 12.41 68 68 0 0 0 15.71 5 90.53 90.53 0 0 0 16.05 1.34q12.53 0 18.57-3.08t6-11.14a17.55 17.55 0 0 0-5.62-12.94q-5.57-5.49-18.74-5.49z"/><path class="cls-2" d="M549.15 167.46a10.86 10.86 0 0 1-5.41-1.16 8.06 8.06 0 0 1-3.08-3.08 13.67 13.67 0 0 1-1.48-4.56q-.43-2.66-.64-5.62a43.69 43.69 0 0 1-13.68 11q-8.39 4.45-21.33 4.45a61.38 61.38 0 0 1-16.86-2.44 40.54 40.54 0 0 1-15.6-8.48 44.6 44.6 0 0 1-11.46-16.23q-4.46-10.19-4.45-25.68a83.92 83.92 0 0 1 3-22.7 54.69 54.69 0 0 1 9-18.56 43.73 43.73 0 0 1 15.16-12.6q9.12-4.66 21.43-4.67a45.43 45.43 0 0 1 19.3 3.93 41.21 41.21 0 0 1 15.28 12.83q0-2.53.21-5.19a15.25 15.25 0 0 1 1.17-4.88 8 8 0 0 1 3.08-3.61 10.37 10.37 0 0 1 5.72-1.38 8.63 8.63 0 0 1 6 2.55q2.74 2.53 3.18 11 .63 11.25 1 20.16t.32 18.46q0 11.67-.21 21.43t-1.06 20.79a50.6 50.6 0 0 1-1.17 7.74 12.33 12.33 0 0 1-1.8 4.25 4.92 4.92 0 0 1-2.55 1.8 10.87 10.87 0 0 1-3.07.45zm-11.46-53.89q0-11-3.29-18a29.61 29.61 0 0 0-8.27-10.93 29 29 0 0 0-10.71-5.41 42.53 42.53 0 0 0-10.61-1.49 28.55 28.55 0 0 0-13.05 2.76A24 24 0 0 0 483 88a32.79 32.79 0 0 0-5 11.25 59.12 59.12 0 0 0-1.59 14.11q0 18.67 8.16 27.58t22.18 8.91a31.81 31.81 0 0 0 14.08-2.85 26.36 26.36 0 0 0 9.54-7.75 32.91 32.91 0 0 0 5.52-11.56 54.07 54.07 0 0 0 1.8-14.12zM633.59 76.23a37.15 37.15 0 0 0-14.11 2.55 86.1 86.1 0 0 0-14.1 7.63v13q0 8.6-.22 18.67t-.42 19.92q-.21 9.76-.85 16.34a61.84 61.84 0 0 1-1 6.68 9.56 9.56 0 0 1-1.48 3.72 4.16 4.16 0 0 1-2.55 1.59 27.73 27.73 0 0 1-8.27 0 4.76 4.76 0 0 1-2.65-1.49 8.34 8.34 0 0 1-1.7-3.5 42.16 42.16 0 0 1-1.06-6.36c-.29-2.55-.53-5.95-.74-10.19s-.4-8.87-.53-13.9-.25-10.11-.32-15.27-.11-9.94-.11-14.32q0-10.83.32-17.61a108.31 108.31 0 0 1 1.2-12.13q1.28-8.91 3.39-11.24a7.34 7.34 0 0 1 5.74-2.32c3.53 0 6.19 1 8 3s2.86 5.24 3.29 9.76a68.56 68.56 0 0 1 16.86-10.82 45.16 45.16 0 0 1 18.57-4 33.42 33.42 0 0 1 16.65 4.24q7.53 4.26 12.42 13.79a50.7 50.7 0 0 1 4.45 12.63 113.3 113.3 0 0 1 2.12 14.53c.14 2.27.28 4.49.43 6.69s.24 4.53.32 7 .1 5.27.1 8.38v11q0 6.79-.21 12.73a57.69 57.69 0 0 1-1.17 10.29 13.79 13.79 0 0 1-3.29 6.79 8.37 8.37 0 0 1-6.36 2.44q-9.76 0-10.19-9.33v-5.41q0-4.78-.1-11.14c-.07-4.25-.15-8.56-.21-13s-.18-8-.32-10.82c-.15-2.26-.32-4.7-.53-7.32s-.5-5.26-.85-8-.82-5.27-1.38-7.75a39.45 39.45 0 0 0-2.12-6.68q-3-7-7.43-8.91a24 24 0 0 0-9.59-1.86zM790.39 166.19a8.93 8.93 0 0 1-7.11-3.4 18.69 18.69 0 0 1-3.93-7.84 59.45 59.45 0 0 1-5.83 4.66 50.29 50.29 0 0 1-16.87 7.64 45.3 45.3 0 0 1-11 1.27 60.35 60.35 0 0 1-16-2.44 46.24 46.24 0 0 1-29.49-24.93q-5.21-10.4-5.2-26.09a65.37 65.37 0 0 1 4-23.77A47.46 47.46 0 0 1 727.69 63a63.19 63.19 0 0 1 22-3.71q10.19 0 16.13 2.33a29.06 29.06 0 0 1 9.33 5.52v-13q0-7.32.11-14.22t.21-12.62q.11-5.73.32-8.7.42-7.21 2.54-9.87c1.38-1.85 3.85-2.73 7.39-2.73s6.19.88 7.53 2.65 2.16 4.85 2.44 9.23q.21 2.76.32 7.43c.07 3.11.11 6.51.11 10.18s0 7.39.1 11.14.11 7.15.11 10.19v10.5q0 21.65-.32 39.89t-.32 29.06a11.84 11.84 0 0 0 1.81 4.46c.91 1.41 1.91 2.83 3 4.24a37.13 37.13 0 0 1 2.86 4.46 10 10 0 0 1 1.27 4.88 9.17 9.17 0 0 1-1.48 5.2 13.37 13.37 0 0 1-3.71 3.71 18 18 0 0 1-4.67 2.23 15 15 0 0 1-4.38.74zm-40.95-18.67q13.15 0 20.15-7.85t7-25.89q0-34.57-27.37-34.58a40.05 40.05 0 0 0-12.31 1.91 29.19 29.19 0 0 0-10.5 5.94A30.66 30.66 0 0 0 719 97.23a34.48 34.48 0 0 0-2.86 14.64 44.12 44.12 0 0 0 2 13.37 33.44 33.44 0 0 0 6.16 11.35 29.86 29.86 0 0 0 10.39 8 34.09 34.09 0 0 0 14.75 2.93z"/><path class="cls-3" d="M904.53 166.61q-11.88 0-19.09-1.9t-11.14-5.42a17.21 17.21 0 0 1-5.3-8.59 69.23 69.23 0 0 1-2-11.46q-.63-7.43-1-19.62t-.32-25.36q0-6.36.1-13.47t.22-14q.09-6.9.31-12.84t.69-10.18a68.44 68.44 0 0 1 2.12-11.89 19.38 19.38 0 0 1 5.62-9.12q4.14-3.81 11.67-5.83t20.05-2q28.44 0 42.54 10.5t14.11 29.81a39.82 39.82 0 0 1-4.35 18.46q-4.35 8.49-15 12.73a27.24 27.24 0 0 1 10.82 4.46 35.35 35.35 0 0 1 13.68 18.78 39.72 39.72 0 0 1 1.81 11.77 41.92 41.92 0 0 1-3.19 15.6 37.8 37.8 0 0 1-10.82 14.53q-7.64 6.58-20.26 10.82t-31.27 4.22zm5.1-131.54a45.43 45.43 0 0 0-11.35 1.16 16.75 16.75 0 0 0-6.58 3.08 9.1 9.1 0 0 0-3 4.67 22.59 22.59 0 0 0-.74 5.94v29.7c2 .15 4.06.22 6.25.22h6.26a105.27 105.27 0 0 0 15-1.06 52.76 52.76 0 0 0 13.26-3.61 24.42 24.42 0 0 0 9.55-7q3.6-4.45 3.61-11.46a18.9 18.9 0 0 0-7.75-15.59q-7.75-6.06-24.51-6.05zm39.25 85.72q0-7.65-3.5-12.31a22.45 22.45 0 0 0-9-7.11 44 44 0 0 0-12.31-3.29 110.36 110.36 0 0 0-13.57-.85h-11c-3.82 0-7.35.08-10.61.22q-.21 4.45-.42 9.12t-.32 8.81c-.07 2.75-.1 5.16-.1 7.21v4.35a45.5 45.5 0 0 0 .84 9.55 12.26 12.26 0 0 0 3.19 6.15 13.18 13.18 0 0 0 6.68 3.29 53.92 53.92 0 0 0 11.14.95q18.66 0 28.85-6.58t10.13-19.51zM1038.41 127.57a109.93 109.93 0 0 1-15.59-1.16 77.71 77.71 0 0 1-17.72-5q1.9 12.95 10.72 19.52t25.35 6.58a70.71 70.71 0 0 0 10.71-.74c3.19-.5 6-1.07 8.39-1.7l6.36-1.7a19.93 19.93 0 0 1 5.09-.74 10.35 10.35 0 0 1 5.73 1.8c1.84 1.21 2.76 3.22 2.76 6.05a10.55 10.55 0 0 1-4.35 8.7 34.05 34.05 0 0 1-10.61 5.41 65.62 65.62 0 0 1-13.26 2.76 119.79 119.79 0 0 1-12.3.74 74.57 74.57 0 0 1-23-3.39 49.43 49.43 0 0 1-18.15-10.3 46.94 46.94 0 0 1-11.88-17.08q-4.25-10.19-4.24-23.76a61.59 61.59 0 0 1 4.14-23.34 49.37 49.37 0 0 1 11.35-17.18 47.53 47.53 0 0 1 17.09-10.6 61.45 61.45 0 0 1 21.32-3.61 64 64 0 0 1 17.29 2.34 46.25 46.25 0 0 1 14.85 7 35.48 35.48 0 0 1 10.4 11.77 33.89 33.89 0 0 1 3.93 16.66 30.11 30.11 0 0 1-3.19 14.43 24.78 24.78 0 0 1-9 9.54 43.07 43.07 0 0 1-14 5.31 89.46 89.46 0 0 1-18.19 1.69zm-1.48-49.22a43.71 43.71 0 0 0-11 1.38 29.44 29.44 0 0 0-9.65 4.46 26 26 0 0 0-7.32 8.06 33.16 33.16 0 0 0-4 12.41 67.93 67.93 0 0 0 15.7 5 90.61 90.61 0 0 0 16.12 1.38q12.52 0 18.57-3.08t6-11.14a17.56 17.56 0 0 0-5.63-12.94q-5.63-5.53-18.79-5.53zM1151.92 127.57a109.93 109.93 0 0 1-15.59-1.16 77.71 77.71 0 0 1-17.72-5q1.91 12.95 10.72 19.52t25.35 6.58a70.71 70.71 0 0 0 10.71-.74c3.19-.5 6-1.07 8.39-1.7l6.36-1.7a19.87 19.87 0 0 1 5.09-.74 10.35 10.35 0 0 1 5.73 1.8c1.84 1.21 2.76 3.22 2.76 6.05a10.55 10.55 0 0 1-4.35 8.7 34.05 34.05 0 0 1-10.61 5.41 65.62 65.62 0 0 1-13.26 2.76 119.79 119.79 0 0 1-12.3.74 74.68 74.68 0 0 1-23-3.39 49.47 49.47 0 0 1-18.14-10.3 46.94 46.94 0 0 1-11.88-17.08q-4.25-10.19-4.24-23.76a61.59 61.59 0 0 1 4.14-23.34 49.37 49.37 0 0 1 11.35-17.18 47.53 47.53 0 0 1 17.08-10.61 61.45 61.45 0 0 1 21.32-3.61 64 64 0 0 1 17.29 2.34 46.25 46.25 0 0 1 14.85 7 35.48 35.48 0 0 1 10.4 11.77 33.89 33.89 0 0 1 3.93 16.66 30.11 30.11 0 0 1-3.19 14.43 24.78 24.78 0 0 1-9 9.54 43.07 43.07 0 0 1-14 5.31 89.46 89.46 0 0 1-18.19 1.7zm-1.48-49.22a43.71 43.71 0 0 0-11 1.38 29.44 29.44 0 0 0-9.65 4.46 26 26 0 0 0-7.32 8.06 33.16 33.16 0 0 0-4 12.41 67.93 67.93 0 0 0 15.7 5 90.61 90.61 0 0 0 16.12 1.38q12.52 0 18.57-3.08t6-11.14a17.56 17.56 0 0 0-5.63-12.94q-5.64-5.53-18.79-5.53zM1239.55 197.17c0 2.68-.08 5.27-.22 7.74a21.47 21.47 0 0 1-1.38 6.68 11.29 11.29 0 0 1-3.39 4.78 9.72 9.72 0 0 1-6.26 1.8 10.16 10.16 0 0 1-7.74-3.29q-3.09-3.28-3.5-11.56-.22-5.31-.64-12.94t-.74-16.13q-.33-8.49-.64-17t-.32-15.7q0-24.83 3.5-41t10.5-25.55A37.22 37.22 0 0 1 1246 61.59a68.31 68.31 0 0 1 23.87-3.82 62.12 62.12 0 0 1 20.36 3.29 44.39 44.39 0 0 1 16.66 10.18 49.21 49.21 0 0 1 11.35 17.83q4.24 10.92 4.24 26.2a54.92 54.92 0 0 1-4.34 22.49 46.94 46.94 0 0 1-12 16.44 52.66 52.66 0 0 1-17.93 10.19 67.83 67.83 0 0 1-22 3.5 38.27 38.27 0 0 1-17.93-4.14q-7.95-4.14-11.35-9 1.07 11.9 1.8 22.07t.82 20.35zM1268.83 79a30 30 0 0 0-12.83 2.53 23.35 23.35 0 0 0-8.81 7 29.45 29.45 0 0 0-5 10.6 53.39 53.39 0 0 0-1.59 13.37 60.81 60.81 0 0 0 1.38 13.26 30.84 30.84 0 0 0 4.56 10.93 22.72 22.72 0 0 0 8.48 7.42 27.79 27.79 0 0 0 13 2.76 41.13 41.13 0 0 0 11.45-1.59 25.43 25.43 0 0 0 9.87-5.41 27.24 27.24 0 0 0 7-10.18q2.65-6.37 2.65-15.92a44.73 44.73 0 0 0-2.65-16.44 29.85 29.85 0 0 0-7-10.82 24.9 24.9 0 0 0-9.76-5.84 35.7 35.7 0 0 0-10.75-1.67z"/></g></g></svg>