<svg xmlns="http://www.w3.org/2000/svg" viewBox="0 0 119.19 71"><defs><style>.cls-5{fill:#fec600}.cls-6{fill:#904a38}.cls-7{fill:#a25443;stroke:#6c332c;stroke-width:5px}.cls-12,.cls-13,.cls-14,.cls-7{stroke-miterlimit:10}.cls-9{fill:#c8897b}.cls-11{fill:#966158}.cls-12,.cls-15{fill:#fff}.cls-12{stroke:#fff}.cls-13{fill:#41b9d6;stroke:#41b9d6}.cls-14{stroke:#000}</style></defs><g id="Layer_2" data-name="Layer 2"><g id="Layer_1-2" data-name="Layer 1"><path d="M.6 59.4c15.73 2.54 31.76 1.73 47.67.9l8.15-.42a3.22 3.22 0 0 1-.16 2.58c-2.82-.74-5.8-.26-8.69.1a111.9 111.9 0 0 1-15.2.85c-1.77 0-3.55-.09-5.31.05a43.9 43.9 0 0 0-5.8 1L.3 68.92A41.92 41.92 0 0 1 .51 60z" fill="#a25342"/><path d="M.65 59.22c14.39 2.31 29 1.83 43.51 1.11l12.26-.64a.21.21 0 0 1 .18.14 3.57 3.57 0 0 1-.18 2.72.2.2 0 0 1-.2.09c-3.55-.88-7.25 0-10.81.35s-7.23.58-10.86.61c-1.84 0-3.7-.06-5.55 0a30.23 30.23 0 0 0-5.37.59c-3.68.71-7.32 1.54-11 2.33L.36 69.11a.19.19 0 0 1-.23-.18C0 67.13 0 65.33 0 63.51c.05-1.38.23-2.74.39-4.1 0-.24.4-.24.37 0-.13 1.37-.31 2.73-.36 4.1-.06 1.8 0 3.62.1 5.42-.08-.06-.16-.13-.24-.18C7.71 67.17 15.15 65.52 22.6 64a35.06 35.06 0 0 1 5.19-.74c1.85-.1 3.71 0 5.56 0q5.57 0 11.1-.5c3.89-.38 8-1.41 11.86-.45a1.33 1.33 0 0 1-.21.09 3.18 3.18 0 0 0 .14-2.4l.17.14c-14.59.76-29.25 1.84-43.86.86-4-.27-8-.71-12-1.34-.24-.11-.14-.48.1-.44z" fill="#663b1e"/><path d="M50.18 66.51a4.42 4.42 0 0 1-3.11-1 3.47 3.47 0 0 1-1.22-3.2 2.54 2.54 0 0 1 2.5-2.08 2.92 2.92 0 0 1-1.86-1.52 2 2 0 0 1 .47-2.3 1.44 1.44 0 0 1 2.12.39 3 3 0 0 1-.36-1.62c.1-.56.72-1 1.2-.77a3.61 3.61 0 0 1-.19-4 4.89 4.89 0 0 1 3.48-2.19 4 4 0 0 1 2.77.44 2.65 2.65 0 0 1 1.26 2.47 9 9 0 0 1 3.18-1.77 3.05 3.05 0 0 1 3.26 1.08 11.39 11.39 0 0 1 4.75-2.31c1.68-.37 3.73-.19 4.71 1.27a15.46 15.46 0 0 0 1.16 2.08 1.32 1.32 0 0 0 1.54.21 1.24 1.24 0 0 1 .84-.17c.4 0 .84-.84 1.26-.33s1.39-.52 2.13-.59a2.46 2.46 0 0 1 2.32.78 3.14 3.14 0 0 1 .41 1.23A6.39 6.39 0 0 1 83 55a2.11 2.11 0 0 1-1.48 1.73 6.39 6.39 0 0 1 1.84 5.65c-.47 2-2.58 3.66-4.52 3.1a1.84 1.84 0 0 1-.8 2 1.2 1.2 0 0 1-1.7-1 3.54 3.54 0 0 1-1.34 2.4 2.37 2.37 0 0 1-2.49.29A4.36 4.36 0 0 1 71 67.5a11.73 11.73 0 0 1-3.82 3 3.89 3.89 0 0 1-4.44-.83 2.82 2.82 0 0 0-.75-.82c-1.21-.67-2.6 1.51-3.82.87-.38-.21-.6-.65-1-.85-1-.52-2.17.87-3.21.47-.24-.09-.42-.27-.65-.38-.71-.37-1.58-.09-2.34-.36s-.79-1.24-.71-2z" fill="#35a22d"/><path d="M50.18 66.7a4.26 4.26 0 0 1-4.46-3 2.84 2.84 0 0 1 2.63-3.63c0 .13 0 .25-.05.37-1.4-.43-2.64-1.85-2-3.43a1.64 1.64 0 0 1 2.93-.28l-.32.19a2.52 2.52 0 0 1-.27-2 1.06 1.06 0 0 1 1.36-.68l-.18.31c-1.73-2.17-.33-5.08 1.91-6.11a5 5 0 0 1 4-.18 2.86 2.86 0 0 1 1.75 2.84l-.29-.16A7.55 7.55 0 0 1 61 49.05a3.1 3.1 0 0 1 2.84 1.25h-.29c2.64-2.11 8.27-4.37 10.18-.17.24.53.48 1.18 1 1.43s1-.14 1.53-.22a1.36 1.36 0 0 0 .66-.12c.15-.09.28-.22.42-.29a.54.54 0 0 1 .59 0c.37.19.4.26.79 0 .18-.08.35-.2.52-.29a2.24 2.24 0 0 1 1.06-.31 2.47 2.47 0 0 1 2.21.86 4 4 0 0 1 .49 1.57 7.23 7.23 0 0 1 .15 2 2.4 2.4 0 0 1-1.65 2.12 1.87 1.87 0 0 1 .08-.32c1.53 1.67 2.59 4.19 1.7 6.45a4 4 0 0 1-4.57 2.65l.22-.23a2 2 0 0 1-1.13 2.35 1.39 1.39 0 0 1-1.73-1.22h.36a3.3 3.3 0 0 1-2.43 3c-1.47.26-2.37-.8-3.09-2h.29c-1.33 1.37-2.81 2.88-4.73 3.26a4.36 4.36 0 0 1-2.4-.17 3.1 3.1 0 0 1-.89-.49 14.05 14.05 0 0 1-1-1.07c-1.17-1.11-2.6 1.27-3.95.73-.35-.14-.55-.46-.83-.69a1.29 1.29 0 0 0-1.5-.1 2.74 2.74 0 0 1-2 .35 4.68 4.68 0 0 1-.64-.38 3 3 0 0 0-1.16-.19 3 3 0 0 1-1.32-.21c-.72-.42-.72-1.42-.66-2.16l.18.19a.3.3 0 0 0-.13 0 .19.19 0 0 1 0-.38h.12a.18.18 0 0 1 .19.19 3.34 3.34 0 0 0 0 1.18c.2.73.82.79 1.47.81a4.76 4.76 0 0 1 1.13.11c.42.13.74.48 1.19.55.73.1 1.42-.52 2.14-.64s1 .26 1.49.7c1.18 1.12 2.38-.84 3.66-.74.69.06 1 .66 1.4 1.13a3.3 3.3 0 0 0 2.49 1c2.23 0 3.92-1.72 5.4-3.25a.2.2 0 0 1 .3 0c.66 1.07 1.49 2.07 2.85 1.74a3 3 0 0 0 2.06-2.63c0-.23.35-.15.36.05a1 1 0 0 0 1.44.78 1.62 1.62 0 0 0 .69-1.8c0-.14.09-.27.22-.23A3.71 3.71 0 0 0 83 62.57a6.22 6.22 0 0 0-1.73-5.75.19.19 0 0 1 .09-.31c1.32-.31 1.53-1.79 1.39-2.95s-.29-2.45-1.55-2.75a2.61 2.61 0 0 0-1.36 0 7.86 7.86 0 0 0-1 .53 1.12 1.12 0 0 1-.67.17c-.28 0-.45-.36-.76-.24s-.38.33-.64.39-.4 0-.59 0-.37.2-.57.25a1.55 1.55 0 0 1-1.61-.54c-.53-.7-.69-1.63-1.31-2.26a3.69 3.69 0 0 0-2.4-1 9.91 9.91 0 0 0-6.48 2.4.19.19 0 0 1-.3 0c-1.61-2.31-4.55-.45-6.18.78a.19.19 0 0 1-.28-.17c.28-3-3.47-3.17-5.33-2.26s-3.19 3.52-1.67 5.43c.1.13 0 .4-.19.32-.6-.23-1 .43-1 1a3.33 3.33 0 0 0 .34 1.14c.1.22-.19.41-.32.19-.67-1.17-2.2-.49-2.39.67a2.35 2.35 0 0 0 1.86 2.48.19.19 0 0 1 0 .37c-1.79-.07-2.76 1.9-2.16 3.5a3.94 3.94 0 0 0 4 2.37c.23-.01.23.37-.01.37z" fill="#2a7224"/><path class="cls-5" d="M38.29 55c0 1.6.08 3.21.12 4.81a.56.56 0 1 1-1.11 0c0-1.6-.08-3.21-.12-4.81-.03-.71 1.08-.71 1.11 0z"/><path class="cls-5" d="M38 59.35c.93 0 1.15 1.08 1.32 1.81a12.23 12.23 0 0 1 .33 3.19.56.56 0 0 1-1.11 0 11.17 11.17 0 0 0-.12-2.08 10.51 10.51 0 0 0-.42-1.79.57.57 0 0 1 0-1.13z"/><path class="cls-5" d="M38.37 59.86c-.09 1.43-.69 2.89-.43 4.34.14.72-.93 1-1.07.3-.28-1.6.28-3.07.4-4.64.04-.74 1.15-.74 1.1 0z"/><path class="cls-5" d="M37.44 60.19A11.55 11.55 0 0 0 36 63.78c-.18.71-1.24.4-1.08-.31A13 13 0 0 1 36 60.54c.36-.68.85-1.71 1.76-1.44a.56.56 0 0 1-.32 1.09zM25.23 55.31c0 1.6-.09 3.21-.13 4.81a.55.55 0 1 1-1.1 0c0-1.6.08-3.21.12-4.81a.56.56 0 0 1 1.11 0z"/><path class="cls-5" d="M24.36 60.78a12.2 12.2 0 0 0-.36 1.79 10.39 10.39 0 0 0-.13 2.08.56.56 0 1 1-1.11 0 12.21 12.21 0 0 1 .34-3.18c.18-.75.39-1.83 1.31-1.82a.57.57 0 0 1-.05 1.13z"/><path class="cls-5" d="M25.14 60.15c.11 1.57.68 3 .4 4.64-.14.73-1.2.42-1.08-.3.26-1.45-.33-2.91-.43-4.34-.03-.74 1.06-.74 1.11 0z"/><path class="cls-5" d="M24.66 59.39c.91-.26 1.41.77 1.76 1.44a12.5 12.5 0 0 1 1.1 2.93c.17.72-.9 1-1.07.31a11.61 11.61 0 0 0-.64-2 13.13 13.13 0 0 0-.81-1.59.57.57 0 0 1-.34-1.09z"/><path class="cls-6" d="M45.69 25.57a4.47 4.47 0 0 1 4.2 2.71 13.3 13.3 0 0 1 1 5.25 20.58 20.58 0 0 1-.03 4.47 31 31 0 0 1-1.11 4.36c-.5 1.53-.94 2.85-1.48 4.19-.93 2.29-2.47 4.58-4.67 5.61zM16.81 25.55a4.46 4.46 0 0 0-4.22 2.68 13.47 13.47 0 0 0-1.08 5.25 20 20 0 0 0 .05 4.44 30.24 30.24 0 0 0 .73 4.43c.42 1.39.94 2.57 1.48 3.93.91 2.28 2.75 4.82 4.95 5.85z"/><path class="cls-7" d="M31.33 57.37c-9.73 0-17.62-9.17-17.62-20.49s7.89-20.49 17.62-20.49S49 25.56 49 36.88s-7.94 20.49-17.67 20.49z"/><path d="M31.33 52.26c-7.29 0-13.19-6.87-13.19-15.33S24 21.6 31.33 21.6s13.18 6.86 13.18 15.33-5.9 15.33-13.18 15.33z" fill="#f9bb92"/><path class="cls-9" d="M31.26 48.2c-4.79 0-8.68-4.53-8.68-10.1S26.47 28 31.26 28 40 32.52 40 38.1s-3.94 10.1-8.74 10.1z"/><path d="M36.58 28.19a.3.3 0 0 1-.56.06 27.24 27.24 0 0 0-3.39-5.44A7.21 7.21 0 0 1 31.46 21a3.68 3.68 0 0 1 .54-3.33 5.12 5.12 0 0 1 2.85-1.87 5.64 5.64 0 0 1 6.62 3.1 2.26 2.26 0 0 1 0 2v.07c-.47.35-4.06 4.03-4.89 7.22z" fill="#fdc60b"/><path class="cls-7" d="M31.14 34.53C21.1 34.53 13 28 13 20S21.1 5.47 31.14 5.47 49.32 12 49.32 20s-8.14 14.53-18.18 14.53z"/><path class="cls-9" d="M37.2 10.22c-2.57 1.31-4.3 4.12-4.94 7.28a10.21 10.21 0 0 0-.19 3.44 14.66 14.66 0 0 0 1.18 3.87 7.07 7.07 0 0 0 6.63 4.09c4.17-.23 8.36-7.77 8.14-12.07a8 8 0 0 0-.52-2.46V14a10.92 10.92 0 0 1 2-6c2.07-2.76 5.7-4.1 7.27-7.19a19.32 19.32 0 0 0-11.18.93 15.93 15.93 0 0 0-8.25 8.15z"/><path class="cls-11" d="M37.3 10.39a9.06 9.06 0 0 0-4 4.44 11.28 11.28 0 0 0-1 6.67 9.78 9.78 0 0 0 2.87 5.57 6.25 6.25 0 0 0 5.15 1.59A7.26 7.26 0 0 0 44.21 26 16.14 16.14 0 0 0 47 21.2a10.53 10.53 0 0 0 .8-4.83 7.76 7.76 0 0 0-.2-1.07 8.75 8.75 0 0 1-.27-.87 4.1 4.1 0 0 1 .06-.85 12.45 12.45 0 0 1 .68-3.18 11.35 11.35 0 0 1 3.92-5c1.7-1.4 3.58-2.63 4.64-4.65 0 .09.08.2.12.28a18.57 18.57 0 0 0-12.33 1.53 16.09 16.09 0 0 0-4.36 3.49 14.49 14.49 0 0 0-1.7 2.33c-.37.62-.64 1.29-1 1.93-.11.21-.44 0-.32-.19.39-.72.7-1.49 1.13-2.18a16.71 16.71 0 0 1 1.69-2.24 16.5 16.5 0 0 1 4.55-3.56A18.91 18.91 0 0 1 56.86.67.19.19 0 0 1 57 1a14 14 0 0 1-4.08 4.22 12.07 12.07 0 0 0-4.42 5.24 13 13 0 0 0-.73 3.64 4.36 4.36 0 0 0 .23 1.31 8 8 0 0 1 .21 1.69 12.26 12.26 0 0 1-1.1 4.9 16.42 16.42 0 0 1-3 4.73 6.89 6.89 0 0 1-3.86 2.36 6.67 6.67 0 0 1-5-1.48 9.44 9.44 0 0 1-3.06-5.17C31 17.91 33 12.2 37.13 10c.2-.06.38.27.17.39z"/><path class="cls-12" d="M39.5 26.13a6.88 6.88 0 0 1-7-6.77 7 7 0 0 1 14 0 6.88 6.88 0 0 1-7 6.77z"/><path class="cls-13" d="M39.43 24.34a4.95 4.95 0 1 1 5.1-4.95 5 5 0 0 1-5.1 4.95z"/><path class="cls-14" d="M38.76 23.12a3.06 3.06 0 1 1 3.16-3.05 3.11 3.11 0 0 1-3.16 3.05z"/><path class="cls-12" d="M37.67 18.56a1.07 1.07 0 1 1 1.1-1.07 1.08 1.08 0 0 1-1.1 1.07z"/><path class="cls-9" d="M25.21 10c2.58 1.3 4.3 4.12 4.95 7.28a10.21 10.21 0 0 1 .19 3.44 15 15 0 0 1-1.18 3.87 7.08 7.08 0 0 1-6.63 4.08c-4.18-.22-8.37-7.76-8.14-12.06a8.22 8.22 0 0 1 .51-2.46v-.37a10.91 10.91 0 0 0-2-6C10.82 5 7.2 3.67 5.62.59a19.18 19.18 0 0 1 11.19.93 15.93 15.93 0 0 1 8.24 8.14z"/><path class="cls-11" d="M25.31 9.8a9.34 9.34 0 0 1 4 4.4 12 12 0 0 1 1.21 6.31c-.48 4-2.92 8-7.11 8.32-3.48.31-6-3-7.5-5.83a15.51 15.51 0 0 1-1.64-5 8.16 8.16 0 0 1 .14-2.79 4.36 4.36 0 0 0 .29-1.36 15.16 15.16 0 0 0-.23-1.9 9.93 9.93 0 0 0-1.7-4 14.16 14.16 0 0 0-2.64-2.55C8.41 4 6.55 2.71 5.49.7A.2.2 0 0 1 5.6.42 18.94 18.94 0 0 1 18 1.9a16.17 16.17 0 0 1 4.55 3.56 16.78 16.78 0 0 1 1.72 2.24c.43.69.75 1.45 1.13 2.18.11.21-.21.4-.32.19a20.93 20.93 0 0 0-2.63-4.19A15.69 15.69 0 0 0 18 2.32 18.55 18.55 0 0 0 5.7.79c0-.09.07-.19.11-.28 1.85 3.52 6.05 4.76 8 8.25a11.19 11.19 0 0 1 1.08 3.05 7.71 7.71 0 0 1 .27 2.38 6.59 6.59 0 0 1-.25.75 6.91 6.91 0 0 0-.19 1 7.86 7.86 0 0 0-.06 1.46 10.76 10.76 0 0 0 .34 2.32 16.79 16.79 0 0 0 2.33 4.91A9.71 9.71 0 0 0 21 28.06a5.51 5.51 0 0 0 5-.37 8.07 8.07 0 0 0 3.67-4.81 10.34 10.34 0 0 0 .57-3.88 13.94 13.94 0 0 0-.76-3.59 9.41 9.41 0 0 0-4.33-5.29.18.18 0 1 1 .16-.32z"/><path class="cls-12" d="M22.94 25.88a6.89 6.89 0 0 1-7-6.78 7 7 0 0 1 14 0 6.89 6.89 0 0 1-7 6.78z"/><path class="cls-13" d="M23 24.09a5 5 0 1 1 5.11-4.95A5 5 0 0 1 23 24.09z"/><path class="cls-14" d="M23.66 22.87a3.06 3.06 0 1 1 3.17-3.06 3.11 3.11 0 0 1-3.17 3.06z"/><path class="cls-12" d="M24.76 18.3a1.07 1.07 0 1 1 0-2.13 1.07 1.07 0 1 1 0 2.13z"/><path class="cls-5" d="M31.26 34.26a.25.25 0 0 1-.46.06 23.88 23.88 0 0 0-2.91-4.67 5.69 5.69 0 0 1-1-1.53 3.2 3.2 0 0 1 .44-2.88 4.47 4.47 0 0 1 2.44-1.61 4.85 4.85 0 0 1 5.68 2.65 2 2 0 0 1 0 1.67.54.54 0 0 1-.09.12c-.46.45-3.36 3.53-4.1 6.19z"/><path class="cls-9" d="M31.5 7.14A4 4 0 0 1 34.15 3c.45-.16.64.57.19.74a3.27 3.27 0 0 0-2.1 3.39c.03.49-.7.49-.74.01z"/><path class="cls-9" d="M30.86 6.88a4 4 0 0 0-.58-3.26c-.27-.4.37-.78.64-.38a4.72 4.72 0 0 1 .65 3.85.37.37 0 0 1-.71-.21z"/><path class="cls-9" d="M30.73 7a3 3 0 0 0-1.61-2c-.43-.22-.05-.88.37-.66a3.74 3.74 0 0 1 2 2.45.37.37 0 0 1-.76.21z"/><ellipse class="cls-15" cx="89.4" cy="17.48" rx="29.8" ry="16.38"/><path class="cls-15" d="M60.12 16.38l4.07 7.38h-8.14z"/><path d="M76.85 21.81c0-.54 0-1.11-.06-1.7s0-1.29 0-2.07h-4.37v1.83c0 .58 0 1.21-.06 1.9a2.41 2.41 0 0 1-.07.56.7.7 0 0 1-.14.3.33.33 0 0 1-.21.12.9.9 0 0 1-.25 0 .61.61 0 0 1-.45-.18 1.36 1.36 0 0 1-.21-.81v-1.13-1.26-3.17-1.82c0-.5 0-.92.07-1.24a1.84 1.84 0 0 1 .23-.71.47.47 0 0 1 .42-.22.67.67 0 0 1 .45.16 1.13 1.13 0 0 1 .22.77V16.62c.75 0 1.49-.05 2.21-.05h2.14v-.37-1.82c0-.5 0-.92.07-1.24a1.84 1.84 0 0 1 .23-.71.47.47 0 0 1 .42-.22.67.67 0 0 1 .45.16 1.13 1.13 0 0 1 .22.77v8.69a2.41 2.41 0 0 1-.07.56.7.7 0 0 1-.14.3.33.33 0 0 1-.21.12.9.9 0 0 1-.25 0 .61.61 0 0 1-.45-.18 1.36 1.36 0 0 1-.19-.82zm7.25 1.08a4.08 4.08 0 0 1-1.7-.36 4 4 0 0 1-1.36-1 5.23 5.23 0 0 1-.93-1.68 7.1 7.1 0 0 1-.33-2.25 7.81 7.81 0 0 1 .28-2.17 5.11 5.11 0 0 1 .87-1.71 3.93 3.93 0 0 1 1.44-1.11 4.58 4.58 0 0 1 2-.41 4.64 4.64 0 0 1 1.74.33 4 4 0 0 1 1.44 1 4.66 4.66 0 0 1 1 1.65 6.75 6.75 0 0 1 .36 2.31 7.18 7.18 0 0 1-.3 2.09 4.93 4.93 0 0 1-.88 1.74 4.36 4.36 0 0 1-1.49 1.18 4.79 4.79 0 0 1-2.14.39zm0-1.41a3 3 0 0 0 1.44-.33 3.16 3.16 0 0 0 1-.9 3.87 3.87 0 0 0 .6-1.28 5.82 5.82 0 0 0 .19-1.5 4.93 4.93 0 0 0-.25-1.65 3.61 3.61 0 0 0-.66-1.23 2.83 2.83 0 0 0-1-.75 2.65 2.65 0 0 0-1.18-.27 2.69 2.69 0 0 0-1.32.32 3 3 0 0 0-.95.85 4.05 4.05 0 0 0-.5 1.26 5.85 5.85 0 0 0-.19 1.54 5.52 5.52 0 0 0 .22 1.62 4.15 4.15 0 0 0 .6 1.23 2.91 2.91 0 0 0 .92.8 2.39 2.39 0 0 0 1.11.29zm10.12-1.29c-.46-1-.87-2-1.23-2.93s-.65-1.79-.9-2.53c-.23 1.24-.42 2.49-.58 3.75s-.35 2.46-.59 3.61a.77.77 0 0 1-.33.53.93.93 0 0 1-.4.12.55.55 0 0 1-.59-.59c0-.23 0-.58.08-1s.13-1 .21-1.62.19-1.23.3-1.89.22-1.29.33-1.9l.36-1.74c.11-.5.2-.89.28-1.16a.8.8 0 0 1 .8-.69.73.73 0 0 1 .61.36 4.85 4.85 0 0 1 .54 1.08c.2.48.44 1.09.71 1.83S94.46 17 94.9 18c.43-1 .77-1.86 1-2.59s.5-1.35.68-1.83a4.85 4.85 0 0 1 .54-1.08.75.75 0 0 1 .63-.36.7.7 0 0 1 .52.18 1 1 0 0 1 .27.51c.07.28.16.67.26 1.17s.2 1 .31 1.65.24 1.23.35 1.89.21 1.29.3 1.89.16 1.14.21 1.63a9.62 9.62 0 0 1 .09 1.11.51.51 0 0 1-.17.39.64.64 0 0 1-.42.14.93.93 0 0 1-.4-.12.77.77 0 0 1-.33-.53q-.18-.86-.33-1.77l-.27-1.84-.24-1.88c-.08-.63-.17-1.25-.26-1.87q-.19.6-.45 1.32c-.17.48-.35 1-.54 1.45s-.38 1-.58 1.43-.4.89-.59 1.27a.74.74 0 0 1-.28.3.73.73 0 0 1-.35.09.81.81 0 0 1-.37-.09.67.67 0 0 1-.23-.27zm7.13.27c0-.32 0-.76-.06-1.31s0-1.11 0-1.69v-2.1a13.22 13.22 0 0 1 .14-1.74 1.44 1.44 0 0 1 1.41-1.33 13.85 13.85 0 0 1 1.63-.08H107.23a2.74 2.74 0 0 1 .53.09.69.69 0 0 1 .31.14.33.33 0 0 1 .14.19.88.88 0 0 1 0 .24.63.63 0 0 1-.2.51 1.59 1.59 0 0 1-.79.2h-3.74a.8.8 0 0 0-.55.18 1.13 1.13 0 0 0-.15.73v2.1h2.54a3.47 3.47 0 0 1 .78.09.63.63 0 0 1 .39.24.82.82 0 0 1 .1.44 1 1 0 0 1 0 .25.33.33 0 0 1-.12.2 1.07 1.07 0 0 1-.3.13 3.92 3.92 0 0 1-.55.08h-2.83v2.49a2.11 2.11 0 0 0 .06.41.6.6 0 0 0 .2.27 1 1 0 0 0 .42.15 5.11 5.11 0 0 0 .75 0h3.22c.35 0 .57.07.66.2a.89.89 0 0 1 .14.52.66.66 0 0 1-.12.42 1 1 0 0 1-.59.2 10 10 0 0 1-1.36.09h-2.49a4.27 4.27 0 0 1-1.11-.12 1.5 1.5 0 0 1-.71-.4 1.81 1.81 0 0 1-.4-.74 6.18 6.18 0 0 1-.08-1.05z"/></g></g></svg>